<svg width="87" height="74" viewBox="0 0 87 74" fill="none" xmlns="http://www.w3.org/2000/svg">
<path opacity="0.66" d="M27.5518 59.2954L76.5141 27.8009C76.6936 27.6906 76.909 27.8928 76.8192 28.0767L57.7404 65.3627C57.543 65.7304 57.1481 65.9326 56.7353 65.8774L27.8928 61.0972C27.0313 60.9501 26.798 59.7734 27.5518 59.2954Z" fill="url(#paint0_linear_1638_231)"/>
<path opacity="0.66" d="M76.6026 27.9308L31.9119 72.3136C31.194 73.0307 31.9119 74.2625 32.8632 73.9499L57.0392 66.0993C57.2725 66.0258 57.4879 65.8419 57.5956 65.6213L76.8 28.0779C76.8718 27.9676 76.7103 27.8389 76.6026 27.9308Z" fill="url(#paint1_linear_1638_231)"/>
<path d="M69.9446 17.6165C68.9754 17.6165 68.6164 18.9035 69.442 19.4183L78.2186 24.9708C78.5596 25.1914 78.9904 25.1546 79.3135 24.8972L86.1696 19.3448C86.8876 18.7748 86.4748 17.5981 85.5773 17.5981H69.9446V17.6165Z" fill="#004079"/>
<path opacity="0.64" d="M76.1367 26.993L1.27532 0.0580765C0.342025 -0.272864 -0.411807 0.88543 0.252271 1.63924L56.5015 64.9409C56.9502 65.4373 57.74 65.3454 58.0451 64.7386L76.6572 28.3535C76.9264 27.8387 76.6751 27.1952 76.1367 26.993Z" fill="url(#paint2_linear_1638_231)"/>
<defs>
<linearGradient id="paint0_linear_1638_231" x1="27.0966" y1="46.8243" x2="76.8354" y2="46.8243" gradientUnits="userSpaceOnUse">
<stop stop-color="#00B8D0"/>
<stop offset="0.19" stop-color="#009CBB"/>
<stop offset="0.5559" stop-color="#006A98"/>
<stop offset="0.8341" stop-color="#004C81"/>
<stop offset="0.99" stop-color="#004079"/>
<stop offset="1" stop-color="#004079"/>
</linearGradient>
<linearGradient id="paint1_linear_1638_231" x1="31.6122" y1="50.9556" x2="76.82" y2="50.9556" gradientUnits="userSpaceOnUse">
<stop stop-color="#00B8D0"/>
<stop offset="0.19" stop-color="#009CBB"/>
<stop offset="0.5559" stop-color="#006A98"/>
<stop offset="0.8341" stop-color="#004C81"/>
<stop offset="0.99" stop-color="#004079"/>
<stop offset="1" stop-color="#004079"/>
</linearGradient>
<linearGradient id="paint2_linear_1638_231" x1="-0.0112041" y1="32.641" x2="76.7697" y2="32.641" gradientUnits="userSpaceOnUse">
<stop stop-color="#004079"/>
<stop offset="0.0881" stop-color="#004079"/>
<stop offset="0.2212" stop-color="#00487F"/>
<stop offset="0.4265" stop-color="#005E8E"/>
<stop offset="0.6784" stop-color="#0081A8"/>
<stop offset="0.965" stop-color="#00B2CB"/>
<stop offset="0.9993" stop-color="#00B8D0"/>
</linearGradient>
</defs>
</svg>
