<svg width="282" height="92" viewBox="0 0 282 92" fill="none" xmlns="http://www.w3.org/2000/svg">
<path opacity="0.64" d="M35.0033 73.7257L97.1998 34.5605C97.4363 34.4096 97.7157 34.6683 97.5868 34.9054L73.3574 81.2484C73.121 81.7226 72.605 81.9597 72.089 81.8735L35.4548 75.9459C34.3583 75.7735 34.0574 74.3077 35.0033 73.7257Z" fill="url(#paint0_linear_2433_6737)"/>
<path opacity="0.64" d="M97.3346 34.7099L40.5559 89.9119C39.6314 90.7957 40.5559 92.3261 41.7598 91.9381L72.4818 82.1737C72.7828 82.0875 73.0408 81.872 73.1913 81.5702L97.5926 34.8823C97.6786 34.753 97.4636 34.5805 97.3346 34.7099Z" fill="url(#paint1_linear_2433_6737)"/>
<path opacity="0.64" d="M88.8584 21.8848C87.6329 21.8848 87.1814 23.5015 88.2134 24.1265L99.3498 31.0241C99.7798 31.2828 100.339 31.2612 100.747 30.9379L109.454 24.0403C110.357 23.329 109.841 21.8633 108.702 21.8633H88.8584V21.8848Z" fill="url(#paint2_linear_2433_6737)"/>
<path opacity="0.64" d="M96.73 33.5462L1.61863 0.0714526C0.436189 -0.33809 -0.531263 1.10609 0.328695 2.03295L71.7912 80.7514C72.3502 81.3765 73.3821 81.2472 73.7691 80.4928L97.418 35.2706C97.7404 34.6024 97.418 33.7833 96.73 33.5462Z" fill="url(#paint3_linear_2433_6737)"/>
<path d="M135.537 58.488H145.534V63.3378H129.453V32.9023H135.537V58.488Z" fill="white"/>
<path d="M149.833 35.2739C149.123 34.5842 148.758 33.7435 148.758 32.7305C148.758 31.7174 149.102 30.8552 149.833 30.187C150.542 29.4972 151.424 29.1523 152.499 29.1523C153.574 29.1523 154.455 29.4972 155.165 30.187C155.874 30.8767 156.239 31.7174 156.239 32.7305C156.239 33.7435 155.874 34.6057 155.165 35.2739C154.455 35.9637 153.552 36.3086 152.499 36.3086C151.424 36.3086 150.542 35.9637 149.833 35.2739ZM155.487 39.1754V63.3384H149.403V39.1754H155.487Z" fill="white"/>
<path d="M171.548 57.713L177.632 39.1758H184.103L175.181 63.3388H167.785L158.906 39.1758H165.42L171.548 57.713Z" fill="white"/>
<path d="M196.705 39.9274C197.974 39.1946 199.414 38.8281 201.027 38.8281V45.2299H199.414C197.501 45.2299 196.06 45.6826 195.093 46.5879C194.126 47.4932 193.631 49.0667 193.631 51.2868V63.3145H187.547V39.173H193.631V42.9236C194.405 41.6518 195.437 40.6603 196.705 39.9274Z" fill="white"/>
<path d="M227.34 53.0983H209.733C209.883 54.8442 210.485 56.2022 211.56 57.1937C212.635 58.1852 213.946 58.681 215.516 58.681C217.773 58.681 219.386 57.711 220.353 55.7711H226.91C226.222 58.099 224.889 60.0174 222.912 61.5047C220.934 63.0135 218.526 63.7464 215.645 63.7464C213.323 63.7464 211.238 63.2291 209.41 62.1944C207.561 61.1598 206.142 59.6941 205.11 57.8188C204.078 55.922 203.562 53.7449 203.562 51.2877C203.562 48.7873 204.078 46.5887 205.089 44.7134C206.099 42.8166 207.518 41.3724 209.346 40.3593C211.173 39.3462 213.28 38.8289 215.645 38.8289C217.924 38.8289 219.988 39.3247 221.794 40.3162C223.6 41.3077 225.018 42.7088 226.007 44.5194C226.996 46.33 227.512 48.4209 227.512 50.7703C227.512 51.611 227.448 52.387 227.34 53.0983ZM221.192 49.0028C221.17 47.4293 220.59 46.1792 219.493 45.2307C218.397 44.2823 217.042 43.8081 215.451 43.8081C213.946 43.8081 212.678 44.2608 211.646 45.1876C210.614 46.1145 209.991 47.3647 209.754 49.0028H221.192ZM220.289 32.8151L210.292 37.3848V33.0307L220.289 27.8359V32.8151Z" fill="white"/>
<path d="M254.145 53.0975H236.537C236.688 54.8434 237.29 56.2014 238.365 57.1929C239.44 58.1844 240.751 58.6802 242.321 58.6802C244.578 58.6802 246.19 57.7102 247.158 55.7703H253.715C253.027 58.0982 251.694 60.0166 249.716 61.5039C247.738 63.0127 245.33 63.7456 242.45 63.7456C240.128 63.7456 238.042 63.2283 236.215 62.1936C234.366 61.159 232.947 59.6933 231.915 57.818C230.883 55.9212 230.367 53.7441 230.367 51.2868C230.367 48.7865 230.883 46.5879 231.894 44.7126C232.904 42.8158 234.323 41.3716 236.15 40.3585C237.978 39.3454 240.085 38.8281 242.45 38.8281C244.728 38.8281 246.792 39.3239 248.598 40.3154C250.404 41.3069 251.823 42.708 252.812 44.5186C253.801 46.3292 254.317 48.4201 254.317 50.7695C254.317 51.6102 254.274 52.3861 254.145 53.0975ZM248.018 49.002C247.996 47.4285 247.416 46.1783 246.319 45.2299C245.223 44.2815 243.869 43.8073 242.278 43.8073C240.773 43.8073 239.504 44.26 238.472 45.1868C237.44 46.1137 236.817 47.3639 236.58 49.002H248.018Z" fill="white"/>
<path d="M263.197 62.1741C261.348 61.1395 259.887 59.6737 258.833 57.7985C257.78 55.9016 257.242 53.7246 257.242 51.2673C257.242 48.7885 257.78 46.6115 258.876 44.7362C259.973 42.8394 261.456 41.3952 263.326 40.3605C265.218 39.3259 267.304 38.8086 269.626 38.8086C271.947 38.8086 274.054 39.3259 275.925 40.3605C277.817 41.3952 279.3 42.8609 280.375 44.7362C281.471 46.633 282.009 48.8101 282.009 51.2673C282.009 53.7461 281.45 55.9232 280.332 57.7985C279.214 59.6953 277.709 61.1395 275.817 62.1741C273.925 63.2087 271.797 63.7261 269.454 63.7261C267.132 63.7261 265.046 63.2087 263.197 62.1741ZM272.571 57.6045C273.538 57.0656 274.312 56.2681 274.893 55.1903C275.473 54.1126 275.753 52.8193 275.753 51.2673C275.753 48.9825 275.151 47.215 273.947 45.9648C272.743 44.7146 271.281 44.1111 269.54 44.1111C267.798 44.1111 266.336 44.7362 265.175 45.9648C263.993 47.1935 263.412 48.961 263.412 51.2673C263.412 53.5737 263.993 55.3196 265.132 56.5698C266.272 57.7985 267.712 58.4235 269.454 58.4235C270.572 58.402 271.603 58.1433 272.571 57.6045Z" fill="white"/>
<path d="M131.303 78.5534H133.969V78.9414H130.852V71.7852H131.303V78.5534Z" fill="white"/>
<path d="M135.047 74.6528C135.284 74.2217 135.585 73.8984 135.993 73.6613C136.402 73.4242 136.853 73.3164 137.369 73.3164C137.949 73.3164 138.444 73.4673 138.852 73.7475C139.261 74.0277 139.54 74.3941 139.712 74.8468V73.4026H140.164V78.9422H139.712V77.4765C139.562 77.9292 139.261 78.2956 138.852 78.5758C138.444 78.856 137.949 79.0069 137.369 79.0069C136.853 79.0069 136.402 78.8991 135.993 78.662C135.585 78.4249 135.284 78.1016 135.047 77.6705C134.811 77.2394 134.703 76.7436 134.703 76.1617C134.725 75.5797 134.832 75.0839 135.047 74.6528ZM139.433 74.8684C139.239 74.5019 138.96 74.2217 138.616 74.0062C138.272 73.8122 137.885 73.7044 137.455 73.7044C137.004 73.7044 136.617 73.8122 136.273 73.9846C135.929 74.1786 135.671 74.4588 135.477 74.8253C135.284 75.1917 135.198 75.6228 135.198 76.1401C135.198 76.6359 135.284 77.0885 135.477 77.4549C135.671 77.8214 135.929 78.1016 136.273 78.2956C136.617 78.4896 137.004 78.5974 137.455 78.5974C137.885 78.5974 138.272 78.4896 138.616 78.2956C138.96 78.1016 139.239 77.8214 139.433 77.4334C139.626 77.067 139.734 76.6359 139.734 76.1401C139.734 75.6874 139.626 75.2563 139.433 74.8684Z" fill="white"/>
<path d="M145.903 73.5968C146.247 73.3812 146.699 73.2734 147.236 73.2734V73.7476H147.086C146.548 73.7476 146.097 73.8985 145.731 74.2218C145.366 74.5452 145.194 75.0409 145.194 75.7307V78.9208H144.742V73.3812H145.194V74.5236C145.323 74.1356 145.559 73.8123 145.903 73.5968Z" fill="white"/>
<path d="M153.23 76.3322H148.457C148.479 76.828 148.586 77.2375 148.78 77.5824C148.995 77.9273 149.253 78.1859 149.575 78.3368C149.919 78.5093 150.263 78.5955 150.672 78.5955C151.209 78.5955 151.661 78.4661 152.048 78.1859C152.413 77.9273 152.65 77.5608 152.736 77.0866H153.209C153.101 77.6471 152.822 78.1213 152.37 78.4661C151.919 78.811 151.36 78.9835 150.672 78.9835C150.156 78.9835 149.704 78.8757 149.296 78.6386C148.887 78.4015 148.565 78.0782 148.328 77.6471C148.092 77.216 147.984 76.7202 147.984 76.1382C147.984 75.5562 148.092 75.0605 148.328 74.6294C148.565 74.1983 148.866 73.875 149.274 73.6379C149.683 73.4008 150.156 73.293 150.672 73.293C151.209 73.293 151.661 73.4008 152.048 73.6379C152.435 73.875 152.736 74.1767 152.951 74.5432C153.166 74.9311 153.252 75.3407 153.252 75.7718C153.252 76.0304 153.252 76.2244 153.23 76.3322ZM152.542 74.7156C152.349 74.3707 152.091 74.1336 151.747 73.9612C151.403 73.7887 151.059 73.7025 150.672 73.7025C150.285 73.7025 149.919 73.7887 149.597 73.9612C149.274 74.1336 148.995 74.3923 148.801 74.7156C148.586 75.0605 148.479 75.47 148.479 75.9658H152.822C152.822 75.47 152.736 75.0605 152.542 74.7156Z" fill="white"/>
<path d="M158.757 73.896C159.165 74.3055 159.38 74.9091 159.38 75.7066V78.9614H158.929V75.7281C158.929 75.0599 158.757 74.5642 158.434 74.2193C158.09 73.8744 157.639 73.702 157.08 73.702C156.478 73.702 156.005 73.896 155.661 74.284C155.295 74.672 155.123 75.2324 155.123 75.9868V78.9829H154.672V73.4433H155.123V74.6073C155.274 74.1977 155.532 73.8744 155.897 73.6589C156.263 73.4433 156.671 73.3355 157.166 73.3355C157.811 73.2709 158.327 73.4864 158.757 73.896Z" fill="white"/>
<path d="M161.681 73.7891V77.4534C161.681 77.8629 161.767 78.1431 161.896 78.294C162.046 78.4449 162.304 78.5311 162.691 78.5311H163.314V78.9407H162.627C162.154 78.9407 161.788 78.8329 161.573 78.5958C161.337 78.3587 161.229 77.9923 161.229 77.4534V73.7891H160.391V73.4011H161.229V72H161.681V73.4011H163.314V73.7891H161.681Z" fill="white"/>
<path d="M165.7 73.5968C166.044 73.3812 166.495 73.2734 167.033 73.2734V73.7476H166.882C166.345 73.7476 165.893 73.8985 165.528 74.2218C165.163 74.5452 164.991 75.0409 164.991 75.7307V78.9208H164.539V73.3812H164.991V74.5236C165.12 74.1356 165.356 73.8123 165.7 73.5968Z" fill="white"/>
<path d="M173.035 76.333H168.262C168.284 76.8288 168.391 77.2383 168.585 77.5832C168.8 77.9281 169.057 78.1868 169.38 78.3376C169.724 78.5101 170.068 78.5963 170.476 78.5963C171.014 78.5963 171.465 78.467 171.852 78.1868C172.218 77.9281 172.454 77.5617 172.54 77.0875H173.013C172.906 77.6479 172.626 78.1221 172.175 78.467C171.723 78.8119 171.164 78.9843 170.476 78.9843C169.96 78.9843 169.509 78.8765 169.1 78.6394C168.692 78.4023 168.37 78.079 168.133 77.6479C167.897 77.2168 167.789 76.721 167.789 76.1391C167.789 75.5571 167.897 75.0613 168.133 74.6302C168.37 74.1991 168.671 73.8758 169.079 73.6387C169.487 73.4016 169.96 73.2938 170.476 73.2938C171.014 73.2938 171.465 73.4016 171.852 73.6387C172.239 73.8758 172.54 74.1776 172.755 74.544C172.97 74.932 173.056 75.3415 173.056 75.7726C173.078 76.0313 173.056 76.2253 173.035 76.333ZM172.347 74.7164C172.153 74.3716 171.895 74.1344 171.551 73.962C171.207 73.7896 170.863 73.7033 170.476 73.7033C170.089 73.7033 169.724 73.7896 169.401 73.962C169.079 74.1344 168.8 74.3931 168.606 74.7164C168.391 75.0613 168.284 75.4708 168.284 75.9666H172.626C172.626 75.4708 172.54 75.0613 172.347 74.7164ZM171.315 71.6772L169.315 72.9489V72.5825L171.315 71.2461V71.6772Z" fill="white"/>
<path d="M179.394 76.3322H174.621C174.643 76.828 174.75 77.2375 174.944 77.5824C175.159 77.9273 175.417 78.1859 175.739 78.3368C176.083 78.5093 176.427 78.5955 176.836 78.5955C177.373 78.5955 177.825 78.4661 178.212 78.1859C178.577 77.9273 178.814 77.5608 178.9 77.0866H179.373C179.265 77.6471 178.986 78.1213 178.534 78.4661C178.083 78.811 177.524 78.9835 176.836 78.9835C176.32 78.9835 175.868 78.8757 175.46 78.6386C175.051 78.4015 174.729 78.0782 174.492 77.6471C174.256 77.216 174.148 76.7202 174.148 76.1382C174.148 75.5562 174.256 75.0605 174.492 74.6294C174.729 74.1983 175.03 73.875 175.438 73.6379C175.847 73.4008 176.32 73.293 176.836 73.293C177.373 73.293 177.825 73.4008 178.212 73.6379C178.599 73.875 178.9 74.1767 179.115 74.5432C179.33 74.9311 179.416 75.3407 179.416 75.7718C179.416 76.0304 179.416 76.2244 179.394 76.3322ZM178.706 74.7156C178.513 74.3707 178.255 74.1336 177.911 73.9612C177.567 73.7887 177.223 73.7025 176.836 73.7025C176.449 73.7025 176.083 73.7887 175.761 73.9612C175.438 74.1336 175.159 74.3923 174.965 74.7156C174.75 75.0605 174.643 75.47 174.643 75.9658H178.986C178.986 75.47 178.9 75.0605 178.706 74.7156Z" fill="white"/>
<path d="M187.78 73.896C188.189 74.3055 188.404 74.9091 188.404 75.7066V78.9614H187.952V75.7281C187.952 75.0599 187.78 74.5642 187.458 74.2193C187.114 73.8744 186.662 73.702 186.103 73.702C185.501 73.702 185.028 73.896 184.684 74.284C184.319 74.672 184.147 75.2324 184.147 75.9868V78.9829H183.695V73.4433H184.147V74.6073C184.297 74.1977 184.555 73.8744 184.921 73.6589C185.286 73.4433 185.695 73.3355 186.189 73.3355C186.834 73.2709 187.372 73.4864 187.78 73.896Z" fill="white"/>
<path d="M191.069 78.662C190.661 78.4249 190.338 78.1016 190.102 77.6705C189.865 77.2394 189.758 76.7436 189.758 76.1617C189.758 75.5797 189.887 75.0839 190.123 74.6528C190.36 74.2217 190.682 73.8984 191.112 73.6613C191.542 73.4242 191.994 73.3164 192.51 73.3164C193.026 73.3164 193.499 73.4242 193.907 73.6613C194.316 73.8984 194.638 74.2217 194.875 74.6528C195.111 75.0839 195.219 75.5797 195.219 76.1617C195.219 76.7436 195.111 77.2394 194.853 77.6705C194.617 78.1016 194.294 78.4249 193.864 78.662C193.434 78.8991 192.983 79.0069 192.467 79.0069C191.951 79.0285 191.478 78.8991 191.069 78.662ZM193.585 78.3387C193.929 78.1663 194.208 77.886 194.423 77.5196C194.638 77.1532 194.746 76.7005 194.746 76.1617C194.746 75.6228 194.638 75.1917 194.423 74.8037C194.208 74.4373 193.929 74.157 193.585 73.9846C193.241 73.8122 192.875 73.7259 192.467 73.7259C192.058 73.7259 191.693 73.8122 191.349 73.9846C191.005 74.157 190.725 74.4373 190.51 74.8037C190.295 75.1701 190.188 75.6228 190.188 76.1617C190.188 76.7005 190.295 77.1532 190.489 77.5196C190.704 77.886 190.962 78.1663 191.306 78.3387C191.65 78.5111 192.015 78.6189 192.424 78.6189C192.832 78.6189 193.241 78.5111 193.585 78.3387Z" fill="white"/>
<path d="M201.263 73.4006V78.9402H200.811V77.7331C200.661 78.1642 200.403 78.466 200.038 78.7031C199.672 78.9187 199.264 79.0264 198.791 79.0264C198.124 79.0264 197.587 78.8324 197.178 78.4229C196.77 78.0134 196.555 77.4098 196.555 76.6123V73.379H197.006V76.5692C197.006 77.2374 197.178 77.7331 197.501 78.078C197.823 78.4229 198.296 78.5953 198.855 78.5953C199.457 78.5953 199.93 78.4013 200.296 78.0134C200.661 77.6254 200.833 77.0649 200.833 76.3105V73.3359H201.263V73.4006Z" fill="white"/>
<path d="M204.804 78.4462L206.847 73.4023H207.341L205.041 78.942H204.568L202.289 73.4023H202.784L204.804 78.4462Z" fill="white"/>
<path d="M213.3 76.3322H208.528C208.549 76.828 208.657 77.2375 208.85 77.5824C209.065 77.9273 209.323 78.1859 209.646 78.3368C209.99 78.5093 210.334 78.5955 210.742 78.5955C211.28 78.5955 211.731 78.4661 212.118 78.1859C212.483 77.9273 212.72 77.5608 212.806 77.0866H213.279C213.171 77.6471 212.892 78.1213 212.44 78.4661C211.989 78.811 211.43 78.9835 210.742 78.9835C210.226 78.9835 209.775 78.8757 209.366 78.6386C208.958 78.4015 208.635 78.0782 208.399 77.6471C208.162 77.216 208.055 76.7202 208.055 76.1382C208.055 75.5562 208.162 75.0605 208.399 74.6294C208.635 74.1983 208.936 73.875 209.345 73.6379C209.753 73.4008 210.226 73.293 210.742 73.293C211.28 73.293 211.731 73.4008 212.118 73.6379C212.505 73.875 212.806 74.1767 213.021 74.5432C213.236 74.9311 213.322 75.3407 213.322 75.7718C213.322 76.0304 213.322 76.2244 213.3 76.3322ZM212.612 74.7156C212.419 74.3707 212.161 74.1336 211.817 73.9612C211.473 73.7887 211.129 73.7025 210.742 73.7025C210.355 73.7025 209.99 73.7887 209.667 73.9612C209.345 74.1336 209.065 74.3923 208.872 74.7156C208.657 75.0605 208.549 75.47 208.549 75.9658H212.892C212.892 75.47 212.806 75.0605 212.612 74.7156Z" fill="white"/>
<path d="M215.17 71.375V78.9408H214.719V71.375H215.17Z" fill="white"/>
<path d="M217.295 71.375V78.9408H216.844V71.375H217.295Z" fill="white"/>
<path d="M223.941 76.3322H219.168C219.19 76.828 219.297 77.2375 219.491 77.5824C219.706 77.9273 219.964 78.1859 220.286 78.3368C220.63 78.5093 220.974 78.5955 221.383 78.5955C221.92 78.5955 222.372 78.4661 222.759 78.1859C223.124 77.9273 223.361 77.5608 223.447 77.0866H223.92C223.812 77.6471 223.533 78.1213 223.081 78.4661C222.63 78.811 222.071 78.9835 221.383 78.9835C220.867 78.9835 220.415 78.8757 220.007 78.6386C219.598 78.4015 219.276 78.0782 219.039 77.6471C218.803 77.216 218.695 76.7202 218.695 76.1382C218.695 75.5562 218.803 75.0605 219.039 74.6294C219.276 74.1983 219.577 73.875 219.985 73.6379C220.394 73.4008 220.867 73.293 221.383 73.293C221.92 73.293 222.372 73.4008 222.759 73.6379C223.146 73.875 223.447 74.1767 223.662 74.5432C223.877 74.9311 223.963 75.3407 223.963 75.7718C223.963 76.0304 223.963 76.2244 223.941 76.3322ZM223.253 74.7156C223.06 74.3707 222.802 74.1336 222.458 73.9612C222.114 73.7887 221.77 73.7025 221.383 73.7025C220.996 73.7025 220.63 73.7887 220.308 73.9612C219.985 74.1336 219.706 74.3923 219.512 74.7156C219.297 75.0605 219.19 75.47 219.19 75.9658H223.533C223.533 75.47 223.447 75.0605 223.253 74.7156Z" fill="white"/>
<path d="M232.091 73.7456C232.499 74.0258 232.779 74.3923 232.951 74.8234V73.3792H233.402V79.0912C233.402 79.6086 233.295 80.0397 233.058 80.4276C232.843 80.8156 232.542 81.1174 232.155 81.3114C231.768 81.5269 231.338 81.6347 230.887 81.6347C230.199 81.6347 229.618 81.4623 229.167 81.139C228.715 80.7941 228.414 80.363 228.264 79.781H228.715C228.844 80.2336 229.102 80.5785 229.468 80.8372C229.833 81.0958 230.306 81.2252 230.865 81.2252C231.252 81.2252 231.596 81.139 231.919 80.9665C232.241 80.7941 232.478 80.5354 232.65 80.2121C232.822 79.8888 232.908 79.5008 232.908 79.0697V77.4531C232.757 77.9057 232.456 78.2722 232.048 78.5524C231.639 78.8326 231.145 78.9835 230.564 78.9835C230.048 78.9835 229.597 78.8757 229.188 78.6386C228.78 78.4015 228.479 78.0782 228.242 77.6471C228.006 77.216 227.898 76.7202 227.898 76.1382C227.898 75.5562 228.006 75.0605 228.242 74.6294C228.479 74.1983 228.78 73.875 229.188 73.6379C229.597 73.4008 230.048 73.293 230.564 73.293C231.188 73.3145 231.682 73.4654 232.091 73.7456ZM232.65 74.8665C232.456 74.5 232.177 74.2198 231.833 74.0043C231.489 73.8103 231.102 73.7025 230.672 73.7025C230.22 73.7025 229.833 73.8103 229.489 73.9827C229.145 74.1767 228.887 74.4569 228.694 74.8234C228.5 75.1898 228.414 75.6209 228.414 76.1382C228.414 76.634 228.5 77.0866 228.694 77.4531C228.887 77.8195 229.145 78.0997 229.489 78.2937C229.833 78.4877 230.22 78.5955 230.672 78.5955C231.102 78.5955 231.489 78.4877 231.833 78.2937C232.177 78.0997 232.456 77.8195 232.65 77.4315C232.843 77.0651 232.951 76.634 232.951 76.1382C232.951 75.6856 232.843 75.2545 232.65 74.8665Z" fill="white"/>
<path d="M240.019 76.333H235.246C235.268 76.8288 235.375 77.2383 235.569 77.5832C235.784 77.9281 236.042 78.1868 236.364 78.3376C236.708 78.5101 237.052 78.5963 237.461 78.5963C237.998 78.5963 238.45 78.467 238.837 78.1868C239.202 77.9281 239.439 77.5617 239.525 77.0875H239.998C239.89 77.6479 239.611 78.1221 239.159 78.467C238.708 78.8119 238.149 78.9843 237.461 78.9843C236.945 78.9843 236.493 78.8765 236.085 78.6394C235.676 78.4023 235.354 78.079 235.117 77.6479C234.881 77.2168 234.773 76.721 234.773 76.1391C234.773 75.5571 234.881 75.0613 235.117 74.6302C235.354 74.1991 235.655 73.8758 236.063 73.6387C236.472 73.4016 236.945 73.2938 237.461 73.2938C237.998 73.2938 238.45 73.4016 238.837 73.6387C239.224 73.8758 239.525 74.1776 239.74 74.544C239.955 74.932 240.041 75.3415 240.041 75.7726C240.041 76.0313 240.041 76.2253 240.019 76.333ZM239.331 74.7164C239.138 74.3716 238.88 74.1344 238.536 73.962C238.192 73.7896 237.848 73.7033 237.461 73.7033C237.074 73.7033 236.708 73.7896 236.386 73.962C236.063 74.1344 235.784 74.3931 235.59 74.7164C235.375 75.0613 235.268 75.4708 235.268 75.9666H239.611C239.611 75.4708 239.525 75.0613 239.331 74.7164ZM238.299 71.6772L236.3 72.9489V72.5825L238.299 71.2461V71.6772Z" fill="white"/>
<path d="M245.546 73.896C245.954 74.3055 246.169 74.9091 246.169 75.7066V78.9614H245.718V75.7281C245.718 75.0599 245.546 74.5642 245.223 74.2193C244.879 73.8744 244.428 73.702 243.869 73.702C243.267 73.702 242.794 73.896 242.45 74.284C242.084 74.672 241.912 75.2324 241.912 75.9868V78.9829H241.461V73.4433H241.912V74.6073C242.063 74.1977 242.321 73.8744 242.686 73.6589C243.052 73.4433 243.46 73.3355 243.955 73.3355C244.578 73.2709 245.116 73.4864 245.546 73.896Z" fill="white"/>
<path d="M252.73 76.333H247.957C247.979 76.8288 248.086 77.2383 248.28 77.5832C248.495 77.9281 248.753 78.1868 249.075 78.3376C249.419 78.5101 249.763 78.5963 250.172 78.5963C250.709 78.5963 251.161 78.467 251.548 78.1868C251.913 77.9281 252.15 77.5617 252.236 77.0875H252.709C252.601 77.6479 252.322 78.1221 251.87 78.467C251.419 78.8119 250.86 78.9843 250.172 78.9843C249.656 78.9843 249.204 78.8765 248.796 78.6394C248.387 78.4023 248.065 78.079 247.828 77.6479C247.592 77.2168 247.484 76.721 247.484 76.1391C247.484 75.5571 247.592 75.0613 247.828 74.6302C248.065 74.1991 248.366 73.8758 248.774 73.6387C249.183 73.4016 249.656 73.2938 250.172 73.2938C250.709 73.2938 251.161 73.4016 251.548 73.6387C251.935 73.8758 252.236 74.1776 252.451 74.544C252.666 74.932 252.752 75.3415 252.752 75.7726C252.752 76.0313 252.752 76.2253 252.73 76.333ZM252.042 74.7164C251.849 74.3716 251.591 74.1344 251.247 73.962C250.903 73.7896 250.559 73.7033 250.172 73.7033C249.785 73.7033 249.419 73.7896 249.097 73.962C248.774 74.1344 248.495 74.3931 248.301 74.7164C248.086 75.0613 247.979 75.4708 247.979 75.9666H252.322C252.322 75.4708 252.236 75.0613 252.042 74.7164ZM251.01 71.6772L249.011 72.9489V72.5825L251.01 71.2461V71.6772Z" fill="white"/>
<path d="M255.333 73.5968C255.677 73.3812 256.128 73.2734 256.666 73.2734V73.7476H256.515C255.978 73.7476 255.526 73.8985 255.161 74.2218C254.795 74.5236 254.623 75.0409 254.623 75.7307V78.9208H254.172V73.3812H254.623V74.5236C254.731 74.1356 254.989 73.8123 255.333 73.5968Z" fill="white"/>
<path d="M257.758 74.6528C257.995 74.2217 258.295 73.8984 258.704 73.6613C259.112 73.4242 259.564 73.3164 260.08 73.3164C260.66 73.3164 261.155 73.4673 261.563 73.7475C261.972 74.0277 262.251 74.3941 262.423 74.8468V73.4026H262.875V78.9422H262.423V77.4765C262.273 77.9292 261.972 78.2956 261.563 78.5758C261.155 78.856 260.66 79.0069 260.08 79.0069C259.564 79.0069 259.112 78.8991 258.704 78.662C258.295 78.4249 257.995 78.1016 257.758 77.6705C257.522 77.2394 257.414 76.7436 257.414 76.1617C257.414 75.5797 257.543 75.0839 257.758 74.6528ZM262.122 74.8684C261.929 74.5019 261.649 74.2217 261.305 74.0062C260.961 73.8122 260.574 73.7044 260.144 73.7044C259.693 73.7044 259.306 73.8122 258.962 73.9846C258.618 74.1786 258.36 74.4588 258.167 74.8253C257.973 75.1917 257.887 75.6228 257.887 76.1401C257.887 76.6359 257.973 77.0885 258.167 77.4549C258.36 77.8214 258.618 78.1016 258.962 78.2956C259.306 78.4896 259.693 78.5974 260.144 78.5974C260.574 78.5974 260.961 78.4896 261.305 78.2956C261.649 78.1016 261.929 77.8214 262.122 77.4334C262.316 77.067 262.423 76.6359 262.423 76.1401C262.423 75.6874 262.337 75.2563 262.122 74.8684Z" fill="white"/>
<path d="M265.243 73.7891V77.4534C265.243 77.8629 265.329 78.1431 265.458 78.294C265.609 78.4449 265.867 78.5311 266.254 78.5311H266.877V78.9407H266.189C265.716 78.9407 265.351 78.8329 265.136 78.5958C264.899 78.3587 264.792 77.9923 264.792 77.4534V73.7891H263.953V73.4011H264.792V72H265.243V73.4011H266.877V73.7891H265.243Z" fill="white"/>
<path d="M268.061 72.0432C267.975 71.9785 267.953 71.8708 267.953 71.763C267.953 71.6552 267.996 71.5474 268.061 71.4828C268.147 71.4181 268.233 71.375 268.34 71.375C268.448 71.375 268.534 71.4181 268.62 71.4828C268.706 71.569 268.727 71.6552 268.727 71.763C268.727 71.8923 268.684 71.9785 268.62 72.0432C268.555 72.1079 268.448 72.151 268.34 72.151C268.233 72.151 268.125 72.1294 268.061 72.0432ZM268.555 73.4012V78.9408H268.104V73.4012H268.555Z" fill="white"/>
<path d="M271.265 78.662C270.856 78.4249 270.534 78.1016 270.297 77.6705C270.061 77.2394 269.953 76.7436 269.953 76.1617C269.953 75.5797 270.082 75.0839 270.319 74.6528C270.555 74.2217 270.878 73.8984 271.308 73.6613C271.716 73.4242 272.189 73.3164 272.705 73.3164C273.221 73.3164 273.694 73.4242 274.102 73.6613C274.511 73.8984 274.833 74.2217 275.07 74.6528C275.306 75.0839 275.414 75.5797 275.414 76.1617C275.414 76.7436 275.306 77.2394 275.048 77.6705C274.812 78.1016 274.489 78.4249 274.059 78.662C273.629 78.8991 273.178 79.0069 272.662 79.0069C272.146 79.0285 271.673 78.8991 271.265 78.662ZM273.78 78.3387C274.124 78.1663 274.403 77.886 274.618 77.5196C274.833 77.1532 274.941 76.7005 274.941 76.1617C274.941 75.6228 274.833 75.1917 274.618 74.8037C274.403 74.4373 274.124 74.157 273.78 73.9846C273.436 73.8122 273.07 73.7259 272.662 73.7259C272.254 73.7259 271.888 73.8122 271.544 73.9846C271.2 74.157 270.921 74.4373 270.706 74.8037C270.491 75.1701 270.383 75.6228 270.383 76.1617C270.383 76.7005 270.491 77.1532 270.684 77.5196C270.899 77.886 271.157 78.1663 271.501 78.3387C271.845 78.5111 272.211 78.6189 272.619 78.6189C273.07 78.6189 273.436 78.5111 273.78 78.3387Z" fill="white"/>
<path d="M280.89 73.896C281.298 74.3055 281.513 74.9091 281.513 75.7066V78.9614H281.062V75.7281C281.062 75.0599 280.889 74.5642 280.567 74.2193C280.223 73.8744 279.772 73.702 279.213 73.702C278.611 73.702 278.138 73.896 277.794 74.284C277.428 74.672 277.256 75.2324 277.256 75.9868V78.9829H276.805V73.4433H277.256V74.6073C277.407 74.1977 277.665 73.8744 278.03 73.6589C278.396 73.4433 278.804 73.3355 279.299 73.3355C279.944 73.2709 280.481 73.4864 280.89 73.896Z" fill="white"/>
<defs>
<linearGradient id="paint0_linear_2433_6737" x1="34.4317" y1="58.2028" x2="97.619" y2="58.2028" gradientUnits="userSpaceOnUse">
<stop stop-color="white"/>
<stop offset="0.9993" stop-color="#00B8D0"/>
</linearGradient>
<linearGradient id="paint1_linear_2433_6737" x1="40.1756" y1="63.3367" x2="97.6068" y2="63.3367" gradientUnits="userSpaceOnUse">
<stop stop-color="white"/>
<stop offset="0.9993" stop-color="#00B8D0"/>
</linearGradient>
<linearGradient id="paint2_linear_2433_6737" x1="87.6533" y1="26.5472" x2="109.926" y2="26.5472" gradientUnits="userSpaceOnUse">
<stop stop-color="white"/>
<stop offset="0.9993" stop-color="#00B8D0"/>
</linearGradient>
<linearGradient id="paint3_linear_2433_6737" x1="-0.0017438" y1="40.5651" x2="97.5394" y2="40.5651" gradientUnits="userSpaceOnUse">
<stop stop-color="white"/>
<stop offset="0.9993" stop-color="#00B8D0"/>
</linearGradient>
</defs>
</svg>
