<svg width="333" height="333" viewBox="0 0 333 333" fill="none" xmlns="http://www.w3.org/2000/svg">
<path d="M257.382 101.287H257.223L233.29 94.0909C233.143 94.0301 233.025 93.9167 232.958 93.773C232.891 93.6291 232.88 93.4655 232.928 93.3142C232.975 93.1629 233.079 93.035 233.216 92.9558C233.354 92.8765 233.516 92.8518 233.67 92.8863L257.572 100.05C257.654 100.072 257.73 100.11 257.796 100.162C257.862 100.215 257.915 100.281 257.954 100.355C257.993 100.43 258.016 100.512 258.021 100.596C258.026 100.68 258.014 100.764 257.985 100.843C257.955 100.977 257.877 101.096 257.766 101.177C257.655 101.259 257.519 101.298 257.382 101.287Z" fill="#282928"/>
<path d="M281.063 88.0985L280.873 87.9717L268.352 86.7037V86.1014C268.384 85.8162 268.954 78.7787 272.06 76.6231C272.509 76.3005 273.025 76.0867 273.57 75.9987C274.115 75.9105 274.672 75.9507 275.199 76.1159C280.24 77.5424 281.475 82.234 281.76 84.9285C282.046 87.623 281.603 87.8133 281.412 87.9083L281.063 88.0985ZM269.715 85.5943L280.619 86.672C280.683 84.77 280.112 78.8104 274.882 77.3522C274.539 77.235 274.171 77.2026 273.813 77.2577C273.454 77.3129 273.113 77.4541 272.822 77.6692C270.856 79.0323 269.969 83.3752 269.715 85.5943Z" fill="#282928"/>
<path d="M285.154 88.7965C285.154 88.7965 303.412 56.8746 296.882 53.7363C290.352 50.598 282.237 71.9321 282.428 74.2779C282.428 74.2779 276.214 79.8254 274.914 89.7476L285.154 88.7965Z" fill="#282928"/>
<path d="M286.832 79.0949H279.668L277.131 72.0258C276.979 71.4203 276.863 70.8064 276.783 70.1872C276.752 69.6799 276.752 65.0201 279.826 63.4985C280.967 62.9278 281.284 62.0719 281.665 61.1843C282.045 60.2968 282.553 58.9336 284.391 58.9336H284.454C286.99 58.9336 289.78 60.4553 290.446 60.8357C290.68 60.8466 290.907 60.9125 291.112 61.0282C291.316 61.1438 291.489 61.306 291.619 61.5014C293.457 64.1959 288.1 76.337 287.023 78.7145L286.832 79.0949ZM280.556 77.8269H286.008C288.575 72.1208 291.619 63.7204 290.572 62.2304C290.548 62.1864 290.51 62.1509 290.465 62.1283C290.42 62.1058 290.369 62.0971 290.319 62.1036H290.097L289.938 61.9769C289.906 61.9769 286.958 60.1699 284.454 60.1699H284.423C283.439 60.1699 283.25 60.5821 282.838 61.6281C282.426 62.6743 281.95 63.8155 280.397 64.6079C277.956 65.7809 278.05 69.9652 278.05 70.1237C278.116 70.6153 278.21 71.1024 278.337 71.5819L280.556 77.8269Z" fill="#282928"/>
<path d="M258.144 85.1184L259.158 82.3605C259.216 82.2075 259.314 82.0733 259.442 81.9727C259.571 81.872 259.725 81.8087 259.888 81.79L263.343 81.3144C263.481 81.2973 263.615 81.2519 263.735 81.181C263.855 81.1101 263.958 81.0152 264.04 80.9023C264.674 80.0147 266.322 77.8591 267.369 78.5565C268.415 79.2539 271.395 81.8533 272.504 82.8678C272.633 82.9803 272.729 83.1243 272.785 83.2855C272.84 83.4466 272.852 83.6195 272.821 83.7871L272.124 87.4959L257.891 88.6371L258.144 85.1184Z" fill="white"/>
<path d="M257.191 89.336L257.508 84.9613L258.554 82.1401C258.655 81.8763 258.828 81.6455 259.052 81.4723C259.275 81.2991 259.541 81.1902 259.822 81.1574L263.245 80.6818C263.303 80.6807 263.359 80.6656 263.409 80.638C263.457 80.6104 263.5 80.5711 263.531 80.5233C264.704 78.875 266.352 77.1314 267.715 78.0191C269.078 78.9066 271.709 81.3159 272.915 82.3937C273.13 82.5778 273.293 82.8154 273.387 83.0823C273.482 83.3494 273.504 83.6367 273.453 83.9153L272.66 88.0996L257.191 89.336ZM258.776 85.2466L258.586 87.9411L271.583 86.9268L272.185 83.6616C272.204 83.6055 272.205 83.5448 272.189 83.4879C272.171 83.4311 272.136 83.381 272.09 83.3446C271.139 82.4887 268.033 79.7625 267.018 79.0651C266.764 78.9066 265.814 79.5089 264.577 81.2525C264.442 81.4381 264.272 81.5953 264.076 81.7149C263.88 81.8346 263.663 81.9144 263.436 81.9498L259.981 82.4253C259.932 82.4279 259.885 82.4442 259.847 82.4723C259.808 82.5004 259.777 82.539 259.759 82.5838L258.776 85.2466Z" fill="#282928"/>
<path d="M286.611 79.5394H286.548C286.453 79.5394 283.821 79.2223 281.983 74.4356C281.959 74.323 281.977 74.2055 282.033 74.105C282.089 74.0045 282.18 73.9278 282.289 73.889C282.396 73.8503 282.515 73.8523 282.623 73.8945C282.729 73.9366 282.818 74.0163 282.87 74.1186C284.488 78.2713 286.643 78.5883 286.643 78.5883C286.769 78.6108 286.883 78.6774 286.964 78.7762C287.045 78.8749 287.089 78.9994 287.087 79.1272C287.072 79.2421 287.015 79.3473 286.927 79.4231C286.84 79.4991 286.727 79.5404 286.611 79.5394Z" fill="white"/>
<path d="M280.871 87.6559C280.739 87.6507 280.614 87.5938 280.523 87.4974C280.396 87.3389 276.909 83.5666 278.62 79.6675C278.645 79.6124 278.679 79.5628 278.722 79.5216C278.767 79.4804 278.818 79.4485 278.874 79.4277C278.931 79.407 278.99 79.3979 279.05 79.401C279.11 79.404 279.168 79.4192 279.223 79.4456C279.282 79.4698 279.335 79.5055 279.379 79.5507C279.425 79.596 279.46 79.6497 279.484 79.7089C279.507 79.7681 279.519 79.8313 279.518 79.8949C279.516 79.9587 279.503 80.0215 279.476 80.0795C278.019 83.3447 281.188 86.8317 281.22 86.8634C281.267 86.905 281.305 86.9563 281.331 87.0137C281.356 87.0711 281.37 87.1332 281.37 87.1963C281.37 87.2592 281.356 87.3215 281.331 87.3789C281.305 87.4363 281.267 87.4874 281.22 87.5291C281.173 87.5726 281.119 87.6061 281.059 87.6279C280.999 87.6497 280.934 87.6592 280.871 87.6559Z" fill="white"/>
<path d="M256.906 85.2148L289.463 86.039V121.797L256.906 122.938V85.2148Z" fill="#6192BF"/>
<path d="M283.821 122.018C283.654 122.018 283.492 121.951 283.373 121.833C283.254 121.714 283.188 121.552 283.188 121.384V90.1594C283.188 89.9913 283.254 89.83 283.373 89.7111C283.492 89.5922 283.654 89.5254 283.821 89.5254C283.99 89.5254 284.151 89.5922 284.27 89.7111C284.389 89.83 284.455 89.9913 284.455 90.1594V121.384C284.455 121.552 284.389 121.714 284.27 121.833C284.151 121.951 283.99 122.018 283.821 122.018Z" fill="#282928"/>
<path d="M263.09 107.372C263.09 107.372 268.32 105.185 271.236 104.646C274.153 104.107 277.132 105.121 275.453 105.85C273.772 106.58 272.536 106.992 272.536 106.992C272.536 106.992 278.591 109.179 279.415 109.876C280.239 110.574 281.095 112.413 281.602 112.571C282.11 112.729 282.173 114.346 281.254 114.505C280.335 114.663 281.191 116.28 280.207 116.217C279.225 116.153 277.132 116.787 276.657 117.168C276.181 117.547 272.695 116.946 272.124 116.946C271.554 116.946 267.432 116.946 266.957 116.692L261.441 114.029L263.09 107.372Z" fill="white"/>
<path d="M194.743 120.622C194.743 120.622 214.555 86.0062 207.487 82.5826C200.417 79.159 191.605 102.332 191.795 104.868C191.795 104.868 185.075 110.891 183.648 121.669L194.743 120.622Z" fill="#282928"/>
<path d="M189.323 118.214H181.588L178.735 110.193V110.13C178.735 109.813 178.355 103.061 181.747 101.381C183.015 100.778 183.395 99.7957 183.776 98.8764C184.156 97.9571 184.726 96.4673 186.692 96.4355H186.755C189.514 96.4355 192.525 98.1156 193.254 98.5278C193.5 98.5423 193.738 98.6127 193.952 98.7335C194.167 98.8544 194.351 99.0225 194.49 99.2252C196.455 102.142 190.655 115.233 189.481 117.865L189.323 118.214ZM182.476 116.946H188.499C191.288 110.764 194.585 101.603 193.444 99.9542C193.381 99.8591 193.318 99.7957 193.096 99.7957H192.906L192.747 99.7006C192.715 99.669 189.481 97.7035 186.755 97.7035H186.724C185.646 97.7352 185.392 98.179 184.948 99.3202C184.505 100.461 183.998 101.698 182.317 102.522C180.637 103.346 179.909 108.165 180.003 109.94L182.476 116.946Z" fill="#282928"/>
<path d="M164.058 127.152C163.941 127.15 163.826 127.117 163.726 127.056C163.626 126.993 163.544 126.907 163.487 126.804C163.393 126.582 160.793 121.542 163.931 119.703C165.44 118.803 167.152 118.301 168.908 118.244C169.923 117.199 173.187 114.22 175.027 115.868C175.151 115.978 175.228 116.132 175.24 116.299C175.252 116.464 175.198 116.628 175.09 116.755C174.974 116.882 174.815 116.96 174.643 116.971C174.472 116.983 174.302 116.928 174.171 116.818C173.378 116.089 171.001 117.865 169.638 119.291L169.447 119.513H169.13C167.519 119.524 165.941 119.973 164.565 120.813C162.505 122.017 164.597 126.17 164.629 126.202C164.667 126.276 164.689 126.358 164.696 126.442C164.701 126.525 164.691 126.609 164.665 126.689C164.638 126.769 164.596 126.842 164.542 126.906C164.486 126.969 164.418 127.02 164.343 127.058C164.26 127.118 164.161 127.151 164.058 127.152Z" fill="#282928"/>
<path d="M169.604 117.389L170.682 114.505C170.747 114.338 170.854 114.193 170.993 114.081C171.133 113.97 171.298 113.897 171.475 113.87L175.215 113.395C175.373 113.374 175.524 113.321 175.661 113.238C175.797 113.156 175.915 113.049 176.008 112.92C176.674 111.936 178.481 109.654 179.59 110.383C180.7 111.113 185.613 115.455 185.613 115.455L184.757 120.084L168.59 124.236L169.573 117.58C169.573 117.516 169.604 117.452 169.604 117.389Z" fill="white"/>
<path d="M167.797 125.093L168.938 117.485C168.96 117.377 168.991 117.271 169.033 117.168L170.111 114.284C170.202 114.01 170.37 113.769 170.595 113.588C170.821 113.408 171.092 113.297 171.379 113.27L175.12 112.762C175.271 112.739 175.406 112.659 175.5 112.54C176.737 110.797 178.512 108.895 179.938 109.846C181.364 110.797 185.867 114.823 186.056 114.981L186.311 115.234L185.296 120.592L167.797 125.093ZM170.207 117.612V117.675L169.351 123.382L184.186 119.578L184.915 115.678C183.933 114.791 180.382 111.652 179.241 110.924C178.924 110.702 177.91 111.336 176.515 113.27C176.377 113.473 176.2 113.645 175.992 113.776C175.784 113.907 175.552 113.993 175.31 114.03L171.538 114.506C171.482 114.523 171.431 114.552 171.388 114.589C171.343 114.628 171.309 114.675 171.284 114.727L170.207 117.612Z" fill="#282928"/>
<path d="M204.348 122.05C203.788 122.012 203.234 121.905 202.7 121.732C201.576 121.361 200.397 121.179 199.214 121.193C196.107 121.351 192.303 119.513 192.144 119.45L191.32 119.037L197.311 113.205H197.596C197.723 113.205 201.241 113.49 202.89 114.092L203.397 114.283C205.267 114.948 207.836 115.899 207.836 117.547C207.836 119.196 206.314 121.003 205.3 121.732C205.025 121.937 204.691 122.05 204.348 122.05ZM199.562 119.925C200.748 119.955 201.922 120.157 203.049 120.528C203.682 120.686 204.348 120.876 204.539 120.75C205.395 120.147 206.567 118.657 206.567 117.58C206.567 116.502 204.063 115.899 202.985 115.518L202.447 115.329C201.21 114.853 198.643 114.599 197.787 114.505L193.539 118.657C194.775 119.165 197.184 120.052 199.15 119.957L199.562 119.925Z" fill="#282928"/>
<path d="M55.7067 189.824C54.7653 189.819 53.8495 189.517 53.0916 188.958C52.3337 188.4 51.773 187.615 51.4906 186.717L38.8739 146.87C38.5245 145.748 38.6313 144.532 39.1712 143.488C39.7111 142.443 40.6407 141.654 41.7587 141.291L57.26 136.377C58.3866 136.029 59.6052 136.14 60.6501 136.687C61.6952 137.233 62.482 138.17 62.8393 139.293L75.4559 179.141C75.804 180.268 75.6928 181.485 75.1465 182.531C74.6003 183.576 73.6632 184.363 72.5394 184.72L57.0698 189.602C56.6313 189.753 56.1704 189.827 55.7067 189.824ZM58.5914 137.455C58.2672 137.446 57.9442 137.499 57.6404 137.614L42.1391 142.496C41.3448 142.764 40.6858 143.33 40.3014 144.076C39.917 144.821 39.8371 145.687 40.0786 146.489L52.6952 186.336C52.9569 187.135 53.5226 187.8 54.27 188.185C55.0174 188.571 55.8864 188.647 56.6894 188.397L72.159 183.483C72.9617 183.235 73.6329 182.679 74.0253 181.935C74.4176 181.192 74.4988 180.324 74.2513 179.521L61.6346 139.674C61.4312 139.027 61.026 138.463 60.4783 138.063C59.9306 137.664 59.2693 137.451 58.5914 137.455Z" fill="#282928"/>
<path d="M55.2709 141.246L46.4477 144.044C44.4451 144.68 43.3368 146.818 43.9721 148.82L52.2335 174.864C52.8687 176.867 55.007 177.975 57.0097 177.34L65.8327 174.54C67.8353 173.905 68.9437 171.767 68.3085 169.765L60.0471 143.721C59.4118 141.719 57.2734 140.61 55.2709 141.246Z" fill="#6192BF"/>
<path d="M63.0909 183.896C62.5328 183.896 61.9873 183.731 61.5235 183.421C61.0595 183.111 60.6978 182.67 60.4843 182.154C60.2707 181.639 60.2149 181.072 60.3238 180.525C60.4326 179.978 60.7013 179.475 61.0959 179.08C61.4905 178.686 61.9931 178.417 62.5404 178.308C63.0877 178.199 63.655 178.255 64.1705 178.468C64.6861 178.682 65.1266 179.044 65.4367 179.508C65.7467 179.972 65.9122 180.517 65.9122 181.075C65.9122 181.824 65.6149 182.541 65.0858 183.07C64.5568 183.6 63.8391 183.896 63.0909 183.896ZM63.0909 179.521C62.7836 179.521 62.4833 179.612 62.2279 179.783C61.9725 179.954 61.7733 180.196 61.6558 180.48C61.5382 180.765 61.5075 181.077 61.5674 181.378C61.6274 181.679 61.7752 181.956 61.9924 182.173C62.2098 182.391 62.4865 182.538 62.7879 182.598C63.0891 182.658 63.4015 182.627 63.6853 182.511C63.9691 182.393 64.2117 182.193 64.3824 181.938C64.5531 181.683 64.6441 181.382 64.6441 181.075C64.6441 180.664 64.4805 180.268 64.1892 179.977C63.8979 179.686 63.5028 179.521 63.0909 179.521Z" fill="#282928"/>
<path d="M56.0215 129.943H55.9898C55.908 129.943 55.827 129.927 55.7518 129.894C55.6766 129.862 55.6087 129.815 55.5523 129.756C55.496 129.696 55.4523 129.626 55.424 129.549C55.3957 129.473 55.3832 129.39 55.3876 129.308C55.3876 128.738 55.9581 115.71 59.6037 112.032C59.7314 111.951 59.8833 111.916 60.034 111.931C60.1848 111.948 60.3253 112.016 60.4325 112.122C60.5397 112.23 60.6071 112.371 60.6235 112.522C60.64 112.672 60.6046 112.824 60.523 112.951C57.1944 116.248 56.6555 129.214 56.6555 129.341C56.6404 129.5 56.5678 129.65 56.4513 129.76C56.3347 129.871 56.1821 129.936 56.0215 129.943Z" fill="#282928"/>
<path d="M60.745 118.245C60.5873 118.246 60.435 118.189 60.3178 118.083C60.2005 117.978 60.1269 117.832 60.111 117.675L59.6672 112.825L54.4684 116.947C54.3368 117.033 54.1774 117.069 54.0213 117.044C53.8654 117.02 53.7239 116.939 53.6248 116.816C53.5257 116.692 53.4761 116.537 53.4855 116.379C53.4949 116.222 53.5629 116.073 53.6759 115.963L59.5721 111.272C59.6834 111.187 59.8152 111.132 59.9541 111.116C60.093 111.098 60.2341 111.118 60.3629 111.172C60.4917 111.227 60.6037 111.315 60.6875 111.428C60.7714 111.54 60.8241 111.672 60.8402 111.811L61.3791 117.548C61.3878 117.631 61.3799 117.716 61.356 117.796C61.332 117.877 61.2923 117.951 61.2392 118.015C61.1861 118.081 61.1208 118.134 61.0468 118.174C60.9729 118.213 60.8919 118.237 60.8084 118.245H60.745Z" fill="#282928"/>
<path d="M125.732 74.1514C125.891 74.2398 126.068 74.292 126.25 74.304C126.432 74.3161 126.614 74.2877 126.784 74.2211C126.954 74.1544 127.106 74.0511 127.231 73.9184C127.357 73.7859 127.451 73.6273 127.508 73.454C130.265 64.1975 143.896 14.1432 114.922 17.5984C80.8129 21.6561 96.4093 57.6356 125.732 74.1514Z" fill="#6192BF"/>
<path d="M115.367 49.2035C121.109 49.2035 125.764 44.5483 125.764 38.8059C125.764 33.0634 121.109 28.4082 115.367 28.4082C109.624 28.4082 104.969 33.0634 104.969 38.8059C104.969 44.5483 109.624 49.2035 115.367 49.2035Z" fill="white"/>
<path d="M97.0425 89.6842C97.5498 88.3845 95.8379 88.4479 94.4748 87.8773L49.0803 68.8573C48.4999 68.6198 47.8578 68.5781 47.2516 68.7383C46.6452 68.8983 46.1076 69.2518 45.7201 69.7448C42.7719 73.8342 37.4464 84.3903 35.0371 89.3038C34.3081 90.762 34.9737 92.4105 36.5587 93.0761C46.7662 97.3874 81.4144 110.638 85.4403 111.081C88.325 111.399 94.8869 95.0732 97.0425 89.6842ZM75.2645 105.186L44.357 93.4883C44.1258 93.4162 43.9268 93.2663 43.7939 93.0639C43.6609 92.8617 43.6022 92.6195 43.6278 92.3787C43.8815 90.9523 44.04 87.9407 41.6307 86.5776C41.5091 86.5206 41.4005 86.4391 41.3115 86.3384C41.2226 86.2378 41.1553 86.1199 41.1137 85.9921C41.0721 85.8645 41.0571 85.7295 41.0697 85.5957C41.0824 85.462 41.1222 85.3322 41.187 85.2144L45.2763 77.86C45.4194 77.6184 45.6321 77.4256 45.8866 77.3068C46.1411 77.1879 46.4256 77.1488 46.7028 77.1944C48.5414 77.448 52.6307 77.7016 54.3425 75.546C54.5375 75.3201 54.797 75.1595 55.086 75.0859C55.3752 75.0122 55.6799 75.029 55.9592 75.1339L84.8379 86.6093C85.022 86.6637 85.186 86.7706 85.31 86.9171C85.4339 87.0635 85.5123 87.2431 85.5353 87.4334C85.6939 88.8283 86.2645 92.2202 88.2299 93.2029C88.3463 93.2569 88.4504 93.3341 88.5362 93.4294C88.622 93.5249 88.6876 93.6367 88.7291 93.7581C88.7707 93.8795 88.7871 94.0081 88.7775 94.1361C88.768 94.2639 88.7327 94.3887 88.6736 94.5026L85.4086 101.54C85.2727 101.799 85.0588 102.009 84.7971 102.14C84.5355 102.271 84.2392 102.316 83.9504 102.269C82.1435 102.016 78.4028 101.825 77.0081 104.552C76.8457 104.853 76.5784 105.084 76.257 105.2C75.9355 105.317 75.5823 105.312 75.2645 105.186Z" fill="#282928"/>
<path d="M75.2655 105.186L44.358 93.4886C44.1268 93.4165 43.9278 93.2666 43.7948 93.0643C43.6619 92.862 43.6032 92.6198 43.6289 92.379C43.8825 90.9526 44.041 87.941 41.6318 86.5779C41.5101 86.5209 41.4015 86.4395 41.3125 86.3388C41.2236 86.238 41.1562 86.1203 41.1147 85.9925C41.0731 85.8648 41.0581 85.7298 41.0708 85.596C41.0833 85.4623 41.1233 85.3325 41.188 85.2148L45.2773 77.8604C45.4204 77.6187 45.6331 77.4259 45.8876 77.3071C46.1421 77.1883 46.4266 77.1491 46.7038 77.1948C48.5424 77.4483 52.6317 77.7019 54.3435 75.5463C54.5385 75.3205 54.798 75.1599 55.0871 75.0862C55.3762 75.0125 55.6809 75.0293 55.9602 75.1342L84.839 86.6097C85.023 86.664 85.187 86.771 85.311 86.9174C85.4349 87.0639 85.5133 87.2434 85.5364 87.4338C85.6949 88.8287 86.2655 92.2205 88.2309 93.2033C88.3472 93.2574 88.4514 93.3344 88.5373 93.4297C88.6231 93.5252 88.6887 93.637 88.7302 93.7584C88.7716 93.8798 88.7881 94.0084 88.7786 94.1364C88.769 94.2643 88.7337 94.389 88.6747 94.503L85.4096 101.54C85.2737 101.799 85.0598 102.009 84.7981 102.14C84.5364 102.271 84.2402 102.316 83.9514 102.269C82.1445 102.016 78.4038 101.826 77.0091 104.552C76.8467 104.853 76.5794 105.084 76.258 105.201C75.9365 105.318 75.5833 105.312 75.2655 105.186Z" fill="white"/>
<path d="M75.7744 105.914C75.5256 105.918 75.2782 105.875 75.0454 105.787L44.1378 94.0895C43.7734 93.9618 43.4641 93.7122 43.262 93.3832C43.06 93.0541 42.9774 92.6654 43.0283 92.2826C43.2502 90.8561 43.3453 88.2567 41.3165 87.1471C41.1239 87.0442 40.9537 86.9041 40.8158 86.7348C40.6779 86.5655 40.5749 86.3705 40.513 86.161C40.451 85.9517 40.4314 85.732 40.455 85.5149C40.4787 85.2979 40.5453 85.0876 40.6508 84.8965L44.7401 77.5421C44.94 77.193 45.2406 76.9124 45.6026 76.7371C45.9646 76.5617 46.3711 76.4998 46.7689 76.5594C48.3856 76.7813 52.3165 77.0666 53.8381 75.1646C54.1194 74.8251 54.4996 74.5818 54.9256 74.4682C55.3517 74.3546 55.8024 74.3764 56.2156 74.5306L85.0943 86.0059C85.3812 86.1134 85.6331 86.2971 85.8232 86.5374C86.0131 86.7776 86.1337 87.0652 86.1721 87.3691C86.2989 88.3835 86.7744 91.7754 88.4863 92.6313C88.6806 92.7196 88.8552 92.8461 88.9994 93.0035C89.1437 93.1609 89.2547 93.3457 89.3258 93.5471C89.3968 93.7484 89.4264 93.962 89.4129 94.175C89.3994 94.3881 89.343 94.5962 89.2471 94.7869L85.9819 101.824C85.7831 102.202 85.472 102.508 85.0914 102.701C84.7111 102.894 84.28 102.964 83.858 102.902C82.3998 102.68 78.8177 102.427 77.5814 104.836C77.4104 105.166 77.1506 105.442 76.8314 105.632C76.5121 105.822 76.1462 105.92 75.7744 105.914ZM46.5153 77.7956C46.3842 77.7942 46.2547 77.8253 46.1386 77.8861C46.0223 77.9469 45.9231 78.0357 45.8496 78.1444L41.7603 85.4988C41.7338 85.546 41.7179 85.5982 41.7132 85.6521C41.7085 85.706 41.7155 85.7603 41.7335 85.8113C41.7515 85.8622 41.7801 85.9088 41.8175 85.9479C41.8549 85.987 41.9003 86.0175 41.9505 86.0377C44.7401 87.591 44.4865 91.078 44.2647 92.4728C44.2329 92.6947 44.4232 92.8215 44.5816 92.885L75.5209 104.582C75.6863 104.652 75.8715 104.658 76.0411 104.599C76.2107 104.541 76.3529 104.422 76.4402 104.265C78.0569 101.127 82.3047 101.381 84.0483 101.634C84.2001 101.663 84.3573 101.646 84.4989 101.583C84.6405 101.521 84.7598 101.417 84.8407 101.285L88.1059 94.248C88.1274 94.2065 88.1405 94.1611 88.1442 94.1145C88.1478 94.0679 88.1422 94.021 88.1274 93.9766C88.1125 93.9324 88.089 93.8914 88.0581 93.8563C88.0272 93.8212 87.9895 93.7927 87.9474 93.7725C85.6966 92.6313 85.0626 89.0175 84.9041 87.4959C84.9041 87.3691 84.7773 87.2423 84.6188 87.1789L55.7401 75.7035C55.5782 75.6576 55.4071 75.657 55.2449 75.7017C55.0828 75.7464 54.9361 75.8348 54.8208 75.957C52.9504 78.2711 48.8928 78.1126 46.6104 77.8274L46.5153 77.7956Z" fill="#282928"/>
<path d="M75.7744 105.914C75.5256 105.918 75.2782 105.875 75.0454 105.787L44.1378 94.0895C43.7734 93.9618 43.4641 93.7122 43.262 93.3832C43.06 93.0541 42.9774 92.6654 43.0283 92.2826C43.2502 90.8561 43.3453 88.2567 41.3165 87.1471C41.1239 87.0442 40.9537 86.9041 40.8158 86.7348C40.6779 86.5655 40.5749 86.3705 40.513 86.161C40.451 85.9517 40.4314 85.732 40.455 85.5149C40.4787 85.2979 40.5453 85.0876 40.6508 84.8965L44.7401 77.5421C44.94 77.193 45.2406 76.9124 45.6026 76.7371C45.9646 76.5617 46.3711 76.4998 46.7689 76.5594C48.3856 76.7813 52.3165 77.0666 53.8381 75.1646C54.1194 74.8251 54.4996 74.5818 54.9256 74.4682C55.3517 74.3546 55.8024 74.3764 56.2156 74.5306L85.0943 86.0059C85.3812 86.1134 85.6331 86.2971 85.8232 86.5374C86.0131 86.7776 86.1337 87.0652 86.1721 87.3691C86.2989 88.3835 86.7744 91.7754 88.4863 92.6313C88.6806 92.7196 88.8552 92.8461 88.9994 93.0035C89.1437 93.1609 89.2547 93.3457 89.3258 93.5471C89.3968 93.7484 89.4264 93.962 89.4129 94.175C89.3994 94.3881 89.343 94.5962 89.2471 94.7869L85.9819 101.824C85.7831 102.202 85.472 102.508 85.0914 102.701C84.7111 102.894 84.28 102.964 83.858 102.902C82.3998 102.68 78.8177 102.427 77.5814 104.836C77.4104 105.166 77.1506 105.442 76.8314 105.632C76.5121 105.822 76.1462 105.92 75.7744 105.914ZM46.5153 77.7956C46.3842 77.7942 46.2547 77.8253 46.1386 77.8861C46.0223 77.9469 45.9231 78.0357 45.8496 78.1444L41.7603 85.4988C41.7338 85.546 41.7179 85.5982 41.7132 85.6521C41.7085 85.706 41.7155 85.7603 41.7335 85.8113C41.7515 85.8622 41.7801 85.9088 41.8175 85.9479C41.8549 85.987 41.9003 86.0175 41.9505 86.0377C44.7401 87.591 44.4865 91.078 44.2647 92.4728C44.2329 92.6947 44.4232 92.8215 44.5816 92.885L75.5209 104.582C75.6863 104.652 75.8715 104.658 76.0411 104.599C76.2107 104.541 76.3529 104.422 76.4402 104.265C78.0569 101.127 82.3047 101.381 84.0483 101.634C84.2001 101.663 84.3573 101.646 84.4989 101.583C84.6405 101.521 84.7598 101.417 84.8407 101.285L88.1059 94.248C88.1274 94.2065 88.1405 94.1611 88.1442 94.1145C88.1478 94.0679 88.1422 94.021 88.1274 93.9766C88.1125 93.9324 88.089 93.8914 88.0581 93.8563C88.0272 93.8212 87.9895 93.7927 87.9474 93.7725C85.6966 92.6313 85.0626 89.0175 84.9041 87.4959C84.9041 87.3691 84.7773 87.2423 84.6188 87.1789L55.7401 75.7035C55.5782 75.6576 55.4071 75.657 55.2449 75.7017C55.0828 75.7464 54.9361 75.8348 54.8208 75.957C52.9504 78.2711 48.8928 78.1126 46.6104 77.8274L46.5153 77.7956Z" fill="#282928"/>
<path d="M64.0127 95.1369L63.7273 95.0735C60.8744 93.4568 59.3528 91.7133 59.3211 89.9381C59.2893 88.1628 60.272 87.0534 62.3008 85.7537C65.8829 83.503 69.4968 85.5001 69.6553 85.5952C69.8019 85.6756 69.9108 85.8106 69.9582 85.9709C70.0057 86.1312 69.988 86.3038 69.9089 86.4511C69.8224 86.5999 69.6817 86.7094 69.5162 86.7567C69.3507 86.804 69.1733 86.7853 69.0212 86.7046C68.8945 86.6096 65.9147 84.9929 62.9665 86.8315C61.3498 87.8459 60.5574 88.892 60.589 89.9064C60.6208 90.9208 61.9522 92.6009 64.3297 93.964C64.4762 94.0444 64.5851 94.1795 64.6326 94.3398C64.6801 94.5001 64.6624 94.6727 64.5832 94.82C64.5258 94.9195 64.4424 95.0017 64.3419 95.0575C64.2414 95.1133 64.1276 95.1408 64.0127 95.1369Z" fill="#282928"/>
<path d="M82.3365 73.4524C82.2134 73.4552 82.0923 73.4221 81.9878 73.3573C81.8497 73.2609 81.7532 73.1157 81.7179 72.951C81.6826 72.7862 81.711 72.6143 81.7976 72.4698C82.0511 72.0576 88.518 62.0404 92.5756 57.8243C92.6277 57.7502 92.695 57.688 92.7731 57.6422C92.8512 57.5962 92.9382 57.5676 93.0284 57.5581C93.1184 57.5487 93.2095 57.5587 93.2954 57.5874C93.3813 57.6162 93.4602 57.6629 93.5264 57.7246C93.5927 57.7863 93.645 57.8616 93.6798 57.9453C93.7146 58.0289 93.731 58.119 93.7281 58.2096C93.7251 58.3002 93.7027 58.389 93.6625 58.4702C93.6222 58.5514 93.5652 58.623 93.4949 58.6802C89.5007 62.8012 82.9388 73.0721 82.8754 73.1672C82.8148 73.2542 82.7342 73.3255 82.6405 73.3751C82.5467 73.4247 82.4425 73.4512 82.3365 73.4524Z" fill="#282928"/>
<path d="M93.4616 65.5598C93.2935 65.5598 93.1322 65.4929 93.0133 65.374C92.8944 65.2552 92.8276 65.0939 92.8276 64.9257V58.6491L85.6951 59.7587C85.6117 59.7721 85.5265 59.7688 85.4444 59.7489C85.3623 59.7289 85.285 59.6929 85.2171 59.6426C85.1492 59.5924 85.092 59.5291 85.0489 59.4565C85.0058 59.3839 84.9776 59.3035 84.966 59.2198C84.9382 59.056 84.9757 58.8879 85.0706 58.7516C85.1654 58.6153 85.31 58.5216 85.4732 58.4906L93.6201 57.2227L93.8737 57.4129C94.0087 57.5481 94.088 57.7292 94.0957 57.9201V64.9257C94.0957 65.0091 94.0792 65.0914 94.0474 65.1684C94.0155 65.2453 93.9688 65.3152 93.91 65.374C93.851 65.433 93.7812 65.4796 93.7043 65.5115C93.6273 65.5433 93.5449 65.5598 93.4616 65.5598Z" fill="#282928"/>
<path d="M154.96 40.4855C154.832 40.483 154.705 40.4425 154.599 40.3693C154.491 40.2961 154.408 40.1932 154.359 40.0734C154.328 39.9943 154.314 39.9101 154.317 39.8256C154.32 39.741 154.34 39.6579 154.375 39.5811C154.41 39.5043 154.461 39.4353 154.523 39.3784C154.586 39.3213 154.66 39.2774 154.738 39.2492C155.309 39.0589 169.194 34.0186 178.324 38.8054C178.47 38.8858 178.579 39.0209 178.627 39.1811C178.674 39.3414 178.657 39.514 178.577 39.6613C178.54 39.7366 178.489 39.8037 178.426 39.8589C178.363 39.9142 178.288 39.9563 178.209 39.9828C178.129 40.0093 178.045 40.0197 177.962 40.0135C177.878 40.0073 177.796 39.9846 177.721 39.9466C169.099 35.3817 155.309 40.3904 155.182 40.4538L154.96 40.4855Z" fill="#282928"/>
<path d="M172.203 42.356C172.066 42.367 171.93 42.3282 171.819 42.2467C171.708 42.1651 171.63 42.0464 171.6 41.9123C171.577 41.8311 171.569 41.746 171.578 41.6619C171.588 41.5777 171.613 41.4962 171.655 41.4224C171.697 41.3485 171.752 41.2837 171.819 41.2317C171.886 41.1798 171.963 41.1417 172.044 41.1198L177.845 39.4396L173.154 29.9613C173.116 29.8865 173.093 29.8049 173.086 29.7213C173.081 29.6376 173.091 29.5534 173.117 29.4738C173.144 29.3941 173.186 29.3207 173.242 29.2574C173.296 29.1941 173.364 29.1425 173.439 29.1054C173.595 29.0393 173.771 29.0353 173.93 29.0942C174.089 29.1532 174.22 29.2705 174.295 29.4224L178.955 38.9325C179.03 39.0956 179.073 39.2725 179.078 39.4523C179.084 39.6321 179.053 39.8112 178.987 39.9785C178.914 40.1461 178.805 40.2956 178.668 40.4161C178.532 40.5368 178.37 40.6254 178.195 40.676L172.393 42.3244L172.203 42.356Z" fill="#282928"/>
<path d="M218.868 71.9319C218.096 71.9371 217.322 71.8947 216.554 71.805C210.492 71.1961 204.918 68.2079 201.055 63.4955C197.192 58.7831 195.356 52.7311 195.949 46.6669C196.391 42.2428 198.106 38.0418 200.887 34.573C203.669 31.1042 207.397 28.5165 211.619 27.1236C215.84 25.7308 220.377 25.5926 224.676 26.7257C228.975 27.8589 232.853 30.2147 235.84 33.5077C238.827 36.8007 240.795 40.8895 241.506 45.2785C242.216 49.6675 241.638 54.1682 239.842 58.2353C238.045 62.3023 235.108 65.7609 231.385 68.192C227.663 70.6231 223.315 71.9221 218.868 71.9319ZM218.805 27.2348C213.267 27.2884 207.958 29.4562 203.965 33.2948C199.973 37.1334 197.597 42.3525 197.327 47.8845C197.056 53.4164 198.908 58.843 202.506 63.0539C206.103 67.2649 211.175 69.9418 216.682 70.5371C219.518 70.8261 222.383 70.5522 225.112 69.7311C227.842 68.91 230.383 67.5581 232.589 65.7525C234.795 63.9471 236.623 61.7238 237.967 59.2101C239.312 56.6965 240.147 53.942 240.425 51.105C241 45.3754 239.276 39.652 235.632 35.1935C231.987 30.7348 226.722 27.9063 220.993 27.3299C220.274 27.2665 219.544 27.2348 218.805 27.2348Z" fill="#282928"/>
<path d="M212.053 55.4789C211.952 55.4781 211.852 55.4515 211.763 55.4015C211.674 55.3517 211.6 55.2801 211.546 55.1936C211.498 55.1251 211.463 55.0476 211.445 54.9657C211.427 54.8839 211.425 54.7992 211.44 54.7167C211.455 54.6342 211.486 54.5553 211.531 54.4849C211.577 54.4144 211.635 54.3536 211.704 54.3059L218.678 49.4559C218.748 49.4099 218.807 49.3492 218.852 49.2781C218.895 49.2068 218.923 49.1269 218.931 49.0438C219.249 44.9861 219.471 40.2311 219.218 39.3752C219.177 39.2115 219.201 39.0387 219.283 38.8916C219.365 38.7444 219.501 38.6341 219.661 38.5828C219.742 38.5587 219.827 38.5511 219.912 38.5606C219.996 38.5699 220.077 38.5961 220.151 38.6375C220.225 38.6788 220.29 38.7345 220.341 38.8013C220.393 38.8682 220.432 38.9448 220.453 39.0266C220.866 40.5481 220.263 48.2512 220.2 49.1389C220.169 49.4085 220.083 49.6688 219.946 49.9033C219.811 50.138 219.626 50.3418 219.408 50.502L212.434 55.3521C212.318 55.4228 212.188 55.4662 212.053 55.4789Z" fill="#282928"/>
<path d="M206.314 64.0072C206.218 64.011 206.123 63.993 206.034 63.9546C205.946 63.9161 205.868 63.8582 205.806 63.7853C200.544 57.3819 198.42 51.137 199.466 45.2408C201.02 36.333 209.135 31.4829 209.484 31.2927C209.554 31.2479 209.631 31.2179 209.713 31.2048C209.796 31.1917 209.88 31.1957 209.96 31.2166C210.04 31.2374 210.115 31.2746 210.181 31.3259C210.246 31.3772 210.3 31.4415 210.339 31.5146C210.421 31.6581 210.444 31.8277 210.402 31.9876C210.361 32.1475 210.258 32.2848 210.117 32.3705C210.022 32.4339 202.161 37.1572 200.702 45.4626C199.72 51.0102 201.78 56.9064 206.789 62.9928C206.893 63.1234 206.942 63.2899 206.924 63.4562C206.906 63.6225 206.823 63.7749 206.694 63.8804C206.588 63.97 206.452 64.0154 206.314 64.0072Z" fill="#282928"/>
<path d="M220.324 34.8108H220.134C219.897 34.7933 219.667 34.7247 219.458 34.6097C219.251 34.4948 219.07 34.3364 218.929 34.1452C218.769 33.9657 218.65 33.7539 218.579 33.5242C218.508 33.2946 218.487 33.0523 218.517 32.8137L218.676 31.1971C218.724 30.7145 218.961 30.2704 219.335 29.9617C219.709 29.6529 220.19 29.5045 220.673 29.5487C220.908 29.5739 221.136 29.6457 221.342 29.76C221.55 29.8743 221.732 30.0288 221.877 30.2143C222.036 30.3949 222.155 30.6068 222.226 30.8363C222.297 31.0656 222.318 31.3074 222.29 31.5458L222.131 33.1941C222.106 33.4291 222.034 33.6568 221.919 33.8636C221.805 34.0705 221.651 34.2524 221.465 34.3988C221.15 34.6735 220.743 34.8205 220.324 34.8108ZM220.483 30.8166C220.345 30.8164 220.212 30.8688 220.112 30.9631C220.012 31.0575 219.952 31.1865 219.943 31.3239L219.786 32.9406C219.775 33.0144 219.78 33.0896 219.803 33.1607C219.825 33.232 219.862 33.2975 219.912 33.3526C219.949 33.4112 220.001 33.4593 220.062 33.4926C220.123 33.5258 220.191 33.5431 220.261 33.5429C220.334 33.5533 220.41 33.5473 220.481 33.5255C220.552 33.5035 220.617 33.4662 220.673 33.4161C220.778 33.3283 220.846 33.2036 220.864 33.0674L221.021 31.419C221.032 31.3452 221.026 31.2701 221.005 31.1988C220.982 31.1275 220.945 31.062 220.895 31.0069C220.807 30.9014 220.683 30.8334 220.546 30.8166H220.483Z" fill="#282928"/>
<path d="M218.169 68.4136H217.979C217.742 68.3898 217.511 68.3192 217.3 68.2057C217.09 68.0922 216.904 67.9382 216.754 67.7525C216.604 67.5666 216.492 67.353 216.424 67.1236C216.358 66.8943 216.337 66.6539 216.362 66.4165L216.521 64.768C216.565 64.2898 216.793 63.8471 217.155 63.5317C217.532 63.2362 218.01 63.0998 218.487 63.1513C218.724 63.1713 218.955 63.238 219.167 63.3478C219.379 63.4575 219.567 63.6081 219.72 63.7908C219.873 63.9735 219.988 64.1847 220.059 64.4122C220.131 64.6398 220.156 64.8792 220.135 65.1168L219.976 66.7651C219.936 67.2163 219.729 67.6362 219.395 67.9415C219.059 68.2468 218.622 68.4152 218.169 68.4136ZM218.106 67.1455C218.252 67.1545 218.397 67.1069 218.509 67.0124C218.621 66.9181 218.692 66.7841 218.709 66.6383L218.866 64.9899C218.876 64.9182 218.87 64.8454 218.848 64.7763C218.826 64.7073 218.791 64.6436 218.743 64.5895C218.694 64.5355 218.635 64.4924 218.57 64.463C218.503 64.4337 218.432 64.4188 218.36 64.4193C218.293 64.4024 218.224 64.4021 218.157 64.4187C218.091 64.4353 218.029 64.4682 217.979 64.5144C217.859 64.6086 217.781 64.7446 217.757 64.8948L217.599 66.5432C217.59 66.6895 217.637 66.8337 217.732 66.9459C217.826 67.058 217.96 67.1295 218.106 67.1455Z" fill="#282928"/>
<path d="M206.283 50.0273H206.092L204.443 49.8688C203.963 49.8097 203.521 49.5721 203.207 49.2032C202.912 48.8259 202.775 48.3481 202.827 47.8717C202.846 47.6353 202.914 47.4053 203.024 47.1952C203.134 46.985 203.285 46.7991 203.468 46.6484C203.652 46.4976 203.863 46.3852 204.09 46.3177C204.318 46.2501 204.557 46.2288 204.792 46.255L206.44 46.4135C206.923 46.4617 207.367 46.6987 207.676 47.0727C207.985 47.4467 208.133 47.9277 208.089 48.4106C208.032 48.8833 207.793 49.315 207.424 49.6153C207.105 49.8848 206.7 50.0311 206.283 50.0273ZM204.634 47.4913C204.493 47.4905 204.357 47.5418 204.251 47.6355C204.146 47.7291 204.079 47.8585 204.063 47.9986C204.062 48.1431 204.112 48.2835 204.205 48.3941C204.298 48.5046 204.428 48.578 204.57 48.6009L206.218 48.7594C206.357 48.7676 206.494 48.7222 206.599 48.6325C206.712 48.5462 206.791 48.4226 206.821 48.2839C206.834 48.1352 206.789 47.9873 206.695 47.8717C206.652 47.8108 206.595 47.7614 206.528 47.7281C206.461 47.6949 206.388 47.6789 206.314 47.6816L204.665 47.4913H204.634Z" fill="#282928"/>
<path d="M236.682 52.6896H236.492L234.844 52.5311C234.609 52.5059 234.381 52.4341 234.175 52.3197C233.967 52.2054 233.785 52.0509 233.64 51.8654C233.481 51.6847 233.362 51.4729 233.291 51.2435C233.22 51.0141 233.199 50.7724 233.227 50.534C233.251 50.2962 233.321 50.0654 233.434 49.8551C233.549 49.6449 233.702 49.4592 233.888 49.3087C234.074 49.1583 234.288 49.0463 234.516 48.9792C234.746 48.9119 234.986 48.8909 235.224 48.9172L236.841 49.0758C237.082 49.095 237.316 49.164 237.529 49.2787C237.742 49.3932 237.929 49.5508 238.077 49.7414C238.232 49.9241 238.348 50.1362 238.419 50.365C238.49 50.5938 238.514 50.8347 238.489 51.0729C238.441 51.5184 238.231 51.9306 237.898 52.2293C237.563 52.528 237.131 52.692 236.682 52.6896ZM235.034 50.1536C234.908 50.1619 234.787 50.2058 234.685 50.2803C234.624 50.3227 234.574 50.3798 234.542 50.4463C234.509 50.5128 234.492 50.5865 234.495 50.6607C234.487 50.7344 234.493 50.8091 234.515 50.8801C234.538 50.951 234.573 51.0166 234.622 51.0729C234.72 51.166 234.839 51.2316 234.97 51.263L236.619 51.4215C236.69 51.4304 236.762 51.4251 236.831 51.4059C236.9 51.3867 236.963 51.354 237.02 51.3097C237.075 51.2656 237.122 51.2106 237.157 51.1481C237.192 51.0857 237.214 51.017 237.222 50.9461C237.228 50.7981 237.184 50.6523 237.094 50.534C237.052 50.4729 236.995 50.4235 236.929 50.3903C236.862 50.3571 236.789 50.341 236.714 50.3437L235.097 50.1536H235.034Z" fill="#282928"/>
<path d="M237.001 47.1101C236.842 47.1109 236.69 47.0528 236.574 46.9474C236.456 46.8418 236.383 46.6964 236.366 46.5394C235.384 36.5539 226.951 32.5914 226.857 32.528C226.782 32.4942 226.716 32.4457 226.661 32.3853C226.606 32.325 226.564 32.2541 226.537 32.177C226.51 32.1 226.499 32.0183 226.506 31.9369C226.511 31.8556 226.534 31.7763 226.571 31.7038C226.64 31.5542 226.766 31.4374 226.919 31.3782C227.073 31.319 227.244 31.3221 227.395 31.3868C227.776 31.5453 236.588 35.6981 237.602 46.4127C237.611 46.496 237.604 46.5802 237.579 46.6605C237.556 46.7408 237.516 46.8155 237.463 46.8803C237.409 46.9453 237.344 46.9989 237.271 47.0384C237.196 47.0778 237.115 47.1021 237.032 47.1101H237.001Z" fill="#282928"/>
<path d="M227.043 66.5753C226.901 66.5745 226.762 66.5278 226.648 66.4422C226.534 66.3566 226.45 66.2365 226.409 66.0999C226.379 65.9366 226.412 65.768 226.5 65.6272C226.588 65.4865 226.726 65.3837 226.886 65.339C229.769 64.5782 232.273 60.6474 232.306 60.6157C232.398 60.4805 232.538 60.386 232.697 60.3518C232.857 60.3178 233.024 60.3466 233.164 60.4325C233.302 60.5183 233.402 60.6545 233.443 60.8127C233.485 60.9709 233.463 61.1388 233.383 61.2814C233.257 61.4716 230.594 65.6877 227.202 66.5753H227.043Z" fill="#282928"/>
<path d="M256.207 155.431L261.121 164.718C261.169 164.817 261.238 164.904 261.323 164.971C261.409 165.04 261.509 165.088 261.615 165.112C261.722 165.137 261.832 165.137 261.938 165.112C262.045 165.088 262.145 165.04 262.23 164.972L288.383 145.984C288.475 145.923 288.58 145.88 288.688 145.862C288.798 145.843 288.91 145.846 289.017 145.873C289.125 145.9 289.226 145.949 289.313 146.017C289.401 146.086 289.472 146.171 289.524 146.269L294.819 156.794C294.909 156.97 294.925 157.176 294.867 157.366C294.808 157.555 294.677 157.714 294.501 157.808L259.41 176.987C259.24 177.083 259.04 177.109 258.851 177.061C258.663 177.015 258.5 176.897 258.395 176.733L247.427 159.457C247.367 159.364 247.33 159.258 247.315 159.148C247.301 159.038 247.31 158.926 247.343 158.821C247.376 158.715 247.433 158.618 247.507 158.537C247.582 158.455 247.674 158.39 247.776 158.347L255.225 155.113C255.398 155.033 255.596 155.021 255.778 155.08C255.961 155.139 256.114 155.264 256.207 155.431Z" fill="white"/>
<path d="M259.065 177.715C258.827 177.715 258.593 177.657 258.383 177.546C258.173 177.437 257.994 177.277 257.859 177.08L246.891 159.804C246.788 159.629 246.72 159.435 246.694 159.234C246.666 159.033 246.679 158.827 246.733 158.631C246.796 158.44 246.898 158.265 247.036 158.116C247.172 157.968 247.34 157.853 247.525 157.775L254.974 154.511C255.301 154.373 255.667 154.362 256 154.478C256.334 154.596 256.613 154.834 256.781 155.144L261.663 164.432L261.759 164.496H261.854L288.007 145.507C288.177 145.393 288.369 145.314 288.57 145.277C288.772 145.239 288.979 145.241 289.179 145.285C289.373 145.34 289.554 145.433 289.712 145.557C289.869 145.683 290.002 145.838 290.098 146.015L295.393 156.507C295.562 156.832 295.597 157.209 295.489 157.559C295.383 157.909 295.143 158.202 294.822 158.378L259.73 177.556C259.521 177.653 259.295 177.707 259.065 177.715ZM255.514 155.683H255.482L248.032 158.916C247.969 158.948 247.969 158.979 247.969 159.012C247.963 159.017 247.957 159.025 247.954 159.033C247.949 159.042 247.948 159.05 247.948 159.059C247.948 159.068 247.949 159.077 247.954 159.085C247.957 159.094 247.963 159.1 247.969 159.107L258.937 176.383C258.957 176.414 258.987 176.438 259.021 176.449C259.056 176.461 259.094 176.46 259.128 176.446L294.188 157.268C294.218 157.249 294.242 157.219 294.254 157.185C294.265 157.149 294.264 157.112 294.252 157.078L288.957 146.553L288.863 146.49H288.767L262.615 165.446C262.456 165.573 262.272 165.662 262.073 165.705C261.875 165.749 261.67 165.747 261.473 165.701C261.277 165.653 261.092 165.563 260.933 165.437C260.774 165.311 260.645 165.152 260.554 164.971L255.64 155.715C255.609 155.683 255.577 155.683 255.514 155.683Z" fill="#282928"/>
<path d="M247.556 79.7616C247.437 79.7625 247.322 79.7302 247.221 79.6686C247.12 79.607 247.039 79.5184 246.985 79.413C246.572 78.5253 239.789 67.2402 239.092 66.2575C238.991 66.1229 238.948 65.9538 238.971 65.7874C238.995 65.6209 239.084 65.4707 239.219 65.3698C239.287 65.3215 239.364 65.2872 239.446 65.269C239.528 65.2508 239.613 65.249 239.696 65.2638C239.778 65.2786 239.857 65.3095 239.927 65.3549C239.998 65.4003 240.059 65.4593 240.107 65.5283C240.835 66.511 247.715 77.9864 248.126 78.8741C248.164 78.9466 248.186 79.0258 248.192 79.1072C248.197 79.1885 248.186 79.2702 248.16 79.3473C248.133 79.4243 248.092 79.4952 248.036 79.5555C247.982 79.6159 247.915 79.6644 247.841 79.6982C247.754 79.7489 247.655 79.7709 247.556 79.7616Z" fill="#282928"/>
<path d="M247.397 80.2368L247.017 80.1734L241.153 78.2397C240.998 78.1822 240.87 78.0693 240.794 77.9228C240.717 77.7764 240.699 77.6069 240.741 77.4473C240.765 77.3647 240.807 77.2881 240.863 77.222C240.918 77.1561 240.986 77.1022 241.064 77.0636C241.14 77.025 241.225 77.0026 241.311 76.9977C241.397 76.9928 241.483 77.0056 241.564 77.0351L247.365 78.9371L248.063 71.7729C248.087 71.6077 248.171 71.4574 248.301 71.3517C248.43 71.246 248.594 71.1926 248.76 71.2023C248.844 71.2102 248.925 71.2346 248.999 71.274C249.072 71.3134 249.138 71.3671 249.191 71.4319C249.244 71.4969 249.284 71.5716 249.308 71.6518C249.332 71.7321 249.34 71.8163 249.331 71.8997L248.634 79.1273C248.606 79.3069 248.541 79.4788 248.442 79.6316C248.344 79.7845 248.215 79.9151 248.063 80.0149C247.867 80.15 247.636 80.2269 247.397 80.2368Z" fill="#282928"/>
<path d="M271.395 146.236L270.919 145.951C270.697 145.792 270.54 145.697 270.666 145.19C270.697 144.017 269.462 134.951 268.637 129.372C268.618 129.204 268.664 129.037 268.764 128.901C268.863 128.766 269.011 128.674 269.176 128.643C269.26 128.629 269.345 128.633 269.427 128.653C269.508 128.673 269.586 128.708 269.654 128.758C269.721 128.809 269.779 128.873 269.822 128.945C269.866 129.017 269.894 129.098 269.905 129.181C269.905 129.213 270.476 133.176 271.015 137.138L271.712 142.496C271.839 142.147 272.029 141.734 272.188 141.322C272.98 139.389 273.804 137.487 273.804 137.487C273.874 137.337 273.998 137.221 274.153 137.161C274.306 137.102 274.477 137.105 274.629 137.17C274.784 137.233 274.907 137.355 274.973 137.509C275.038 137.665 275.039 137.838 274.977 137.995C273.9 140.499 272.188 144.588 271.934 145.412C271.903 145.666 271.839 145.76 271.744 145.824L271.395 146.236Z" fill="#282928"/>
<path d="M271.299 146.045C271.186 146.043 271.074 146.013 270.975 145.958C270.875 145.903 270.791 145.825 270.729 145.729L267.654 140.593C267.57 140.453 267.542 140.287 267.578 140.127C267.613 139.968 267.709 139.828 267.844 139.737C267.917 139.692 267.997 139.662 268.082 139.649C268.166 139.635 268.252 139.639 268.336 139.66C268.419 139.68 268.497 139.717 268.564 139.768C268.632 139.821 268.69 139.885 268.732 139.959L271.839 145.095C271.913 145.24 271.931 145.407 271.89 145.565C271.85 145.722 271.752 145.86 271.617 145.951C271.523 146.011 271.413 146.044 271.299 146.045Z" fill="#282928"/>
<path d="M121.93 187.732H114.766L126.494 144.271L128.967 157.617L121.93 187.732ZM116.414 186.465H120.915L127.667 157.586L126.272 149.978L116.414 186.465Z" fill="#282928"/>
<path d="M160.413 102.934C158.353 102.934 155.912 102.3 153.122 101.001C153.044 100.967 152.974 100.917 152.915 100.855C152.857 100.793 152.812 100.72 152.782 100.64C152.752 100.56 152.739 100.475 152.743 100.39C152.747 100.305 152.768 100.222 152.805 100.145C152.842 100.069 152.894 100.002 152.957 99.9472C153.02 99.8919 153.093 99.8498 153.173 99.8233C153.253 99.7967 153.337 99.7863 153.421 99.7925C153.504 99.7987 153.586 99.8215 153.661 99.8595C158.448 102.078 161.967 102.269 164.154 100.462C169.701 95.8652 165.706 80.1103 165.675 79.9518C165.636 79.7922 165.661 79.6237 165.743 79.4817C165.826 79.3399 165.961 79.2357 166.119 79.191C166.283 79.1509 166.456 79.1744 166.602 79.2568C166.75 79.3391 166.86 79.4742 166.912 79.6348C167.069 80.3322 171.128 96.3408 164.978 101.413C163.685 102.445 162.067 102.985 160.413 102.934Z" fill="#282928"/>
<path d="M162.415 87.3324C162.799 87.3036 163.074 86.799 163.028 86.2055C162.984 85.6118 162.637 85.1541 162.252 85.1829C161.868 85.2118 161.593 85.7164 161.638 86.31C161.682 86.9035 162.03 87.3613 162.415 87.3324Z" fill="#282928"/>
<path d="M154.761 88.1568C155.145 88.1278 155.42 87.6232 155.376 87.0297C155.332 86.4361 154.984 85.9783 154.6 86.0072C154.216 86.0361 153.941 86.5407 153.985 87.1342C154.03 87.7279 154.377 88.1856 154.761 88.1568Z" fill="#282928"/>
<path d="M160.475 84.7063C160.266 84.7231 160.057 84.6557 159.897 84.519C159.736 84.3823 159.636 84.1874 159.62 83.9771C159.603 83.767 159.671 83.5588 159.807 83.3983C159.944 83.2377 160.139 83.1381 160.349 83.1212L163.963 82.6458C164.172 82.6273 164.379 82.6891 164.545 82.8186C164.709 82.9483 164.819 83.1359 164.85 83.3432C164.863 83.4473 164.856 83.5531 164.828 83.6544C164.8 83.7556 164.752 83.8503 164.687 83.9328C164.622 84.0154 164.541 84.0844 164.45 84.1354C164.358 84.1866 164.257 84.219 164.153 84.2308L160.571 84.6745L160.475 84.7063Z" fill="#282928"/>
<path d="M151.536 84.6754C151.38 84.676 151.229 84.6313 151.099 84.5467C150.97 84.4622 150.867 84.3417 150.806 84.1999C150.72 84.0105 150.711 83.7947 150.782 83.5988C150.853 83.403 150.998 83.2432 151.186 83.1538L154.515 81.6639C154.705 81.5771 154.92 81.5683 155.116 81.6395C155.312 81.7107 155.472 81.8561 155.562 82.0443C155.647 82.2421 155.653 82.4659 155.575 82.6673C155.498 82.8689 155.345 83.0321 155.149 83.1221L151.852 84.6121L151.536 84.6754Z" fill="#282928"/>
<path d="M159.778 92.6633C159.629 92.6642 159.484 92.6094 159.373 92.5099C159.262 92.4103 159.191 92.2729 159.176 92.1244C159.162 92.041 159.166 91.9558 159.186 91.8737C159.206 91.7917 159.242 91.7143 159.292 91.6465C159.342 91.5786 159.406 91.5213 159.478 91.4782C159.551 91.4351 159.631 91.4069 159.715 91.3953C160.095 91.3319 160.159 91.2368 160.159 91.2368C160.159 91.2368 159.778 90.4127 159.176 89.8737C159.051 89.7637 158.975 89.609 158.963 89.4429C158.95 89.2768 159.005 89.1127 159.112 88.9861C159.232 88.8655 159.391 88.7926 159.56 88.7809C159.73 88.7693 159.897 88.8197 160.032 88.9227C160.412 89.2715 161.712 90.5077 161.395 91.6172C161.268 91.9976 160.92 92.5048 159.874 92.6316L159.778 92.6633Z" fill="#282928"/>
<path d="M161.713 112.573C161.588 112.573 161.463 112.537 161.357 112.469C161.25 112.402 161.165 112.305 161.111 112.192C158.987 107.278 159.114 103.062 159.146 102.903C159.146 102.735 159.212 102.574 159.331 102.455C159.45 102.336 159.612 102.27 159.779 102.27C159.948 102.285 160.106 102.361 160.222 102.483C160.339 102.606 160.407 102.766 160.413 102.935C160.448 105.947 161.084 108.922 162.284 111.685C162.32 111.759 162.341 111.84 162.345 111.923C162.349 112.005 162.335 112.089 162.306 112.165C162.276 112.243 162.23 112.314 162.171 112.373C162.114 112.432 162.044 112.478 161.967 112.508C161.892 112.557 161.803 112.579 161.713 112.573Z" fill="#282928"/>
<path d="M162.187 79.0328H162.124L160.539 78.8743C160.457 78.8706 160.377 78.8499 160.302 78.8138C160.229 78.7778 160.164 78.727 160.11 78.6647C160.057 78.6024 160.016 78.5298 159.993 78.4513C159.968 78.3729 159.959 78.2904 159.968 78.2087C159.985 78.0377 160.066 77.8796 160.196 77.7673C160.326 77.6551 160.494 77.5974 160.665 77.6064L162.25 77.7649C162.335 77.7728 162.416 77.7972 162.489 77.8366C162.563 77.876 162.629 77.9297 162.681 77.9945C162.734 78.0594 162.774 78.1342 162.799 78.2144C162.822 78.2947 162.83 78.3789 162.821 78.4623C162.805 78.6191 162.732 78.7647 162.614 78.8701C162.498 78.9757 162.345 79.0336 162.187 79.0328Z" fill="white"/>
<path d="M155.975 81.3783C184.473 85.6261 176.327 68.6349 165.961 71.6464C165.899 71.6725 165.83 71.6827 165.762 71.6762C165.694 71.6696 165.63 71.6465 165.573 71.6089C165.517 71.5713 165.471 71.5202 165.439 71.4604C165.407 71.4007 165.39 71.3339 165.39 71.266C165.295 69.3957 164.502 64.2285 157.813 68.0326C157.733 68.0756 157.641 68.0925 157.55 68.0812C157.459 68.0699 157.374 68.0307 157.306 67.9692C156.102 66.8279 150.491 61.8828 148.145 67.9692C148.075 68.1488 147.97 68.3128 147.837 68.4516C147.703 68.5905 147.542 68.7015 147.366 68.7781C147.189 68.8548 146.999 68.8955 146.807 68.8982C146.613 68.9008 146.422 68.8652 146.243 68.7934C143.644 67.7473 138.445 66.5426 137.621 73.7069C136.797 80.8711 141.615 88.4791 143.739 91.4272C143.993 91.7442 143.897 90.8249 143.929 90.4129C143.936 90.0926 144.025 89.7794 144.185 89.5023C144.346 89.2253 144.574 88.9933 144.849 88.8278C149.476 85.9431 149.604 83.3755 149.761 81.6319C150.047 78.4619 150.904 79.7616 152.045 80.2054L155.975 81.3783Z" fill="#282928"/>
<path d="M171 78.8745C170.903 78.8736 170.807 78.8426 170.728 78.7859C170.648 78.7293 170.588 78.6495 170.556 78.5574C170.532 78.4996 170.518 78.437 170.52 78.374C170.521 78.3109 170.536 78.2489 170.563 78.1918C170.59 78.1349 170.628 78.0842 170.676 78.0434C170.725 78.0027 170.78 77.9726 170.841 77.9552C171.253 77.7966 172.522 77.1944 172.585 76.4969C172.649 75.7995 172.141 75.5143 171.253 74.9754C171.151 74.91 171.078 74.8079 171.048 74.6899C171.019 74.572 171.036 74.4473 171.096 74.3413C171.167 74.2367 171.274 74.1623 171.398 74.133C171.521 74.1036 171.651 74.1214 171.761 74.1828C172.997 74.9436 173.6 75.7362 173.504 76.5921C173.378 77.9869 171.381 78.7477 171.159 78.8428L171 78.8745Z" fill="white"/>
<path d="M164.881 79.7934C163.758 79.777 162.642 79.628 161.553 79.3497C161.432 79.3196 161.326 79.2428 161.262 79.136C161.196 79.0292 161.175 78.9009 161.204 78.779C161.234 78.6557 161.309 78.5482 161.416 78.4778C161.521 78.4074 161.649 78.3791 161.775 78.3986C164.057 78.9693 165.103 78.8741 166.055 78.779L166.815 78.7156C166.942 78.7156 167.063 78.7657 167.151 78.8549C167.24 78.9441 167.29 79.0651 167.29 79.1912C167.295 79.252 167.287 79.3131 167.267 79.3707C167.246 79.4282 167.214 79.481 167.173 79.5256C167.13 79.5703 167.08 79.6058 167.025 79.63C166.968 79.6544 166.908 79.6668 166.847 79.6667L166.149 79.7301L164.881 79.7934Z" fill="white"/>
<path d="M157.876 71.0444C157.802 71.0421 157.73 71.0239 157.664 70.9911C157.598 70.9582 157.54 70.9115 157.495 70.8542C157.459 70.8023 157.434 70.7438 157.42 70.6822C157.407 70.6205 157.407 70.5567 157.418 70.4948C157.43 70.4329 157.455 70.3738 157.489 70.3213C157.524 70.2687 157.569 70.2235 157.621 70.1884C159.239 69.0473 161.774 69.0156 161.869 69.0156C161.996 69.0156 162.117 69.0657 162.206 69.1548C162.294 69.2441 162.344 69.3649 162.344 69.4911C162.344 69.6172 162.294 69.7381 162.206 69.8274C162.117 69.9165 161.996 69.9666 161.869 69.9666C161.869 69.9666 159.524 69.9983 158.161 70.9494L157.876 71.0444Z" fill="white"/>
<path d="M140.409 79.0631C140.296 79.058 140.186 79.0145 140.1 78.9398C140.014 78.865 139.955 78.7632 139.934 78.6511L139.616 76.5905C139.603 76.5299 139.602 76.4671 139.614 76.406C139.626 76.345 139.651 76.2873 139.687 76.2364C139.723 76.1856 139.769 76.1429 139.823 76.1111C139.876 76.0792 139.935 76.059 139.997 76.0516C140.059 76.0427 140.123 76.0464 140.185 76.0624C140.246 76.0783 140.303 76.1063 140.353 76.1447C140.403 76.183 140.445 76.231 140.476 76.2858C140.508 76.3406 140.529 76.4011 140.536 76.4637L140.885 78.4926C140.896 78.6212 140.86 78.7497 140.785 78.8545C140.71 78.9591 140.599 79.0333 140.472 79.0631H140.409Z" fill="white"/>
<path d="M150.235 183.769H142.816V179.649C142.816 179.48 142.883 179.319 143.002 179.2C143.121 179.082 143.283 179.014 143.45 179.014C143.619 179.014 143.78 179.082 143.899 179.2C144.017 179.319 144.084 179.48 144.084 179.649V182.502H148.966V179.046H149.632C159.173 179.553 174.58 180.219 176.83 179.871C177.274 178.221 175.689 175.242 175.024 174.196C174.976 174.125 174.944 174.047 174.929 173.963C174.913 173.88 174.914 173.795 174.932 173.713C174.95 173.629 174.983 173.55 175.032 173.482C175.081 173.413 175.142 173.353 175.214 173.308C175.354 173.224 175.52 173.196 175.68 173.232C175.839 173.267 175.979 173.363 176.07 173.498C176.387 173.974 179.018 178.127 177.908 180.631C177.655 181.17 177.496 181.519 163.295 180.948C157.747 180.727 152.136 180.441 150.235 180.346V183.769Z" fill="#282928"/>
<path d="M156.102 114.537C151.632 114.537 146.814 112.604 146.497 112.477C146.419 112.443 146.349 112.393 146.29 112.332C146.232 112.269 146.187 112.196 146.157 112.116C146.127 112.036 146.114 111.951 146.118 111.867C146.122 111.781 146.143 111.698 146.18 111.621C146.211 111.544 146.258 111.475 146.316 111.416C146.375 111.358 146.445 111.313 146.523 111.283C146.601 111.253 146.683 111.239 146.766 111.243C146.848 111.247 146.93 111.267 147.005 111.304C147.099 111.336 157.624 115.584 161.237 111.526C161.352 111.423 161.501 111.364 161.655 111.363C161.811 111.361 161.961 111.416 162.077 111.518C162.194 111.619 162.27 111.759 162.29 111.913C162.312 112.066 162.275 112.222 162.188 112.35C160.731 113.999 158.48 114.537 156.102 114.537Z" fill="#282928"/>
<path d="M171.222 114.474L170.937 114.379C170.874 114.379 166.118 111.874 161.49 110.702C161.33 110.65 161.195 110.54 161.112 110.393C161.03 110.246 161.006 110.073 161.047 109.909C161.091 109.751 161.196 109.616 161.338 109.534C161.479 109.451 161.647 109.426 161.807 109.465C166.594 110.702 171.318 113.174 171.508 113.27C171.583 113.306 171.65 113.358 171.705 113.422C171.761 113.485 171.803 113.558 171.829 113.638C171.855 113.717 171.866 113.801 171.859 113.886C171.854 113.969 171.831 114.05 171.793 114.125C171.737 114.229 171.655 114.315 171.554 114.376C171.454 114.437 171.34 114.472 171.222 114.474Z" fill="#282928"/>
<path d="M146.941 285.653L137.652 273.987L137.938 273.607C138.129 273.321 158.543 244.982 160.761 236.296C162.981 227.61 160.16 208.463 160.128 208.273V208.21L158.638 178.982L174.235 179.934C179.497 179.965 180.891 189.697 180.987 190.553C181.494 192.36 189.546 222.918 183.237 240.259C176.929 257.598 148.62 284.068 147.416 285.177L146.941 285.653ZM139.237 273.956L147.067 283.783C150.935 280.106 176.232 255.76 182.001 239.846C188.246 222.696 179.813 191.155 179.718 190.838V190.743C179.369 188.08 177.753 181.201 174.202 181.201H174.139L159.938 180.346L161.364 208.114C161.554 209.288 164.249 227.8 161.998 236.614C159.748 245.426 141.837 270.342 139.237 273.956Z" fill="#282928"/>
<path d="M185.9 295.607C185.9 295.607 173.759 238.04 166.024 214.486C164.103 208.633 163.004 202.541 162.758 196.385L162.125 179.648L137.779 177.334C137.779 177.334 124.497 192.201 163.424 276.84L171.698 295.607H185.9Z" fill="white"/>
<path d="M186.66 296.241H171.286L162.854 277.094C142.693 233.316 136.797 208.495 135.37 195.403C133.816 181.01 137.176 177.08 137.304 176.921L137.526 176.668H137.842L162.728 179.046L163.392 196.322C163.637 202.423 164.724 208.462 166.626 214.264C174.266 237.564 186.375 294.846 186.503 295.417L186.66 296.241ZM172.11 294.973H185.107C183.649 288.062 172.585 236.455 165.422 214.677C163.479 208.763 162.369 202.605 162.125 196.385L161.522 180.25L138.097 177.999C137.462 179.046 135.306 183.579 136.701 195.783C138.16 208.78 144.12 233.348 163.995 276.587L172.11 294.973Z" fill="#282928"/>
<path d="M167.703 296.526L167.893 308.192C167.911 309.651 168.468 311.05 169.457 312.121C170.446 313.194 171.798 313.86 173.25 313.993L198.135 314.659C203.492 315.166 205.743 309.714 201.146 306.829C200.518 306.433 199.818 306.164 199.086 306.036C193.38 305.085 190.749 302.486 190.432 295.005C190.415 294.32 190.13 293.671 189.637 293.196C189.144 292.722 188.485 292.46 187.801 292.469L171.507 292.628C170.487 292.644 169.515 293.063 168.802 293.793C168.09 294.524 167.694 295.506 167.703 296.526Z" fill="#6192BF"/>
<path d="M168.18 310.062C168.909 312.662 170.684 314.564 173.093 314.849L198.167 315.641C201.148 315.99 203.145 314.12 203.589 311.806L203.398 311.648C203.398 311.648 180.099 312.852 168.18 310.062Z" fill="#282928"/>
<path d="M191.572 307.654H191.382C191.222 307.603 191.09 307.492 191.012 307.343C190.936 307.194 190.92 307.021 190.97 306.861C191.323 305.727 192.031 304.736 192.989 304.034C193.948 303.332 195.107 302.956 196.296 302.963C196.464 302.977 196.621 303.054 196.738 303.176C196.854 303.298 196.923 303.459 196.93 303.628C196.925 303.711 196.905 303.793 196.87 303.869C196.833 303.944 196.783 304.012 196.722 304.067C196.66 304.124 196.588 304.166 196.509 304.195C196.43 304.223 196.347 304.235 196.264 304.231C195.346 304.232 194.453 304.529 193.716 305.076C192.98 305.625 192.44 306.395 192.175 307.274C192.128 307.393 192.044 307.494 191.936 307.563C191.827 307.631 191.701 307.663 191.572 307.654Z" fill="#282928"/>
<path d="M195.313 309.651H195.123C194.962 309.6 194.828 309.49 194.745 309.342C194.663 309.196 194.639 309.023 194.679 308.858C195.567 305.689 198.801 304.769 200.354 304.706C200.522 304.698 200.687 304.757 200.811 304.869C200.936 304.982 201.011 305.14 201.02 305.308C201.027 305.476 200.97 305.641 200.856 305.766C200.743 305.891 200.586 305.966 200.417 305.974C200.258 305.974 196.772 306.132 195.916 309.208C195.871 309.333 195.79 309.443 195.683 309.522C195.575 309.601 195.446 309.646 195.313 309.651Z" fill="#282928"/>
<path d="M173.947 305.878C175.961 305.878 177.592 304.247 177.592 302.233C177.592 300.22 175.961 298.588 173.947 298.588C171.934 298.588 170.301 300.22 170.301 302.233C170.301 304.247 171.934 305.878 173.947 305.878Z" fill="#282928"/>
<path d="M134.417 272.054L125.668 279.788C124.578 280.759 123.884 282.099 123.721 283.55C123.557 285.001 123.934 286.46 124.78 287.65L140.503 306.924C143.61 311.33 149.221 309.46 148.398 304.134C148.287 303.392 148.028 302.681 147.636 302.043C144.688 297.096 144.91 293.388 150.395 288.284C150.901 287.818 151.204 287.172 151.239 286.485C151.276 285.797 151.041 285.123 150.584 284.607L139.838 272.402C139.508 272.019 139.105 271.706 138.652 271.481C138.199 271.256 137.706 271.122 137.201 271.09C136.696 271.057 136.19 271.126 135.713 271.291C135.234 271.457 134.793 271.716 134.417 272.054Z" fill="#6192BF"/>
<path d="M124.463 281.215C122.973 283.466 122.656 286.098 124.019 288.062L139.774 307.59C141.454 310.063 144.18 310.411 146.209 309.238V308.953C146.209 308.953 130.105 292.088 124.463 281.215Z" fill="#282928"/>
<path d="M147.702 298.935C147.61 298.942 147.518 298.924 147.435 298.885C147.352 298.847 147.28 298.788 147.227 298.713C147.131 298.618 145.197 296.336 142.249 297.572C142.175 297.609 142.094 297.629 142.011 297.632C141.927 297.637 141.845 297.623 141.768 297.593C141.691 297.563 141.62 297.518 141.561 297.46C141.502 297.401 141.456 297.331 141.425 297.255C141.362 297.099 141.364 296.925 141.429 296.771C141.495 296.617 141.619 296.495 141.773 296.431C142.862 295.946 144.08 295.83 145.241 296.098C146.402 296.367 147.444 297.006 148.209 297.921C148.313 298.051 148.362 298.217 148.344 298.384C148.327 298.55 148.243 298.702 148.113 298.808C147.994 298.893 147.849 298.938 147.702 298.935Z" fill="#282928"/>
<path d="M149.064 303.184C148.973 303.185 148.884 303.165 148.801 303.128C148.719 303.089 148.646 303.032 148.589 302.962C148.494 302.867 146.085 300.33 143.2 301.693C143.123 301.729 143.039 301.749 142.955 301.752C142.871 301.756 142.786 301.742 142.706 301.712C142.626 301.683 142.554 301.638 142.492 301.58C142.43 301.523 142.379 301.454 142.344 301.377C142.309 301.299 142.289 301.216 142.286 301.132C142.282 301.047 142.296 300.963 142.326 300.883C142.354 300.803 142.4 300.731 142.457 300.669C142.514 300.607 142.584 300.556 142.661 300.521C145.641 299.126 148.462 300.964 149.54 302.106C149.654 302.234 149.714 302.401 149.708 302.572C149.703 302.744 149.631 302.906 149.508 303.025C149.381 303.123 149.225 303.179 149.064 303.184Z" fill="#282928"/>
<path d="M134.134 284.131C136.147 284.131 137.779 282.499 137.779 280.485C137.779 278.473 136.147 276.84 134.134 276.84C132.12 276.84 130.488 278.473 130.488 280.485C130.488 282.499 132.12 284.131 134.134 284.131Z" fill="#282928"/>
<path d="M203.619 143.701C203.496 143.705 203.375 143.672 203.271 143.606C203.202 143.559 203.143 143.498 203.098 143.427C203.052 143.357 203.021 143.279 203.007 143.195C202.991 143.113 202.993 143.029 203.012 142.947C203.03 142.865 203.064 142.788 203.112 142.719C203.144 142.656 207.487 136.411 206.029 132.638C205.522 131.338 204.381 130.515 202.511 130.102C202.351 130.057 202.213 129.955 202.125 129.814C202.037 129.673 202.004 129.505 202.034 129.341C202.053 129.26 202.088 129.184 202.136 129.116C202.184 129.048 202.246 128.991 202.316 128.946C202.387 128.902 202.466 128.872 202.548 128.859C202.63 128.844 202.715 128.847 202.796 128.866C205.046 129.374 206.537 130.482 207.201 132.194C208.914 136.569 204.349 143.163 204.159 143.448C204.099 143.534 204.017 143.602 203.922 143.646C203.828 143.69 203.724 143.709 203.619 143.701Z" fill="#282928"/>
<path d="M157.399 99.6691C156.646 99.6902 155.9 99.5038 155.244 99.1302C154.388 98.623 153.437 97.4818 153.85 95.0726C153.881 94.8684 153.968 94.6773 154.103 94.5205C154.238 94.3636 154.413 94.2475 154.61 94.185C154.807 94.1209 155.019 94.1135 155.221 94.1639C155.424 94.2144 155.607 94.3206 155.751 94.4703C156.48 95.1995 157.876 96.1504 160.284 96.4357C160.569 96.4992 161.489 96.5942 161.679 97.3233C161.869 98.0524 161.711 98.0841 161.045 98.5913C160.38 99.0985 158.858 99.6691 157.399 99.6691ZM155.054 95.5798C154.8 97.672 155.877 98.0841 156.227 98.2109C157.526 98.6864 159.333 98.1475 160.094 97.7037C157.558 97.3867 155.973 96.404 155.054 95.5798Z" fill="#282928"/>
<path d="M196.328 110.543H196.297C196.17 110.543 193.349 110.194 191.351 105.059C191.31 104.937 191.316 104.803 191.369 104.685C191.421 104.568 191.518 104.474 191.638 104.425C191.695 104.4 191.758 104.388 191.821 104.389C191.884 104.39 191.946 104.404 192.003 104.431C192.059 104.458 192.11 104.497 192.152 104.545C192.192 104.593 192.221 104.65 192.239 104.71C194.014 109.243 196.361 109.592 196.392 109.592C196.515 109.615 196.625 109.683 196.701 109.782C196.778 109.882 196.815 110.006 196.805 110.131C196.8 110.189 196.785 110.246 196.758 110.299C196.733 110.351 196.696 110.398 196.653 110.436C196.608 110.474 196.557 110.503 196.502 110.522C196.446 110.54 196.387 110.547 196.328 110.543Z" fill="white"/>
<path d="M190.148 119.355C190.016 119.349 189.89 119.293 189.799 119.196C189.64 119.006 185.869 114.917 187.707 110.764C187.727 110.702 187.76 110.646 187.806 110.598C187.85 110.55 187.904 110.513 187.964 110.489C188.025 110.465 188.09 110.454 188.155 110.458C188.221 110.462 188.284 110.48 188.341 110.511C188.455 110.565 188.542 110.663 188.584 110.782C188.625 110.901 188.617 111.031 188.563 111.144C186.978 114.727 190.433 118.499 190.496 118.531C190.575 118.632 190.615 118.758 190.61 118.885C190.603 119.013 190.552 119.135 190.465 119.228C190.372 119.297 190.263 119.341 190.148 119.355Z" fill="white"/>
<path d="M173.284 121.955L173.094 121.733C172.46 121.067 173.633 118.532 173.633 118.499C174.774 116.091 176.803 114.822 179.276 115.013C184.569 115.362 185.362 120.338 185.362 120.37L185.457 121.067L173.284 121.955ZM178.863 116.248C178.307 116.237 177.753 116.338 177.236 116.545C176.717 116.752 176.248 117.061 175.851 117.454C175.042 118.349 174.484 119.442 174.235 120.623L183.936 119.895C183.626 118.87 183.004 117.969 182.157 117.315C181.31 116.661 180.281 116.288 179.213 116.248H178.863Z" fill="#282928"/>
<path d="M135.591 177.335C135.591 177.335 176.135 180.536 179.368 180.663C182.602 180.79 179.59 186.369 176.96 186.147C174.328 185.925 134.862 181.773 134.703 180.663C134.544 179.554 134.513 177.239 135.591 177.335Z" fill="white"/>
<path d="M177.151 186.782H176.929C175.502 186.623 165.01 185.545 154.834 184.341C148.97 183.675 144.278 183.073 140.918 182.566C134.197 181.615 134.166 181.329 134.071 180.759C133.975 180.188 133.69 178.096 134.61 177.114C134.741 176.969 134.903 176.856 135.084 176.785C135.266 176.714 135.461 176.685 135.656 176.702C136.068 176.733 176.201 179.935 179.402 180.03C180.48 180.093 180.987 180.6 181.209 181.044C181.716 182.122 181.177 183.581 180.48 184.595C179.783 185.61 178.514 186.782 177.151 186.782ZM135.275 180.284C138.572 181.425 171.921 185.038 177.024 185.514C177.754 185.577 178.736 184.911 179.434 183.866C180.131 182.819 180.258 181.995 180.068 181.615C179.877 181.234 179.909 181.329 179.339 181.298C176.136 181.171 137.209 178.096 135.56 177.969H135.529C135.338 178.096 135.148 179.111 135.275 180.284Z" fill="#282928"/>
<path d="M170.873 185.672H170.842C170.76 185.672 170.679 185.655 170.603 185.623C170.529 185.591 170.46 185.543 170.405 185.484C170.348 185.424 170.305 185.354 170.276 185.278C170.248 185.201 170.235 185.119 170.239 185.038L170.302 180.409C170.318 180.241 170.393 180.084 170.517 179.967C170.639 179.851 170.8 179.782 170.968 179.775C171.053 179.774 171.137 179.792 171.215 179.827C171.293 179.861 171.361 179.911 171.418 179.973C171.476 180.036 171.518 180.111 171.544 180.191C171.571 180.272 171.58 180.357 171.571 180.441L171.508 185.069C171.492 185.229 171.42 185.379 171.304 185.489C171.187 185.6 171.034 185.664 170.873 185.672Z" fill="#282928"/>
<path d="M159.271 184.847C159.102 184.847 158.941 184.78 158.822 184.661C158.703 184.543 158.637 184.382 158.637 184.213V179.649C158.637 179.48 158.703 179.319 158.822 179.2C158.941 179.081 159.102 179.014 159.271 179.014C159.438 179.014 159.6 179.081 159.719 179.2C159.838 179.319 159.904 179.48 159.904 179.649V184.213C159.904 184.382 159.838 184.543 159.719 184.661C159.6 184.78 159.438 184.847 159.271 184.847Z" fill="#282928"/>
<path d="M233.863 97.8633L262.266 106.296C262.45 106.36 262.606 106.488 262.704 106.656C262.803 106.825 262.839 107.023 262.805 107.215L261.41 114.252C261.388 114.358 261.345 114.457 261.282 114.546C261.22 114.634 261.14 114.709 261.048 114.765C260.956 114.822 260.854 114.858 260.747 114.874C260.641 114.889 260.532 114.883 260.428 114.855L233.863 107.69V97.8633Z" fill="white"/>
<path d="M260.648 115.518L260.267 115.455L233.227 108.196V97.0059L262.423 105.692C262.767 105.789 263.06 106.013 263.243 106.32C263.425 106.627 263.484 106.992 263.405 107.34L262.042 114.377C262 114.568 261.919 114.748 261.805 114.907C261.69 115.064 261.545 115.197 261.377 115.297C261.156 115.432 260.906 115.508 260.648 115.518ZM234.495 107.213L260.585 114.251H260.711C260.742 114.251 260.775 114.22 260.775 114.155L262.169 107.118C262.174 107.102 262.175 107.084 262.173 107.067C262.171 107.05 262.165 107.033 262.157 107.018C262.148 107.004 262.135 106.991 262.121 106.981C262.107 106.97 262.091 106.963 262.074 106.96L234.495 98.7493V107.213Z" fill="#282928"/>
<path d="M281.061 112.317C280.93 112.324 280.799 112.287 280.691 112.213C280.582 112.139 280.501 112.03 280.46 111.906C279.953 110.447 276.687 109.401 274.531 108.703C273.264 108.323 272.249 108.006 271.71 107.626C271.171 107.245 271.045 106.992 271.139 106.643C271.235 106.294 271.996 105.914 273.137 105.787C273.675 105.724 274.975 105.597 275.228 105.343C275.483 105.09 275.165 105.28 275.165 105.28C274.437 104.741 271.774 104.678 270.03 105.343L263.659 107.689L263.215 106.516L269.586 104.139C271.489 103.441 274.658 103.315 275.927 104.265C276.119 104.398 276.273 104.58 276.373 104.791C276.474 105.003 276.516 105.237 276.497 105.47C276.434 106.675 274.817 106.897 273.453 107.023L274.912 107.499C277.575 108.355 280.935 109.401 281.632 111.494C281.662 111.57 281.676 111.652 281.673 111.735C281.67 111.817 281.65 111.898 281.614 111.972C281.579 112.046 281.528 112.112 281.465 112.166C281.403 112.221 281.33 112.261 281.252 112.285L281.061 112.317Z" fill="#282928"/>
<path d="M280.271 115.107C277.703 115.107 274.374 113.522 273.899 113.269C273.825 113.235 273.758 113.187 273.704 113.126C273.648 113.066 273.606 112.995 273.579 112.918C273.553 112.841 273.543 112.76 273.548 112.678C273.554 112.597 273.576 112.518 273.614 112.444C273.65 112.369 273.703 112.302 273.766 112.247C273.829 112.191 273.902 112.15 273.982 112.124C274.061 112.097 274.146 112.086 274.23 112.093C274.313 112.098 274.395 112.121 274.47 112.159C276.562 113.174 280.334 114.441 281.603 113.522C281.063 112.888 277.956 111.78 274.533 111.018C274.452 111 274.375 110.965 274.308 110.917C274.24 110.868 274.182 110.807 274.138 110.736C274.093 110.666 274.063 110.587 274.05 110.505C274.036 110.423 274.039 110.339 274.058 110.257C274.077 110.176 274.111 110.099 274.159 110.032C274.208 109.964 274.269 109.906 274.34 109.862C274.41 109.818 274.489 109.788 274.571 109.774C274.653 109.761 274.737 109.763 274.818 109.782C277.671 110.416 282.522 111.715 282.902 113.3C282.947 113.518 282.929 113.744 282.85 113.952C282.771 114.159 282.636 114.34 282.458 114.474C281.819 114.922 281.05 115.144 280.271 115.107Z" fill="#282928"/>
<path d="M278.841 116.787C276.622 116.787 273.643 116.089 272.058 115.646C271.894 115.599 271.755 115.489 271.672 115.34C271.589 115.193 271.568 115.016 271.614 114.853C271.661 114.689 271.77 114.55 271.918 114.467C272.067 114.384 272.242 114.362 272.407 114.409C276.242 115.455 280.11 115.868 280.522 115.233C280.624 115.129 280.757 115.064 280.902 115.047C281.046 115.032 281.191 115.065 281.314 115.143C281.437 115.22 281.529 115.338 281.574 115.476C281.621 115.613 281.619 115.763 281.568 115.899C281.188 116.565 280.141 116.787 278.841 116.787Z" fill="#282928"/>
<path d="M275.484 117.801C274.463 117.809 273.447 117.659 272.473 117.357C271.933 117.135 270.665 117.103 269.555 117.103C268.447 117.103 266.957 117.04 266.196 116.754C264.865 116.216 261.916 114.377 261.789 114.314C261.719 114.268 261.658 114.209 261.61 114.139C261.561 114.069 261.528 113.992 261.51 113.909C261.475 113.743 261.507 113.569 261.599 113.427C261.691 113.283 261.837 113.182 262.003 113.147C262.17 113.111 262.344 113.144 262.487 113.236C262.518 113.268 265.435 115.106 266.64 115.582C267.178 115.772 268.447 115.803 269.588 115.835C270.729 115.868 272.155 115.868 272.917 116.153C273.677 116.438 276.308 116.723 277.322 116.247C277.418 116.184 277.607 116.088 277.64 115.962C277.658 115.876 277.695 115.795 277.747 115.724C277.799 115.653 277.865 115.594 277.942 115.551C278.018 115.507 278.102 115.479 278.189 115.47C278.277 115.46 278.366 115.469 278.449 115.496C278.533 115.522 278.611 115.566 278.676 115.623C278.743 115.681 278.796 115.752 278.833 115.832C278.87 115.912 278.891 115.999 278.892 116.086C278.894 116.174 278.877 116.262 278.844 116.343C278.764 116.572 278.639 116.782 278.475 116.962C278.311 117.142 278.114 117.287 277.893 117.388C277.129 117.698 276.308 117.838 275.484 117.801Z" fill="#282928"/>
<path d="M160.761 163.354L156.26 125.125C156.242 124.996 156.262 124.864 156.318 124.746C156.375 124.629 156.463 124.531 156.574 124.463C156.685 124.396 156.814 124.362 156.945 124.367C157.075 124.372 157.2 124.414 157.306 124.491L161.902 127.756C162.028 127.84 162.177 127.879 162.326 127.868C162.475 127.855 162.617 127.794 162.727 127.692L170.81 120.433C170.934 120.344 171.074 120.28 171.223 120.243L200.006 118.911C200.177 118.902 200.346 118.96 200.476 119.072C200.606 119.184 200.688 119.343 200.703 119.514C201.18 124.522 204.318 157.934 201.496 169.505C201.467 169.632 201.399 169.75 201.304 169.84C201.207 169.93 201.088 169.99 200.958 170.012L171.382 175.116C171.265 175.138 171.145 175.129 171.034 175.09C170.923 175.052 170.823 174.984 170.747 174.894L160.952 163.735C160.863 163.622 160.799 163.493 160.761 163.354Z" fill="#6192BF"/>
<path d="M201.814 131.56C201.844 132.287 201.643 133.004 201.238 133.608C200.833 134.211 200.247 134.671 199.563 134.92C196.14 136.124 191.258 138.312 191.987 139.263C192.471 139.953 193.072 140.554 193.762 141.038C194.365 141.419 195.221 142.02 194.84 142.591C194.459 143.162 192.146 144.367 193.509 145.476C195.379 147.03 196.457 147.124 196.457 147.124C196.457 147.124 193.921 151.056 198.2 150.548C202.48 150.041 215.508 144.493 208.503 129.182L202.417 127.059L201.814 131.56Z" fill="white"/>
<path d="M198.136 151.213C197.439 151.213 195.885 151.086 195.283 150.104C194.68 149.122 194.966 148.582 195.568 147.6C195.665 147.484 195.798 147.408 195.946 147.382C196.094 147.357 196.245 147.385 196.375 147.461C196.504 147.537 196.603 147.656 196.652 147.797C196.702 147.94 196.699 148.094 196.646 148.234C196.455 148.55 196.17 149.122 196.361 149.438C196.551 149.755 197.692 149.977 198.358 149.945C204.444 148.519 208.026 146.173 208.946 142.94C210.467 137.773 204.698 131.845 204.635 131.781C204.573 131.725 204.524 131.656 204.491 131.58C204.456 131.504 204.439 131.42 204.439 131.337C204.439 131.254 204.456 131.172 204.491 131.095C204.524 131.019 204.573 130.95 204.635 130.893C204.758 130.776 204.922 130.709 205.094 130.709C205.265 130.709 205.43 130.776 205.554 130.893C205.807 131.179 211.894 137.392 210.181 143.289C209.104 146.997 205.205 149.66 198.611 151.182H198.136V151.213Z" fill="#282928"/>
<path d="M196.677 147.6C196.119 147.596 195.562 147.51 195.029 147.346C193.476 146.838 192.683 146.11 192.588 145.19C192.461 143.669 194.521 142.496 194.775 142.337C194.924 142.266 195.094 142.253 195.252 142.3C195.41 142.346 195.545 142.451 195.631 142.592C195.71 142.738 195.728 142.911 195.68 143.071C195.632 143.232 195.524 143.366 195.377 143.447C194.711 143.827 193.792 144.62 193.855 145.096C193.919 145.571 194.458 145.825 195.409 146.141C199.435 147.473 205.933 141.608 205.996 141.545C206.123 141.432 206.289 141.373 206.458 141.382C206.628 141.391 206.787 141.466 206.9 141.593C207.013 141.719 207.072 141.885 207.063 142.054C207.054 142.223 206.979 142.383 206.852 142.496C206.599 142.718 201.21 147.6 196.677 147.6Z" fill="#282928"/>
<path d="M196.326 141.703C195.26 141.697 194.195 141.569 193.156 141.323C192.65 141.196 191.159 140.847 191.001 139.674C190.843 138.501 192.935 136.948 193.6 136.599C193.748 136.521 193.92 136.503 194.081 136.55C194.241 136.597 194.376 136.706 194.456 136.853C194.528 137.001 194.542 137.171 194.495 137.33C194.447 137.487 194.344 137.623 194.203 137.708C193.156 138.28 192.206 139.167 192.237 139.515C192.269 139.864 192.491 139.864 193.443 140.086C200.48 141.734 204.886 136.789 205.044 136.599C205.163 136.478 205.323 136.406 205.492 136.394C205.662 136.383 205.829 136.433 205.963 136.536C206.089 136.646 206.165 136.8 206.178 136.967C206.189 137.133 206.135 137.297 206.027 137.423C205.837 137.614 202.255 141.703 196.326 141.703Z" fill="#282928"/>
<path d="M178.42 132.607C177.875 132.608 177.348 132.417 176.929 132.067C176.676 131.876 176.465 131.633 176.312 131.354C176.16 131.076 176.068 130.767 176.042 130.451V130.197C175.971 129.562 176.154 128.925 176.553 128.426C176.951 127.927 177.531 127.606 178.166 127.534L192.051 125.949C192.685 125.889 193.318 126.07 193.826 126.456C194.305 126.872 194.619 127.445 194.714 128.073V128.359C194.768 128.99 194.578 129.618 194.183 130.113C193.788 130.61 193.217 130.934 192.589 131.021L178.705 132.574L178.42 132.607ZM192.273 127.217H192.145L178.261 128.803C177.965 128.84 177.694 128.987 177.5 129.214C177.314 129.446 177.223 129.742 177.247 130.038V130.323C177.299 130.622 177.456 130.892 177.691 131.085C177.804 131.18 177.935 131.251 178.077 131.295C178.218 131.338 178.368 131.353 178.514 131.338L192.399 129.753C192.549 129.737 192.695 129.692 192.828 129.62C192.96 129.547 193.078 129.449 193.172 129.331C193.266 129.213 193.336 129.078 193.377 128.932C193.419 128.787 193.432 128.635 193.414 128.485V128.232C193.382 127.933 193.234 127.66 193.002 127.471C192.791 127.313 192.536 127.224 192.273 127.217Z" fill="#282928"/>
<path d="M172.996 154.193C172.835 154.186 172.682 154.12 172.565 154.01C172.45 153.899 172.377 153.751 172.362 153.59L170.492 120.876C170.483 120.794 170.491 120.712 170.515 120.633C170.54 120.555 170.58 120.482 170.633 120.42C170.686 120.358 170.752 120.306 170.826 120.271C170.899 120.234 170.98 120.214 171.062 120.21C171.233 120.201 171.402 120.259 171.532 120.371C171.662 120.483 171.743 120.642 171.759 120.813L173.63 153.495C173.639 153.58 173.63 153.664 173.603 153.745C173.578 153.826 173.534 153.899 173.478 153.963C173.42 154.025 173.351 154.076 173.273 154.109C173.196 154.144 173.113 154.161 173.027 154.16L172.996 154.193Z" fill="#282928"/>
<path d="M149.413 165.573C149.242 165.565 149.081 165.492 148.963 165.367C148.845 165.243 148.779 165.079 148.779 164.908C148.875 157.268 144.215 113.078 144.183 112.635C144.175 112.551 144.183 112.467 144.207 112.387C144.231 112.306 144.27 112.232 144.324 112.167C144.377 112.103 144.442 112.049 144.516 112.01C144.59 111.97 144.67 111.945 144.753 111.936C144.836 111.929 144.921 111.936 145.001 111.961C145.081 111.985 145.156 112.024 145.22 112.077C145.285 112.131 145.339 112.196 145.378 112.269C145.418 112.344 145.442 112.424 145.451 112.507C145.641 114.314 150.142 157.205 150.048 164.939C150.048 165.108 149.98 165.269 149.861 165.387C149.743 165.506 149.582 165.573 149.413 165.573Z" fill="#282928"/>
<path d="M156.387 166.397C156.387 166.397 162.982 165.953 163.837 163.956C164.693 161.959 166.595 160.216 168.021 159.233C169.448 158.251 172.46 153.654 173.917 153.654C175.376 153.654 175.535 156.412 173.823 157.711C172.11 159.011 170.113 161.262 170.875 161.548C171.635 161.833 179.148 160.184 180.891 157.838C182.096 156.222 182.857 156.666 182.381 158.251C181.621 160.723 176.58 163.1 176.58 163.1C176.58 163.1 183.554 156.951 185.614 158.314C186.217 158.726 185.836 159.899 185.52 161.326C184.78 164.345 183.694 167.271 182.287 170.042C181.335 172.008 180.005 175.78 161.998 170.804L155.531 172.579L156.387 166.397Z" fill="white"/>
<path d="M176.959 167.38C176.837 167.382 176.716 167.347 176.614 167.279C176.512 167.211 176.433 167.113 176.389 167C176.353 166.923 176.333 166.84 176.332 166.756C176.331 166.671 176.347 166.588 176.38 166.51C176.412 166.433 176.461 166.363 176.523 166.305C176.584 166.247 176.657 166.203 176.737 166.175C183.141 163.449 185.613 159.392 185.645 158.441C184.885 158.345 183.394 158.979 182.475 159.486C182.332 159.568 182.162 159.591 182.002 159.55C181.842 159.509 181.704 159.406 181.619 159.264C181.538 159.112 181.52 158.936 181.567 158.77C181.615 158.604 181.723 158.464 181.872 158.377C182.316 158.123 184.726 156.823 186.152 157.267C186.37 157.335 186.561 157.468 186.697 157.652C186.834 157.834 186.909 158.054 186.913 158.282C187.008 160.279 183.616 164.622 177.212 167.348L176.959 167.38Z" fill="#282928"/>
<path d="M179.18 170.265C179.073 170.268 178.968 170.242 178.873 170.192C178.779 170.142 178.699 170.069 178.64 169.98C178.594 169.91 178.562 169.831 178.546 169.748C178.53 169.665 178.532 169.579 178.549 169.496C178.566 169.414 178.6 169.335 178.649 169.266C178.698 169.196 178.759 169.138 178.831 169.093C183.935 165.669 184.95 163.419 185.107 162.404C185.182 162.048 185.125 161.676 184.95 161.358C184.861 161.232 184.821 161.08 184.838 160.927C184.853 160.775 184.924 160.634 185.036 160.529C185.148 160.425 185.294 160.365 185.447 160.36C185.6 160.355 185.75 160.405 185.869 160.502C186.091 160.773 186.252 161.089 186.339 161.429C186.427 161.768 186.439 162.122 186.376 162.468C186.122 164.686 183.84 167.254 179.528 170.171C179.424 170.235 179.303 170.269 179.18 170.265Z" fill="#282928"/>
<path d="M173.093 174.132C169.891 174.132 169.194 173.657 168.56 172.991C167.926 172.326 168.02 172.421 166.278 172.294C166.183 172.306 166.088 172.299 165.998 172.27C165.908 172.241 165.826 172.192 165.757 172.127C165.688 172.062 165.635 171.982 165.602 171.895C165.567 171.806 165.553 171.711 165.561 171.617C165.567 171.523 165.596 171.432 165.643 171.35C165.691 171.267 165.755 171.197 165.833 171.144C165.911 171.09 166 171.054 166.093 171.04C166.187 171.025 166.282 171.031 166.372 171.058C168.433 171.153 168.972 171.597 169.511 172.135C170.049 172.675 170.304 172.991 174.646 172.834C178.989 172.675 181.905 171.184 182.793 168.395C182.833 168.274 182.887 168.157 182.952 168.046C182.997 167.975 183.055 167.913 183.125 167.864C183.194 167.816 183.273 167.782 183.355 167.764C183.438 167.746 183.524 167.745 183.607 167.761C183.689 167.778 183.769 167.81 183.839 167.856C183.967 167.946 184.057 168.079 184.092 168.232C184.126 168.384 184.104 168.543 184.03 168.68C184.031 168.698 184.029 168.714 184.023 168.731C184.018 168.748 184.009 168.762 183.998 168.775C182.667 172.96 178.197 173.975 174.709 174.101L173.093 174.132Z" fill="#282928"/>
<path d="M164.027 164.686L163.773 164.622C163.696 164.591 163.626 164.545 163.567 164.486C163.51 164.427 163.464 164.357 163.434 164.279C163.405 164.202 163.391 164.12 163.395 164.036C163.399 163.954 163.42 163.872 163.456 163.798C164.343 161.674 166.087 158.979 167.672 157.87C168.325 157.333 168.95 156.761 169.543 156.159C171.444 154.256 172.807 153.02 173.917 153.02C174.3 153.026 174.67 153.156 174.973 153.39C175.276 153.624 175.494 153.951 175.596 154.319C175.783 154.996 175.759 155.715 175.525 156.377C175.293 157.04 174.865 157.616 174.298 158.029C173.233 158.828 172.302 159.791 171.539 160.882C173.473 160.501 179.021 158.441 180.384 156.634C181.271 155.429 182.032 155.556 182.381 155.746C182.729 155.937 183.363 157.204 182.983 158.441C182.159 161.167 177.309 162.72 176.77 162.879C176.61 162.928 176.437 162.913 176.289 162.836C176.14 162.759 176.028 162.625 175.977 162.467C175.927 162.307 175.943 162.134 176.02 161.985C176.097 161.837 176.23 161.725 176.389 161.674C177.721 161.262 181.24 159.836 181.778 158.06C181.907 157.694 181.929 157.297 181.842 156.919C181.669 157.04 181.519 157.191 181.398 157.363C179.622 159.804 171.792 162.562 170.651 162.149C170.5 162.089 170.368 161.991 170.268 161.862C170.167 161.734 170.103 161.582 170.081 161.42C169.923 160.185 172.585 157.712 173.536 157.014C174.488 156.316 174.614 155.366 174.392 154.732C174.17 154.097 174.139 154.288 173.917 154.288C173.695 154.288 171.476 156.031 170.429 157.045C169.8 157.717 169.122 158.342 168.401 158.916C167.069 159.835 165.453 162.371 164.629 164.274C164.576 164.391 164.492 164.491 164.385 164.565C164.28 164.638 164.156 164.679 164.027 164.686Z" fill="#282928"/>
<path d="M149.601 179.713L149.473 183.865L142.468 184.087L142.246 179.236C142.246 179.236 146.304 179.713 149.601 179.713Z" fill="white"/>
<path d="M141.867 184.754L141.582 178.508L142.31 178.603C142.375 178.603 146.368 179.079 149.602 179.079H150.268L150.077 184.5L141.867 184.754ZM142.913 179.935L143.072 183.422L148.873 183.263L148.936 180.347C146.621 180.315 144.117 180.062 142.913 179.935Z" fill="#282928"/>
<path d="M153.186 183.135H110.676V214.547H153.186V183.135Z" fill="#282928"/>
<path d="M125.51 202.347H124.4C116.444 201.681 111.625 194.422 111.403 194.104C111.342 193.994 111.324 193.864 111.353 193.741C111.383 193.618 111.458 193.51 111.562 193.439C111.67 193.374 111.796 193.352 111.919 193.375C112.042 193.398 112.153 193.466 112.228 193.566C112.259 193.66 117.014 200.793 124.464 201.396C129.567 201.808 134.767 199.177 139.934 193.503C139.976 193.455 140.027 193.417 140.083 193.392C140.141 193.365 140.203 193.352 140.267 193.352C140.33 193.352 140.392 193.365 140.449 193.392C140.506 193.417 140.557 193.455 140.6 193.503C140.691 193.587 140.745 193.705 140.752 193.829C140.757 193.953 140.714 194.075 140.631 194.167C135.622 199.589 130.551 202.347 125.51 202.347Z" fill="white"/>
<path d="M124.494 205.928C123.163 205.928 122.18 204.089 122.18 201.648C122.18 199.207 123.163 197.369 124.494 197.369C125.826 197.369 126.839 199.207 126.839 201.648C126.839 204.089 125.826 205.928 124.494 205.928ZM124.494 198.32C123.86 198.32 123.131 199.747 123.131 201.648C123.131 203.551 123.86 204.977 124.494 204.977C125.128 204.977 125.889 203.551 125.889 201.648C125.889 199.747 125.16 198.32 124.494 198.32Z" fill="white"/>
<path d="M135.94 187.953H118.41C118.283 187.953 118.162 187.903 118.073 187.813C117.985 187.725 117.934 187.604 117.934 187.478C117.934 187.352 117.985 187.231 118.073 187.142C118.162 187.052 118.283 187.002 118.41 187.002H135.94C136.065 187.002 136.186 187.052 136.276 187.142C136.365 187.231 136.415 187.352 136.415 187.478C136.415 187.604 136.365 187.725 136.276 187.813C136.186 187.903 136.065 187.953 135.94 187.953Z" fill="white"/>
<path d="M131.913 189.856H122.657C122.53 189.856 122.409 189.806 122.321 189.717C122.231 189.629 122.181 189.508 122.181 189.381C122.176 189.318 122.185 189.253 122.207 189.193C122.23 189.133 122.265 189.079 122.31 189.035C122.355 188.989 122.409 188.955 122.469 188.931C122.529 188.909 122.593 188.9 122.657 188.906H131.913C131.977 188.9 132.041 188.909 132.101 188.931C132.161 188.955 132.214 188.989 132.26 189.035C132.305 189.079 132.34 189.133 132.362 189.193C132.384 189.253 132.393 189.318 132.388 189.381C132.388 189.508 132.338 189.629 132.25 189.717C132.16 189.806 132.039 189.856 131.913 189.856Z" fill="white"/>
<path d="M119.549 212.078H115.904C115.358 212.078 114.834 211.861 114.446 211.474C114.06 211.088 113.844 210.564 113.844 210.017V209.763C113.844 209.217 114.06 208.693 114.446 208.307C114.834 207.921 115.358 207.703 115.904 207.703H119.549C120.096 207.703 120.62 207.921 121.007 208.307C121.393 208.693 121.61 209.217 121.61 209.763V210.017C121.61 210.564 121.393 211.088 121.007 211.474C120.62 211.861 120.096 212.078 119.549 212.078ZM115.904 208.654C115.61 208.654 115.328 208.771 115.119 208.98C114.912 209.187 114.794 209.469 114.794 209.763V210.017C114.794 210.312 114.912 210.594 115.119 210.802C115.328 211.01 115.61 211.126 115.904 211.126H119.549C119.843 211.126 120.126 211.01 120.334 210.802C120.541 210.594 120.659 210.312 120.659 210.017V209.763C120.659 209.469 120.541 209.187 120.334 208.98C120.126 208.771 119.843 208.654 119.549 208.654H115.904Z" fill="white"/>
<path d="M143.452 215.026C143.325 215.026 143.205 214.976 143.115 214.886C143.027 214.797 142.977 214.676 142.977 214.55V185.386C142.977 185.26 143.027 185.139 143.115 185.05C143.205 184.96 143.325 184.91 143.452 184.91C143.578 184.91 143.699 184.96 143.788 185.05C143.877 185.139 143.927 185.26 143.927 185.386V214.55C143.927 214.676 143.877 214.797 143.788 214.886C143.699 214.976 143.578 215.026 143.452 215.026Z" fill="white"/>
<path d="M162.759 162.974L166.848 174.005C166.848 174.005 152.647 180.028 151.379 180.028C150.11 180.028 140.632 181.454 136.163 176.097C131.693 170.74 127.826 154.446 127.572 150.674C127.319 146.902 125.289 133.461 127.255 130.006C129.22 126.55 127.635 121.858 134.419 117.769C141.202 113.68 138.572 115.518 138.952 116.247C138.952 116.247 141.932 125.472 141.552 132.225C141.171 138.977 142.724 154.637 142.946 155.048C143.168 155.46 143.58 162.72 145.768 164.274C147.955 165.826 153.027 165.193 154.168 165.034C155.309 164.875 162.601 162.244 162.759 162.974Z" fill="white"/>
<path d="M147.004 181.013C144.987 181.047 142.98 180.725 141.075 180.062C136.764 178.54 133.626 175.211 131.725 170.172C127.096 157.966 125.923 147.505 125.765 140.912C125.543 132.67 126.715 125.759 129.029 121.986C132.548 116.281 141.678 112.762 145.451 111.526L146.37 111.208L146.971 108.578C147.256 107.33 147.383 106.053 147.352 104.774L147.067 94.3127C146.243 93.9323 144.373 93.013 143.738 91.4915C143.572 91.1276 143.487 90.7311 143.493 90.3308C143.498 89.9305 143.594 89.5364 143.77 89.1773C144.214 88.1629 144.816 87.624 145.577 87.5606C147.099 87.4021 148.398 89.2091 148.557 89.431C148.604 89.4997 148.639 89.577 148.656 89.6588C148.674 89.7406 148.676 89.8251 148.662 89.9076C148.646 89.99 148.615 90.0687 148.571 90.1393C148.525 90.2097 148.467 90.2707 148.398 90.3185C148.33 90.3664 148.252 90.4003 148.17 90.4182C148.088 90.4362 148.004 90.4378 147.922 90.4231C147.839 90.4084 147.761 90.3776 147.69 90.3324C147.62 90.2873 147.559 90.2287 147.511 90.16C147.193 89.6845 146.307 88.7652 145.704 88.7969C145.101 88.8287 145.101 89.3041 144.911 89.6845C144.728 90.1074 144.717 90.5848 144.879 91.0159C145.419 92.1889 147.226 93.0448 147.892 93.2667L148.303 93.4252L148.62 104.742C148.656 106.128 148.518 107.512 148.208 108.863L147.448 112.223L147.067 112.318L145.83 112.73C143.61 113.466 141.439 114.345 139.332 115.362C139.934 116.218 141.678 119.831 142.059 133.906C142.059 141.228 142.756 160.851 146.085 163.705C148.747 165.987 156.101 164.275 162.093 161.929C162.272 161.864 162.462 161.835 162.651 161.845C162.841 161.855 163.028 161.903 163.199 161.985C163.371 162.069 163.524 162.184 163.649 162.327C163.775 162.469 163.871 162.636 163.931 162.817L167.45 173.088C167.555 173.394 167.554 173.728 167.444 174.033C167.334 174.339 167.125 174.598 166.848 174.768C164.787 175.972 155.689 181.013 147.004 181.013ZM138.191 115.964C135.021 117.644 131.819 119.895 130.107 122.652C125.669 129.944 125.447 149.978 132.897 169.728C134.673 174.418 137.556 177.494 141.519 178.888C150.934 182.217 163.741 175.117 166.213 173.658C166.252 173.614 166.275 173.558 166.278 173.499L162.727 163.197C162.727 163.18 162.72 163.164 162.708 163.152C162.697 163.141 162.68 163.134 162.664 163.134C162.658 163.126 162.65 163.122 162.642 163.118C162.634 163.114 162.625 163.112 162.616 163.112C162.607 163.112 162.598 163.114 162.59 163.118C162.581 163.122 162.575 163.126 162.568 163.134C158.605 164.655 149.033 167.888 145.26 164.655C140.885 160.946 140.79 136.664 140.79 133.906C140.41 118.753 138.413 116.218 138.286 116.09L138.191 115.964Z" fill="#282928"/>
</svg>
