<svg width="8" height="18" viewBox="0 0 8 18" fill="none" xmlns="http://www.w3.org/2000/svg">
<path d="M4.25781 0.855469C4.25781 0.579326 4.03395 0.355469 3.75781 0.355469C3.48167 0.355469 3.25781 0.579326 3.25781 0.855469L4.25781 0.855469ZM3.40426 17.1488C3.59952 17.344 3.9161 17.344 4.11137 17.1488L7.29335 13.9668C7.48861 13.7715 7.48861 13.455 7.29335 13.2597C7.09808 13.0644 6.7815 13.0644 6.58624 13.2597L3.75781 16.0881L0.929386 13.2597C0.734124 13.0644 0.417541 13.0644 0.222279 13.2597C0.027017 13.455 0.027017 13.7715 0.222279 13.9668L3.40426 17.1488ZM3.25781 0.855469L3.25781 16.7952L4.25781 16.7952L4.25781 0.855469L3.25781 0.855469Z" fill="#004079"/>
</svg>
