<svg width="320" height="253" viewBox="0 0 320 253" fill="none" xmlns="http://www.w3.org/2000/svg">
<path d="M0 167.963L2.4741 177.515L238.409 252.834L319.57 193.964V185.929L0 167.963Z" fill="#BBD0E0"/>
<path d="M84.6368 124.754L319.57 185.928L238.409 244.142L0 167.962L84.6368 124.754Z" fill="#BBD0E0"/>
<path d="M244.526 240.118C244.612 240.169 243.279 242.983 241.554 246.403C239.83 249.823 238.364 252.557 238.277 252.506C238.191 252.455 239.524 249.64 241.249 246.221C242.974 242.801 244.439 240.067 244.526 240.118Z" fill="#EBEBEB"/>
<path d="M252.283 234.561C252.37 234.612 251.036 237.427 249.312 240.846C247.587 244.266 246.121 247 246.035 246.949C245.949 246.898 247.282 244.084 249.007 240.664C250.731 237.244 252.197 234.51 252.283 234.561Z" fill="#EBEBEB"/>
<path d="M260.033 228.999C260.12 229.05 258.786 231.864 257.062 235.284C255.337 238.703 253.871 241.438 253.785 241.387C253.699 241.335 255.032 238.521 256.757 235.101C258.481 231.682 259.947 228.955 260.033 228.999Z" fill="#EBEBEB"/>
<path d="M267.783 223.442C267.87 223.493 266.536 226.308 264.812 229.727C263.087 233.147 261.621 235.881 261.535 235.83C261.449 235.779 262.782 232.965 264.507 229.545C266.231 226.125 267.697 223.391 267.783 223.442Z" fill="#EBEBEB"/>
<path d="M275.541 217.885C275.628 217.937 274.294 220.751 272.57 224.171C270.845 227.59 269.379 230.324 269.293 230.273C269.207 230.222 270.54 227.408 272.265 223.988C273.989 220.561 275.455 217.834 275.541 217.885Z" fill="#EBEBEB"/>
<path d="M283.299 212.323C283.385 212.374 282.052 215.188 280.328 218.608C278.603 222.028 277.137 224.762 277.051 224.711C276.965 224.66 278.298 221.845 280.022 218.426C281.747 215.006 283.213 212.272 283.299 212.323Z" fill="#EBEBEB"/>
<path d="M291.049 206.766C291.135 206.817 289.802 209.632 288.078 213.051C286.353 216.471 284.887 219.205 284.801 219.154C284.715 219.103 286.048 216.289 287.772 212.869C289.497 209.45 290.963 206.715 291.049 206.766Z" fill="#EBEBEB"/>
<path d="M298.799 201.212C298.885 201.263 297.552 204.077 295.828 207.497C294.103 210.916 292.637 213.651 292.551 213.6C292.465 213.549 293.798 210.734 295.522 207.314C297.247 203.888 298.713 201.161 298.799 201.212Z" fill="#EBEBEB"/>
<path d="M306.557 195.647C306.643 195.698 305.31 198.513 303.585 201.932C301.861 205.352 300.395 208.086 300.309 208.035C300.222 207.984 301.556 205.17 303.28 201.75C305.005 198.33 306.471 195.596 306.557 195.647Z" fill="#EBEBEB"/>
<path d="M314.315 190.093C314.401 190.144 313.068 192.958 311.343 196.378C309.619 199.797 308.153 202.532 308.066 202.48C307.98 202.429 309.313 199.615 311.038 196.195C312.763 192.768 314.228 190.041 314.315 190.093Z" fill="#EBEBEB"/>
<path d="M319.573 189.48C319.66 189.531 318.883 191.237 317.849 193.293C316.814 195.349 315.905 196.975 315.819 196.924C315.733 196.873 316.509 195.167 317.544 193.111C318.585 191.055 319.487 189.429 319.573 189.48Z" fill="#EBEBEB"/>
<path d="M236.335 252.032C236.302 252.068 235.771 251.507 234.962 250.552C234.153 249.597 233.065 248.248 231.911 246.709C230.757 245.171 229.762 243.734 229.065 242.677C228.369 241.62 227.971 240.942 228.011 240.905C228.05 240.876 228.521 241.496 229.264 242.509C230.08 243.618 231.075 244.967 232.183 246.461C233.304 247.941 234.319 249.276 235.148 250.369C235.91 251.368 236.375 251.995 236.335 252.032Z" fill="#EBEBEB"/>
<path d="M225.39 248.612C225.356 248.648 224.826 248.087 224.017 247.132C223.207 246.177 222.12 244.828 220.965 243.289C219.811 241.751 218.816 240.314 218.12 239.257C217.423 238.2 217.025 237.522 217.065 237.485C217.105 237.456 217.576 238.076 218.319 239.089C219.135 240.198 220.13 241.547 221.237 243.049C222.358 244.529 223.373 245.863 224.202 246.957C224.965 247.948 225.429 248.575 225.39 248.612Z" fill="#EBEBEB"/>
<path d="M214.452 245.192C214.419 245.228 213.888 244.667 213.079 243.712C212.27 242.757 211.182 241.408 210.028 239.869C208.874 238.331 207.879 236.894 207.182 235.837C206.486 234.78 206.088 234.102 206.128 234.065C206.168 234.036 206.638 234.656 207.381 235.67C208.197 236.778 209.192 238.127 210.3 239.621C211.421 241.102 212.436 242.436 213.265 243.53C214.028 244.536 214.492 245.156 214.452 245.192Z" fill="#EBEBEB"/>
<path d="M203.515 241.78C203.481 241.816 202.951 241.255 202.142 240.3C201.332 239.345 200.245 237.996 199.09 236.457C197.936 234.919 196.941 233.482 196.245 232.425C195.548 231.368 195.15 230.69 195.19 230.653C195.23 230.624 195.701 231.244 196.444 232.257C197.26 233.366 198.255 234.715 199.362 236.209C200.483 237.689 201.498 239.024 202.327 240.117C203.09 241.116 203.554 241.743 203.515 241.78Z" fill="#EBEBEB"/>
<path d="M192.577 238.36C192.544 238.396 192.013 237.835 191.204 236.88C190.395 235.925 189.307 234.576 188.153 233.037C186.999 231.499 186.004 230.062 185.307 229.005C184.611 227.948 184.213 227.27 184.253 227.233C184.293 227.204 184.763 227.824 185.506 228.838C186.322 229.946 187.317 231.295 188.425 232.789C189.546 234.27 190.561 235.604 191.396 236.698C192.153 237.696 192.617 238.324 192.577 238.36Z" fill="#EBEBEB"/>
<path d="M181.64 234.948C181.606 234.984 181.076 234.423 180.267 233.468C179.457 232.513 178.37 231.164 177.215 229.625C176.061 228.087 175.066 226.65 174.37 225.593C173.673 224.536 173.275 223.858 173.315 223.821C173.355 223.792 173.826 224.412 174.569 225.425C175.385 226.534 176.38 227.883 177.487 229.377C178.608 230.857 179.623 232.192 180.459 233.285C181.215 234.284 181.679 234.911 181.64 234.948Z" fill="#EBEBEB"/>
<path d="M170.702 231.528C170.669 231.564 170.138 231.003 169.329 230.048C168.52 229.093 167.432 227.744 166.278 226.205C165.124 224.667 164.129 223.23 163.432 222.173C162.736 221.116 162.338 220.438 162.378 220.401C162.418 220.372 162.888 220.992 163.631 222.005C164.447 223.114 165.442 224.463 166.55 225.965C167.671 227.445 168.686 228.779 169.515 229.873C170.278 230.864 170.742 231.491 170.702 231.528Z" fill="#EBEBEB"/>
<path d="M159.765 227.43C159.731 227.467 159.201 226.905 158.392 225.95C157.582 224.995 156.495 223.646 155.34 222.108C154.186 220.569 153.191 219.133 152.495 218.076C151.798 217.018 151.4 216.34 151.44 216.304C151.48 216.275 151.951 216.894 152.694 217.908C153.51 219.016 154.505 220.365 155.612 221.86C156.733 223.34 157.748 224.674 158.577 225.768C159.34 226.774 159.804 227.394 159.765 227.43Z" fill="#EBEBEB"/>
<path d="M147.593 223.712C147.56 223.748 147.029 223.187 146.22 222.231C145.41 221.276 144.323 219.927 143.169 218.389C142.014 216.85 141.019 215.414 140.323 214.357C139.627 213.3 139.229 212.621 139.268 212.585C139.308 212.556 139.779 213.176 140.522 214.189C141.338 215.297 142.333 216.646 143.44 218.148C144.561 219.628 145.576 220.963 146.405 222.056C147.162 223.048 147.626 223.675 147.593 223.712Z" fill="#EBEBEB"/>
<path d="M135.421 219.993C135.388 220.029 134.857 219.468 134.048 218.513C133.239 217.557 132.151 216.209 130.997 214.67C129.843 213.132 128.848 211.695 128.151 210.638C127.455 209.581 127.057 208.903 127.096 208.866C127.136 208.837 127.607 209.457 128.35 210.47C129.166 211.579 130.161 212.927 131.269 214.43C132.39 215.91 133.404 217.244 134.234 218.338C134.996 219.329 135.461 219.956 135.421 219.993Z" fill="#EBEBEB"/>
<path d="M123.171 215.671C123.138 215.707 122.607 215.146 121.798 214.19C120.989 213.235 119.901 211.886 118.747 210.348C117.593 208.809 116.598 207.373 115.901 206.316C115.205 205.258 114.807 204.58 114.846 204.544C114.886 204.515 115.357 205.135 116.1 206.148C116.916 207.256 117.911 208.605 119.019 210.107C120.14 211.587 121.154 212.922 121.984 214.015C122.746 215.014 123.211 215.634 123.171 215.671Z" fill="#EBEBEB"/>
<path d="M110.921 211.901C110.888 211.937 110.357 211.376 109.548 210.421C108.739 209.466 107.651 208.117 106.497 206.578C105.343 205.04 104.348 203.603 103.651 202.546C102.955 201.489 102.557 200.811 102.596 200.774C102.636 200.745 103.107 201.365 103.85 202.379C104.666 203.487 105.661 204.836 106.769 206.33C107.89 207.811 108.904 209.145 109.734 210.239C110.49 211.245 110.954 211.865 110.921 211.901Z" fill="#EBEBEB"/>
<path d="M98.5927 207.94C98.5596 207.977 98.0289 207.415 97.2197 206.46C96.4105 205.505 95.3227 204.156 94.1685 202.617C93.0144 201.079 92.0195 199.643 91.323 198.585C90.6265 197.528 90.2286 196.85 90.2684 196.813C90.3081 196.784 90.7791 197.404 91.522 198.418C92.3378 199.526 93.3328 200.875 94.4405 202.377C95.5615 203.857 96.5763 205.191 97.4121 206.285C98.1682 207.277 98.6325 207.904 98.5927 207.94Z" fill="#EBEBEB"/>
<path d="M86.7177 204.274C86.6846 204.311 86.1539 203.749 85.3447 202.794C84.5355 201.839 83.4477 200.49 82.2935 198.951C81.1394 197.413 80.1445 195.977 79.448 194.919C78.7515 193.862 78.3536 193.184 78.3934 193.147C78.4331 193.118 78.9041 193.738 79.647 194.752C80.4628 195.86 81.4578 197.209 82.5655 198.703C83.6865 200.184 84.7013 201.518 85.5371 202.612C86.2932 203.611 86.7575 204.238 86.7177 204.274Z" fill="#EBEBEB"/>
<path d="M74.5459 200.774C74.5127 200.81 73.9821 200.249 73.1728 199.294C72.3636 198.339 71.2758 196.99 70.1217 195.451C68.9675 193.913 67.9726 192.477 67.2761 191.419C66.5797 190.362 66.1817 189.684 66.2215 189.647C66.2613 189.618 66.7322 190.238 67.4751 191.252C68.291 192.36 69.2859 193.709 70.3936 195.203C71.5146 196.684 72.5294 198.018 73.3586 199.112C74.1147 200.111 74.579 200.738 74.5459 200.774Z" fill="#EBEBEB"/>
<path d="M63.8506 196.85C63.8174 196.887 63.2868 196.325 62.4775 195.37C61.6683 194.415 60.5805 193.066 59.4264 191.528C58.2722 189.989 57.2773 188.553 56.5808 187.495C55.8844 186.438 55.4864 185.76 55.5262 185.724C55.566 185.694 56.0369 186.314 56.7798 187.328C57.5957 188.436 58.5906 189.785 59.6983 191.287C60.8193 192.767 61.8341 194.101 62.6633 195.195C63.4194 196.187 63.8837 196.814 63.8506 196.85Z" fill="#EBEBEB"/>
<path d="M53.1552 192.928C53.1221 192.965 52.5914 192.403 51.7822 191.448C50.973 190.493 49.8852 189.144 48.731 187.606C47.5769 186.067 46.582 184.631 45.8855 183.574C45.189 182.516 44.7911 181.838 44.8309 181.802C44.8706 181.773 45.3416 182.392 46.0845 183.406C46.9003 184.514 47.8953 185.863 49.003 187.358C50.124 188.838 51.1388 190.172 51.9679 191.266C52.7241 192.265 53.1884 192.892 53.1552 192.928Z" fill="#EBEBEB"/>
<path d="M43.4443 190.012C43.4111 190.049 42.8805 189.487 42.0713 188.532C41.262 187.577 40.1742 186.228 39.0201 184.69C37.866 183.151 36.871 181.715 36.1746 180.658C35.4781 179.6 35.0801 178.922 35.1199 178.886C35.1597 178.857 35.6307 179.476 36.3735 180.49C37.1894 181.598 38.1844 182.947 39.2921 184.442C40.413 185.922 41.4279 187.256 42.257 188.35C43.0198 189.349 43.4841 189.976 43.4443 190.012Z" fill="#EBEBEB"/>
<path d="M32.3271 186.672C32.294 186.709 31.7633 186.147 30.9541 185.192C30.1449 184.237 29.0571 182.888 27.9029 181.35C26.7488 179.811 25.7538 178.375 25.0574 177.318C24.3609 176.26 23.9629 175.582 24.0027 175.546C24.0425 175.517 24.5135 176.136 25.2564 177.15C26.0722 178.258 27.0672 179.607 28.1749 181.102C29.2958 182.582 30.3107 183.916 31.1398 185.01C31.9026 186.009 32.3669 186.636 32.3271 186.672Z" fill="#EBEBEB"/>
<path d="M22.2177 183.442C22.1846 183.478 21.6539 182.917 20.8447 181.962C20.0355 181.007 18.9477 179.658 17.7935 178.119C16.6394 176.581 15.6445 175.144 14.948 174.087C14.2515 173.03 13.8536 172.352 13.8934 172.315C13.9331 172.286 14.4041 172.906 15.147 173.92C15.9628 175.028 16.9578 176.377 18.0655 177.871C19.1865 179.352 20.2013 180.686 21.0304 181.78C21.7866 182.779 22.2509 183.406 22.2177 183.442Z" fill="#EBEBEB"/>
<path d="M10.7802 179.518C10.7471 179.555 10.2164 178.993 9.40721 178.038C8.59799 177.083 7.51018 175.734 6.35604 174.196C5.2019 172.657 4.20696 171.221 3.51049 170.163C2.81403 169.106 2.41605 168.428 2.45585 168.392C2.49565 168.362 2.96659 168.982 3.70948 169.996C4.52534 171.104 5.52029 172.453 6.628 173.948C7.74897 175.428 8.76382 176.762 9.59294 177.856C10.3491 178.855 10.82 179.482 10.7802 179.518Z" fill="#EBEBEB"/>
<path d="M228.437 104.878C228.152 105.038 227.866 105.206 227.581 105.366C227.11 117.601 226.639 129.829 226.162 142.063C225.903 148.808 225.658 155.684 227.946 162.297L264.666 173.051C266.165 170.281 267.014 167.175 267.26 164.083C268.732 145.519 268.666 135.479 268.367 123.325C268.261 119.067 268.606 109.194 265.024 106.547C259.008 102.107 253.443 103.602 247.361 102.129C241.278 100.656 235.023 104.243 228.782 104.163" fill="#275E8E"/>
<path d="M210.742 148.026L199.917 129.186C199.466 129.186 167.979 136.127 167.979 136.127C167.979 136.127 146.057 138.212 145.514 138.606C144.97 139 138.297 152.591 138.297 152.591C142.714 153.385 144.519 147.137 144.519 147.137L148.936 144.359L154.349 145.051C152.803 145.824 151.503 146.59 151.099 147.137C149.924 148.726 149.294 151.796 150.017 151.898C150.74 152 152.054 149.718 155.456 149.222C158.859 148.726 167.489 146.743 167.489 146.743L170.586 147.144L210.742 148.026Z" fill="#F4FCFF"/>
<path d="M159.775 142.623C159.802 142.725 158.395 143.279 156.704 144.081C155.013 144.876 153.673 145.613 153.626 145.518C153.58 145.43 154.853 144.533 156.571 143.731C158.283 142.922 159.755 142.521 159.775 142.623Z" fill="black"/>
<path d="M183.658 33.4729C184.719 46.8525 185.628 61.0997 179.891 72.9554C181.164 72.671 182.325 71.8398 183.074 70.6732C182.604 75.1063 182.126 79.6124 182.789 84.0163C183.453 88.4203 185.416 92.7878 188.845 95.1794C188.898 94.6252 188.945 94.0711 188.998 93.5242C190.318 102.959 197.873 110.914 206.509 111.949C210.243 112.394 214.521 111.344 216.498 107.837C218.004 105.168 217.811 101.8 217.573 98.6719C216.014 78.3583 214.455 58.0374 212.896 37.7237C212.459 32.0584 211.935 26.094 208.976 21.4276C205.646 16.1706 199.312 13.4582 193.621 14.8435C187.93 16.2289 183.24 21.6463 182.245 27.9533" fill="#1D1644"/>
<path d="M208.487 72.6488C208.487 72.6488 199.506 78.3579 196.774 83.1046C194.034 87.844 195.056 101.136 195.056 101.136C195.056 101.136 193.192 108.515 193.172 115.34C193.152 123.017 198.578 128.646 199.957 132.766C201.337 136.893 200.389 155.697 200.389 155.697L251.489 157.068V118.38L258.281 119.058C258.281 119.058 260.49 81.2891 250.222 76.5132C239.954 71.7374 227.597 66.998 227.597 66.998L208.487 72.6488Z" fill="#BBD0E0"/>
<path d="M258.53 107.983C258.53 107.983 258.424 108.224 258.125 108.61C257.833 108.997 257.336 109.522 256.566 109.988C255.803 110.455 254.762 110.834 253.528 110.951C252.288 111.075 250.855 110.834 249.383 110.28C247.904 109.726 246.391 108.851 244.799 107.874C243.207 106.912 241.523 105.832 239.592 105.147C237.676 104.432 235.493 104.381 233.344 104.914C231.195 105.468 229.086 106.503 226.937 107.568C224.788 108.632 222.652 109.668 220.45 110.214C218.261 110.754 215.986 110.652 214.036 109.872C212.079 109.113 210.407 107.961 208.875 106.89C207.343 105.811 205.917 104.804 204.524 104.082C203.138 103.361 201.791 102.916 200.577 102.792C199.363 102.668 198.302 102.799 197.486 103.062C195.821 103.594 195.152 104.454 195.125 104.389C195.125 104.389 195.284 104.185 195.656 103.893C196.02 103.594 196.617 103.208 197.453 102.923C198.282 102.631 199.363 102.478 200.604 102.58C201.844 102.683 203.224 103.12 204.637 103.835C206.056 104.549 207.502 105.548 209.034 106.613C210.573 107.67 212.231 108.8 214.148 109.529C215.104 109.894 216.125 110.134 217.18 110.163C217.704 110.236 218.241 110.134 218.778 110.127C219.315 110.061 219.853 109.959 220.39 109.843C222.546 109.303 224.655 108.275 226.804 107.21C228.953 106.146 231.082 105.103 233.278 104.542C235.467 103.995 237.735 104.061 239.699 104.804C241.669 105.519 243.367 106.613 244.952 107.59C246.531 108.574 248.023 109.456 249.476 110.018C250.922 110.579 252.315 110.827 253.528 110.732C254.742 110.645 255.764 110.295 256.52 109.857C257.283 109.42 257.787 108.924 258.092 108.559C258.384 108.195 258.516 107.969 258.53 107.983Z" fill="#FAFAFA"/>
<path d="M256.88 93.9102C256.887 93.9175 256.841 93.9613 256.754 94.0342C256.668 94.1071 256.542 94.2383 256.363 94.3696C256.005 94.6394 255.435 94.9966 254.632 95.2518C253.033 95.7914 250.486 95.7039 247.734 94.4206C246.361 93.7863 244.941 92.9113 243.402 92.0364C241.863 91.1687 240.179 90.2864 238.268 89.9292C236.365 89.55 234.302 89.6594 232.232 90.0896C230.156 90.5198 228.06 91.2708 225.951 92.1166C223.835 92.9696 221.772 93.8446 219.723 94.5008C217.673 95.157 215.617 95.5872 213.647 95.5872C209.674 95.6237 206.251 94.2092 203.618 92.7582C200.965 91.2854 199.008 89.7396 197.675 88.6678C197.018 88.1209 196.507 87.6907 196.169 87.3845C196.016 87.246 195.89 87.1293 195.784 87.0345C195.698 86.9543 195.658 86.9106 195.665 86.9033C195.671 86.896 195.718 86.9324 195.811 86.998C195.917 87.0855 196.049 87.1876 196.215 87.3189C196.587 87.6178 197.104 88.0261 197.754 88.5438C199.107 89.5792 201.084 91.0812 203.724 92.5103C206.35 93.9248 209.747 95.281 213.64 95.23C215.577 95.2154 217.6 94.7852 219.63 94.1363C221.666 93.4873 223.716 92.6051 225.838 91.752C227.961 90.8989 230.07 90.1479 232.179 89.7104C234.282 89.2729 236.385 89.1709 238.335 89.5719C240.291 89.951 242.009 90.8552 243.548 91.7374C245.087 92.6342 246.493 93.5165 247.846 94.1508C250.539 95.4487 253.033 95.5727 254.612 95.0841C256.191 94.6467 256.854 93.8519 256.88 93.9102Z" fill="#FAFAFA"/>
<path d="M233.961 130.469C233.967 130.483 233.841 130.549 233.609 130.673C233.371 130.797 233.019 130.965 232.568 131.176C231.653 131.592 230.326 132.204 228.588 132.663C226.877 133.116 224.642 133.349 222.386 132.452C220.124 131.592 218.042 129.827 215.806 128.216C213.578 126.553 211.157 125.547 208.868 125.153C207.721 124.964 206.62 124.905 205.585 124.927C204.557 124.986 203.595 125.088 202.733 125.292C201.008 125.656 199.675 126.247 198.786 126.714C197.891 127.173 197.426 127.494 197.407 127.457C197.4 127.443 197.513 127.363 197.732 127.21C197.957 127.064 198.275 126.823 198.72 126.582C199.595 126.079 200.935 125.438 202.68 125.037C203.549 124.818 204.524 124.694 205.565 124.621C206.613 124.585 207.734 124.628 208.908 124.818C211.243 125.197 213.737 126.225 215.986 127.909C218.241 129.543 220.297 131.285 222.486 132.138C224.668 133.028 226.83 132.831 228.528 132.423C230.246 132.007 231.586 131.431 232.508 131.059C232.946 130.877 233.298 130.731 233.576 130.622C233.828 130.505 233.954 130.454 233.961 130.469Z" fill="#FAFAFA"/>
<path d="M233.862 144.286C233.856 144.322 233.391 144.184 232.536 144.045C231.68 143.907 230.427 143.812 228.888 143.943C227.349 144.075 225.531 144.446 223.555 145.037C221.578 145.62 219.442 146.422 217.147 147.108C214.852 147.786 212.597 148.252 210.514 148.223C208.438 148.201 206.581 147.735 205.142 147.049C203.702 146.357 202.681 145.482 202.077 144.789C201.779 144.439 201.553 144.155 201.427 143.943C201.295 143.739 201.228 143.63 201.235 143.622C201.268 143.593 201.54 144.031 202.17 144.687C202.794 145.336 203.815 146.16 205.235 146.809C206.654 147.45 208.478 147.881 210.514 147.881C212.551 147.888 214.773 147.421 217.054 146.743C219.336 146.065 221.479 145.27 223.475 144.702C225.465 144.126 227.309 143.776 228.868 143.673C230.433 143.579 231.7 143.71 232.556 143.9C232.987 143.994 233.312 144.082 233.531 144.155C233.756 144.228 233.869 144.271 233.862 144.286Z" fill="#FAFAFA"/>
<path d="M233.797 127.144C233.705 127.144 233.625 121.858 233.625 115.34C233.625 108.814 233.705 103.535 233.797 103.535C233.89 103.535 233.97 108.821 233.97 115.34C233.97 121.858 233.89 127.144 233.797 127.144Z" fill="#1D1644"/>
<path d="M228.983 134.289C228.983 134.304 228.89 134.318 228.704 134.333C228.525 134.34 228.253 134.377 227.908 134.369C227.212 134.384 226.203 134.318 224.976 134.056C222.549 133.567 219.199 132.087 216.506 129.068C213.82 126.043 212.546 122.331 212.148 119.648C211.942 118.299 211.903 117.184 211.929 116.425C211.929 116.046 211.969 115.747 211.982 115.55C212.002 115.354 212.015 115.244 212.029 115.244C212.108 115.244 211.923 116.943 212.393 119.597C212.845 122.229 214.125 125.846 216.758 128.799C219.391 131.744 222.648 133.239 225.036 133.786C227.43 134.369 228.983 134.202 228.983 134.289Z" fill="#1D1644"/>
<g opacity="0.3">
<path d="M202.004 152.218C209.426 147.362 219.376 148.186 226.062 142.171C229.206 139.335 231.255 135.251 232.476 130.986C233.696 126.721 234.16 122.251 234.618 117.811C235.043 126.057 235.467 134.296 235.892 142.543C235.978 144.234 236.011 146.108 235.016 147.391C234.174 148.478 232.807 148.85 231.534 149.163C226.108 150.49 220.689 151.817 215.263 153.144C210.859 154.223 206.149 155.273 201.938 153.502" fill="black"/>
</g>
<g opacity="0.2">
<path d="M223.242 90.7524C221.842 92.6481 220.416 94.5876 219.654 96.8771C218.891 99.1666 218.897 101.923 220.231 103.869C221.683 105.999 224.416 106.699 226.791 106.181C229.165 105.656 231.248 104.117 233.138 102.455C234.08 101.624 235.108 100.712 236.309 100.741C237.025 100.756 237.695 101.121 238.398 101.252C240.348 101.631 242.285 100.231 243.4 98.4301C244.514 96.6292 245.011 94.4636 245.642 92.4002C246.278 90.3368 247.134 88.2296 248.726 86.9317C250.205 85.7213 252.268 85.2328 253.183 83.4756C254.337 81.2809 252.825 78.3279 250.716 77.2999C248.606 76.2718 246.179 76.6145 243.897 76.9791" fill="black"/>
</g>
<g opacity="0.2">
<path d="M226.768 134.006C226.894 134.217 226.735 134.655 226.204 135.165C225.68 135.676 224.758 136.215 223.505 136.471C222.264 136.718 220.706 136.66 219.1 136.04C217.482 135.421 215.936 134.247 214.663 132.73C213.396 131.206 212.507 129.522 211.91 127.947C211.313 126.372 210.968 124.921 210.763 123.703C210.365 121.268 210.451 119.722 210.895 119.576C211.36 119.423 212.122 120.743 213.078 122.858C214.053 124.95 215.233 127.808 217.203 130.156C218.178 131.316 219.253 132.227 220.308 132.803C221.369 133.386 222.443 133.678 223.372 133.795C225.229 134.028 226.496 133.539 226.768 134.006Z" fill="black"/>
</g>
<path d="M258.279 119.066C258.273 119.168 252.78 118.708 246.021 118.03C239.262 117.352 233.79 116.725 233.797 116.616C233.804 116.514 239.289 116.973 246.055 117.651C252.814 118.329 258.292 118.964 258.279 119.066Z" fill="#1D1644"/>
<path d="M217.728 13.4375C220.746 16.3249 223.081 18.6435 226.278 20.8601C229.475 23.0766 232.785 25.7234 233.972 29.668C234.834 32.5408 234.516 35.9385 236.247 38.2863C237.726 40.2915 240.234 40.8821 242.303 42.0997C245.945 44.2361 248.359 48.7057 248.319 53.2409C248.293 56.1428 247.391 59.2562 248.638 61.8082C249.725 64.0393 252.16 65.133 253.374 67.2912C254.528 69.3474 254.349 71.9577 253.97 74.342C253.393 77.9803 252.166 81.9104 249.208 83.653C247.198 84.8342 244.711 84.7467 242.582 83.8499C240.452 82.953 238.642 81.3344 237.043 79.5553C233.965 76.121 231.544 71.9869 229.966 67.4881C228.082 62.1071 227.432 56.3178 226.523 50.6306C224.858 40.2185 222.265 29.9888 218.802 20.1309C217.967 17.7321 216.448 15.603 217.728 13.4375Z" fill="#1D1644"/>
<path d="M242.712 59.0867C242.706 59.0721 242.892 58.9481 243.236 58.7148C243.581 58.4742 244.079 58.1096 244.682 57.5774C245.279 57.0451 245.976 56.3305 246.626 55.3681C247.263 54.4056 247.86 53.1588 248.032 51.6714C248.185 50.1985 247.913 48.4705 246.971 47.0487C246.5 46.3487 245.876 45.7217 245.087 45.3935C244.311 45.029 243.416 44.9925 242.507 44.9196C241.605 44.8467 240.597 44.7519 239.734 44.1394C238.872 43.5488 238.295 42.5281 238.01 41.4562C237.718 40.3771 237.645 39.2178 237.738 38.0731C237.831 36.9283 238.043 35.7982 238.182 34.6534C238.321 33.516 238.388 32.3712 238.195 31.2848C238.01 30.1984 237.572 29.1995 237.001 28.3246C235.861 26.56 234.255 25.3351 232.67 24.3799C231.072 23.4248 229.46 22.6738 228.014 21.8353C226.561 21.0041 225.261 20.1364 224.1 19.2906C221.785 17.5917 220.074 15.9803 218.933 14.8137C218.363 14.2304 217.938 13.7638 217.653 13.4429C217.527 13.2898 217.421 13.1732 217.335 13.0711C217.262 12.9836 217.229 12.9398 217.235 12.9326C217.242 12.9253 217.282 12.9617 217.361 13.0419C217.454 13.1367 217.567 13.2461 217.7 13.3846C217.998 13.6909 218.436 14.1429 219.019 14.7043C220.18 15.8272 221.911 17.4021 224.226 19.0646C225.387 19.8885 226.687 20.7416 228.133 21.5582C229.573 22.3821 231.184 23.1185 232.809 24.0737C234.421 25.0289 236.079 26.2757 237.267 28.1131C237.857 29.0245 238.321 30.0745 238.52 31.2192C238.719 32.3639 238.653 33.5524 238.514 34.7118C238.368 35.8711 238.162 36.9939 238.069 38.1095C237.977 39.2178 238.043 40.3261 238.321 41.3469C238.593 42.3676 239.124 43.2936 239.9 43.8332C240.676 44.3873 241.618 44.4967 242.52 44.5696C243.422 44.6498 244.357 44.6863 245.193 45.0873C246.036 45.4519 246.699 46.13 247.19 46.8664C248.165 48.3757 248.437 50.1767 248.258 51.7005C248.059 53.2536 247.429 54.515 246.765 55.492C246.089 56.4618 245.366 57.169 244.749 57.694C244.132 58.2117 243.615 58.5617 243.256 58.7804C243.077 58.8898 242.938 58.97 242.845 59.021C242.766 59.0721 242.719 59.0939 242.712 59.0867Z" fill="#BBD0E0"/>
<path d="M195.602 190.661L217.205 176.304C218.094 175.714 219.241 176.027 219.779 177.004C220.316 177.981 220.031 179.243 219.142 179.833L197.545 194.19L195.602 190.661Z" fill="#275E8E"/>
<g opacity="0.4">
<path d="M219.14 179.825L217.203 176.296C218.092 175.706 219.239 176.019 219.777 176.996C220.314 177.973 220.029 179.235 219.14 179.825Z" fill="black"/>
</g>
<g opacity="0.4">
<path d="M196.923 193.053L218.508 178.703L217.965 177.717L196.38 192.067L196.923 193.053Z" fill="black"/>
</g>
<path d="M197.543 194.189L192.031 195.443L195.6 190.66L197.543 194.189Z" fill="#E8505B"/>
<g opacity="0.5">
<path d="M197.543 194.189L192.031 195.443L195.6 190.66L197.543 194.189Z" fill="white"/>
</g>
<path d="M193.822 195.035L193.192 193.883L192.031 195.443L193.822 195.035Z" fill="#1D1644"/>
<path d="M197.611 18.0386C189.346 21.0353 184.697 30.6307 187.018 39.847C188.816 46.9852 190.892 54.714 192.471 59.1908C196.152 69.6029 203.939 69.1873 203.939 69.1873C203.939 69.1873 205.392 75.9099 206.672 82.3262C207.892 88.4364 213.723 92.3518 219.699 91.0758C225.616 89.8144 229.476 83.923 228.362 77.8567L218.591 31.0463C216.442 20.7583 206.725 14.7356 197.611 18.0386Z" fill="#F4FCFF"/>
<path d="M190.784 43.406C190.904 44.1425 191.573 44.6383 192.27 44.5143C192.973 44.3904 193.444 43.6977 193.325 42.9613C193.205 42.2248 192.535 41.729 191.839 41.853C191.136 41.9769 190.665 42.6696 190.784 43.406Z" fill="#1D1644"/>
<path d="M189.919 41.7216C190.111 41.8674 190.914 40.8612 192.267 40.5477C193.613 40.2123 194.761 40.7372 194.874 40.5185C194.927 40.4237 194.708 40.1321 194.204 39.8914C193.713 39.6508 192.917 39.4831 192.074 39.6873C191.232 39.8914 190.589 40.4018 190.25 40.8466C189.905 41.2987 189.826 41.6632 189.919 41.7216Z" fill="#1D1644"/>
<path d="M204.643 40.6853C204.763 41.4218 205.433 41.9176 206.129 41.7936C206.832 41.6696 207.303 40.977 207.184 40.2406C207.065 39.5041 206.395 39.0083 205.698 39.1323C204.995 39.2562 204.524 39.9489 204.643 40.6853Z" fill="#1D1644"/>
<path d="M204.153 38.9071C204.345 39.0529 205.148 38.0467 206.501 37.7332C207.848 37.3978 208.995 37.9228 209.108 37.704C209.161 37.6093 208.942 37.3176 208.438 37.077C207.947 36.8364 207.151 36.6687 206.309 36.8728C205.466 37.077 204.823 37.5874 204.485 38.0322C204.14 38.4842 204.06 38.8488 204.153 38.9071Z" fill="#1D1644"/>
<path d="M201.408 51.1115C201.395 51.024 200.526 51.0678 199.127 51.199C198.775 51.2427 198.43 51.2427 198.324 51.0021C198.191 50.7469 198.251 50.3022 198.331 49.8209C198.477 48.822 198.623 47.7794 198.782 46.6857C199.392 42.2307 199.75 38.5923 199.591 38.5704C199.425 38.5485 198.802 42.1359 198.191 46.5982C198.052 47.6919 197.913 48.7418 197.787 49.7407C197.74 50.2001 197.614 50.7469 197.9 51.2719C198.045 51.5344 198.344 51.6802 198.576 51.6948C198.815 51.7167 199.007 51.6729 199.18 51.6438C200.566 51.3959 201.415 51.199 201.408 51.1115Z" fill="#1D1644"/>
<path d="M203.938 68.9465C203.938 68.9465 210.63 67.8456 216.321 61.9688C216.321 61.9688 214.59 70.135 204.574 71.4621L203.938 68.9465Z" fill="#1D1644"/>
<path d="M207.518 33.4883C207.425 33.7946 206.344 33.6487 205.057 33.7289C203.77 33.7873 202.709 34.0571 202.59 33.7581C202.457 33.4883 203.492 32.6717 205.004 32.5915C206.516 32.504 207.624 33.204 207.518 33.4883Z" fill="#1D1644"/>
<path d="M193.662 34.8968C193.675 35.2176 192.568 35.5093 191.261 35.9394C189.954 36.355 188.88 36.7634 188.734 36.4863C188.588 36.2238 189.523 35.3124 190.976 34.8457C192.415 34.3718 193.655 34.5906 193.662 34.8968Z" fill="#1D1644"/>
<path d="M244.28 73.8606C244.28 73.8606 238.947 67.4297 239.378 60.0581C239.809 52.6793 237.713 47.8962 233.959 46.1973C231.326 45.0089 230.278 42.0267 229.873 39.5404C229.19 35.3697 228.155 31.272 226.537 27.4295C224.202 21.8808 221.091 16.1789 216.76 12.5916C211.128 7.92516 202.286 4.80447 196.847 9.73341C194.327 12.0229 192.834 12.3875 190.579 16.281C190.579 16.281 187.866 17.3237 186.467 18.0236C181.645 20.4371 179.887 27.3493 180.398 31.8553C181.578 42.2965 187.329 43.6089 189.578 50.2659C189.578 50.2659 186.878 35.7853 187.09 31.7897C187.336 27.1597 190.46 24.0171 190.46 24.0171C194.28 23.2588 196.304 25.2493 198.499 28.7638C200.695 32.2782 202.127 35.1656 205.722 36.7769C209.112 38.2862 212.136 41.6621 216.726 38.0894C216.726 38.0894 219.141 40.9038 219.466 44.5276C219.791 48.1514 216.541 50.1784 218.922 55.7709C221.303 61.3633 225.761 65.1548 226.225 67.3786" fill="#1D1644"/>
<path d="M206.359 51.3671C206.173 51.3963 206.419 52.7379 205.543 53.9264C204.674 55.1149 203.341 55.2534 203.368 55.443C203.368 55.5305 203.706 55.6399 204.256 55.5378C204.8 55.443 205.556 55.0784 206.087 54.3493C206.618 53.6202 206.75 52.7817 206.691 52.2202C206.638 51.6442 206.439 51.338 206.359 51.3671Z" fill="#1D1644"/>
<path d="M218.93 55.4434C221.543 58.2797 222.598 62.7274 221.576 66.6064C220.906 69.1584 219.421 71.4405 219.082 74.0727C218.671 77.2809 220.011 80.4016 221.138 83.391C222.266 86.3805 223.195 89.822 222.007 92.7895C221.51 94.0291 220.674 95.079 220.163 96.3113C219.653 97.5435 219.547 99.1549 220.402 100.125C220.999 100.803 221.908 100.992 222.764 101.08C229.131 101.7 235.651 97.5435 238.325 91.1636C238.756 92.2208 239.187 93.2781 239.618 94.3353C242.483 89.5887 243.817 83.7556 243.332 78.0829C242.848 72.4103 240.553 66.9491 236.938 62.8732" fill="#1D1644"/>
<path d="M215.011 40.3428C214.865 39.6282 216.198 37.8273 216.842 37.645C218.328 37.2221 220.914 37.2585 222.095 41.7427C223.78 48.1518 217.764 47.9695 217.704 47.7872C217.664 47.6414 215.528 42.8656 215.011 40.3428Z" fill="#F4FCFF"/>
<path d="M218.471 44.8995C218.491 44.8703 218.591 44.9432 218.79 44.9797C218.982 45.0088 219.28 44.9797 219.552 44.7536C220.103 44.3089 220.342 43.0693 220.063 41.9027C219.924 41.3121 219.665 40.7944 219.36 40.3934C219.061 39.9778 218.697 39.7445 218.372 39.7809C218.04 39.8028 217.874 40.0726 217.854 40.2768C217.821 40.4809 217.894 40.5976 217.868 40.6194C217.854 40.6413 217.715 40.5538 217.688 40.2695C217.682 40.1382 217.708 39.9632 217.814 39.7955C217.921 39.6278 218.113 39.4966 218.332 39.4528C218.79 39.3435 219.314 39.6716 219.652 40.1091C220.017 40.5392 220.315 41.1226 220.474 41.7861C220.779 43.0912 220.494 44.4911 219.718 45.0234C219.34 45.2713 218.962 45.2422 218.743 45.1474C218.524 45.0526 218.458 44.9213 218.471 44.8995Z" fill="#A36957"/>
<path d="M246.381 58.6716C246.315 58.6497 246.368 58.3653 246.388 57.8476C246.401 57.3299 246.348 56.5644 246.009 55.6748C245.678 54.7926 245.061 53.7791 244.093 52.9406C243.111 52.0948 241.791 51.424 240.245 50.8261C238.707 50.2136 236.896 49.6668 235.098 48.4929C234.209 47.9023 233.314 47.1221 232.631 46.0794C231.934 45.0514 231.483 43.8702 231.112 42.6963C230.734 41.5223 230.435 40.3339 230.024 39.2256C229.613 38.1246 229.089 37.1038 228.319 36.3747C226.774 34.8654 224.326 34.5373 221.932 34.7414C219.504 34.9529 216.997 35.6164 214.417 35.3903C213.136 35.281 211.85 34.8945 210.735 34.2894C209.614 33.6842 208.639 32.904 207.77 32.0728C206.039 30.4031 204.732 28.5292 203.499 26.8814C202.265 25.2262 201.091 23.7534 199.851 22.6524C197.41 20.3702 194.664 19.9109 192.932 20.2171C192.057 20.3556 191.407 20.6546 190.982 20.8952C190.558 21.1285 190.332 21.2816 190.286 21.2233C190.253 21.1795 190.399 20.9316 190.79 20.5744C191.175 20.2171 191.838 19.765 192.793 19.4953C193.742 19.2255 194.969 19.138 196.335 19.4296C197.695 19.714 199.214 20.4431 200.593 21.5951C202 22.7253 203.293 24.2346 204.587 25.8679C205.887 27.4938 207.193 29.2583 208.805 30.7458C210.41 32.2405 212.327 33.4071 214.543 33.5383C216.771 33.7279 219.166 33.1009 221.792 32.853C223.112 32.7436 224.452 32.7728 225.779 33.0644C227.092 33.3488 228.406 33.9685 229.434 34.982C230.475 35.9955 231.112 37.3226 231.55 38.5548C231.987 39.8016 232.273 41.0192 232.611 42.1348C232.936 43.2504 233.321 44.2712 233.858 45.1097C234.375 45.9482 235.085 46.6117 235.848 47.1585C237.393 48.2522 239.118 48.8647 240.677 49.5793C242.242 50.2719 243.661 51.0959 244.709 52.1312C245.764 53.1885 246.368 54.3915 246.64 55.4342C246.918 56.4842 246.858 57.3591 246.726 57.906C246.593 58.4528 246.421 58.6934 246.381 58.6716Z" fill="#BBD0E0"/>
<path d="M211.629 10.4399C210.422 9.14201 209.646 7.31918 209.673 5.46719C209.692 3.6079 210.561 1.7559 212.007 0.786155C212.976 0.137227 214.156 -0.0961006 215.284 0.0351433C217.824 0.341379 220.06 2.64544 220.504 5.41615C220.949 8.18685 219.556 11.1836 217.261 12.4231C214.966 13.6626 211.954 13.0356 210.23 10.9576" fill="#1D1644"/>
<path d="M186.612 46.3789C186.585 46.3716 186.612 45.956 186.652 45.205C186.632 44.454 186.579 43.3676 186.247 42.0697C185.929 40.7719 185.372 39.2844 184.715 37.6512C184.078 36.0106 183.309 34.2097 182.891 32.1535C182.672 31.1327 182.612 30.0974 182.652 29.1057C182.712 28.1068 182.937 27.1662 183.269 26.335C183.926 24.6507 184.967 23.4039 185.955 22.58C186.964 21.7561 187.919 21.3405 188.582 21.1436C188.914 21.0342 189.186 20.9905 189.365 20.9686C189.544 20.9395 189.643 20.9322 189.643 20.9467C189.65 20.9905 189.265 21.0415 188.622 21.2822C187.978 21.5155 187.063 21.9602 186.101 22.7842C185.159 23.6154 184.171 24.8403 183.554 26.4663C183.242 27.2756 183.03 28.1725 182.984 29.1276C182.957 30.0828 183.01 31.0744 183.223 32.066C183.621 34.0566 184.377 35.8575 185 37.5054C185.644 39.1459 186.181 40.6625 186.479 41.9968C186.784 43.3238 186.804 44.4467 186.778 45.205C186.745 45.5841 186.692 45.8758 186.665 46.0727C186.645 46.2841 186.625 46.3862 186.612 46.3789Z" fill="#BBD0E0"/>
<path d="M192.723 98.461C192.717 98.4756 192.584 98.3881 192.332 98.2131C192.073 98.0454 191.722 97.7611 191.284 97.3746C190.408 96.5944 189.268 95.2674 188.239 93.3498C187.225 91.4322 186.369 88.9094 185.971 85.9928C185.573 83.0836 185.673 79.8244 186.084 76.4849C186.495 73.1382 187.118 69.9957 187.609 67.1302C188.107 64.2647 188.458 61.669 188.604 59.4743C188.75 57.2796 188.704 55.4932 188.611 54.2683C188.518 53.0433 188.412 52.3652 188.445 52.3652C188.458 52.3652 188.492 52.5329 188.551 52.8465C188.611 53.1673 188.677 53.6412 188.75 54.2537C188.89 55.4786 188.969 57.2796 188.856 59.4889C188.744 61.6981 188.412 64.3157 187.934 67.1885C187.463 70.0613 186.847 73.1966 186.435 76.5287C186.031 79.8535 185.918 83.069 186.296 85.9418C186.667 88.8146 187.49 91.3009 188.458 93.2113C189.44 95.1216 190.541 96.4559 191.377 97.2579C192.206 98.0673 192.75 98.4173 192.723 98.461Z" fill="#BBD0E0"/>
<path d="M222.304 96.9373C222.297 96.93 222.344 96.8863 222.423 96.8061C222.523 96.7113 222.649 96.6019 222.802 96.4561C223.133 96.1498 223.624 95.6978 224.248 95.0999C225.468 93.8895 227.226 92.0886 228.937 89.4637C230.635 86.8607 232.273 83.3025 232.579 79.0371C232.744 76.9226 232.565 74.655 231.862 72.4822C231.199 70.2875 229.839 68.3553 228.725 66.1898C228.168 65.1034 227.69 63.9586 227.445 62.7629C227.193 61.5671 227.146 60.3494 227.186 59.1755C227.272 56.8204 227.657 54.6039 227.697 52.4748C227.75 50.3457 227.544 48.3187 227.086 46.4959C226.635 44.6731 225.919 43.069 225.05 41.7784C223.292 39.1827 221.064 37.9213 219.505 37.4547C217.913 36.988 216.978 37.1411 216.984 37.0828C216.984 37.0755 217.044 37.0682 217.15 37.0609C217.283 37.0536 217.442 37.0464 217.648 37.0391C218.079 37.0609 218.729 37.0828 219.538 37.3161C221.137 37.7463 223.425 38.9858 225.249 41.618C226.151 42.9232 226.887 44.5564 227.365 46.4157C227.843 48.2677 228.061 50.3312 228.015 52.4894C227.989 54.6549 227.604 56.8861 227.524 59.1974C227.484 60.3494 227.537 61.5306 227.776 62.6827C228.015 63.8347 228.473 64.943 229.023 66.0075C230.118 68.1366 231.497 70.0979 232.181 72.3655C232.897 74.5967 233.069 76.9226 232.897 79.0736C232.565 83.4192 230.874 87.0211 229.136 89.6314C227.378 92.2636 225.587 94.0427 224.334 95.2239C223.697 95.8072 223.193 96.2373 222.841 96.529C222.682 96.6602 222.549 96.7623 222.443 96.8498C222.357 96.9081 222.311 96.9373 222.304 96.9373Z" fill="#BBD0E0"/>
<path d="M219.113 15.85C219.126 15.85 219.106 15.9666 219.066 16.1854C219.04 16.3093 219.013 16.4406 218.987 16.5864C218.934 16.7468 218.881 16.9218 218.821 17.1186C218.549 17.8988 218.045 19.029 217.07 20.1008C216.121 21.1872 214.682 22.2226 212.884 22.6455C211.989 22.8496 211.007 22.8861 210.026 22.6965C209.044 22.5215 208.062 22.1569 207.107 21.6976C205.19 20.7643 203.532 19.5685 201.933 18.7009C200.341 17.8113 198.803 17.2718 197.463 17.1697C196.123 17.053 195.042 17.3374 194.345 17.6363C193.649 17.9499 193.317 18.2342 193.297 18.2051C193.291 18.1978 193.37 18.1176 193.529 17.9863C193.689 17.8551 193.947 17.6801 194.292 17.4978C194.989 17.1478 196.096 16.8197 197.476 16.8999C198.856 16.9655 200.454 17.5051 202.073 18.38C203.698 19.2404 205.363 20.4362 207.24 21.3403C208.182 21.7924 209.13 22.1424 210.079 22.3174C211.027 22.4996 211.956 22.4705 212.818 22.2882C214.543 21.9017 215.949 20.932 216.891 19.8966C217.866 18.8758 218.39 17.7967 218.688 17.053C218.755 16.8707 218.821 16.6957 218.881 16.5426C218.92 16.4041 218.96 16.2728 218.993 16.1562C219.06 15.952 219.1 15.8427 219.113 15.85Z" fill="#BBD0E0"/>
<path d="M206.043 174.984L164.414 197.099L88.1016 174.226L125.565 151.725L206.043 174.984Z" fill="#275E8E"/>
<path d="M160.144 174.049L171.195 178.06L181.429 171.949L164.403 165.941L154.453 171.607L160.144 174.049Z" fill="white"/>
<path d="M78.3906 112.453C78.7355 113.977 88.1013 174.225 88.1013 174.225L164.414 197.105L154.351 132.665L78.3906 112.453Z" fill="#275E8E"/>
<path d="M158.865 161.523C158.957 161.509 160.277 169.456 161.81 179.278C163.342 189.107 164.509 197.083 164.416 197.098C164.323 197.112 163.004 189.165 161.471 179.336C159.939 169.522 158.772 161.538 158.865 161.523Z" fill="#455A64"/>
<path d="M196.761 166.067C196.761 166.067 241.448 170.274 248.843 164.383C256.246 158.491 256.246 118.943 256.246 118.943L234.105 116.697L233.793 144.186C232.261 145.586 193.73 152.6 190.413 152.323C190.413 152.323 170.223 154.692 169.122 154.692C168.02 154.692 160.711 163.828 160.711 164.266C160.711 164.266 160.81 165.476 161.514 165.914C161.514 165.914 160.611 167.124 161.613 168.334C161.613 168.334 161.315 169.873 162.416 170.208C163.517 170.536 163.616 171.091 164.916 170.208C166.216 169.326 172.624 163.828 172.624 163.828L177.426 163.391C177.426 163.391 165.712 170.762 166.714 172.418C167.715 174.065 170.017 172.199 172.617 170.66C175.217 169.122 179.522 166.366 180.325 166.147C181.134 165.914 196.761 166.067 196.761 166.067Z" fill="#F4FCFF"/>
<path d="M175.631 159.139C175.637 159.212 174.702 159.198 173.269 159.613C171.837 160.007 169.94 160.926 168.109 162.384C166.278 163.842 164.819 165.454 163.771 166.613C162.723 167.78 162.073 168.501 162.033 168.465C162.013 168.45 162.153 168.246 162.424 167.889C162.69 167.539 163.088 167.036 163.592 166.423C164.6 165.213 166.039 163.558 167.91 162.071C169.774 160.583 171.737 159.686 173.216 159.344C173.953 159.169 174.563 159.103 174.981 159.096C175.399 159.096 175.631 159.118 175.631 159.139Z" fill="black"/>
<path d="M173.092 157.34C173.092 157.413 172.289 157.398 171.049 157.77C169.815 158.127 168.183 158.944 166.631 160.249C165.079 161.554 163.859 162.991 162.977 164.026C162.101 165.069 161.55 165.71 161.517 165.674C161.484 165.645 161.962 164.937 162.797 163.844C163.633 162.765 164.834 161.277 166.426 159.943C168.011 158.608 169.709 157.799 170.989 157.507C171.626 157.354 172.157 157.296 172.521 157.296C172.886 157.289 173.092 157.318 173.092 157.34Z" fill="black"/>
<path d="M240.817 152.534C240.757 152.549 240.611 151.885 240.213 150.894C239.816 149.902 239.119 148.597 238.084 147.394C237.043 146.198 235.889 145.374 235.007 144.893C234.124 144.405 233.527 144.215 233.547 144.149C233.554 144.113 234.177 144.215 235.113 144.652C236.041 145.083 237.262 145.899 238.336 147.139C239.404 148.378 240.094 149.749 240.439 150.792C240.784 151.842 240.85 152.527 240.817 152.534Z" fill="black"/>
<path opacity="0.64" d="M112.487 160.33L128.043 149.59C128.1 149.546 128.172 149.616 128.14 149.687L122.08 162.4C122.015 162.524 121.895 162.594 121.766 162.577L112.607 160.949C112.326 160.896 112.245 160.489 112.487 160.33Z" fill="url(#paint0_linear_2353_3196)"/>
<path opacity="0.64" d="M128.073 149.634L113.876 164.771C113.643 165.018 113.876 165.434 114.182 165.328L121.868 162.647C121.94 162.621 122.005 162.559 122.045 162.488L128.145 149.687C128.153 149.643 128.105 149.599 128.073 149.634Z" fill="url(#paint1_linear_2353_3196)"/>
<path opacity="0.64" d="M125.96 146.113C125.654 146.113 125.542 146.556 125.799 146.733L128.584 148.626C128.696 148.696 128.833 148.688 128.93 148.599L131.103 146.706C131.328 146.511 131.199 146.113 130.918 146.113H125.96Z" fill="url(#paint2_linear_2353_3196)"/>
<path opacity="0.64" d="M127.921 149.316L104.14 140.134C103.842 140.019 103.601 140.417 103.818 140.673L121.692 162.259C121.837 162.427 122.087 162.392 122.183 162.188L128.098 149.785C128.179 149.608 128.098 149.387 127.921 149.316Z" fill="url(#paint3_linear_2353_3196)"/>
<defs>
<linearGradient id="paint0_linear_2353_3196" x1="112.344" y1="156.076" x2="128.146" y2="156.076" gradientUnits="userSpaceOnUse">
<stop stop-color="white"/>
<stop offset="0.9993" stop-color="#00BAD3"/>
</linearGradient>
<linearGradient id="paint1_linear_2353_3196" x1="113.776" y1="157.484" x2="128.138" y2="157.484" gradientUnits="userSpaceOnUse">
<stop stop-color="white"/>
<stop offset="0.9993" stop-color="#00BAD3"/>
</linearGradient>
<linearGradient id="paint2_linear_2353_3196" x1="125.655" y1="147.397" x2="131.225" y2="147.397" gradientUnits="userSpaceOnUse">
<stop stop-color="white"/>
<stop offset="0.9993" stop-color="#00BAD3"/>
</linearGradient>
<linearGradient id="paint3_linear_2353_3196" x1="103.731" y1="151.241" x2="128.124" y2="151.241" gradientUnits="userSpaceOnUse">
<stop stop-color="white"/>
<stop offset="0.9993" stop-color="#00BAD3"/>
</linearGradient>
</defs>
</svg>
