<svg width="260" height="247" viewBox="0 0 260 247" fill="none" xmlns="http://www.w3.org/2000/svg">
<path d="M259.166 129.584C258.869 119.011 258.983 81.104 259.021 70.7884C259.027 69.3504 257.965 68.1904 256.657 68.1973L197.995 68.5724C196.681 68.5794 195.625 69.7742 195.657 71.219L196.99 128.75C197.022 130.133 198.046 131.244 199.303 131.265L256.771 132.251C258.123 132.272 259.204 131.063 259.166 129.584Z" fill="#275E8E"/>
<path d="M93.8961 93.769L79.1973 78.0977H76.8087C76.8087 78.0977 62.9947 97.5688 63.614 99.0276C64.2333 100.486 68.6631 101.362 68.6631 101.362L68.84 106.717L82.3255 115.255L83.0079 112.678L86.0159 113.344C86.0159 113.344 90.3573 107.016 90.3573 99.8125C90.3573 92.609 93.8961 93.769 93.8961 93.769Z" fill="#1D1644"/>
<path d="M85.3282 87.8783C85.0628 87.7811 78.1305 77.4169 77.8651 77.2223C77.5997 77.0278 68.304 78.8756 62.724 88.1215C57.1441 97.3673 59.6276 100.195 60.6007 100.389C61.5739 100.584 82.4719 101.167 84.0644 99.9028C85.6632 98.6385 85.3282 87.8783 85.3282 87.8783Z" fill="#275E8E"/>
<path d="M64.28 85.8359C64.28 85.8359 68.2801 88.302 67.6924 90.0316C67.1047 91.7683 63.0351 99.9166 59.4142 98.9996C59.1487 98.9302 59.0223 97.8187 59.1992 96.6725C59.6795 93.5674 61.0002 90.8444 62.6749 88.2881L64.28 85.8359Z" fill="white"/>
<g opacity="0.3">
<path d="M83.6962 84.9888C83.5635 84.8916 81.4908 82.2658 79.4181 82.6617C77.3454 83.0577 72.391 86.3434 69.6863 88.9553C66.9817 91.5672 67.1586 92.3313 67.1586 92.3313C67.1586 92.3313 75.6328 86.0308 78.2933 85.093C80.9474 84.1483 83.6962 84.9888 83.6962 84.9888Z" fill="black"/>
</g>
<path d="M64.2839 85.8368C64.2649 85.8229 64.1323 85.9757 63.9111 86.2744C63.6836 86.5662 63.3739 87.0108 63.0011 87.5665C62.2617 88.6779 61.2759 90.2548 60.4165 92.1512C59.9804 93.0959 59.6582 94.0476 59.3801 94.8951C59.0831 95.7842 59.0578 96.6317 59.0136 97.3125C58.9694 98.0002 59.0325 98.5976 59.2095 98.9519C59.3801 99.3131 59.5697 99.4242 59.576 99.4103C59.6013 99.3895 59.4496 99.2367 59.3296 98.8963C59.2032 98.549 59.1779 98.0071 59.2474 97.3333C59.3169 96.6526 59.3738 95.8329 59.6645 95.0132C59.9615 94.1588 60.2838 93.2418 60.7135 92.311C61.5603 90.4493 62.5019 88.8585 63.1907 87.7124C63.8858 86.5731 64.3281 85.8715 64.2839 85.8368Z" fill="#1D1644"/>
<path d="M215.14 159.928C215.14 159.928 228.942 189.52 235.482 194.473L234.465 196.71C234.465 196.71 233.896 197.189 225.315 189.36C216.733 181.531 212.082 172.251 208.012 169.389C203.943 166.527 201.617 165.554 201.617 165.554L215.14 159.928Z" fill="#1D1644"/>
<path d="M168.069 183.957C169.389 183.957 174.862 183.957 174.862 183.957L160.005 195.967L159.013 199.392L164.688 201.712L165.225 213.389C165.225 213.389 158.596 224.927 157.983 225.15C157.376 225.372 142.994 224.802 142.994 224.802L139.91 213.195L139.164 197.336C139.164 197.336 160.157 182.512 160.46 182.512C160.764 182.512 168.069 183.957 168.069 183.957Z" fill="#1D1644"/>
<path d="M200.608 239.602C216.254 235.515 225.924 218.259 222.205 201.06C218.487 183.86 202.789 173.231 187.143 177.318C171.496 181.405 161.827 198.662 165.545 215.861C169.263 233.06 184.961 243.69 200.608 239.602Z" fill="#BBD0E0"/>
<path d="M193.884 226.768C203.066 226.768 210.51 218.585 210.51 208.491C210.51 198.397 203.066 190.215 193.884 190.215C184.702 190.215 177.258 198.397 177.258 208.491C177.258 218.585 184.702 226.768 193.884 226.768Z" fill="#275E8E"/>
<path d="M193.884 218.918C199.122 218.918 203.369 214.25 203.369 208.491C203.369 202.733 199.122 198.064 193.884 198.064C188.645 198.064 184.398 202.733 184.398 208.491C184.398 214.25 188.645 218.918 193.884 218.918Z" fill="#BBD0E0"/>
<path d="M210.213 175.154C209.171 173.605 208.532 182.392 206.7 184.407C204.867 186.421 198.782 184.567 190.813 186.088C178.098 188.512 174.364 196.035 171.394 199.835C170.673 200.759 169.523 201.127 168.462 200.808L158.578 197.848C158.578 197.848 164.537 181.725 181.037 176.349C197.53 170.965 210.213 175.154 210.213 175.154Z" fill="#1D1644"/>
<path d="M30.5097 242.029C47.3597 242.029 61.0193 227.013 61.0193 208.491C61.0193 189.969 47.3597 174.953 30.5097 174.953C13.6597 174.953 0 189.969 0 208.491C0 227.013 13.6597 242.029 30.5097 242.029Z" fill="#BBD0E0"/>
<path d="M30.5083 227.643C40.1304 227.643 47.9307 219.069 47.9307 208.491C47.9307 197.914 40.1304 189.34 30.5083 189.34C20.8862 189.34 13.0859 197.914 13.0859 208.491C13.0859 219.069 20.8862 227.643 30.5083 227.643Z" fill="#275E8E"/>
<path d="M129.154 218.794C128.832 218.814 124.275 226.129 124.275 226.129H121.267V228.845C121.267 228.845 110.803 228.331 108.654 228.019C106.505 227.706 103.921 226.282 103.921 226.282C103.921 226.282 87.1493 224.816 82.7069 223.816C78.2644 222.816 74.3906 220.016 74.3906 220.016C74.3906 220.016 126.715 214.778 127.144 215.098C127.574 215.418 129.154 218.794 129.154 218.794Z" fill="#1D1644"/>
<path d="M82.9748 115.872C82.7347 117.47 74.2352 139.088 74.2352 139.088L80.5482 143.624L69.6221 164.436L76.2953 196.188C76.2953 196.188 94.6214 196.452 111.86 190.318L123.027 167.638C123.027 167.638 120.354 160.163 119.627 152.161C119.627 152.161 115.26 150.827 114.774 147.361C114.287 143.895 117.687 138.824 117.687 138.824C117.687 138.824 133.706 131.085 169.878 127.619C169.878 127.619 192.457 123.083 193.91 123.347C195.364 123.611 197.797 129.133 197.797 129.133C197.797 129.133 217.703 129.217 219.643 137.226C219.643 137.226 221.583 143.096 199.25 154.835C176.918 166.575 152.152 176.981 152.152 176.981C152.152 176.981 150.212 187.658 146.566 190.054C142.92 192.451 105.781 206.066 92.1884 205.267C78.5956 204.468 74.4691 202.329 66.2161 196.459C57.963 190.589 48.7368 172.973 46.0701 166.839C43.4033 160.705 55.2963 154.564 62.5761 144.957C69.856 135.35 79.5688 112.67 79.5688 112.67L82.9748 115.872Z" fill="#BBD0E0"/>
<g opacity="0.3">
<path d="M61.0138 211.534C61.0138 211.534 49.9677 200.677 46.9344 197.565C43.8948 194.459 43.6673 193.556 43.6673 193.556L36.6465 201.024L35.25 198.891L44.9817 187.93L61.652 206.018L61.0201 210.77" fill="black"/>
</g>
<path d="M31.991 164.748C31.991 164.748 16.7299 167.145 9.02665 177.21C1.32341 187.276 3.50358 188.234 3.50358 188.234C3.50358 188.234 14.9858 184.879 21.8169 188.234C28.6481 191.589 28.5027 197.821 28.5027 197.821L34.3166 201.016L45.7039 186.956L36.2124 164.748H31.991Z" fill="#275E8E"/>
<g opacity="0.3">
<path d="M42.5057 190.882C42.5057 190.882 39.5419 185.04 36.7424 180.059C33.6649 174.592 28.3125 165.582 28.3125 165.582L32.7612 164.145L44.9828 187.916L42.5057 190.882Z" fill="black"/>
</g>
<path d="M66.8744 104.676C65.8569 104.676 61.0606 107.072 55.3922 113.463C49.7238 119.854 20.0735 156.921 19.9282 159.956C19.9219 160.067 19.9219 160.172 19.9219 160.276C19.9345 162.77 21.8618 164.749 24.1305 164.749H29.2302L33.0092 167.625C33.0092 167.625 42.3112 191.375 58.8805 205.303C58.8805 205.303 61.3513 208.047 62.6594 211.402C63.9675 214.758 65.2756 218.912 66.8744 219.71C68.4731 220.509 138.238 219.87 139.11 217.314C139.983 214.758 141.291 209.805 141.581 206.609C141.872 203.414 148.413 195.425 156.116 191.591C163.819 187.756 217.887 160.276 218.614 157.08C219.34 153.885 223.113 141.27 219.334 136.31C215.562 131.357 157.007 162.353 143.61 175.933C143.275 176.274 126.605 193.189 126.605 193.189C126.605 193.189 95.5009 199.26 94.3382 199.579C93.1754 199.899 71.6644 198.94 71.6644 198.94L63.0891 179.928L56.9847 164.909L72.1004 137.908C72.1004 137.908 80.9032 112.671 80.2397 112.671C79.5762 112.671 66.8744 104.676 66.8744 104.676Z" fill="#275E8E"/>
<path d="M215.213 187.992L222.588 205.303L179.073 225.149L172.969 209.012L215.213 187.992Z" fill="#1D1644"/>
<path d="M224.71 190.375L217.203 192.653L220.287 199.892L226.36 198.086L224.71 190.375Z" fill="#1D1644"/>
<path d="M175.009 214.389L153.567 223.725H134.603V218.758H130.641V227.087H140.227V228.837H153.22L176.974 219.585L175.009 214.389Z" fill="#1D1644"/>
<path d="M219.293 154.344C219.262 154.476 211.805 159.074 208.746 159.283C205.688 159.491 204.506 157.296 203.817 155.65C203.129 154.003 202.383 151.19 202.383 151.19C202.383 151.19 219.521 136.512 219.698 136.845C220.949 139.11 221.088 139.832 221.088 144.473C221.088 146.404 219.394 154.33 219.293 154.344Z" fill="white"/>
<g opacity="0.3">
<path d="M151.598 194.382C151.933 194.077 120.052 206.928 117.473 207.789C114.895 208.65 112.203 217.646 112.203 217.646C112.203 217.646 115.344 210.873 119.376 209.144C123.414 207.421 146.157 199.335 151.598 194.382Z" fill="black"/>
</g>
<g opacity="0.3">
<path d="M63.0716 138.109L36.0312 153.315C36.0312 153.315 40.5117 144.757 53.0302 138.275C60.4428 134.441 72.7023 127.48 72.7023 127.48L72.1082 128.62C70.0039 132.676 66.8631 135.976 63.0716 138.109Z" fill="black"/>
</g>
<path d="M119.641 152.169C119.641 152.176 119.717 152.19 119.856 152.217C120.02 152.245 120.228 152.287 120.5 152.328C121.088 152.426 121.916 152.558 122.971 152.724C125.119 153.058 128.235 153.523 132.09 154.058C135.945 154.586 140.532 155.197 145.645 155.718C146.921 155.843 148.236 155.975 149.575 156.059C150.245 156.107 150.928 156.149 151.616 156.17C152.293 156.198 153.019 156.219 153.714 156.08C156.514 155.586 159.225 154.405 161.961 153.155C167.415 150.578 172.413 147.66 176.913 144.951C181.412 142.228 185.399 139.651 188.723 137.449C190.385 136.344 191.883 135.33 193.185 134.427C194.493 133.524 195.58 132.663 196.357 131.815C197.141 130.989 197.602 130.141 197.691 129.502C197.798 128.856 197.545 128.55 197.545 128.571C197.526 128.571 197.747 128.87 197.621 129.488C197.514 130.093 197.052 130.905 196.262 131.711C195.479 132.531 194.392 133.364 193.077 134.247C191.763 135.136 190.259 136.129 188.591 137.22C185.254 139.394 181.254 141.943 176.748 144.646C172.243 147.334 167.25 150.244 161.809 152.808C159.092 154.051 156.375 155.232 153.645 155.718C152.962 155.85 152.293 155.836 151.604 155.809C150.921 155.788 150.245 155.753 149.575 155.704C148.236 155.621 146.927 155.496 145.651 155.378C140.539 154.878 135.951 154.294 132.096 153.794C128.26 153.28 125.145 152.863 122.971 152.572C121.909 152.433 121.075 152.321 120.487 152.238C120.216 152.203 120.001 152.183 119.843 152.162C119.716 152.169 119.641 152.162 119.641 152.169Z" fill="#455A64"/>
<path d="M117.688 145.277C117.688 145.284 117.751 145.311 117.883 145.353C118.035 145.402 118.225 145.471 118.471 145.548C118.989 145.714 119.748 145.978 120.752 146.221C122.749 146.742 125.688 147.319 129.366 147.493C130.282 147.562 131.249 147.534 132.247 147.555C133.252 147.52 134.295 147.513 135.369 147.423C137.524 147.284 139.824 147.006 142.219 146.569C147.015 145.721 152.197 144.235 157.518 142.304C162.839 140.379 167.812 138.254 172.35 136.371C176.881 134.468 180.982 132.842 184.457 131.55C186.189 130.883 187.737 130.196 189.026 129.425C190.315 128.668 191.339 127.827 192.072 127.028C192.818 126.236 193.235 125.472 193.526 124.972C193.639 124.722 193.728 124.52 193.797 124.368C193.854 124.229 193.886 124.159 193.88 124.159C193.829 124.118 193.456 125.361 191.977 126.931C191.244 127.709 190.221 128.515 188.938 129.251C187.655 130.001 186.113 130.668 184.382 131.314C180.9 132.571 176.779 134.176 172.242 136.066C167.699 137.934 162.725 140.046 157.417 141.97C152.109 143.901 146.952 145.388 142.175 146.249C139.792 146.694 137.499 146.979 135.356 147.131C134.282 147.229 133.246 147.243 132.247 147.284C131.249 147.27 130.288 147.305 129.378 147.243C125.719 147.104 122.781 146.569 120.784 146.089C119.779 145.874 119.015 145.631 118.49 145.485C118.244 145.416 118.048 145.36 117.896 145.325C117.757 145.291 117.688 145.277 117.688 145.277Z" fill="#455A64"/>
<path d="M153.802 156.176C153.796 156.162 153.688 156.211 153.493 156.308C153.265 156.426 152.981 156.572 152.639 156.746C151.9 157.128 150.832 157.684 149.499 158.323C146.832 159.622 143.091 161.275 138.889 162.893C134.68 164.498 130.819 165.762 127.994 166.561C126.585 166.978 125.435 167.27 124.638 167.471C124.272 167.568 123.969 167.645 123.722 167.714C123.514 167.77 123.406 167.812 123.406 167.825C123.406 167.839 123.52 167.826 123.735 167.791C123.981 167.742 124.291 167.687 124.664 167.617C125.466 167.457 126.629 167.2 128.051 166.818C130.895 166.075 134.781 164.852 138.996 163.241C143.205 161.622 146.946 159.927 149.593 158.559C150.921 157.885 151.976 157.295 152.696 156.871C153.025 156.669 153.303 156.51 153.524 156.371C153.714 156.26 153.808 156.19 153.802 156.176Z" fill="#455A64"/>
<path d="M125.157 192.18C125.163 192.18 125.214 192.097 125.309 191.93C125.41 191.742 125.555 191.492 125.732 191.173C126.111 190.485 126.655 189.505 127.35 188.248C128.759 185.713 130.787 182.031 133.568 177.689C134.964 175.522 136.563 173.202 138.434 170.861C140.304 168.513 142.447 166.144 144.93 163.949C147.407 161.747 150.232 159.747 153.322 158.003C156.406 156.252 159.73 154.731 163.187 153.335C177.057 147.805 190.081 144.36 199.567 142.352C204.313 141.352 208.18 140.678 210.853 140.255C212.18 140.046 213.217 139.879 213.937 139.768C214.278 139.713 214.544 139.671 214.739 139.636C214.923 139.602 215.011 139.588 215.011 139.581C215.011 139.574 214.916 139.581 214.733 139.602C214.537 139.622 214.272 139.657 213.931 139.699C213.223 139.789 212.18 139.914 210.841 140.116C208.161 140.498 204.287 141.13 199.529 142.102C190.025 144.047 176.975 147.458 163.079 152.995C159.61 154.391 156.273 155.926 153.177 157.69C150.08 159.448 147.23 161.462 144.747 163.692C142.251 165.908 140.102 168.298 138.232 170.666C136.361 173.028 134.769 175.362 133.378 177.544C130.61 181.913 128.614 185.622 127.236 188.179C126.566 189.45 126.042 190.45 125.675 191.138C125.504 191.464 125.372 191.721 125.277 191.916C125.195 192.083 125.151 192.18 125.157 192.18Z" fill="#455A64"/>
<path d="M30.5106 219.418C36.0005 219.418 40.4509 214.526 40.4509 208.491C40.4509 202.457 36.0005 197.564 30.5106 197.564C25.0207 197.564 20.5703 202.457 20.5703 208.491C20.5703 214.526 25.0207 219.418 30.5106 219.418Z" fill="#BBD0E0"/>
<path d="M36.2356 153.093C36.242 153.1 36.343 152.975 36.5326 152.725C36.7222 152.482 36.975 152.1 37.3352 151.634C38.0303 150.69 39.0793 149.356 40.4822 147.828C41.8788 146.293 43.6672 144.605 45.8094 142.958C47.9517 141.319 50.4478 139.742 53.1714 138.325C58.6503 135.512 63.5351 132.782 67.055 130.788C68.7864 129.795 70.1956 128.982 71.213 128.398C71.6743 128.12 72.0472 127.898 72.3379 127.731C72.5907 127.579 72.7234 127.488 72.717 127.474C72.7107 127.461 72.5718 127.53 72.3063 127.662C72.0157 127.815 71.6301 128.016 71.1562 128.266C70.1325 128.822 68.7043 129.6 66.9538 130.559C63.4087 132.497 58.5113 135.185 53.0324 137.998C50.2898 139.422 47.781 141.02 45.6388 142.687C43.4965 144.361 41.7081 146.077 40.3242 147.647C38.934 149.21 37.9102 150.579 37.2467 151.551C36.9055 152.03 36.6654 152.426 36.4947 152.683C36.3052 152.947 36.223 153.086 36.2356 153.093Z" fill="#1D1644"/>
<path d="M48.3326 146.944C49.1225 146.951 49.5648 147.951 49.0719 148.632C47.6817 150.549 44.6168 153.946 39.239 155.968C31.4284 158.906 30.2277 157.392 31.0492 156.489C31.8012 155.662 41.8679 146.861 48.3326 146.944Z" fill="white"/>
<path d="M219.193 154.717C219.218 154.724 219.288 154.474 219.408 154.03C219.521 153.578 219.679 152.932 219.869 152.119C220.235 150.508 220.804 148.285 221.108 145.743C221.266 144.478 221.354 143.256 221.31 142.144C221.266 141.026 221.089 140.032 220.842 139.234C220.596 138.435 220.299 137.823 220.065 137.434C219.825 137.045 219.66 136.858 219.648 136.872C219.591 136.907 220.204 137.726 220.627 139.31C220.836 140.095 220.988 141.068 221.013 142.158C221.038 143.242 220.937 144.444 220.785 145.701C220.488 148.209 219.957 150.438 219.648 152.071C219.49 152.884 219.363 153.543 219.288 154.002C219.205 154.46 219.174 154.711 219.193 154.717Z" fill="#1D1644"/>
<g opacity="0.3">
<path d="M196.978 156.031L154.986 180.511C154.986 180.511 154.778 181.15 158.576 179.712C162.374 178.281 191.607 162.123 196.978 156.031Z" fill="black"/>
</g>
<path d="M249.882 131.064L247.032 134.468H211.732C211.732 134.468 205.419 130.3 205.034 130.293C204.648 130.286 249.882 131.064 249.882 131.064Z" fill="#1D1644"/>
<path d="M112.927 21.4546C111.177 14.1677 115.423 8.61049 121.894 6.10973L122.539 5.85966C129.61 3.62287 134.672 6.99889 136.511 14.8276L143.626 40.5784L143.961 41.8358L129.104 51.547L127.057 45.0728C127.057 45.0728 120.03 46.5108 117.61 39.2239C116.428 35.695 114.551 28.2344 112.927 21.4546Z" fill="#BBD0E0"/>
<path d="M116.932 27.7969C117.09 28.3526 117.653 28.6652 118.19 28.4985C118.721 28.3248 119.03 27.7344 118.866 27.1787C118.708 26.6229 118.146 26.3034 117.615 26.4771C117.078 26.6438 116.774 27.2342 116.932 27.7969Z" fill="#1D1644"/>
<path d="M115.51 24.4841C115.674 24.5744 116.205 23.713 117.229 23.3171C118.246 22.9072 119.181 23.199 119.251 23.0184C119.289 22.935 119.087 22.7336 118.676 22.6016C118.272 22.4626 117.64 22.421 117.001 22.671C116.363 22.9211 115.914 23.3865 115.687 23.7686C115.459 24.1576 115.428 24.4424 115.51 24.4841Z" fill="#1D1644"/>
<path d="M126.034 24.4766C126.192 25.0323 126.754 25.3449 127.292 25.1782C127.822 25.0045 128.132 24.4141 127.968 23.8583C127.81 23.3026 127.247 22.9831 126.717 23.1567C126.179 23.3304 125.876 23.9209 126.034 24.4766Z" fill="#1D1644"/>
<path d="M125.632 20.8024C125.796 20.8927 126.327 20.0314 127.351 19.6354C128.368 19.2256 129.304 19.5173 129.373 19.3367C129.411 19.2534 129.209 19.0519 128.798 18.9199C128.394 18.781 127.762 18.7393 127.124 18.9894C126.485 19.2395 126.037 19.7049 125.809 20.0869C125.582 20.4759 125.556 20.7608 125.632 20.8024Z" fill="#1D1644"/>
<path d="M124.592 30.5827C124.579 30.5202 123.903 30.6453 122.822 30.8953C122.551 30.9648 122.285 31.0065 122.178 30.8259C122.051 30.6453 122.058 30.291 122.077 29.9089C122.102 29.117 122.121 28.2904 122.146 27.4221C122.222 23.8932 122.178 21.0312 122.051 21.0312C121.925 21.0312 121.754 23.8863 121.679 27.4151C121.666 28.2834 121.653 29.1101 121.641 29.902C121.647 30.2632 121.596 30.7008 121.868 31.0829C122.007 31.2704 122.247 31.3538 122.431 31.3399C122.614 31.333 122.766 31.2774 122.898 31.2357C123.966 30.8884 124.611 30.6453 124.592 30.5827Z" fill="#1D1644"/>
<path d="M127.847 30.1926C127.676 30.2482 128.068 31.4708 127.392 32.7003C126.722 33.9368 125.496 34.2564 125.54 34.43C125.547 34.5134 125.881 34.562 126.387 34.3883C126.886 34.2147 127.543 33.7701 127.954 33.0129C128.365 32.2558 128.384 31.45 128.264 30.9359C128.144 30.408 127.923 30.1579 127.847 30.1926Z" fill="#1D1644"/>
<path d="M123.955 16.4944C124.151 16.7584 125.13 16.2235 126.381 15.9178C127.626 15.5844 128.72 15.5983 128.789 15.2579C128.821 15.0981 128.555 14.8758 128.069 14.73C127.588 14.5841 126.874 14.5424 126.129 14.7369C125.383 14.9314 124.764 15.3135 124.385 15.6747C124.012 16.0429 123.866 16.3694 123.955 16.4944Z" fill="#1D1644"/>
<path d="M114.342 21.3084C114.601 21.4959 115.226 20.9541 116.067 20.6137C116.901 20.2386 117.685 20.183 117.767 19.8496C117.798 19.6898 117.602 19.4814 117.211 19.3564C116.825 19.2383 116.244 19.2383 115.669 19.4814C115.094 19.7245 114.664 20.1552 114.449 20.5303C114.234 20.9124 114.222 21.2111 114.342 21.3084Z" fill="#1D1644"/>
<path d="M137.712 22.3646C137.39 21.2184 137.99 19.9819 139.052 19.6971C140.335 19.3498 141.965 19.586 142.786 22.441C144.246 27.505 139.324 28.0677 139.273 27.9218C139.235 27.8246 138.306 24.4902 137.712 22.3646Z" fill="#FFC4A3"/>
<path d="M139.733 25.6711C139.745 25.6503 139.834 25.7059 139.986 25.7267C140.137 25.7476 140.377 25.7128 140.586 25.5322C141.016 25.164 141.18 24.1776 140.94 23.2538C140.82 22.7883 140.605 22.3785 140.352 22.0728C140.106 21.7533 139.815 21.5657 139.556 21.6074C139.297 21.6283 139.17 21.8506 139.151 22.0103C139.132 22.1701 139.189 22.2673 139.164 22.2812C139.158 22.3021 139.044 22.2326 139.019 22.0103C139.006 21.9061 139.031 21.7672 139.107 21.6283C139.189 21.4893 139.335 21.3851 139.512 21.3435C139.872 21.2462 140.295 21.4963 140.573 21.8367C140.87 22.1701 141.123 22.6286 141.256 23.1496C141.521 24.1776 141.319 25.296 140.712 25.7406C140.415 25.949 140.112 25.9351 139.941 25.8587C139.777 25.7892 139.72 25.685 139.733 25.6711Z" fill="#FFA175"/>
<path d="M105.702 165.742L110.265 190.576L80.5389 197.266C80.1534 194.279 94.4162 184.901 94.4162 184.901L90.8647 169.125L105.702 165.742Z" fill="#455A64"/>
<g opacity="0.6">
<path d="M103.359 181.49C103.966 181.525 104.491 182.108 104.472 182.74C104.453 183.372 103.878 183.949 103.271 183.921C102.664 183.9 102.013 183.22 102.102 182.594C102.19 181.962 102.898 181.33 103.48 181.504" fill="white"/>
</g>
<g opacity="0.6">
<path d="M110.269 190.576L109.713 188.096L81.4212 195.438C81.4212 195.438 80.2079 196.334 80.5428 197.265L110.269 190.576Z" fill="white"/>
</g>
<path d="M94.3939 184.956C94.4255 185.109 95.1649 185.012 95.9738 185.331C96.789 185.63 97.2819 186.206 97.402 186.116C97.5283 186.054 97.1429 185.206 96.1634 184.831C95.1776 184.449 94.3308 184.824 94.3939 184.956Z" fill="#1D1644"/>
<path d="M91.2349 187.11C91.2286 187.262 91.9048 187.38 92.5178 187.901C93.1434 188.409 93.4025 189.068 93.5415 189.034C93.6805 189.027 93.6173 188.124 92.84 187.485C92.0754 186.832 91.2096 186.964 91.2349 187.11Z" fill="#1D1644"/>
<path d="M90.1488 191.382C90.2879 191.382 90.3447 190.584 89.8202 189.847C89.2957 189.104 88.55 188.93 88.5121 189.069C88.4552 189.208 88.9797 189.555 89.4031 190.174C89.8391 190.771 90.0035 191.396 90.1488 191.382Z" fill="#1D1644"/>
<path d="M93.751 181.816C93.8394 181.941 94.4651 181.58 95.2929 181.455C96.1207 181.309 96.8159 181.455 96.8664 181.309C96.9296 181.184 96.2028 180.767 95.2233 180.927C94.2502 181.086 93.6625 181.719 93.751 181.816Z" fill="#1D1644"/>
<g opacity="0.3">
<path d="M160.744 137.379C160.744 137.379 153.18 144.068 137.508 144.728C121.836 145.388 116.414 141.054 116.414 141.054L118.221 138.636L160.744 137.379Z" fill="black"/>
</g>
<path d="M135.292 111.877C133.839 112.141 99.0889 112.759 91.2087 113.426C83.3285 114.093 80.5796 116.267 78.8039 120.977C77.0345 125.687 78.0077 133.71 81.003 141.143C83.9984 148.575 92.8581 182.238 92.8581 182.238L109.194 178.119C109.194 178.119 104.321 147.006 101.421 141.143C98.5202 135.28 98.5202 135.28 98.5202 135.28C98.5202 135.28 114.723 141.122 126.818 141.657C138.913 142.192 146.635 141.754 151.122 137.586C155.609 133.418 163.11 129.431 162.87 117.198L135.292 111.877Z" fill="#BBD0E0"/>
<path d="M90.4541 128.499C90.4288 128.541 90.9154 128.972 91.7243 129.652C92.6216 130.403 93.6959 131.299 94.8839 132.292C96.0656 133.286 97.1399 134.182 98.0372 134.932C98.8461 135.606 99.358 136.009 99.3896 135.967C99.4149 135.932 98.9599 135.453 98.1826 134.73C97.4116 134.008 96.3184 133.035 95.0798 132C93.8475 130.965 92.7037 130.069 91.8569 129.444C91.0165 128.819 90.4793 128.458 90.4541 128.499Z" fill="#455A64"/>
<path d="M90.8132 131.32C90.7689 131.41 92.8733 132.674 95.5021 134.154C98.131 135.626 100.299 136.752 100.336 136.661C100.381 136.571 98.2826 135.307 95.6475 133.827C93.0186 132.355 90.8574 131.229 90.8132 131.32Z" fill="#455A64"/>
<path d="M128.027 0.518066C127.035 0.768142 110.599 4.97775 108.634 23.1568C106.662 41.3359 115.212 52.4781 120.362 50.943C122.707 50.2483 129.456 40.3912 134.473 37.5639C139.497 34.7367 150.335 29.756 150.335 29.756C150.335 29.756 152.439 18.329 146.53 8.93727C140.622 -0.454447 132.799 -0.697577 128.027 0.518066Z" fill="#1D1644"/>
<path d="M119.981 19.059C116.038 19.4063 108.329 26.9086 108.329 26.9086C107.665 31.8406 108.948 39.4401 109.245 39.2943C109.245 39.2943 122.421 28.5063 123.508 25.5193C124.5 22.8101 123.925 18.7186 119.981 19.059Z" fill="#455A64"/>
<path d="M150.737 26.0605C144.134 27.2137 138.212 31.4094 132.891 35.6884C127.255 40.2176 122.97 45.3302 118.148 50.8666C118.888 51.0889 119.665 51.2487 120.354 50.95C122.774 49.9011 129.504 42.1835 134.522 38.5018C139.217 35.0563 150.326 29.763 150.326 29.763C150.326 29.763 150.864 28.3529 150.737 26.0605Z" fill="#1D1644"/>
<g opacity="0.3">
<path d="M112.767 23.038L112.641 36.431L115.908 33.5759L116.034 20.7109L112.767 23.038Z" fill="white"/>
</g>
<g opacity="0.3">
<path d="M117.047 20.1209L117.331 32.2912L119.094 30.6449L118.772 19.3359C118.772 19.3359 117.338 19.9611 117.047 20.1209Z" fill="white"/>
</g>
<path d="M89.1204 93.1074C89.9672 93.684 91.7113 94.8024 93.1078 95.6846C93.9736 96.2334 94.7951 97.0114 95.0542 98.0672C95.1806 98.5882 95.149 99.1856 94.852 99.6163C94.4412 100.207 93.6577 100.311 92.9878 100.186C92.318 100.061 89.2973 98.2895 87.9766 97.2198L89.1204 93.1074Z" fill="#455A64"/>
<path d="M97.1855 91.7399C96.9959 91.6843 89.9435 86.9885 88.844 87.0996C87.7444 87.2107 82.1771 89.5795 81.937 90.5798C81.6969 91.5801 82.9418 93.9003 82.9418 93.9003H83.1819C83.1819 93.9003 82.2214 94.9006 82.9418 95.9564C83.6622 97.0123 84.4963 97.7486 84.4963 97.7486C84.4963 97.7486 83.0871 99.1727 84.2878 100.381C85.4884 101.59 87.6433 100.173 87.6433 100.173C87.6433 100.173 89.2231 101.215 90.0889 100.694C90.9546 100.173 90.3543 99.388 90.3543 99.388L88.7998 98.0126C88.7998 98.0126 88.37 98.2905 88.9451 96.6789C89.5202 95.0673 90.0952 95.0325 91.2706 95.0464C92.446 95.0603 94.2154 96.1162 94.5567 97.1721C94.8916 98.2279 97.1918 99.8604 97.1918 99.8604V91.7399H97.1855Z" fill="#BBD0E0"/>
<path d="M127.005 48.5746C127.005 48.5746 123.732 62.8914 123.599 69.2892C123.403 78.924 125.135 108.759 123.789 109.378C120.414 110.927 120.414 112.379 120.414 112.379C120.414 112.379 124.016 115.275 132.629 120.742C141.249 126.209 146.879 140.859 147.878 140.727C148.87 140.595 161.11 138.504 164.883 128.647C167.316 122.291 165.401 112.552 165.401 112.552C165.401 112.552 157.951 58.7513 156.232 53.1941C155.088 49.4846 152.314 46.6435 144.168 44.5665C136.421 42.5937 131.587 44.0316 127.005 48.5746Z" fill="#275E8E"/>
<g opacity="0.3">
<path d="M147.766 80.2441C147.766 80.2441 143.229 100.584 142.123 102.313C141.023 104.043 162.995 112.275 162.667 112.546C162.338 112.816 145.371 107.78 142.123 106.106L140.473 105.002C140.473 105.002 138.723 108.558 133.693 110.267C128.662 111.976 119.266 107.697 119.266 107.697L147.766 80.2441Z" fill="black"/>
</g>
<path d="M143.704 97.3042C143.691 97.325 143.969 97.5612 144.493 97.978C145.012 98.3948 145.776 98.9714 146.73 99.673C148.639 101.076 151.325 102.931 154.377 104.813C157.429 106.696 160.273 108.252 162.352 109.315C163.395 109.843 164.241 110.259 164.835 110.53C165.429 110.801 165.758 110.94 165.771 110.919C165.777 110.899 165.467 110.711 164.892 110.405C164.267 110.065 163.445 109.62 162.459 109.092C160.405 107.974 157.593 106.39 154.541 104.508C151.495 102.625 148.797 100.812 146.863 99.4646C145.934 98.8185 145.163 98.2767 144.576 97.8669C144.026 97.4848 143.722 97.2834 143.704 97.3042Z" fill="#1D1644"/>
<path d="M155.147 50.5051C157.213 50.6232 159.337 50.5329 161.251 49.6715C163.166 48.8171 164.847 47.0735 165.283 44.8506C165.618 43.1418 165.188 41.3218 164.367 39.8213C163.545 38.3209 162.364 37.1052 161.112 36.0146C158.496 33.7292 155.539 31.9301 152.392 30.7075C150.97 30.1518 149.409 29.7211 147.962 30.1796C146.944 30.506 146.091 31.2354 145.257 31.9579C141.838 34.9101 138.42 37.8694 135.001 40.8216C131.702 43.6767 128.233 46.7818 126.938 51.1789L127.569 55.8262L136.271 49.998L155.147 50.5051Z" fill="#275E8E"/>
<path d="M147.69 79.9241C147.76 79.9936 149.175 78.3542 150.856 76.2702C152.537 74.1863 153.845 72.4427 153.776 72.3732C153.706 72.3038 152.291 73.9431 150.61 76.0271C148.929 78.1111 147.621 79.8546 147.69 79.9241Z" fill="#1D1644"/>
<path d="M143.281 43.8231C143.269 43.8787 144.128 44.1079 145.487 44.5386C146.845 44.9762 148.722 45.6223 150.631 46.7268C151.579 47.2894 152.425 47.9216 153.146 48.5676C153.854 49.2275 154.435 49.9013 154.858 50.5126C155.718 51.7422 156.059 52.6452 156.122 52.6105C156.141 52.6035 156.065 52.3743 155.901 51.9714C155.819 51.7699 155.724 51.5199 155.566 51.2559C155.415 50.9919 155.269 50.6654 155.042 50.3598C154.631 49.7138 154.056 49.0052 153.335 48.3106C152.609 47.6368 151.743 46.9768 150.782 46.4072C148.836 45.2819 146.928 44.6706 145.544 44.2955C144.849 44.1079 144.286 43.9829 143.894 43.9065C143.503 43.8301 143.281 43.8023 143.281 43.8231Z" fill="#1D1644"/>
<g opacity="0.3">
<path d="M148.086 45.4273C150.235 45.7121 152.326 46.3789 154.45 46.8444C156.573 47.3167 158.778 47.5876 160.895 47.0805C162.633 46.6637 164.308 45.6426 165.369 44.1074C165.35 44.3575 165.319 44.6076 165.275 44.8576C164.838 47.0805 163.158 48.8172 161.243 49.6785C159.328 50.533 157.205 50.6233 155.138 50.5121H155.025C154.772 50.2065 154.532 49.88 154.292 49.5743C152.674 47.5321 150.475 46.0664 148.086 45.4273Z" fill="black"/>
</g>
<path d="M133.18 51.3456C133.224 51.4151 134.103 50.4287 135.916 49.609C136.814 49.1992 137.945 48.8657 139.228 48.7685C140.504 48.6712 141.932 48.8379 143.323 49.3937C144.707 49.9633 145.895 50.8524 146.811 51.8458C147.727 52.8322 148.397 53.895 148.833 54.8467C149.724 56.7639 149.813 58.1393 149.888 58.1185C149.901 58.1185 149.895 58.0352 149.882 57.8754C149.863 57.7156 149.851 57.4794 149.787 57.1807C149.686 56.5833 149.465 55.722 149.035 54.7355C148.612 53.7491 147.948 52.6377 147.02 51.6096C146.091 50.5815 144.865 49.6507 143.436 49.0602C141.996 48.4906 140.517 48.3239 139.203 48.442C137.882 48.5601 136.725 48.9282 135.822 49.3798C134.912 49.8313 134.236 50.3175 133.806 50.7066C133.585 50.8872 133.433 51.0608 133.326 51.172C133.224 51.2762 133.174 51.3387 133.18 51.3456Z" fill="#1D1644"/>
<path d="M150.336 69.9284C150.134 70.7133 143.353 97.3185 140.295 101.327C137.23 105.335 132.459 108.162 127.315 108.162C122.171 108.162 102.455 106.412 100.123 103.987C97.7973 101.563 92.7862 91.9002 98.0439 91.0736C103.302 90.2539 126.449 89.983 126.449 89.983C126.449 89.983 127.182 89.0383 127.309 89.0383C127.435 89.0383 126.203 87.4475 126.449 85.9401C127.018 82.4877 127.795 66.9552 129.141 61.8426C130.487 56.7299 134.532 48.9151 141.022 50.4016C147.524 51.8882 152.03 63.3708 150.336 69.9284Z" fill="#275E8E"/>
<path d="M128.11 91.5603C128.097 91.5742 128.325 91.8174 128.773 92.2064C129.222 92.5954 129.886 93.1303 130.764 93.7068C131.642 94.2834 132.729 94.8947 133.987 95.4365C134.619 95.7074 135.289 95.9644 135.996 96.1798C136.357 96.2909 136.698 96.4021 137.096 96.4854C137.292 96.5202 137.513 96.541 137.734 96.4715C137.943 96.4021 138.189 96.2562 138.259 95.9297C138.309 95.5893 138.107 95.3601 137.962 95.2142C137.804 95.0614 137.639 94.9502 137.481 94.8322C137.166 94.596 136.843 94.3876 136.521 94.1861C135.883 93.7832 135.251 93.429 134.638 93.1164C133.418 92.4842 132.281 92.0119 131.326 91.6229C130.372 91.2408 129.589 90.9629 129.045 90.7823C128.502 90.6017 128.198 90.5114 128.192 90.5322C128.186 90.5531 128.476 90.6851 129.007 90.9143C129.595 91.1644 130.347 91.4839 131.251 91.866C132.192 92.2828 133.311 92.776 134.518 93.422C135.118 93.7415 135.744 94.0958 136.369 94.4987C136.679 94.7002 137.001 94.9086 137.305 95.1378C137.462 95.2559 137.627 95.3601 137.747 95.4851C137.88 95.6102 137.968 95.756 137.936 95.8602C137.924 95.9644 137.791 96.0825 137.639 96.1242C137.494 96.1728 137.317 96.1659 137.147 96.1312C136.799 96.0547 136.432 95.9366 136.085 95.8394C135.383 95.6241 134.72 95.3809 134.094 95.1239C132.843 94.6099 131.762 94.0264 130.878 93.4845C129.993 92.9427 129.311 92.4425 128.843 92.0952C128.375 91.7409 128.123 91.5395 128.11 91.5603Z" fill="#1D1644"/>
<path d="M124.563 93.9081C124.551 93.922 124.69 94.2138 125.012 94.7C125.328 95.1863 125.827 95.874 126.529 96.6173C127.23 97.3675 128.14 98.1803 129.24 98.9374C129.789 99.3125 130.39 99.6668 131.028 99.9933C131.35 100.16 131.679 100.313 132.014 100.459C132.349 100.591 132.759 100.785 133.214 100.556C133.429 100.445 133.581 100.132 133.543 99.8822C133.518 99.6321 133.423 99.4306 133.322 99.25C133.094 98.8958 132.873 98.6179 132.646 98.3122C132.191 97.7218 131.736 97.173 131.287 96.659C130.383 95.6448 129.505 94.8042 128.74 94.1374C127.976 93.4705 127.331 92.9773 126.87 92.6508C126.415 92.3243 126.149 92.1646 126.137 92.1854C126.124 92.2062 126.364 92.4077 126.794 92.7689C127.224 93.1301 127.849 93.6511 128.589 94.3388C129.328 95.0265 130.181 95.881 131.066 96.8951C131.508 97.4022 131.957 97.951 132.399 98.5415C132.614 98.8332 132.861 99.1458 133.044 99.4445C133.227 99.7571 133.303 100.118 133.056 100.243C132.816 100.382 132.45 100.271 132.134 100.125C131.799 99.9794 131.477 99.8335 131.161 99.6738C130.529 99.3542 129.941 99.0069 129.391 98.6526C128.304 97.9302 127.394 97.1522 126.68 96.4297C125.258 94.9987 124.614 93.8665 124.563 93.9081Z" fill="#1D1644"/>
<path d="M129.148 61.8574C129.148 61.8574 129.097 62.0241 129.015 62.3506C128.927 62.6771 128.819 63.1703 128.699 63.8233C128.459 65.1223 128.181 67.0604 127.909 69.5542C127.631 72.048 127.359 75.0975 127.056 78.6264C126.904 80.3908 126.753 82.2802 126.544 84.2669C126.487 84.7671 126.431 85.2672 126.355 85.7674C126.254 86.2814 126.292 86.858 126.45 87.372C126.595 87.893 126.835 88.3793 127.088 88.8447L127.176 89.0114L127.195 89.0462C127.208 89.0392 127.151 88.9559 127.303 88.9003C127.208 88.9211 127.183 88.9559 127.151 88.9767C127.037 89.0739 126.955 89.1712 126.867 89.2684C126.69 89.4699 126.525 89.6783 126.355 89.8867L126.45 89.8381C120.452 89.9145 113.558 90.0187 106.044 90.3243C104.168 90.4007 102.247 90.5049 100.3 90.6578C99.8136 90.7064 99.3207 90.7272 98.8278 90.7967C98.3412 90.8592 97.8357 90.887 97.3365 91.0815C96.8436 91.2552 96.3696 91.5955 96.0599 92.0818C95.7503 92.5681 95.6113 93.1585 95.5797 93.7281C95.5165 94.8813 95.7819 96.0066 96.1168 97.0764C96.4644 98.1531 96.9131 99.1811 97.4186 100.188C97.9305 101.189 98.5055 102.161 99.1628 103.078C99.5103 103.53 99.8136 103.988 100.294 104.356C100.768 104.683 101.28 104.87 101.785 105.065C104.155 105.857 106.556 106.253 108.913 106.635C111.277 107.003 113.615 107.288 115.915 107.538C118.215 107.781 120.478 107.982 122.696 108.128C123.808 108.205 124.901 108.267 125.988 108.302C127.075 108.344 128.162 108.337 129.224 108.198C133.489 107.6 137.205 105.211 139.79 102.168C140.106 101.772 140.434 101.404 140.674 100.953C140.801 100.737 140.946 100.529 141.06 100.3L141.376 99.6257C141.818 98.7366 142.134 97.8196 142.494 96.9374C143.151 95.1522 143.739 93.4155 144.27 91.7484C146.381 85.0866 147.834 79.5989 148.845 75.82C149.332 73.9305 149.711 72.4648 149.97 71.4506C150.09 70.9574 150.185 70.5823 150.248 70.3114C150.311 70.0543 150.33 69.9223 150.33 69.9223C150.33 69.9223 150.286 70.0474 150.216 70.3044C150.141 70.5753 150.04 70.9504 149.907 71.4367C149.635 72.4439 149.231 73.9097 148.719 75.7852C147.67 79.5572 146.185 85.0241 144.049 91.6719C143.512 93.3322 142.918 95.0549 142.26 96.8332C141.9 97.7085 141.578 98.6254 141.142 99.4937L140.826 100.161C140.719 100.376 140.58 100.577 140.453 100.786C140.219 101.216 139.897 101.585 139.587 101.967C137.034 104.954 133.369 107.288 129.186 107.871C128.143 108.01 127.081 108.01 125.995 107.969C124.914 107.927 123.814 107.864 122.708 107.788C120.497 107.635 118.234 107.434 115.94 107.191C113.647 106.94 111.315 106.656 108.958 106.287C106.607 105.905 104.206 105.503 101.886 104.731C101.393 104.544 100.894 104.356 100.471 104.065C100.079 103.773 99.7377 103.294 99.4155 102.863C98.7709 101.974 98.2085 101.008 97.6966 100.029C97.1974 99.0422 96.755 98.0211 96.4138 96.9722C96.0852 95.9302 95.8324 94.8326 95.8956 93.7698C95.9272 93.2419 96.0536 92.7209 96.3191 92.3041C96.5845 91.8873 96.9825 91.5955 97.4312 91.4288C97.8735 91.2552 98.3664 91.2274 98.853 91.1649C99.3396 91.0954 99.8262 91.0676 100.313 91.019C102.259 90.8661 104.174 90.762 106.051 90.6786C113.558 90.3591 120.452 90.234 126.45 90.1368H126.506L126.544 90.0881C126.709 89.8797 126.873 89.6713 127.044 89.4768C127.126 89.3796 127.214 89.2823 127.303 89.2129C127.322 89.192 127.347 89.192 127.315 89.192C127.486 89.1365 127.429 89.0253 127.435 89.0045L127.423 88.9559L127.397 88.9003L127.303 88.7197C127.05 88.2612 126.822 87.7958 126.683 87.3026C126.538 86.8094 126.5 86.3162 126.595 85.823C126.671 85.3089 126.728 84.8018 126.778 84.3017C126.98 82.308 127.119 80.4186 127.265 78.6541C127.549 75.1184 127.802 72.0688 128.055 69.575C128.307 67.0812 128.56 65.1501 128.775 63.8441C128.882 63.1912 128.977 62.6979 129.053 62.3645C129.123 62.0311 129.148 61.8574 129.148 61.8574Z" fill="#1D1644"/>
<g opacity="0.3">
<path d="M134.065 92.9084C135.197 93.3947 136.277 94.0755 137.263 94.8118C137.535 95.0132 137.769 95.2703 137.939 95.5759C138.002 95.694 138.066 95.8468 138.009 95.9719C137.965 96.0691 137.876 96.1177 137.781 96.1525C137.51 96.2497 137.225 96.2983 136.941 96.2914C135.582 96.2567 134.495 95.5134 133.364 94.8812C132.271 94.27 131.121 93.7629 130.072 93.0613C129.219 92.4986 128.416 91.79 127.841 90.9009C127.708 90.6925 127.898 90.4285 128.113 90.5119C130.027 91.3177 132.189 92.1026 134.065 92.9084Z" fill="black"/>
</g>
<g opacity="0.8">
<path d="M127.511 74.5254L147.619 80.0965L145.768 86.5359L126.93 81.3955L127.511 74.5254Z" fill="white"/>
</g>
<g opacity="0.8">
<path d="M111.872 90.3711L112.554 106.869C110.45 106.619 108.384 106.313 106.368 105.945L106.172 90.5031L111.872 90.3711Z" fill="white"/>
</g>
<path opacity="0.64" d="M219.673 111.18L243.752 94.5522C243.845 94.4937 243.952 94.5961 243.899 94.6985L234.52 114.375C234.426 114.572 234.227 114.682 234.027 114.645L219.846 112.123C219.42 112.05 219.307 111.435 219.673 111.18Z" fill="url(#paint0_linear_2353_2697)"/>
<path opacity="0.64" d="M243.804 94.6257L221.827 118.053C221.468 118.433 221.82 119.084 222.299 118.916L234.192 114.77C234.312 114.726 234.412 114.638 234.465 114.514L243.911 94.7061C243.937 94.6403 243.857 94.5745 243.804 94.6257Z" fill="url(#paint1_linear_2353_2697)"/>
<path opacity="0.64" d="M240.534 89.1777C240.061 89.1777 239.882 89.8578 240.288 90.1356L244.598 93.0677C244.764 93.1847 244.984 93.17 245.137 93.0311L248.502 90.099C248.848 89.7919 248.655 89.1777 248.21 89.1777H240.534Z" fill="url(#paint2_linear_2353_2697)"/>
<path opacity="0.64" d="M243.571 94.1285L206.754 79.9214C206.295 79.7459 205.922 80.3601 206.248 80.755L233.913 114.163C234.132 114.426 234.525 114.375 234.678 114.053L243.831 94.8597C243.97 94.5818 243.844 94.2382 243.571 94.1285Z" fill="url(#paint3_linear_2353_2697)"/>
<defs>
<linearGradient id="paint0_linear_2353_2697" x1="219.456" y1="104.595" x2="243.915" y2="104.595" gradientUnits="userSpaceOnUse">
<stop stop-color="white"/>
<stop offset="0.9993" stop-color="#00BAD3"/>
</linearGradient>
<linearGradient id="paint1_linear_2353_2697" x1="221.682" y1="106.775" x2="243.914" y2="106.775" gradientUnits="userSpaceOnUse">
<stop stop-color="white"/>
<stop offset="0.9993" stop-color="#00BAD3"/>
</linearGradient>
<linearGradient id="paint2_linear_2353_2697" x1="240.065" y1="91.1605" x2="248.687" y2="91.1605" gradientUnits="userSpaceOnUse">
<stop stop-color="white"/>
<stop offset="0.9993" stop-color="#00BAD3"/>
</linearGradient>
<linearGradient id="paint3_linear_2353_2697" x1="206.131" y1="97.1104" x2="243.888" y2="97.1104" gradientUnits="userSpaceOnUse">
<stop stop-color="white"/>
<stop offset="0.9993" stop-color="#00BAD3"/>
</linearGradient>
</defs>
</svg>
