<svg width="31" height="31" viewBox="0 0 31 31" fill="none" xmlns="http://www.w3.org/2000/svg">
<g clip-path="url(#clip0_2429_3496)">
<path d="M24.5418 23.2508C25.7408 23.2508 26.8907 22.7745 27.7385 21.9267C28.5864 21.0788 29.0627 19.9289 29.0627 18.7299C29.0627 17.5309 28.5864 16.3811 27.7385 15.5332C26.8907 14.6854 25.7408 14.2091 24.5418 14.2091H23.2502C23.4386 13.3695 23.4415 12.5046 23.2586 11.664C23.0757 10.8234 22.7106 10.0234 22.1842 9.30973C21.6578 8.59607 20.9804 7.98272 20.1906 7.50469C19.4008 7.02666 18.5141 6.69332 17.5812 6.5237C16.6483 6.35407 15.6873 6.35149 14.7533 6.51609C13.8193 6.6807 12.9304 7.00927 12.1374 7.48304C10.536 8.43986 9.42247 9.93005 9.04184 11.6258C7.66486 11.5706 6.31066 11.975 5.2111 12.7698C4.11155 13.5646 3.33502 14.7002 3.0145 15.9823C2.69397 17.2645 2.84937 18.6133 3.45409 19.7979C4.05881 20.9825 5.07523 21.9291 6.32934 22.4758" stroke="white" stroke-width="2" stroke-linecap="round" stroke-linejoin="round"/>
<path d="M15.5 16.793V28.418" stroke="white" stroke-width="2" stroke-linecap="round" stroke-linejoin="round"/>
<path d="M11.625 24.543L15.5 28.418L19.375 24.543" stroke="white" stroke-width="2" stroke-linecap="round" stroke-linejoin="round"/>
</g>
<defs>
<clipPath id="clip0_2429_3496">
<rect width="31" height="31" fill="white"/>
</clipPath>
</defs>
</svg>
