<svg width="109" height="112" viewBox="0 0 109 112" fill="none" xmlns="http://www.w3.org/2000/svg">
<g clip-path="url(#clip0_2358_3596)">
<path d="M94.7877 48.906C93.4396 40.8225 89.8177 33.3214 84.3689 27.3283C78.9201 21.3353 71.8829 17.1125 64.1257 15.1812C56.3685 13.2498 48.2307 13.6944 40.7165 16.46C33.2023 19.2256 26.6405 24.1912 21.8409 30.7441C17.0412 37.297 14.2138 45.1504 13.7074 53.3353C13.201 61.5202 15.0378 69.6783 18.9912 76.8029C22.9446 83.9276 28.8416 89.7071 35.9544 93.4282C43.0673 97.1493 51.0848 98.6491 59.0176 97.7427" stroke="#3273BA" stroke-width="4" stroke-linecap="round" stroke-linejoin="round"/>
<path d="M40.875 46.668H40.9202" stroke="#3273BA" stroke-width="4" stroke-linecap="round" stroke-linejoin="round"/>
<path d="M68.125 46.668H68.1702" stroke="#3273BA" stroke-width="4" stroke-linecap="round" stroke-linejoin="round"/>
<path d="M43.1406 70C46.129 72.9867 50.2256 74.6667 54.4948 74.6667C56.1162 74.6667 57.7148 74.424 59.2318 73.962" stroke="#3273BA" stroke-width="4" stroke-linecap="round" stroke-linejoin="round"/>
<path d="M95.3698 70H84.0156C82.2088 70 80.4761 70.7375 79.1985 72.0503C77.9209 73.363 77.2031 75.1435 77.2031 77C77.2031 78.8565 77.9209 80.637 79.1985 81.9497C80.4761 83.2625 82.2088 84 84.0156 84H88.5573C90.3641 84 92.0969 84.7375 93.3745 86.0503C94.652 87.363 95.3698 89.1435 95.3698 91C95.3698 92.8565 94.652 94.637 93.3745 95.9497C92.0969 97.2625 90.3641 98 88.5573 98H77.2031" stroke="#3273BA" stroke-width="4" stroke-linecap="round" stroke-linejoin="round"/>
<path d="M86.2969 97.9987V102.665M86.2969 65.332V69.9987" stroke="#3273BA" stroke-width="4" stroke-linecap="round" stroke-linejoin="round"/>
</g>
<defs>
<clipPath id="clip0_2358_3596">
<rect width="109" height="112" fill="white"/>
</clipPath>
</defs>
</svg>
