<svg width="14" height="29" viewBox="0 0 14 29" fill="none" xmlns="http://www.w3.org/2000/svg">
<path fill-rule="evenodd" clip-rule="evenodd" d="M3.59849 14.609V28.1874C3.59849 28.3853 3.75521 28.5411 3.94492 28.5411H8.88567C9.0795 28.5411 9.2321 28.3811 9.2321 28.1874V14.3858H12.8119C12.9933 14.3858 13.1418 14.2427 13.1583 14.0616L13.5006 9.90179C13.5171 9.69548 13.3604 9.51865 13.1542 9.51865H9.22797V6.56718C9.22797 5.87668 9.77649 5.31249 10.4529 5.31249H13.2119C13.4058 5.31249 13.5583 5.1525 13.5583 4.95882V0.798983C13.5583 0.605306 13.4016 0.445312 13.2119 0.445312H8.54749C5.80904 0.445312 3.59024 2.71049 3.59024 5.50617V9.51444H1.11987C0.930154 9.51444 0.773438 9.67443 0.773438 9.86811V14.028C0.773438 14.2258 0.930154 14.3816 1.11987 14.3816H3.59024V14.609H3.59849Z" fill="#004079"/>
</svg>
