                    <svg width="71" height="41" viewBox="0 0 71 41" fill="none" xmlns="http://www.w3.org/2000/svg">
                        <rect width="71" height="41" rx="20.5" fill="#BBE6F9"/>
                        <g clip-path="url(#clip0_2429_3494)">
                        <path d="M44.5418 28.2508C45.7408 28.2508 46.8907 27.7745 47.7385 26.9267C48.5864 26.0788 49.0627 24.9289 49.0627 23.7299C49.0627 22.5309 48.5864 21.3811 47.7385 20.5332C46.8907 19.6854 45.7408 19.2091 44.5418 19.2091H43.2502C43.4386 18.3695 43.4415 17.5046 43.2586 16.664C43.0757 15.8234 42.7106 15.0234 42.1842 14.3097C41.6578 13.5961 40.9804 12.9827 40.1906 12.5047C39.4008 12.0267 38.5141 11.6933 37.5812 11.5237C36.6483 11.3541 35.6873 11.3515 34.7533 11.5161C33.8193 11.6807 32.9304 12.0093 32.1374 12.483C30.536 13.4399 29.4225 14.9301 29.0418 16.6258C27.6649 16.5706 26.3107 16.975 25.2111 17.7698C24.1115 18.5646 23.335 19.7002 23.0145 20.9823C22.694 22.2645 22.8494 23.6133 23.4541 24.7979C24.0588 25.9825 25.0752 26.9291 26.3293 27.4758" stroke="white" stroke-width="2" stroke-linecap="round" stroke-linejoin="round"/>
                        <path d="M35.5 21.793V33.418" stroke="white" stroke-width="2" stroke-linecap="round" stroke-linejoin="round"/>
                        <path d="M31.625 29.543L35.5 33.418L39.375 29.543" stroke="white" stroke-width="2" stroke-linecap="round" stroke-linejoin="round"/>
                        </g>
                        <defs>
                        <clipPath id="clip0_2429_3494">
                        <rect width="31" height="31" fill="white" transform="translate(20 5)"/>
                        </clipPath>
                        </defs>
                    </svg>