<svg width="27" height="28" viewBox="0 0 27 28" fill="none" xmlns="http://www.w3.org/2000/svg">
<path d="M20.1395 0.347656H7.04119C3.30882 0.347656 0.273438 3.44648 0.273438 7.25687V20.6332C0.273438 24.4436 3.30882 27.5424 7.04119 27.5424H20.1395C23.8719 27.5424 26.9073 24.4436 26.9073 20.6332V7.25687C26.9073 3.44648 23.8719 0.347656 20.1395 0.347656ZM13.7265 22.1952C9.27236 22.1952 5.64722 18.4943 5.64722 13.9471C5.64722 9.39994 9.27236 5.69903 13.7265 5.69903C18.1806 5.69903 21.8057 9.39994 21.8057 13.9471C21.8057 18.4943 18.1806 22.1952 13.7265 22.1952ZM22.2759 7.10529C21.2118 7.10529 20.354 6.22533 20.354 5.14326C20.354 4.0612 21.2159 3.17702 22.2759 3.17702C23.3399 3.17702 24.1977 4.05699 24.1977 5.14326C24.1977 6.22954 23.3399 7.10529 22.2759 7.10529Z" fill="#004079"/>
<path d="M13.7227 8.66406C10.8688 8.66406 8.54688 11.0345 8.54688 13.9481C8.54688 16.8616 10.8688 19.2321 13.7227 19.2321C16.5766 19.2321 18.8985 16.8616 18.8985 13.9481C18.8944 11.0303 16.5766 8.66406 13.7227 8.66406Z" fill="#004079"/>
</svg>
