<svg width="44" height="43" viewBox="0 0 44 43" fill="none" xmlns="http://www.w3.org/2000/svg">
<path d="M11.3766 14.0156H31.7583C32.2766 14.0156 32.7888 14.1248 33.2598 14.3358C33.7308 14.5467 34.1494 14.8545 34.4869 15.238C34.8245 15.6214 35.073 16.0715 35.2154 16.5573C35.3577 17.0432 35.3907 17.5533 35.3119 18.0527L33.0561 32.3366C32.8602 33.5779 32.2149 34.7098 31.237 35.5275C30.2591 36.3452 29.0131 36.7945 27.7247 36.7941H15.4084C14.1203 36.7941 12.8748 36.3446 11.8972 35.5269C10.9197 34.7093 10.2746 33.5776 10.0789 32.3366L7.82302 18.0527C7.74423 17.5533 7.77717 17.0432 7.91956 16.5573C8.06195 16.0715 8.31043 15.6214 8.64797 15.238C8.98551 14.8545 9.40412 14.5467 9.8751 14.3358C10.3461 14.1248 10.8583 14.0156 11.3766 14.0156Z" stroke="#004079" stroke-width="3" stroke-linecap="round" stroke-linejoin="round"/>
<path d="M16.1719 19.2754V10.5144C16.1719 9.12026 16.74 7.78323 17.7513 6.79743C18.7626 5.81163 20.1342 5.25781 21.5643 5.25781C22.9945 5.25781 24.3661 5.81163 25.3774 6.79743C26.3886 7.78323 26.9568 9.12026 26.9568 10.5144V19.2754" stroke="#004079" stroke-width="3" stroke-linecap="round" stroke-linejoin="round"/>
</svg>
