<svg width="53" height="47" viewBox="0 0 53 47" fill="none" xmlns="http://www.w3.org/2000/svg">
<g clip-path="url(#clip0_2353_3491)">
<path d="M11.3805 18.9648H31.7622C32.2805 18.9648 32.7927 19.074 33.2637 19.285C33.7347 19.496 34.1533 19.8037 34.4909 20.1872C34.8284 20.5706 35.0769 21.0207 35.2193 21.5065C35.3617 21.9924 35.3946 22.5025 35.3158 23.0019L33.06 37.2858C32.8641 38.5271 32.2188 39.6591 31.2409 40.4767C30.263 41.2944 29.017 41.7437 27.7286 41.7434H15.4123C14.1242 41.7433 12.8787 41.2938 11.9012 40.4762C10.9236 39.6585 10.2786 38.5268 10.0828 37.2858L7.82693 23.0019C7.74814 22.5025 7.78107 21.9924 7.92346 21.5065C8.06585 21.0207 8.31433 20.5706 8.65187 20.1872C8.98941 19.8037 9.40802 19.496 9.87901 19.285C10.35 19.074 10.8622 18.9648 11.3805 18.9648Z" stroke="#004079" stroke-width="3" stroke-linecap="round" stroke-linejoin="round"/>
<path d="M16.1758 24.2207V15.4597C16.1758 14.0656 16.7439 12.7285 17.7552 11.7427C18.7665 10.7569 20.1381 10.2031 21.5682 10.2031C22.9984 10.2031 24.37 10.7569 25.3813 11.7427C26.3925 12.7285 26.9607 14.0656 26.9607 15.4597V24.2207" stroke="#004079" stroke-width="3" stroke-linecap="round" stroke-linejoin="round"/>
<path d="M52.0006 16.6973C52.0006 22.6376 47.2027 27.4473 41.2913 27.4473C35.38 27.4473 30.582 22.6376 30.582 16.6973C30.582 10.7569 35.38 5.94727 41.2913 5.94727C47.2027 5.94727 52.0006 10.7569 52.0006 16.6973Z" fill="#004079" stroke="white" stroke-width="2"/>
<path d="M38.5153 20.3691V19.4146L41.4684 16.3549C41.7837 16.0225 42.0437 15.7314 42.2482 15.4814C42.4556 15.2285 42.6104 14.9885 42.7127 14.7612C42.815 14.5339 42.8661 14.2924 42.8661 14.0368C42.8661 13.747 42.7979 13.497 42.6616 13.2868C42.5252 13.0737 42.3391 12.9103 42.1033 12.7967C41.8675 12.6802 41.6019 12.622 41.3065 12.622C40.994 12.622 40.7212 12.6859 40.4883 12.8137C40.2553 12.9416 40.0763 13.122 39.9513 13.3549C39.8263 13.5879 39.7638 13.8606 39.7638 14.1731H38.5067C38.5067 13.6419 38.6289 13.1774 38.8732 12.7797C39.1175 12.3819 39.4528 12.0737 39.8789 11.8549C40.305 11.6333 40.7894 11.5225 41.332 11.5225C41.8803 11.5225 42.3633 11.6319 42.7809 11.8507C43.2013 12.0666 43.5295 12.362 43.7653 12.737C44.0011 13.1092 44.119 13.5297 44.119 13.9984C44.119 14.3223 44.0579 14.639 43.9357 14.9487C43.8164 15.2583 43.6076 15.6035 43.3093 15.9842C43.011 16.362 42.5962 16.8208 42.065 17.3606L40.3306 19.176V19.2399H44.2596V20.3691H38.5153Z" fill="white"/>
</g>
<defs>
<clipPath id="clip0_2353_3491">
<rect width="53" height="47" fill="white"/>
</clipPath>
</defs>
</svg>
