<svg width="109" height="112" viewBox="0 0 109 112" fill="none" xmlns="http://www.w3.org/2000/svg">
<g clip-path="url(#clip0_2358_3585)">
<path d="M45.4167 74.668H18.1667C16.9621 74.668 15.807 74.1763 14.9552 73.3011C14.1035 72.426 13.625 71.239 13.625 70.0013V23.3346C13.625 22.097 14.1035 20.91 14.9552 20.0348C15.807 19.1596 16.9621 18.668 18.1667 18.668H90.8333C92.0379 18.668 93.193 19.1596 94.0448 20.0348C94.8965 20.91 95.375 22.097 95.375 23.3346V51.3346" stroke="#3273BA" stroke-width="4" stroke-linecap="round" stroke-linejoin="round"/>
<path d="M31.7969 93.332H47.6927" stroke="#3273BA" stroke-width="4" stroke-linecap="round" stroke-linejoin="round"/>
<path d="M40.875 74.668V93.3346" stroke="#3273BA" stroke-width="4" stroke-linecap="round" stroke-linejoin="round"/>
<path d="M81.7453 102.665L96.9599 87.3396C97.8929 86.4093 98.6351 85.2963 99.1426 84.0665C99.6501 82.8366 99.9127 81.5147 99.9148 80.1788C99.9169 78.843 99.6585 77.5202 99.1549 76.2886C98.6513 75.0571 97.9127 73.9417 96.9826 73.0082C95.0848 71.1012 92.5372 70.031 89.8827 70.0257C87.2282 70.0205 84.6767 71.0806 82.7717 72.9802L81.7544 74.0069L80.7416 72.9802C78.844 71.0745 76.2974 70.0052 73.644 70C70.9906 69.9948 68.44 71.054 66.5353 72.9522C65.602 73.8822 64.8595 74.9949 64.3516 76.2246C63.8437 77.4543 63.5807 78.7761 63.5781 80.112C63.5756 81.4479 63.8336 82.7707 64.3368 84.0024C64.84 85.2342 65.5783 86.3499 66.508 87.2836L81.7453 102.665Z" stroke="#3273BA" stroke-width="4" stroke-linecap="round" stroke-linejoin="round"/>
</g>
<defs>
<clipPath id="clip0_2358_3585">
<rect width="109" height="112" fill="white"/>
</clipPath>
</defs>
</svg>
