<svg width="508" height="508" viewBox="0 0 508 508" fill="none" xmlns="http://www.w3.org/2000/svg">
<path d="M277.45 128.219C278.952 127.612 279.485 125.424 278.64 123.333C277.795 121.241 275.892 120.038 274.39 120.646C272.886 121.253 272.353 123.441 273.198 125.532C274.043 127.623 275.946 128.826 277.45 128.219Z" fill="black"/>
<path d="M257.614 136.25C259.116 135.643 259.649 133.455 258.804 131.364C257.959 129.273 256.056 128.07 254.554 128.677C253.05 129.284 252.517 131.472 253.362 133.563C254.207 135.655 256.11 136.858 257.614 136.25Z" fill="black"/>
<path d="M267.987 115.169C268.409 115.163 268.81 114.991 269.105 114.69C269.836 113.956 270.663 113.323 271.562 112.808C273.846 111.457 276.469 110.782 279.123 110.861C279.331 110.87 279.539 110.837 279.734 110.764C279.929 110.691 280.106 110.58 280.259 110.438C280.409 110.295 280.531 110.124 280.616 109.933C280.701 109.743 280.746 109.538 280.75 109.33C280.758 109.118 280.724 108.906 280.65 108.707C280.575 108.508 280.462 108.326 280.316 108.172C280.171 108.017 279.996 107.893 279.802 107.807C279.609 107.721 279.399 107.675 279.187 107.671C275.939 107.581 272.732 108.411 269.935 110.064C268.819 110.721 267.791 111.514 266.871 112.425C266.641 112.646 266.483 112.931 266.417 113.243C266.351 113.555 266.38 113.879 266.5 114.175C266.621 114.47 266.826 114.723 267.091 114.9C267.357 115.077 267.669 115.17 267.987 115.169Z" fill="black"/>
<path d="M277.65 149.311C277.518 149.149 277.355 149.015 277.171 148.918C276.985 148.821 276.783 148.761 276.575 148.743C276.366 148.725 276.156 148.749 275.958 148.814C275.759 148.879 275.576 148.982 275.417 149.119C274.045 150.236 272.641 150.364 272.164 150.044C272.07 149.953 271.996 149.844 271.947 149.723C271.898 149.602 271.874 149.473 271.876 149.343C271.871 149.244 271.849 149.147 271.811 149.055L267.153 132.496C267.04 132.085 266.767 131.737 266.396 131.528C266.025 131.318 265.585 131.265 265.175 131.379C264.765 131.493 264.417 131.766 264.207 132.137C263.998 132.508 263.944 132.947 264.059 133.357L268.718 149.789C268.77 150.348 268.94 150.889 269.214 151.378C269.488 151.867 269.862 152.293 270.313 152.629C271.051 153.143 271.933 153.411 272.832 153.395C274.333 153.395 275.992 152.757 277.459 151.576C277.78 151.298 277.98 150.906 278.016 150.482C278.051 150.059 277.921 149.639 277.65 149.311Z" fill="black"/>
<path d="M287.898 154.159C287.71 154.067 287.505 154.012 287.295 153.999C287.085 153.986 286.875 154.014 286.677 154.083C286.477 154.151 286.294 154.257 286.137 154.397C285.979 154.536 285.852 154.705 285.759 154.893C284.921 156.707 283.551 158.223 281.829 159.238C280.107 160.252 278.117 160.718 276.124 160.573C275.916 160.555 275.708 160.58 275.508 160.645C275.31 160.709 275.127 160.813 274.969 160.95C274.812 161.087 274.683 161.254 274.592 161.441C274.499 161.628 274.445 161.832 274.433 162.04C274.407 162.458 274.546 162.87 274.82 163.187C275.095 163.503 275.483 163.699 275.901 163.732H276.857C278.681 163.731 280.486 163.35 282.154 162.615C284.992 161.31 287.285 159.052 288.631 156.233C288.807 155.861 288.829 155.434 288.691 155.046C288.553 154.657 288.269 154.339 287.898 154.159Z" fill="black"/>
<path d="M270.985 301.442L268.497 300.229L268.115 300.102C267.378 299.853 266.577 299.88 265.861 300.18C265.143 300.48 264.56 301.03 264.222 301.73L258.605 313.312C258.256 314.037 258.193 314.866 258.431 315.635C258.668 316.406 259.186 317.056 259.882 317.459L260.073 317.555L262.754 318.863L267.763 321.288L270.634 322.693L271.655 323.171C272.033 323.357 272.443 323.465 272.861 323.491C273.281 323.518 273.701 323.462 274.097 323.325C274.495 323.189 274.861 322.974 275.176 322.696C275.491 322.419 275.747 322.08 275.931 321.702L281.546 310.122C281.91 309.363 281.961 308.493 281.685 307.697C281.411 306.903 280.833 306.249 280.078 305.878L278.674 305.175L275.804 303.804L270.985 301.442ZM267.509 317.332C267.375 317.581 267.178 317.789 266.936 317.936C266.694 318.082 266.418 318.16 266.135 318.162C265.854 318.167 265.576 318.089 265.338 317.938C265.155 317.837 264.996 317.698 264.867 317.532C264.74 317.368 264.645 317.178 264.593 316.975C264.538 316.773 264.527 316.561 264.555 316.355C264.586 316.147 264.655 315.948 264.764 315.769L268.115 309.866H268.145L268.242 309.707L268.337 309.61C268.364 309.554 268.408 309.509 268.465 309.483L268.56 309.387L268.689 309.324L268.848 309.228H268.975L269.136 309.163H269.166L273.698 308.207C273.903 308.164 274.114 308.164 274.321 308.203C274.526 308.244 274.722 308.323 274.897 308.439C275.071 308.554 275.222 308.703 275.338 308.877C275.457 309.05 275.538 309.246 275.581 309.451C275.621 309.656 275.623 309.868 275.584 310.074C275.543 310.279 275.464 310.476 275.349 310.65C275.232 310.824 275.083 310.975 274.91 311.092C274.736 311.209 274.541 311.292 274.336 311.334L270.54 312.132L267.509 317.332Z" fill="#3B79AF"/>
<path d="M317.373 170.751L317.756 170.814C319.961 171.235 322.135 171.801 324.265 172.505C326.775 173.379 329.227 174.414 331.604 175.601L338.399 133.292C338.514 132.596 338.489 131.885 338.328 131.199C338.167 130.513 337.871 129.865 337.46 129.293C337.048 128.721 336.527 128.236 335.927 127.866C335.328 127.495 334.66 127.246 333.965 127.134L308.695 123.082C308.41 123.029 308.123 123.008 307.833 123.018C306.715 123.023 305.625 123.368 304.707 124.007C303.564 124.854 302.797 126.113 302.568 127.517L295.04 174.26C294.925 174.954 294.95 175.663 295.111 176.348C295.274 177.032 295.568 177.677 295.981 178.246C296.393 178.816 296.914 179.297 297.514 179.665C298.113 180.032 298.779 180.278 299.475 180.386L305.44 181.343L305.92 180.865L306.397 180.451C305.281 179.27 303.813 177.452 303.718 175.601C303.622 173.75 304.77 171.964 306.653 171.037C310.099 169.315 314.119 170.113 317.373 170.751ZM311.535 128.666C312.723 128.659 313.888 129.007 314.879 129.663C315.871 130.32 316.645 131.256 317.102 132.354C317.56 133.451 317.681 134.66 317.451 135.826C317.221 136.993 316.648 138.065 315.809 138.906C314.967 139.746 313.895 140.318 312.728 140.549C311.562 140.779 310.354 140.658 309.257 140.2C308.16 139.742 307.222 138.968 306.566 137.977C305.909 136.985 305.562 135.821 305.569 134.632C305.569 133.05 306.197 131.532 307.317 130.413C308.434 129.294 309.953 128.666 311.535 128.666Z" fill="#6192BF"/>
<path d="M434.004 200.32C447.658 200.32 458.727 189.252 458.727 175.598C458.727 161.944 447.658 150.875 434.004 150.875C420.35 150.875 409.281 161.944 409.281 175.598C409.281 189.252 420.35 200.32 434.004 200.32Z" fill="#3B79AF"/>
<path d="M404.867 169.89C404.747 173.294 405.313 176.689 406.534 179.869C407.753 183.05 409.6 185.953 411.966 188.405C414.331 190.855 417.168 192.806 420.304 194.137C423.44 195.469 426.811 196.155 430.218 196.155C433.625 196.155 436.997 195.469 440.133 194.137C443.269 192.806 446.103 190.855 448.469 188.405C450.835 185.953 452.684 183.05 453.903 179.869C455.122 176.689 455.688 173.294 455.568 169.89C455.573 166.049 454.687 162.26 452.983 158.818C450.477 153.666 446.298 149.515 441.128 147.044C435.959 144.573 430.105 143.927 424.52 145.212C418.937 146.497 413.954 149.636 410.384 154.118C406.815 158.6 404.871 164.16 404.867 169.89ZM430.201 147.747C434.582 147.747 438.863 149.045 442.503 151.478C446.146 153.911 448.984 157.37 450.66 161.416C452.335 165.462 452.774 169.914 451.92 174.21C451.065 178.506 448.957 182.451 445.86 185.546C442.763 188.644 438.817 190.753 434.521 191.607C430.227 192.462 425.775 192.023 421.728 190.347C417.683 188.671 414.223 185.833 411.79 182.192C409.358 178.55 408.059 174.269 408.059 169.89C408.059 164.017 410.391 158.385 414.545 154.232C418.697 150.079 424.329 147.747 430.201 147.747Z" fill="black"/>
<path d="M438.079 154.892C437.894 154.787 437.693 154.719 437.483 154.695C437.273 154.67 437.059 154.687 436.856 154.747C436.655 154.807 436.465 154.907 436.303 155.042C436.14 155.176 436.006 155.342 435.908 155.53L420.912 182.843C420.717 183.217 420.673 183.652 420.793 184.057C420.912 184.461 421.183 184.803 421.55 185.012C421.787 185.135 422.05 185.201 422.316 185.203C422.602 185.201 422.883 185.123 423.13 184.978C423.376 184.832 423.58 184.624 423.719 184.373L438.685 157.062C438.792 156.881 438.859 156.68 438.887 156.471C438.914 156.263 438.9 156.051 438.843 155.848C438.787 155.646 438.688 155.456 438.558 155.292C438.426 155.128 438.263 154.992 438.079 154.892Z" fill="black"/>
<path d="M426.148 166.031C427.273 166.031 428.37 165.697 429.305 165.073C430.238 164.449 430.966 163.562 431.396 162.525C431.826 161.487 431.938 160.345 431.719 159.243C431.499 158.141 430.959 157.13 430.165 156.335C429.371 155.541 428.358 155 427.257 154.781C426.155 154.562 425.014 154.674 423.976 155.104C422.938 155.534 422.05 156.262 421.427 157.196C420.802 158.13 420.469 159.228 420.469 160.351C420.474 160.813 420.526 161.273 420.63 161.723C420.941 162.952 421.652 164.042 422.651 164.822C423.651 165.602 424.882 166.027 426.148 166.031ZM428.605 160.351C428.61 160.677 428.549 161 428.427 161.301C428.305 161.603 428.126 161.878 427.897 162.109C427.669 162.341 427.396 162.525 427.096 162.65C426.797 162.775 426.473 162.84 426.148 162.84C425.489 162.84 424.856 162.578 424.389 162.111C423.923 161.644 423.661 161.011 423.661 160.351C423.661 160.026 423.725 159.704 423.85 159.404C423.976 159.103 424.16 158.831 424.39 158.603C424.622 158.374 424.897 158.194 425.198 158.072C425.501 157.951 425.823 157.89 426.148 157.894C426.473 157.89 426.793 157.951 427.095 158.073C427.394 158.195 427.667 158.376 427.896 158.604C428.124 158.833 428.305 159.106 428.427 159.406C428.549 159.706 428.61 160.027 428.605 160.351Z" fill="black"/>
<path d="M434.28 172.824C433.158 172.824 432.059 173.158 431.126 173.783C430.191 174.406 429.463 175.293 429.035 176.331C428.604 177.369 428.491 178.51 428.711 179.613C428.93 180.713 429.471 181.726 430.266 182.52C431.06 183.314 432.071 183.855 433.173 184.075C434.275 184.293 435.417 184.181 436.455 183.751C437.493 183.321 438.378 182.593 439.003 181.66C439.628 180.725 439.96 179.628 439.96 178.504C439.96 176.998 439.362 175.554 438.297 174.489C437.232 173.424 435.788 172.824 434.28 172.824ZM434.28 180.961C433.788 180.961 433.305 180.813 432.895 180.539C432.486 180.265 432.166 179.874 431.979 179.416C431.791 178.961 431.744 178.458 431.842 177.975C431.942 177.491 432.181 177.047 432.533 176.702C432.884 176.355 433.331 176.119 433.815 176.028C434.301 175.935 434.802 175.989 435.256 176.182C435.71 176.375 436.096 176.7 436.365 177.113C436.636 177.527 436.776 178.011 436.77 178.504C436.761 179.159 436.495 179.784 436.03 180.243C435.564 180.703 434.936 180.961 434.28 180.961Z" fill="black"/>
<path d="M398.949 91.7774C412.603 91.7774 423.672 80.7086 423.672 67.0547C423.672 53.4007 412.603 42.332 398.949 42.332C385.295 42.332 374.227 53.4007 374.227 67.0547C374.227 80.7086 385.295 91.7774 398.949 91.7774Z" fill="#6192BF"/>
<path d="M382.144 84.6345C386.679 87.2861 391.917 88.4887 397.156 88.0811C402.393 87.6736 407.382 85.6752 411.453 82.3539C415.523 79.0328 418.482 74.547 419.933 69.4975C421.384 64.448 421.257 59.0755 419.57 54.1C418.234 50.1578 415.962 46.5977 412.949 43.7243C409.939 40.851 406.274 38.7498 402.275 37.6002C398.273 36.4506 394.054 36.287 389.976 37.1233C385.899 37.9597 382.083 39.771 378.858 42.4025C375.632 45.0339 373.092 48.4074 371.454 52.2345C369.817 56.0614 369.129 60.228 369.453 64.3782C369.775 68.5284 371.099 72.5387 373.309 76.0663C375.518 79.5938 378.549 82.5338 382.144 84.6345ZM395.193 39.8377C399.652 39.844 404.009 41.1716 407.714 43.6526C411.419 46.1339 414.306 49.6572 416.009 53.7779C417.713 57.8985 418.157 62.4315 417.284 66.8044C416.414 71.1773 414.265 75.1937 411.112 78.3465C407.959 81.4995 403.943 83.6471 399.57 84.5187C395.198 85.3901 390.665 84.9461 386.544 83.2426C382.424 81.5393 378.9 78.6528 376.419 74.9482C373.938 71.2433 372.611 66.8864 372.604 62.4276C372.604 56.4365 374.983 50.6906 379.22 46.4541C383.457 42.2177 389.202 39.8377 395.193 39.8377Z" fill="black"/>
<path d="M388.245 50.5578C385.374 54.0994 386.714 59.9064 389.777 62.5227C391.819 64.2775 394.115 64.2139 395.934 64.2139C397.753 64.2139 398.902 64.2139 399.923 65.1391C400.945 66.0643 402.06 69.2231 400.945 71.1694C399.827 73.1157 396.572 73.4986 395.297 73.4667C391.436 73.3709 389.012 70.308 388.532 69.6698C388.412 69.4996 388.26 69.3557 388.082 69.2468C387.904 69.1379 387.706 69.0664 387.499 69.0365C387.295 69.0067 387.085 69.019 386.883 69.0732C386.682 69.1272 386.494 69.2216 386.331 69.3508C386.16 69.474 386.016 69.6298 385.908 69.809C385.798 69.988 385.725 70.1871 385.691 70.3945C385.659 70.6021 385.667 70.814 385.716 71.0182C385.767 71.2222 385.855 71.4146 385.981 71.5843C386.714 72.5733 389.139 75.4449 393.064 76.3701V78.3165C393.064 78.7396 393.231 79.1453 393.531 79.4445C393.829 79.7438 394.236 79.9119 394.659 79.9119C395.082 79.9119 395.487 79.7438 395.787 79.4445C396.086 79.1453 396.254 78.7396 396.254 78.3165V76.6573C399.7 76.4978 402.38 75.1259 403.72 72.7329C405.474 69.6698 404.741 65.2986 402.093 62.8099C400.115 60.9274 397.785 60.9913 395.903 61.0231C394.02 61.055 392.903 61.0231 391.851 60.0979C389.968 58.5024 389.042 54.61 390.734 52.5678C391.436 51.7064 392.649 51.132 394.053 50.9725C396.156 50.8519 398.225 51.5494 399.827 52.9188C399.986 53.055 400.171 53.1584 400.371 53.2235C400.57 53.2883 400.78 53.3132 400.989 53.2969C401.197 53.2807 401.402 53.2235 401.588 53.1285C401.774 53.0335 401.94 52.9026 402.077 52.7434C402.213 52.5842 402.316 52.3996 402.38 52.2005C402.447 52.0012 402.472 51.7912 402.455 51.5823C402.438 51.3735 402.38 51.1698 402.286 50.983C402.191 50.7964 402.06 50.6301 401.901 50.494C400.293 49.1242 398.338 48.2197 396.254 47.8776V46.1228C396.254 45.6996 396.086 45.2939 395.787 44.9947C395.487 44.6955 395.082 44.5273 394.659 44.5273C394.236 44.5273 393.829 44.6955 393.531 44.9947C393.231 45.2939 393.064 45.6996 393.064 46.1228V47.9094C391.181 48.1534 389.46 49.0993 388.245 50.5578Z" fill="black"/>
<path d="M124.965 225.215C138.619 225.215 149.688 214.146 149.688 200.492C149.688 186.838 138.619 175.77 124.965 175.77C111.311 175.77 100.242 186.838 100.242 200.492C100.242 214.146 111.311 225.215 124.965 225.215Z" fill="#6192BF"/>
<path d="M146.707 195.926C146.694 190.844 145.176 185.879 142.344 181.66C139.512 177.44 135.493 174.153 130.795 172.216C126.096 170.279 120.929 169.776 115.946 170.773C110.962 171.771 106.386 174.221 102.795 177.817C99.2031 181.412 96.7576 185.993 95.7668 190.976C94.7761 195.962 95.2846 201.128 97.228 205.823C99.1714 210.521 102.463 214.536 106.686 217.362C110.91 220.188 115.876 221.7 120.958 221.707C124.342 221.707 127.693 221.04 130.819 219.744C133.945 218.447 136.785 216.549 139.177 214.155C141.568 211.76 143.464 208.917 144.756 205.79C146.048 202.662 146.711 199.311 146.707 195.926ZM98.3683 195.926C98.3551 190.633 100.196 185.503 103.571 181.426C106.946 177.348 111.642 174.58 116.844 173.604C122.047 172.627 127.426 173.505 132.05 176.082C136.674 178.657 140.249 182.772 142.155 187.71C144.062 192.648 144.179 198.098 142.486 203.112C140.794 208.128 137.399 212.392 132.89 215.166C128.381 217.939 123.044 219.045 117.805 218.293C112.565 217.541 107.754 214.979 104.207 211.051C100.457 206.906 98.3764 201.517 98.3683 195.926Z" fill="black"/>
<path d="M120.416 178.027C119.993 178.027 119.587 178.195 119.288 178.495C118.989 178.793 118.821 179.199 118.821 179.622V181.409C116.938 181.653 115.218 182.599 114.003 184.057C111.131 187.63 112.471 193.406 115.534 196.055C117.576 197.777 119.874 197.745 121.692 197.714C123.511 197.682 124.692 197.714 125.681 198.639C126.67 199.563 127.818 202.723 126.702 204.701C125.585 206.679 122.33 207.031 121.054 206.966C117.194 206.87 114.769 203.807 114.29 203.2C114.17 203.033 114.017 202.889 113.84 202.779C113.664 202.67 113.468 202.598 113.263 202.564C113.058 202.532 112.848 202.54 112.647 202.589C112.445 202.638 112.255 202.726 112.088 202.85C111.918 202.974 111.774 203.129 111.665 203.309C111.555 203.487 111.482 203.686 111.449 203.895C111.416 204.101 111.425 204.313 111.475 204.518C111.524 204.721 111.613 204.914 111.737 205.083C112.471 206.072 114.896 208.976 118.821 209.901V211.816C118.821 212.239 118.989 212.644 119.288 212.944C119.587 213.244 119.993 213.411 120.416 213.411C120.839 213.411 121.245 213.244 121.544 212.944C121.843 212.644 122.011 212.239 122.011 211.816V210.157C125.457 209.997 128.169 208.626 129.478 206.264C131.232 203.17 130.499 198.798 127.85 196.309C125.872 194.459 123.543 194.49 121.66 194.522C119.778 194.554 118.661 194.522 117.608 193.598C115.726 192.002 114.8 188.142 116.492 186.067C117.194 185.205 118.406 184.631 119.81 184.504C120.853 184.428 121.902 184.562 122.893 184.896C123.885 185.231 124.8 185.759 125.585 186.45C125.916 186.712 126.335 186.839 126.756 186.804C127.177 186.768 127.568 186.574 127.85 186.259C128.12 185.93 128.252 185.51 128.216 185.087C128.18 184.664 127.98 184.271 127.659 183.993C126.055 182.621 124.098 181.726 122.011 181.409V179.622C122.011 179.199 121.843 178.793 121.544 178.495C121.245 178.195 120.839 178.027 120.416 178.027Z" fill="black"/>
<path d="M311.536 140.634C312.725 140.64 313.886 140.294 314.877 139.638C315.867 138.983 316.641 138.048 317.1 136.953C317.559 135.857 317.683 134.65 317.456 133.485C317.227 132.319 316.658 131.247 315.82 130.405C314.984 129.563 313.915 128.988 312.75 128.754C311.585 128.52 310.378 128.637 309.28 129.09C308.181 129.543 307.243 130.312 306.583 131.299C305.923 132.286 305.57 133.447 305.57 134.635C305.57 136.221 306.197 137.741 307.314 138.865C308.434 139.989 309.951 140.625 311.536 140.634ZM311.536 131.859C312.095 131.853 312.642 132.013 313.107 132.319C313.575 132.625 313.939 133.063 314.156 133.578C314.372 134.092 314.43 134.659 314.323 135.207C314.216 135.754 313.947 136.258 313.553 136.652C313.158 137.047 312.655 137.315 312.108 137.422C311.56 137.529 310.992 137.471 310.479 137.255C309.965 137.038 309.526 136.674 309.219 136.207C308.915 135.74 308.754 135.193 308.761 134.635C308.761 133.899 309.053 133.193 309.573 132.672C310.093 132.152 310.799 131.859 311.536 131.859Z" fill="black"/>
<path d="M318.497 309.865C321.545 309.865 324.017 307.393 324.017 304.345C324.017 301.297 321.545 298.824 318.497 298.824C315.447 298.824 312.977 301.297 312.977 304.345C312.977 307.393 315.447 309.865 318.497 309.865Z" fill="#3B79AF"/>
<path d="M212.114 136.326C213.583 136.326 215.021 135.89 216.244 135.073C217.466 134.256 218.419 133.095 218.982 131.736C219.544 130.378 219.691 128.883 219.405 127.441C219.117 125.999 218.409 124.674 217.37 123.635C216.33 122.595 215.006 121.887 213.563 121.6C212.122 121.313 210.627 121.46 209.269 122.023C207.911 122.586 206.749 123.539 205.933 124.761C205.115 125.984 204.68 127.421 204.68 128.891C204.675 129.869 204.864 130.837 205.237 131.741C205.608 132.645 206.156 133.466 206.847 134.157C207.538 134.849 208.359 135.396 209.264 135.768C210.168 136.14 211.136 136.33 212.114 136.326ZM212.114 124.68C212.953 124.68 213.776 124.929 214.474 125.397C215.173 125.865 215.717 126.529 216.037 127.307C216.357 128.084 216.44 128.939 216.272 129.763C216.106 130.587 215.7 131.343 215.102 131.935C214.506 132.527 213.748 132.929 212.921 133.089C212.097 133.249 211.241 133.161 210.468 132.835C209.692 132.508 209.032 131.96 208.569 131.258C208.107 130.556 207.863 129.732 207.87 128.891C207.878 127.771 208.329 126.7 209.125 125.911C209.919 125.122 210.994 124.68 212.114 124.68Z" fill="black"/>
<path d="M174.82 118.746C174.82 121.068 175.509 123.338 176.8 125.269C178.09 127.2 179.924 128.705 182.069 129.593C184.215 130.482 186.575 130.715 188.853 130.262C191.13 129.809 193.222 128.69 194.864 127.048C196.507 125.406 197.624 123.314 198.078 121.036C198.53 118.759 198.298 116.398 197.409 114.252C196.52 112.107 195.017 110.273 193.085 108.983C191.154 107.693 188.885 107.004 186.562 107.004C183.448 107.004 180.461 108.241 178.259 110.443C176.058 112.645 174.82 115.631 174.82 118.746ZM186.562 110.195C188.254 110.195 189.906 110.696 191.313 111.636C192.719 112.575 193.814 113.911 194.461 115.473C195.11 117.036 195.279 118.755 194.949 120.414C194.619 122.073 193.804 123.596 192.609 124.792C191.413 125.988 189.889 126.802 188.23 127.132C186.572 127.462 184.852 127.293 183.29 126.646C181.727 125.999 180.391 124.902 179.452 123.496C178.512 122.09 178.011 120.437 178.011 118.746C178.011 116.478 178.911 114.303 180.515 112.699C182.119 111.096 184.295 110.195 186.562 110.195Z" fill="black"/>
<path d="M51.7245 129.4C65.7635 140.727 84.3969 146.949 104.211 146.949C124.025 146.949 142.658 140.727 156.697 129.4C170.736 118.073 178.617 102.79 178.617 86.5814C178.617 70.373 170.832 55.2173 156.697 43.7948C142.563 32.3722 124.025 26.2461 104.211 26.2461C84.3969 26.2461 65.7635 32.4679 51.7245 43.7948C37.6856 55.1215 29.8047 70.4048 29.8047 86.5814C29.8047 102.758 37.59 117.978 51.7245 129.4ZM104.211 29.4367C143.488 29.4367 175.426 55.0578 175.426 86.5814C175.426 118.105 143.488 143.758 104.211 143.758C64.9339 143.758 32.9953 118.105 32.9953 86.5814C32.9953 55.0578 64.9339 29.4367 104.211 29.4367Z" fill="black"/>
<path d="M227.843 204.476C228.251 204.371 228.601 204.113 228.826 203.758C229.052 203.402 229.133 202.975 229.055 202.562C229.011 202.356 228.925 202.161 228.804 201.988C228.682 201.815 228.528 201.67 228.351 201.556C228.173 201.443 227.975 201.367 227.766 201.331C227.56 201.296 227.346 201.302 227.142 201.35C217.76 203.422 200.021 212.356 186.524 220.014C173.028 227.673 155.926 238.617 148.874 245.986C137.739 257.665 134.165 274.925 140.195 287.911C145.46 299.302 157.074 305.683 165.912 309.034C166.097 309.097 166.291 309.129 166.487 309.129H166.838L195.363 318L207.167 321.732C214.538 324.094 222.163 326.55 229.726 328.688C232.215 329.389 235.117 330.092 237.925 330.092C239.774 330.126 241.604 329.743 243.286 328.975C244.263 328.494 245.184 327.906 246.029 327.22C251.932 328.88 260.004 330.731 265.716 331.911C266.745 332.129 267.677 332.678 268.364 333.474C270.887 336.425 273.745 339.069 276.883 341.355C281.968 345.092 287.702 347.85 293.795 349.491L294.209 349.555C294.562 349.555 294.905 349.44 295.188 349.227C295.469 349.014 295.676 348.714 295.772 348.375C295.879 347.969 295.823 347.537 295.613 347.171C295.405 346.807 295.061 346.54 294.655 346.428C288.938 344.878 283.552 342.294 278.766 338.803C275.832 336.65 273.154 334.166 270.789 331.401C270.11 330.634 269.3 329.997 268.396 329.518C269.035 327.285 269.8 325.019 270.63 322.721L267.758 321.317C266.843 323.764 266.046 326.189 265.365 328.592L259.782 327.349C259.782 327.317 259.782 327.317 259.813 327.285C260.739 324.348 261.728 321.573 262.749 318.892L260.068 317.585L259.877 317.489C258.792 320.296 257.74 323.232 256.751 326.328C256.719 326.423 256.719 326.519 256.687 326.646L248.71 324.668C249.157 324.125 249.571 323.615 249.954 323.073C253.082 319.436 256.367 313.628 257.579 310.278L257.803 309.608C259.654 304.47 261.537 299.175 260.739 293.687L269.226 297.963C268.908 298.6 268.493 299.334 268.108 300.132L268.493 300.259L270.98 301.471C271.363 300.706 271.746 300.005 272.066 299.399L276.915 301.854L275.798 303.834L278.67 305.205L279.755 303.29L285.052 305.971C285.274 306.069 285.511 306.123 285.753 306.13C286.119 306.14 286.474 306.023 286.764 305.801C287.053 305.58 287.258 305.265 287.343 304.911C287.429 304.557 287.39 304.184 287.235 303.854C287.079 303.524 286.816 303.258 286.488 303.099L260.036 289.762L259.591 289.635C259.437 289.219 259.256 288.814 259.047 288.423C256.145 282.615 251.167 278.308 243.413 274.925C241.755 274.192 240.605 273.713 240.543 273.713C233.331 270.714 213.805 262.833 198.68 256.739C198.287 256.578 197.845 256.58 197.454 256.745C197.061 256.91 196.751 257.223 196.59 257.616C196.43 258.01 196.431 258.451 196.596 258.843C196.761 259.235 197.075 259.546 197.468 259.705C212.592 265.8 232.118 273.68 239.33 276.649L242.138 277.829C249.189 280.925 253.656 284.753 256.208 289.859C259.271 296.016 257.102 302.11 254.804 308.555L254.548 309.193C253.591 311.874 251.102 316.373 248.583 319.69C248.301 319.832 248.068 320.054 247.912 320.328C247.785 320.584 247.594 320.84 247.434 321.094L247.211 321.382C247.086 321.51 246.987 321.661 246.923 321.829C245.551 323.615 243.636 325.275 241.882 326.104C238.692 327.635 233.937 326.582 230.62 325.625C223.089 323.488 215.495 321.063 208.156 318.701L196.319 314.937L164.923 305.141H164.668C156.787 301.792 147.438 296.048 143.067 286.604C137.579 274.766 140.929 258.972 151.203 248.22C163.296 235.521 211.283 208.145 227.843 204.476Z" fill="black"/>
<path d="M274.335 311.268C274.54 311.226 274.735 311.145 274.909 311.028C275.082 310.909 275.231 310.759 275.346 310.584C275.463 310.41 275.542 310.213 275.583 310.008C275.622 309.802 275.62 309.59 275.58 309.385C275.537 309.18 275.456 308.986 275.337 308.811C275.221 308.639 275.07 308.49 274.895 308.374C274.721 308.258 274.525 308.178 274.32 308.139C274.113 308.098 273.901 308.1 273.697 308.141L269.165 309.099H269.133L268.974 309.162H268.847L268.688 309.258L268.559 309.323L268.464 309.417C268.407 309.443 268.363 309.489 268.336 309.544L268.241 309.641L268.144 309.8H268.114L264.763 315.703C264.654 315.883 264.583 316.082 264.554 316.289C264.525 316.496 264.537 316.707 264.592 316.909C264.644 317.112 264.739 317.302 264.866 317.468C264.995 317.632 265.154 317.771 265.337 317.872C265.575 318.025 265.853 318.101 266.134 318.096C266.417 318.094 266.693 318.016 266.935 317.871C267.177 317.725 267.374 317.515 267.507 317.266L270.539 312.002L274.335 311.268Z" fill="black"/>
<path d="M476.433 373.614H402.664C402.058 363.372 402.09 360.692 402.793 351.152C402.824 350.866 402.768 350.576 402.632 350.322C407.443 343.334 411.305 335.737 414.12 327.733C415.683 323.137 416.545 318.735 417.82 312.066C418.172 310.215 418.555 308.173 419.034 305.908C419.831 301.825 420.5 297.58 421.074 292.891C423.277 275.406 422.862 262.387 422.415 256.198C421.012 236.606 420.085 223.652 410.195 212.869C404.483 206.678 397.688 203.391 391.688 200.489C380.905 195.287 371.365 193.724 365.653 192.767C360.314 191.9 354.917 191.431 349.509 191.364C347.678 188.324 345.433 185.554 342.841 183.131C339.681 180.164 336.714 178.442 334.575 177.197L340.67 139.388C340.861 138.941 341.085 138.526 341.276 138.079C347.179 125.285 352.411 112.714 351.422 99.1852C350.369 84.4762 343.67 69.6398 332.98 58.4406C323.951 48.9642 312.401 42.6467 300.468 40.6367C298.491 40.3175 296.481 40.0941 294.469 39.9666C272.518 38.7222 250.886 50.8148 240.611 70.0865C239.952 71.3285 238.999 72.3907 237.835 73.1814C235.158 74.9617 232.823 77.2098 230.943 79.8179C224.658 88.5922 225.775 98.6428 226.382 104.035C228.646 124.296 245.493 137.345 251.045 141.653L251.523 142.036C255.192 150.172 259.627 159.935 263.902 167.465C264.797 169.061 265.753 170.656 266.68 172.251L266.871 172.507C268.161 173.924 269.631 175.169 271.241 176.208C272.952 177.301 274.811 178.139 276.762 178.696C278.338 179.151 279.971 179.377 281.611 179.366H281.771C281.164 182.494 280.272 184.951 279.122 186.705C275.676 191.811 269.55 193.023 250.694 196.022C246.737 196.66 242.909 197.394 239.271 198.191C239.065 198.237 238.87 198.322 238.699 198.444C238.526 198.564 238.379 198.718 238.265 198.896C238.154 199.073 238.077 199.273 238.042 199.48C238.006 199.688 238.011 199.9 238.059 200.106C238.132 200.457 238.325 200.774 238.604 201C238.882 201.227 239.231 201.351 239.59 201.351H239.942C243.515 200.552 247.311 199.851 251.204 199.212C258.255 198.096 263.711 197.202 268.051 196.213L254.491 211.975C253.903 212.661 253.487 213.477 253.275 214.356C253.065 215.235 253.065 216.151 253.277 217.028C253.488 217.907 253.905 218.721 254.494 219.407C255.082 220.093 255.825 220.63 256.66 220.973L265.912 224.802L253.023 233.098C252.158 233.651 251.414 234.374 250.837 235.223C250.258 236.073 249.86 237.031 249.662 238.039C249.465 239.046 249.475 240.084 249.69 241.088C249.907 242.093 250.324 243.043 250.916 243.882L290.131 299.751C290.274 299.962 290.471 300.135 290.699 300.252C290.928 300.369 291.182 300.428 291.438 300.419C291.648 300.424 291.854 300.38 292.044 300.292C292.381 300.154 292.659 299.903 292.831 299.583C293.006 299.265 293.067 298.895 293.002 298.538L273.411 194.618C277.271 193.182 279.825 191.364 281.771 188.492C283.271 186.226 284.387 183.068 285.057 179.111L286.365 178.919C288.314 178.569 290.242 178.11 292.141 177.548C292.599 179.089 293.483 180.469 294.691 181.529C295.9 182.591 297.381 183.29 298.968 183.546L304.138 184.375C304.068 185.059 304.112 185.749 304.265 186.417C304.41 186.848 304.615 187.256 304.871 187.63C303.596 188.228 302.61 189.306 302.128 190.629C301.943 191.296 301.896 191.994 301.989 192.679C302.082 193.365 302.314 194.024 302.67 194.618C302.934 195.074 303.244 195.502 303.594 195.893C301.298 197.202 299.733 199.18 299.288 201.414C299.071 202.259 299.161 203.151 299.542 203.935C299.926 204.636 300.851 205.754 303.052 205.754L303.914 205.689C306.371 205.434 308.667 205.019 310.901 204.604L315.974 203.776C316.333 208.04 317.188 212.249 318.528 216.315C318.352 216.523 318.242 216.777 318.208 217.048L305.892 299.048C305.867 299.153 305.857 299.259 305.86 299.368V312.545L305.445 312.29C301.042 309.545 297.661 307.887 292.044 305.781C291.844 305.679 291.626 305.62 291.401 305.608C291.177 305.596 290.952 305.632 290.743 305.713C290.534 305.794 290.344 305.919 290.185 306.079C290.027 306.238 289.905 306.429 289.826 306.639C289.746 306.849 289.712 307.074 289.726 307.298C289.739 307.523 289.8 307.741 289.905 307.94C290.009 308.139 290.154 308.314 290.33 308.453C290.506 308.593 290.71 308.693 290.928 308.747C296.384 310.822 299.512 312.354 303.786 315.033H303.818C306.491 316.594 308.986 318.445 311.253 320.553C313.819 322.815 316.044 325.438 317.857 328.339C319.835 331.594 320.761 334.369 321.494 336.57C322.534 339.776 323.24 343.08 323.601 346.429C323.884 349.594 323.853 352.779 323.504 355.937C323.281 358.076 322.93 359.544 321.845 360.595C320.761 361.649 320.538 361.49 320.441 361.457C320.294 361.376 320.172 361.254 320.091 361.107C319.898 360.836 319.625 360.631 319.31 360.523C318.995 360.413 318.655 360.406 318.336 360.501C318.43 360.164 318.504 359.823 318.56 359.479C319.44 355.827 319.976 352.098 320.155 348.344C320.25 346.397 320.25 344.387 320.185 342.409C320.174 341.986 319.994 341.586 319.686 341.295C319.378 341.005 318.966 340.849 318.543 340.861C318.12 340.875 317.72 341.054 317.429 341.363C317.139 341.671 316.983 342.082 316.995 342.506C317.06 344.387 317.06 346.302 316.963 348.185C316.74 352.906 316.133 355.651 315.464 358.809C314.953 361.139 314.635 361.969 313.932 362.829C313.624 363.183 313.27 363.494 312.88 363.755C312.501 364.023 312.056 364.178 311.594 364.207C311.131 364.234 310.671 364.134 310.263 363.914L309.626 363.596C309.445 363.503 309.252 363.439 309.05 363.405L309.402 362.543C310.305 360.226 310.957 357.818 311.348 355.363C311.827 352.715 312.21 350.004 312.528 347.291C312.574 346.873 312.452 346.453 312.188 346.124C311.925 345.796 311.543 345.584 311.124 345.537C310.914 345.509 310.703 345.525 310.498 345.581C310.295 345.638 310.103 345.733 309.937 345.865C309.771 345.995 309.633 346.158 309.529 346.343C309.428 346.527 309.362 346.73 309.338 346.94C309.05 349.589 308.667 352.237 308.222 354.821C307.856 357.068 307.257 359.271 306.434 361.393C305.382 364.041 304.776 364.456 304.776 364.456C304.17 364.68 303.372 364.17 302.414 362.893C302.345 362.766 302.26 362.648 302.158 362.543C301.93 362.312 301.638 362.157 301.32 362.094C301.002 362.031 300.672 362.065 300.372 362.192C303.212 358.331 305.127 353.991 306.243 350.864C306.322 350.666 306.359 350.454 306.354 350.241C306.349 350.027 306.3 349.817 306.212 349.623C306.126 349.428 305.999 349.253 305.843 349.109C305.685 348.964 305.503 348.852 305.301 348.779C305.101 348.707 304.888 348.676 304.675 348.686C304.461 348.698 304.253 348.752 304.062 348.845C303.87 348.939 303.699 349.069 303.559 349.23C303.418 349.391 303.311 349.577 303.244 349.78C302.031 353.162 299.894 358.011 296.543 361.904C295.299 363.34 293.256 364.776 291.246 364.456L290.801 364.329C290.769 364.265 290.769 363.818 291.152 363.02C292.205 360.883 293.671 359.065 295.236 357.119C296.799 355.172 298.458 353.067 299.639 350.61C299.825 350.229 299.852 349.789 299.715 349.389C299.576 348.988 299.285 348.657 298.905 348.471C298.524 348.285 298.084 348.258 297.684 348.395C297.283 348.534 296.953 348.825 296.767 349.206C295.746 351.343 294.277 353.162 292.715 355.107C291.152 357.055 289.492 359.192 288.28 361.616C287.067 364.041 287.8 365.765 288.407 366.436C289.033 367.091 289.868 367.509 290.769 367.616L291.822 367.679C294.31 367.679 296.926 366.339 298.968 363.979L299.447 363.405C299.402 363.63 299.41 363.862 299.471 364.084C299.532 364.306 299.644 364.51 299.798 364.68L299.862 364.776C301.552 367.042 303.149 367.711 304.456 367.711C304.959 367.702 305.455 367.606 305.924 367.425C306.635 367.138 307.238 366.637 307.646 365.989C307.794 366.161 307.966 366.312 308.158 366.436L308.796 366.754C309.617 367.167 310.523 367.386 311.445 367.392C312.608 367.391 313.742 367.035 314.699 366.371C315.315 365.936 315.883 365.433 316.389 364.871C316.843 364.302 317.229 363.681 317.539 363.02C318.04 363.762 318.785 364.304 319.644 364.553C319.926 364.614 320.216 364.646 320.506 364.648C322.26 364.648 323.601 363.34 324.078 362.861C326.026 360.98 326.441 358.458 326.695 356.289C327.069 352.896 327.091 349.475 326.759 346.078C326.37 342.514 325.621 338.997 324.525 335.581C322.556 328.854 318.704 322.832 313.422 318.225C312.037 316.958 310.578 315.775 309.05 314.682V299.783L325.834 273.875C327.877 284.211 331.353 299.495 335.949 318.287C341.564 341.261 356.433 368.446 379.947 369.529H380.043C380.453 369.523 380.846 369.36 381.14 369.077C381.437 368.793 381.615 368.408 381.638 367.999C381.647 367.789 381.615 367.58 381.542 367.382C381.469 367.186 381.359 367.005 381.217 366.851C381.074 366.696 380.903 366.573 380.712 366.485C380.522 366.397 380.316 366.348 380.107 366.339C369.993 365.86 360.898 360.118 353.082 349.237C347.02 340.814 341.914 329.264 339.042 317.522C333.077 293.018 328.993 274.576 327.492 265.291C327.492 265.164 327.462 265.036 327.462 264.941C327.418 264.793 327.386 264.644 327.365 264.494C327.333 264.365 327.333 264.27 327.301 264.143C327.27 264.014 327.27 264.079 327.27 264.047C326.664 260.441 327.077 256.134 327.397 253.773C328.259 247.488 335.949 245.732 341.564 244.424L342.935 244.104C351.39 242.094 355.283 241.266 359.368 242.573C360.707 243.02 364.791 244.36 368.014 248.253C370.471 251.252 371.971 255.624 374.906 264.334C375.481 266.024 375.864 267.237 375.864 267.237C378.289 274.958 384.798 296.176 389.807 312.64C389.914 312.964 390.118 313.245 390.393 313.445C390.667 313.644 390.997 313.754 391.338 313.758L391.817 313.693C392.22 313.561 392.555 313.277 392.752 312.903C392.948 312.527 392.99 312.09 392.87 311.683C387.829 295.251 381.352 274.034 378.895 266.28C378.895 266.216 378.512 265.036 377.937 263.313C374.843 254.22 373.31 249.657 370.471 246.211C368.479 243.832 365.983 241.923 363.164 240.628C363.196 240.469 363.196 240.306 363.164 240.149L360.803 225.918C360.356 223.239 359.208 221.036 357.676 220.015C357.319 219.741 356.904 219.548 356.463 219.449C356.023 219.349 355.566 219.348 355.124 219.441L327.142 225.471L326.441 225.726C322.419 219.793 319.325 209.933 319.07 201.925V201.796C319.058 201.784 319.049 201.769 319.044 201.752C319.039 201.735 319.036 201.718 319.037 201.701C319.037 201.637 319.005 201.605 319.005 201.542L318.943 201.381L318.878 201.254C318.878 201.19 318.846 201.16 318.814 201.095L318.719 200.999C318.687 200.967 318.655 200.904 318.59 200.872C318.528 200.84 318.56 200.807 318.528 200.775L318.367 200.68L318.272 200.616L318.113 200.521H317.984C317.984 200.516 317.984 200.513 317.982 200.508C317.981 200.504 317.979 200.501 317.976 200.498C317.972 200.496 317.969 200.492 317.966 200.491C317.96 200.489 317.957 200.489 317.954 200.489C317.737 200.416 317.508 200.396 317.283 200.425C314.826 200.713 312.56 201.095 310.327 201.51C308.093 201.925 305.924 202.308 303.564 202.563C303.169 202.616 302.768 202.596 302.382 202.499C302.365 202.35 302.377 202.198 302.414 202.052C302.734 200.425 304.233 198.926 306.434 198.096C309.594 196.884 313.39 196.947 317.06 197.043H319.549C319.97 197.043 320.377 196.875 320.677 196.576C320.976 196.276 321.144 195.871 321.144 195.448C321.144 195.025 320.976 194.618 320.677 194.32C320.377 194.021 319.97 193.853 319.549 193.853H317.124C314.89 193.756 312.654 193.789 310.423 193.948C309.228 194.068 308.043 194.281 306.881 194.586C306.295 194.186 305.806 193.665 305.445 193.055C305.308 192.845 305.215 192.61 305.171 192.363C305.127 192.116 305.133 191.863 305.191 191.619C305.291 191.359 305.445 191.122 305.643 190.923C305.841 190.725 306.078 190.571 306.339 190.47C308.413 189.481 311.445 189.513 313.869 189.545H314.093C316.071 189.545 318.081 189.704 320.026 189.896L322.866 190.216H323.313C323.692 190.15 324.036 189.95 324.28 189.653C324.524 189.355 324.653 188.978 324.641 188.593C324.629 188.209 324.478 187.842 324.217 187.559C323.955 187.276 323.601 187.098 323.218 187.056C320.314 186.737 317.219 186.417 314.123 186.385H313.902C311.927 186.306 309.951 186.412 307.999 186.705C307.889 186.543 307.792 186.372 307.711 186.194L307.328 185.588C307.248 185.175 307.274 184.748 307.403 184.347C307.531 183.945 307.756 183.583 308.061 183.292C308.378 182.968 308.744 182.697 309.147 182.494C310.071 182.015 310.901 181.888 313.199 181.918C316.601 181.849 319.999 182.128 323.345 182.748C325.1 183.068 326.886 183.451 328.642 183.93C329.052 184.035 329.487 183.974 329.853 183.757C330.217 183.542 330.483 183.192 330.588 182.78C330.694 182.37 330.632 181.935 330.417 181.569C330.202 181.204 329.849 180.94 329.44 180.835C327.621 180.355 325.77 179.94 323.919 179.59C320.384 178.95 316.792 178.662 313.199 178.728C311.939 178.667 310.674 178.752 309.435 178.984C308.031 177.771 306.945 176.271 306.913 175.473C306.881 174.676 307.392 174.293 308.093 173.943C310.55 172.73 313.869 173.369 316.772 173.943L317.154 174.007C319.217 174.415 321.252 174.949 323.249 175.602C326.617 176.752 329.866 178.227 332.948 180.005C335.087 181.249 337.735 182.78 340.67 185.525C343.247 187.962 345.46 190.754 347.243 193.821C348.932 196.466 350.273 199.319 351.231 202.308C352.029 204.794 352.542 207.362 352.764 209.965C352.826 210.376 352.858 210.793 352.858 211.21C352.891 211.613 353.072 211.99 353.366 212.268C353.661 212.546 354.049 212.703 354.453 212.708H354.55C354.76 212.696 354.965 212.644 355.153 212.552C355.342 212.459 355.512 212.332 355.651 212.175C355.79 212.017 355.896 211.834 355.966 211.636C356.033 211.438 356.062 211.228 356.049 211.018C355.878 207.731 355.276 204.482 354.262 201.351C353.544 199.028 352.593 196.782 351.422 194.65C356.02 194.808 360.602 195.257 365.144 195.99C370.662 196.884 379.947 198.415 390.284 203.424C396.316 206.328 402.537 209.327 407.866 215.103C416.992 225.058 417.884 237.565 419.225 256.484C419.671 262.579 420.085 275.341 417.916 292.571C417.342 297.167 416.672 301.346 415.874 305.333C415.427 307.631 415.044 309.673 414.694 311.555C413.385 318.287 412.587 322.372 411.089 326.774C406.63 339.476 399.456 351.05 390.063 360.692C389.771 361 389.612 361.408 389.619 361.832C389.624 362.253 389.795 362.658 390.093 362.958C390.4 363.235 390.796 363.395 391.211 363.405C391.641 363.403 392.054 363.23 392.359 362.925C394.823 360.365 397.154 357.681 399.347 354.885C398.9 361.586 398.964 365.032 399.474 373.678H229.06C230.496 365.415 230.849 362.605 231.614 354.215C232.252 347.1 232.73 339.889 233.082 332.774C233.094 332.564 233.065 332.354 232.997 332.156C232.928 331.956 232.821 331.773 232.682 331.617C232.544 331.46 232.374 331.331 232.185 331.24C231.997 331.148 231.792 331.094 231.582 331.082C231.155 331.065 230.739 331.216 230.424 331.502C230.107 331.788 229.916 332.188 229.89 332.615C229.572 339.698 229.06 346.876 228.424 353.927C227.657 362.384 227.306 365.095 225.806 373.678H149.103C148.68 373.678 148.274 373.846 147.975 374.145C147.676 374.443 147.508 374.85 147.508 375.273C147.508 375.697 147.676 376.101 147.975 376.401C148.274 376.701 148.68 376.868 149.103 376.868H476.433C476.856 376.868 477.262 376.701 477.561 376.401C477.86 376.101 478.028 375.697 478.028 375.273C478.036 375.058 478.002 374.845 477.926 374.643C477.85 374.442 477.733 374.259 477.584 374.103C477.435 373.949 477.256 373.825 477.059 373.741C476.861 373.658 476.648 373.614 476.433 373.614ZM253.534 242.032C253.189 241.546 252.947 240.997 252.82 240.414C252.694 239.834 252.688 239.232 252.799 238.648C252.906 238.061 253.133 237.502 253.468 237.007C253.803 236.513 254.239 236.093 254.747 235.778L270.22 225.823C270.464 225.66 270.657 225.435 270.781 225.171C270.904 224.907 270.954 224.614 270.923 224.323C270.901 224.037 270.801 223.764 270.632 223.532C270.462 223.3 270.23 223.122 269.965 223.015L257.873 218.037C257.51 217.876 257.19 217.634 256.936 217.329C256.682 217.024 256.503 216.665 256.411 216.279C256.318 215.893 256.315 215.492 256.403 215.106C256.491 214.718 256.665 214.357 256.916 214.049L270.762 197.873L288.503 291.87L253.534 242.032ZM306.657 171.039C304.776 171.965 303.626 173.751 303.723 175.602C303.818 177.453 305.286 179.272 306.403 180.452L305.924 180.867L305.445 181.344L299.479 180.387C298.785 180.279 298.118 180.034 297.519 179.666C296.919 179.299 296.398 178.818 295.986 178.247C295.575 177.678 295.278 177.033 295.117 176.349C294.955 175.665 294.929 174.955 295.045 174.261L302.573 127.518C302.802 126.114 303.569 124.855 304.712 124.009C305.63 123.37 306.72 123.025 307.838 123.02C308.127 123.009 308.417 123.03 308.7 123.083L333.969 127.135C334.665 127.248 335.332 127.496 335.932 127.867C336.533 128.237 337.053 128.723 337.464 129.295C337.877 129.867 338.172 130.514 338.333 131.2C338.494 131.887 338.519 132.598 338.406 133.293L331.609 175.602C329.231 174.415 326.779 173.38 324.27 172.507C322.14 171.802 319.965 171.237 317.761 170.815L317.378 170.752C314.123 170.114 310.103 169.316 306.657 171.039ZM280.973 50.4319C286.588 48.0709 292.491 47.2414 298.043 48.1028C303.02 48.8366 306.786 50.7191 309.306 51.9634C312.527 53.5768 315.554 55.546 318.336 57.8343C318.595 58.0423 318.783 58.3259 318.873 58.6458C318.963 58.9657 318.951 59.3059 318.839 59.6186C318.726 59.9314 318.519 60.2011 318.247 60.3904C317.972 60.5796 317.647 60.6788 317.315 60.6739C316.941 60.6676 316.58 60.5323 316.294 60.291C313.702 58.159 310.876 56.3285 307.87 54.8351C305.542 53.6864 302.031 51.9316 297.564 51.2615C291.311 50.3043 285.758 51.8677 282.218 53.3673C281.831 53.5135 281.405 53.5047 281.025 53.3426C280.646 53.1806 280.345 52.878 280.184 52.4981C280.023 52.1185 280.015 51.6913 280.162 51.306C280.309 50.9208 280.6 50.6075 280.973 50.4319ZM285.823 175.761C282.441 176.335 279.984 176.303 277.624 175.634C275.974 175.15 274.406 174.43 272.965 173.496C271.619 172.657 270.395 171.636 269.328 170.465C268.434 168.965 267.54 167.402 266.68 165.87C262.404 158.404 257.969 148.545 254.3 140.409C253.717 138.897 253.057 137.416 252.322 135.974C251.013 133.166 249.226 129.337 247.311 124.519C247.714 124.101 248.139 123.707 248.588 123.339C250.654 121.668 253.157 120.627 255.798 120.339C256.018 120.329 256.233 120.274 256.43 120.177C256.626 120.08 256.801 119.943 256.943 119.776C257.085 119.608 257.19 119.413 257.253 119.203C257.315 118.993 257.336 118.772 257.309 118.554C257.282 118.336 257.21 118.126 257.1 117.937C256.989 117.748 256.84 117.583 256.662 117.454C256.484 117.326 256.282 117.235 256.067 117.188C255.852 117.14 255.631 117.138 255.415 117.181C252.18 117.532 249.111 118.806 246.578 120.85L246.099 121.265C245.684 120.116 245.237 118.935 244.824 117.691C242.876 111.852 241.537 107.8 240.899 104.896C240.26 101.993 240.643 100.812 240.899 100.621C241.154 100.43 242.334 100.717 243.611 101.132C244.878 101.56 246.167 101.922 247.47 102.216C253.597 103.525 258.447 102.28 268.146 99.7914C272.577 98.664 276.936 97.2682 281.196 95.6118C283.19 94.8432 285.401 94.8758 287.37 95.7025C289.338 96.5294 290.911 98.0862 291.758 100.047L299.256 117.34C299.479 117.894 299.888 118.354 300.409 118.645C300.932 118.935 301.538 119.038 302.128 118.935C302.712 118.847 303.252 118.568 303.662 118.141C304.072 117.714 304.329 117.163 304.392 116.574C304.424 116.192 304.424 115.649 304.456 115.011C304.52 113.862 304.585 111.757 304.807 111.15C305.382 109.619 307.455 108.247 308.987 108.342C309.993 108.444 310.953 108.819 311.763 109.427C313.549 110.64 315.05 112.65 316.071 115.17C316.836 117.117 317.634 119.286 317.825 121.328L309.211 119.924C306.969 119.574 304.68 120.112 302.829 121.424C301.916 122.08 301.144 122.912 300.558 123.871C299.972 124.83 299.583 125.896 299.415 127.008L291.885 173.751C291.848 173.941 291.827 174.132 291.822 174.325C289.849 174.913 287.846 175.392 285.823 175.761ZM327.812 228.598L355.762 222.568C356.145 222.695 357.231 223.94 357.645 226.461L359.815 239.383C354.9 237.979 350.051 239.128 342.202 241.011L340.861 241.329C337.32 242.126 332.726 243.18 329.248 245.54L327.206 233.162C326.759 230.481 327.492 228.79 327.812 228.598ZM324.366 228.28C323.813 230.033 323.703 231.897 324.046 233.704L326.408 247.902C326.441 247.965 326.441 248.029 326.471 248.094C325.25 249.592 324.475 251.406 324.238 253.326C323.887 255.975 323.44 260.919 324.207 265.036C324.431 266.377 324.685 267.907 325.005 269.662C324.757 269.801 324.549 269.999 324.398 270.236L310.136 292.22L320.697 221.93C321.662 224.092 322.839 226.155 324.207 228.089C324.27 228.184 324.302 228.248 324.366 228.28Z" fill="black"/>
<path d="M80.979 373.613H42.2125C41.7895 373.613 41.3836 373.781 41.0844 374.081C40.7853 374.38 40.6172 374.785 40.6172 375.208C40.6172 375.632 40.7853 376.038 41.0844 376.336C41.3836 376.636 41.7895 376.804 42.2125 376.804H80.979C81.4021 376.804 81.8079 376.636 82.1071 376.336C82.4063 376.038 82.5744 375.632 82.5744 375.208C82.5744 374.785 82.4063 374.38 82.1071 374.081C81.8079 373.781 81.4021 373.613 80.979 373.613Z" fill="black"/>
<path d="M64.0693 120.149L74.758 102.441C74.9243 102.312 75.1244 102.235 75.3341 102.218C75.5437 102.201 75.7537 102.245 75.9386 102.345L80.7246 104.419C82.7666 105.28 85.0638 104.579 85.9892 102.824L93.9338 87.5724C93.9999 87.4923 94.0827 87.428 94.1765 87.3839C94.2703 87.3397 94.3727 87.3169 94.4764 87.317L103.378 86.679C104.03 86.6485 104.664 86.4506 105.217 86.1041C105.77 85.7575 106.225 85.2742 106.537 84.7007L119.395 58.8883L117.545 75.0331L120.735 75.384L124.086 45.9023L102.581 66.3226L104.75 68.6518L116.524 57.4526L103.665 83.2649C103.606 83.3424 103.528 83.4036 103.439 83.4427C103.35 83.4818 103.252 83.4974 103.155 83.4882L94.253 84.1583C93.6097 84.1752 92.9822 84.361 92.4334 84.6969C91.8844 85.0331 91.4336 85.5074 91.1261 86.0728L83.1495 101.356C83.0538 101.515 82.5433 101.707 82.0009 101.484L77.1829 99.4096C75.2365 98.5482 73.035 99.1545 72.046 100.782L62.6016 116.416V120.851L64.0693 120.149Z" fill="#6192BF"/>
<path d="M62.6016 124.361L98.4327 107.387C98.9801 107.127 99.6022 107.071 100.188 107.227L112.567 110.578C112.847 110.672 113.149 110.672 113.429 110.578L141.985 102.441L128.808 111.95L130.69 114.534L154.716 97.1449L125.139 95.0391L124.915 98.1978L141.092 99.3784L112.95 107.387L101.017 104.164C99.7018 103.803 98.3011 103.916 97.0607 104.483L64.0693 120.149L62.6016 120.852V124.361Z" fill="#3B79AF"/>
<path d="M59.4141 127.297C59.4141 127.72 59.5822 128.125 59.8814 128.425C60.1806 128.724 60.5864 128.892 61.0095 128.892L145.658 127.743C146.081 127.739 146.485 127.567 146.781 127.265C147.077 126.963 147.241 126.555 147.237 126.132C147.233 125.709 147.061 125.305 146.759 125.009C146.456 124.712 146.049 124.548 145.626 124.553L62.6048 125.669V48.8062C62.6048 48.3832 62.4367 47.9773 62.1375 47.6783C61.8384 47.3791 61.4325 47.2109 61.0095 47.2109C60.5864 47.2109 60.1806 47.3791 59.8814 47.6783C59.5822 47.9773 59.4141 48.3832 59.4141 48.8062V126.722C59.4567 126.911 59.4567 127.107 59.4141 127.297Z" fill="black"/>
<path d="M292.04 463.59C291.617 463.585 291.21 463.749 290.907 464.045C290.606 464.342 290.433 464.747 290.43 465.17C290.425 465.593 290.589 466 290.885 466.303C291.182 466.604 291.586 466.777 292.008 466.78L366.862 467.96H366.894C367.317 467.966 367.724 467.801 368.027 467.505C368.328 467.209 368.501 466.806 368.504 466.382C368.509 465.959 368.345 465.551 368.049 465.249C367.752 464.946 367.349 464.775 366.926 464.77L292.072 463.622L292.04 463.59Z" fill="black"/>
<path d="M254.618 420.547C254.195 420.544 253.789 420.708 253.485 421.004C253.184 421.3 253.011 421.703 253.008 422.127C253.003 422.55 253.167 422.958 253.463 423.26C253.76 423.563 254.163 423.734 254.586 423.739L329.44 424.887H329.472C329.887 424.878 330.283 424.713 330.58 424.423C330.876 424.132 331.05 423.739 331.067 423.324C331.059 422.906 330.894 422.504 330.605 422.203C330.314 421.902 329.921 421.72 329.504 421.697L254.65 420.547H254.618Z" fill="black"/>
<path d="M377.523 423.133C377.528 422.923 377.491 422.714 377.415 422.52C377.338 422.323 377.225 422.145 377.079 421.995C376.934 421.844 376.761 421.722 376.568 421.639C376.377 421.554 376.17 421.509 375.96 421.505L340.8 420.738C340.378 420.738 339.973 420.901 339.67 421.192C339.367 421.485 339.188 421.881 339.172 422.303C339.167 422.511 339.205 422.719 339.281 422.916C339.357 423.111 339.472 423.288 339.616 423.441C339.762 423.592 339.934 423.712 340.127 423.796C340.319 423.879 340.525 423.925 340.735 423.93L375.896 424.696H375.928C376.346 424.696 376.747 424.531 377.045 424.24C377.343 423.947 377.514 423.549 377.523 423.133Z" fill="black"/>
<path d="M243.579 464.005C243.574 464.215 243.611 464.423 243.687 464.618C243.763 464.813 243.877 464.99 244.022 465.143C244.168 465.293 244.341 465.414 244.534 465.498C244.725 465.583 244.932 465.627 245.142 465.632L280.302 466.398H280.334C280.544 466.399 280.752 466.36 280.945 466.282C281.14 466.204 281.318 466.088 281.467 465.942C281.616 465.795 281.736 465.62 281.817 465.427C281.9 465.234 281.943 465.028 281.946 464.818C281.948 464.609 281.909 464.401 281.831 464.206C281.751 464.012 281.636 463.835 281.489 463.685C281.343 463.536 281.169 463.417 280.976 463.334C280.783 463.253 280.576 463.209 280.366 463.207L245.206 462.442C244.996 462.437 244.788 462.474 244.593 462.55C244.396 462.626 244.219 462.74 244.068 462.886C243.917 463.031 243.795 463.204 243.711 463.397C243.628 463.588 243.582 463.795 243.579 464.005Z" fill="black"/>
<path d="M346.951 447.349C347.374 447.354 347.783 447.19 348.084 446.894C348.387 446.597 348.558 446.193 348.563 445.769C348.567 445.348 348.402 444.94 348.108 444.637C347.811 444.335 347.407 444.162 346.983 444.159L295.135 443.426H295.103C294.683 443.433 294.282 443.604 293.984 443.902C293.687 444.198 293.516 444.599 293.508 445.021C293.508 445.443 293.675 445.849 293.975 446.149C294.275 446.447 294.68 446.616 295.103 446.616L346.951 447.349Z" fill="black"/>
<path d="M250.18 443.235C250.177 443.445 250.214 443.653 250.29 443.848C250.366 444.045 250.48 444.222 250.625 444.373C250.769 444.524 250.944 444.646 251.135 444.73C251.328 444.813 251.535 444.859 251.743 444.862L280.237 445.66H280.269C280.69 445.668 281.1 445.509 281.405 445.216C281.71 444.923 281.888 444.52 281.896 444.097C281.905 443.674 281.744 443.266 281.451 442.959C281.158 442.654 280.755 442.478 280.331 442.47L251.839 441.672C251.413 441.664 251.001 441.823 250.69 442.116C250.38 442.407 250.197 442.81 250.18 443.235Z" fill="black"/>
<path d="M374.868 448.752L376.401 442.658C376.943 440.489 374.709 438.702 371.422 438.67L362.202 438.606C358.915 438.574 355.79 440.33 355.246 442.499L353.715 448.625C353.172 450.795 355.375 452.581 358.66 452.613L367.914 452.678C371.199 452.678 374.294 450.954 374.868 448.752Z" fill="#6192BF"/>
<path d="M383.772 391.514L251.805 390.27H251.773C251.35 390.27 250.945 390.437 250.645 390.737C250.346 391.037 250.178 391.441 250.178 391.865C250.178 392.288 250.346 392.694 250.645 392.992C250.945 393.292 251.35 393.46 251.773 393.46L383.74 394.704C384.519 394.703 385.289 394.874 385.995 395.206C386.701 395.536 387.326 396.018 387.824 396.62C388.317 397.222 388.671 397.927 388.864 398.682C389.057 399.436 389.082 400.225 388.94 400.99L375.635 473.29C375.371 474.763 374.597 476.096 373.448 477.053C372.298 478.011 370.847 478.531 369.35 478.523H369.253L234.513 476.513C233.936 476.509 233.367 476.372 232.852 476.111C232.337 475.852 231.89 475.476 231.545 475.014C231.197 474.555 230.962 474.022 230.857 473.458C230.752 472.892 230.781 472.312 230.938 471.759L247.115 410.849C247.167 410.645 247.179 410.434 247.15 410.227C247.122 410.019 247.05 409.819 246.944 409.638C246.837 409.457 246.697 409.299 246.529 409.174C246.361 409.047 246.17 408.955 245.967 408.903C245.764 408.85 245.552 408.839 245.344 408.867C245.137 408.898 244.937 408.967 244.756 409.074C244.575 409.181 244.417 409.321 244.29 409.489C244.165 409.658 244.074 409.848 244.021 410.051L227.843 470.93C227.567 471.953 227.526 473.024 227.728 474.064C227.928 475.106 228.363 476.086 229 476.933C229.636 477.778 230.459 478.468 231.404 478.948C232.347 479.429 233.389 479.688 234.449 479.703L369.221 481.713H369.35C371.593 481.72 373.769 480.937 375.497 479.503C377.222 478.069 378.39 476.072 378.793 473.864L392.068 401.564C392.303 400.345 392.264 399.088 391.956 397.886C391.646 396.682 391.074 395.563 390.281 394.608C389.489 393.646 388.496 392.87 387.37 392.335C386.246 391.8 385.016 391.521 383.772 391.514Z" fill="black"/>
<path d="M379.66 406.895C379.87 406.896 380.076 406.857 380.271 406.78C380.466 406.702 380.642 406.585 380.793 406.439C380.942 406.292 381.062 406.117 381.143 405.924C381.226 405.731 381.269 405.525 381.27 405.315C381.274 405.105 381.235 404.898 381.155 404.704C381.077 404.509 380.962 404.333 380.815 404.182C380.669 404.033 380.493 403.913 380.302 403.831C380.109 403.748 379.9 403.706 379.692 403.704L304.838 402.555H304.806C304.39 402.555 303.988 402.719 303.69 403.01C303.392 403.303 303.219 403.701 303.211 404.119C303.211 404.539 303.374 404.944 303.665 405.247C303.956 405.55 304.354 405.73 304.776 405.747L379.628 406.895H379.66Z" fill="black"/>
<path d="M210.766 398.891L149.008 440.558L151.945 444.912L213.702 403.244L210.766 398.891Z" fill="#6192BF"/>
<path d="M224.209 390.303L211.223 394.418C210.947 394.499 210.688 394.633 210.465 394.814C210.239 394.994 210.053 395.217 209.916 395.471L144.922 439.152L144.667 438.8L137.615 443.65C137.357 443.833 137.158 444.087 137.044 444.383C136.93 444.678 136.907 445.001 136.977 445.309L137.456 447.478C137.933 449.566 139.159 451.405 140.902 452.648L142.784 453.957C143.044 454.155 143.361 454.265 143.688 454.272C144.016 454.277 144.336 454.177 144.603 453.988L151.654 449.138L151.431 448.787L216.425 405.108C216.994 405.052 217.521 404.778 217.892 404.341L226.602 393.844C226.905 393.473 227.08 393.012 227.1 392.535C227.122 392.056 226.988 391.583 226.719 391.187C226.451 390.789 226.062 390.489 225.61 390.33C225.159 390.171 224.668 390.161 224.209 390.303ZM209.819 399.396L212.756 403.735L150.984 445.247L148.049 440.874L209.819 399.396Z" fill="black"/>
<path d="M312.239 226.651C312.17 226.452 312.063 226.267 311.924 226.11C311.784 225.95 311.614 225.822 311.425 225.73C311.233 225.637 311.028 225.585 310.817 225.573C310.607 225.561 310.395 225.591 310.197 225.663C306.177 226.97 299.859 228.214 292.68 226.523C289.603 225.808 286.655 224.625 283.937 223.014C283.569 222.802 283.132 222.745 282.723 222.857C282.313 222.967 281.964 223.236 281.752 223.603C281.541 223.973 281.483 224.409 281.595 224.819C281.705 225.229 281.974 225.578 282.342 225.79C285.342 227.546 288.59 228.836 291.978 229.618C294.527 230.238 297.14 230.548 299.763 230.543C303.654 230.521 307.518 229.896 311.218 228.694C311.616 228.548 311.945 228.255 312.134 227.876C312.326 227.495 312.363 227.058 312.239 226.651Z" fill="black"/>
<path d="M280.139 52.5045C280.215 52.6992 280.332 52.8767 280.477 53.0262C280.625 53.1756 280.799 53.2939 280.994 53.3744C281.187 53.4546 281.395 53.4954 281.603 53.4939C281.813 53.4924 282.02 53.4489 282.213 53.3659C285.754 51.8663 291.306 50.3028 297.56 51.2601C302.027 51.9301 305.537 53.6849 307.865 54.8337C310.871 56.327 313.697 58.1575 316.29 60.2896C316.449 60.4274 316.637 60.5317 316.837 60.5968C317.038 60.6618 317.251 60.686 317.461 60.6682C317.673 60.6504 317.878 60.5908 318.066 60.493C318.252 60.3951 318.42 60.261 318.554 60.0982C318.813 59.7633 318.935 59.3423 318.892 58.9212C318.852 58.5001 318.65 58.1108 318.332 57.8329C315.55 55.5445 312.522 53.5754 309.301 51.9619C306.782 50.7177 303.016 48.8352 298.039 48.1013C292.486 47.2399 286.583 48.0695 280.968 50.4305C280.586 50.5988 280.286 50.9102 280.13 51.298C279.974 51.6858 279.978 52.1189 280.139 52.5045Z" fill="white"/>
<path d="M114.291 364.04C115.312 364.04 116.301 364.009 117.259 363.913L91.8291 325.625L86.8516 328.815L108.931 363.595C110.7 363.906 112.495 364.055 114.291 364.04Z" fill="#3B79AF"/>
<path d="M139.756 403.735V348.569H139.629C138.895 339.061 127.823 331.499 114.295 331.499C110.37 331.499 105.201 332.488 101.213 333.988L93.6512 322.565H93.7149L90.2052 316.886C89.7997 316.232 89.2009 315.722 88.4919 315.424C87.7829 315.128 86.9989 315.058 86.2488 315.226H86.2169C83.6605 315.798 81.3889 317.256 79.8036 319.343C79.3489 319.935 79.0843 320.652 79.0443 321.398C79.0045 322.143 79.1913 322.885 79.5803 323.522L83.1219 329.233L83.2815 329.138V329.201L91.29 341.805C89.7585 344.421 88.929 347.166 88.929 349.623C88.9292 350.082 88.961 350.539 89.0247 350.994V403.735H89.0565C89.9181 413.18 100.958 420.646 114.39 420.646C127.823 420.646 138.863 413.18 139.692 403.735H139.756ZM136.151 402.587C136.151 410.564 126.387 417.041 114.39 417.041C102.394 417.041 92.6301 410.564 92.6301 402.587V358.97C97.0651 364.172 105.138 367.68 114.295 367.68C123.452 367.68 131.748 364.075 136.151 358.779V402.587ZM114.295 335.104C126.324 335.104 136.087 341.613 136.087 349.591C136.087 356.068 129.61 361.588 120.74 363.407L103.255 337.051C106.158 336.063 110.593 335.104 114.295 335.104ZM92.6301 350.771V350.132H92.5663C92.5387 349.953 92.528 349.772 92.5344 349.591C92.5739 348.15 92.9568 346.737 93.6512 345.474L104.436 362.48C97.8947 360.247 93.2363 355.876 92.6301 350.771ZM91.8324 325.628L117.262 363.916C116.305 364.013 115.316 364.043 114.295 364.043C112.498 364.058 110.704 363.909 108.934 363.598L86.855 328.818L91.8324 325.628Z" fill="black"/>
</svg>
