<svg width="366" height="366" viewBox="0 0 366 366" fill="none" xmlns="http://www.w3.org/2000/svg">
<path d="M92.0008 159.66C89.9278 159.61 87.8803 159.19 85.9545 158.421C85.7757 158.343 85.6351 158.199 85.5633 158.017C85.4916 157.837 85.4948 157.634 85.5721 157.456C85.6493 157.277 85.7944 157.137 85.9754 157.065C86.1565 156.993 86.3585 156.996 86.5372 157.073C86.5737 157.073 91.4908 159.15 94.8418 157.693C95.4512 157.422 95.9965 157.026 96.4422 156.53C96.8878 156.034 97.2237 155.449 97.4279 154.815C97.5076 154.642 97.6469 154.501 97.8205 154.421C97.9943 154.342 98.1909 154.326 98.3749 154.378C98.5541 154.451 98.6988 154.589 98.78 154.765C98.861 154.942 98.8724 155.141 98.812 155.325C98.5362 156.141 98.0922 156.89 97.5087 157.523C96.9252 158.158 96.2153 158.662 95.4246 159.004C94.3404 159.455 93.175 159.678 92.0008 159.66Z" fill="#282928"/>
<path d="M150.423 52.9009C150.31 52.9074 150.196 52.8839 150.094 52.8327C149.991 52.7816 149.905 52.7046 149.841 52.6095C149.784 52.533 149.741 52.4459 149.718 52.3533C149.695 52.2606 149.689 52.1641 149.702 52.0694C149.716 51.9747 149.749 51.8836 149.797 51.8012C149.846 51.719 149.91 51.647 149.987 51.5897L167.652 38.3679C168.409 37.8009 169.31 37.4618 170.252 37.391C171.195 37.32 172.138 37.5199 172.97 37.9673L196.244 50.3513C196.338 50.391 196.422 50.45 196.491 50.5241C196.56 50.5982 196.613 50.686 196.647 50.7818C196.68 50.8776 196.693 50.9792 196.685 51.0803C196.676 51.1814 196.647 51.2796 196.599 51.3687C196.55 51.4578 196.484 51.5359 196.404 51.5979C196.323 51.6598 196.231 51.7044 196.133 51.7285C196.034 51.7528 195.932 51.7562 195.832 51.7385C195.732 51.7208 195.637 51.6827 195.552 51.626L172.278 39.2421C171.69 38.9279 171.024 38.7885 170.359 38.8401C169.694 38.8917 169.059 39.1323 168.527 39.5335L150.861 52.7553C150.736 52.8523 150.582 52.9037 150.423 52.9009Z" fill="#282928"/>
<path d="M194.241 48.2878L152.096 49.9806C150.287 50.0532 148.879 51.5785 148.952 53.3876L149.991 79.2529C150.063 81.0619 151.588 82.4696 153.398 82.3968L195.543 80.7042C197.352 80.6315 198.758 79.1061 198.686 77.2971L197.647 51.4318C197.575 49.6228 196.049 48.2153 194.241 48.2878Z" fill="#6192BF"/>
<path d="M225.31 197.83L222.578 122.653C222.554 122.046 222.649 121.442 222.86 120.874C223.071 120.305 223.392 119.784 223.805 119.34C224.218 118.897 224.715 118.539 225.267 118.289C225.819 118.038 226.415 117.9 227.021 117.881L268.945 116.643L269.527 128.371C269.527 128.371 247.928 126.951 247.928 130.592C247.928 134.235 249.677 198.923 249.677 198.923L225.31 197.83Z" fill="#6192BF"/>
<path d="M265.377 197.248H218.5C214.959 197.248 212.09 200.117 212.09 203.658V294.061C212.09 297.602 214.959 300.472 218.5 300.472H265.377C268.917 300.472 271.788 297.602 271.788 294.061V203.658C271.788 200.117 268.917 197.248 265.377 197.248Z" fill="white"/>
<path d="M265.338 301.2H218.498C216.604 301.2 214.789 300.448 213.449 299.109C212.111 297.771 211.359 295.954 211.359 294.061V203.694C211.359 201.797 212.11 199.978 213.448 198.634C214.785 197.289 216.602 196.528 218.498 196.52H265.338C267.241 196.52 269.067 197.275 270.412 198.62C271.758 199.966 272.514 201.791 272.514 203.694V294.061C272.505 295.958 271.744 297.773 270.4 299.112C269.054 300.449 267.235 301.2 265.338 301.2ZM218.498 197.976C216.987 197.986 215.543 198.592 214.478 199.663C213.414 200.735 212.816 202.184 212.816 203.694V294.061C212.816 295.568 213.414 297.013 214.48 298.08C215.545 299.145 216.991 299.744 218.498 299.744H265.338C266.087 299.749 266.83 299.605 267.525 299.322C268.217 299.037 268.848 298.62 269.38 298.092C269.911 297.564 270.333 296.935 270.621 296.244C270.909 295.552 271.058 294.81 271.058 294.061V203.694C271.058 202.178 270.455 200.724 269.383 199.651C268.31 198.579 266.855 197.976 265.338 197.976H218.498Z" fill="#282928"/>
<path d="M102.998 151.755C102.998 151.755 127.62 158.458 125.872 151.537C124.123 144.617 113.56 135.001 113.56 135.001L119.133 129.246C119.133 129.246 134.723 141.339 138.583 152.302C142.444 163.266 122.412 171.57 112.431 168.109C102.451 164.649 102.998 151.755 102.998 151.755Z" fill="#6192BF"/>
<path d="M91.4883 140.61C88.9023 140.61 85.8426 139.917 82.346 138.534C82.1735 138.453 82.0368 138.313 81.9628 138.138C81.8887 137.963 81.8825 137.767 81.9453 137.587C81.9778 137.496 82.0283 137.412 82.0938 137.34C82.1593 137.268 82.2385 137.209 82.3267 137.169C82.415 137.129 82.5104 137.105 82.6077 137.102C82.7048 137.099 82.8015 137.115 82.8924 137.149C89.5579 139.809 94.3658 139.809 97.2433 137.149C104.346 130.484 97.7531 109.504 97.6803 109.322C97.6231 109.224 97.5883 109.114 97.5788 109.001C97.5693 108.887 97.5852 108.773 97.6253 108.667C97.6654 108.561 97.7288 108.464 97.8107 108.386C97.8927 108.307 97.9913 108.247 98.0991 108.211C98.2071 108.175 98.3216 108.164 98.4345 108.178C98.5475 108.192 98.6558 108.23 98.7517 108.292C98.8477 108.353 98.9288 108.434 98.9892 108.531C99.0496 108.627 99.0877 108.736 99.1009 108.849C99.3558 109.759 106.021 130.921 98.2267 138.206C96.5148 139.809 94.2565 140.61 91.4883 140.61Z" fill="#282928"/>
<path d="M93.7313 119.451C94.2498 119.382 94.5859 118.695 94.4822 117.917C94.3784 117.14 93.874 116.565 93.3556 116.635C92.8371 116.704 92.501 117.39 92.6047 118.168C92.7085 118.945 93.2129 119.52 93.7313 119.451Z" fill="#282928"/>
<path d="M83.5282 121.185C84.0466 121.116 84.3828 120.429 84.279 119.652C84.1753 118.874 83.6708 118.3 83.1524 118.369C82.634 118.438 82.2978 119.125 82.4016 119.902C82.5053 120.68 83.0098 121.254 83.5282 121.185Z" fill="#282928"/>
<path d="M96.5161 116.059H96.4068L91.5625 115.44C91.4426 115.427 91.3266 115.389 91.2212 115.331C91.1156 115.272 91.023 115.193 90.9485 115.098C90.8739 115.003 90.8189 114.894 90.7868 114.778C90.7546 114.662 90.746 114.54 90.7612 114.42C90.7973 114.182 90.9229 113.966 91.1123 113.818C91.3019 113.669 91.541 113.598 91.781 113.619L96.6254 114.238C96.7453 114.252 96.8613 114.289 96.9667 114.348C97.0721 114.406 97.1649 114.485 97.2394 114.58C97.314 114.675 97.3689 114.784 97.4011 114.9C97.4331 115.017 97.4419 115.138 97.4267 115.258C97.3998 115.48 97.2921 115.685 97.1242 115.832C96.9563 115.98 96.7398 116.061 96.5161 116.059Z" fill="#282928"/>
<path d="M80.5282 116.388C80.3282 116.381 80.136 116.309 79.9813 116.182C79.8266 116.055 79.718 115.88 79.6724 115.686C79.6268 115.491 79.6467 115.286 79.7289 115.104C79.8112 114.921 79.9513 114.771 80.1276 114.676L83.5149 112.891C83.6196 112.836 83.7344 112.802 83.8525 112.792C83.9706 112.782 84.0894 112.796 84.2019 112.834C84.3143 112.871 84.418 112.931 84.5064 113.01C84.595 113.089 84.6666 113.185 84.7169 113.292C84.7738 113.395 84.8096 113.507 84.822 113.624C84.8345 113.74 84.8234 113.858 84.7893 113.97C84.7554 114.082 84.6993 114.187 84.6243 114.276C84.5492 114.367 84.4569 114.441 84.3527 114.494L80.9652 116.279C80.8299 116.349 80.6804 116.386 80.5282 116.388Z" fill="#282928"/>
<path d="M90.6164 126.769C90.4477 126.765 90.2848 126.706 90.153 126.6C90.0213 126.495 89.9281 126.349 89.8879 126.185C89.855 125.993 89.8971 125.795 90.0054 125.633C90.1139 125.469 90.2803 125.355 90.4707 125.311C91.017 125.202 91.1627 125.056 91.1627 124.984C91.1627 124.911 90.5071 123.745 89.7058 123.089C89.625 123.035 89.5565 122.965 89.5047 122.883C89.453 122.8 89.4191 122.708 89.4054 122.612C89.3916 122.516 89.3983 122.418 89.4249 122.324C89.4517 122.23 89.4976 122.144 89.5601 122.069C89.6814 121.92 89.8566 121.825 90.0475 121.805C90.2386 121.785 90.4299 121.84 90.5799 121.96C91.1263 122.397 92.9111 123.927 92.5833 125.347C92.4376 126.04 91.8183 126.514 90.7621 126.732L90.6164 126.769Z" fill="#282928"/>
<path d="M89.8499 133.36C87.9195 133.36 85.4791 132.705 84.5685 130.265C84.4964 130.086 84.4981 129.886 84.5733 129.709C84.6483 129.531 84.7907 129.391 84.9691 129.317C85.0599 129.283 85.1568 129.267 85.2539 129.27C85.351 129.273 85.4465 129.297 85.5348 129.337C85.6231 129.377 85.7022 129.436 85.7677 129.508C85.8333 129.58 85.8838 129.664 85.9162 129.755C87.0453 132.669 91.1248 131.795 91.3068 131.759C91.4944 131.724 91.688 131.761 91.8498 131.862C92.0115 131.964 92.1297 132.121 92.181 132.305C92.2026 132.398 92.2056 132.494 92.1898 132.589C92.1741 132.683 92.1398 132.774 92.0891 132.855C92.0383 132.936 91.9721 133.007 91.8941 133.062C91.8161 133.118 91.7279 133.157 91.6347 133.179C91.0483 133.304 90.4497 133.367 89.8499 133.36Z" fill="#282928"/>
<path d="M97.2083 153.065H96.9897C95.4599 152.774 93.7116 152.41 93.0195 150.697C91.6584 147.383 90.8701 143.861 90.6885 140.281C90.6835 140.187 90.6977 140.093 90.7303 140.005C90.7629 139.916 90.813 139.836 90.8778 139.767C90.9426 139.699 91.0206 139.645 91.1069 139.609C91.1934 139.571 91.2864 139.553 91.3805 139.553H91.4169C91.604 139.553 91.7839 139.623 91.9196 139.753C92.0551 139.882 92.136 140.058 92.1454 140.244C92.3351 143.647 93.0858 146.995 94.3673 150.152C94.7314 151.062 95.7514 151.354 97.2811 151.645H97.3539C97.5145 151.695 97.6527 151.799 97.7453 151.939C97.8379 152.08 97.8792 152.248 97.862 152.415C97.8448 152.582 97.7703 152.739 97.6513 152.857C97.5321 152.975 97.3755 153.05 97.2083 153.065Z" fill="#282928"/>
<path d="M73.2412 129.355C73.2412 129.355 68.9432 125.713 69.5624 123.892C69.7809 123.164 70.7279 121.706 73.0226 122.727C78.122 124.875 78.9961 114.495 80.4167 110.961C81.2543 108.776 83.7312 109.905 84.4231 110.197C88.6484 112.091 94.7675 109.432 98.592 109.031C98.847 109.002 99.0929 108.919 99.3136 108.788C99.5344 108.657 99.725 108.481 99.8729 108.271C100.021 108.061 100.123 107.823 100.172 107.571C100.221 107.319 100.216 107.059 100.158 106.809C99.3568 103.604 96.1516 98.3953 92.2178 95.7365C86.2444 91.7663 71.3472 89.3988 64.3539 105.644C59.036 117.918 64.0989 124.802 66.9035 127.425C67.729 128.222 68.7888 128.733 69.9266 128.882L73.2412 129.355Z" fill="#282928"/>
<path d="M64.7901 160.533C64.6355 160.533 64.4852 160.483 64.3608 160.392C64.2365 160.3 64.1443 160.171 64.098 160.023C64.0643 159.933 64.05 159.836 64.056 159.74C64.062 159.644 64.0881 159.548 64.1328 159.463C64.1773 159.378 64.2394 159.302 64.315 159.241C64.3905 159.181 64.478 159.137 64.5715 159.113C67.3761 158.166 74.8065 155.106 75.6078 151.828L73.7866 130.011C72.694 129.61 70.0715 128.518 69.0516 126.515C68.8208 126.047 68.6887 125.537 68.6637 125.018C68.6386 124.498 68.721 123.978 68.9059 123.491C69.4158 122.143 70.1808 121.415 71.1642 121.233C73.0946 120.941 74.9522 123.236 75.1707 123.491C75.271 123.641 75.311 123.826 75.2833 124.005C75.2556 124.184 75.1619 124.347 75.0208 124.46C74.8795 124.574 74.7009 124.631 74.5198 124.62C74.3388 124.609 74.1682 124.531 74.0416 124.402C73.5318 123.782 72.2205 122.543 71.3827 122.69C70.5449 122.835 70.5086 123.455 70.29 124C70.1648 124.297 70.1065 124.616 70.1191 124.937C70.1316 125.259 70.2149 125.573 70.3628 125.858C71.1642 127.461 73.7503 128.518 74.6609 128.773L75.1343 128.918L77.1012 151.938V152.047C76.1178 156.782 66.1742 160.133 65.0451 160.498L64.7901 160.533Z" fill="#282928"/>
<path d="M70.5447 99.9607C70.5447 99.9607 60.5646 98.3582 60.4189 86.0105C60.2732 73.6629 76.9916 74.4279 82.2002 82.7689C85.2962 87.7224 83.038 95.335 80.7433 97.4839C78.4486 99.6329 70.5447 99.9607 70.5447 99.9607Z" fill="#282928"/>
<path d="M69.8186 100.179C69.2518 100.201 68.6853 100.127 68.1432 99.9602C67.9597 99.8973 67.8085 99.7642 67.7231 99.59C67.6377 99.4158 67.625 99.2149 67.6878 99.0312C67.7507 98.8478 67.8838 98.6967 68.058 98.6113C68.2321 98.5259 68.4331 98.5132 68.6166 98.5759C68.7259 98.6124 73.5338 100.033 82.8218 92.5297C82.896 92.4675 82.9817 92.4206 83.0739 92.3915C83.1662 92.3624 83.2633 92.3517 83.3597 92.3603C83.4561 92.3687 83.5499 92.396 83.6357 92.4408C83.7216 92.4855 83.7977 92.5466 83.8599 92.6208C83.922 92.6949 83.969 92.7806 83.9982 92.8728C84.0272 92.9652 84.0378 93.0623 84.0294 93.1587C84.021 93.255 83.9935 93.3488 83.9489 93.4346C83.9041 93.5205 83.843 93.5966 83.7688 93.6589C76.812 99.268 72.1498 100.179 69.8186 100.179Z" fill="#6192BF"/>
<path d="M71.7109 99.2329C71.7109 99.2329 74.0785 94.4978 75.8996 94.7163C77.7208 94.9348 76.7738 101.09 75.9725 101.527C75.1711 101.965 71.7109 99.2329 71.7109 99.2329Z" fill="#6192BF"/>
<path d="M71.5667 99.196C71.5667 99.196 68.2157 95.1166 66.5038 95.7359C64.7919 96.355 67.0501 102.146 67.8879 102.365C68.7256 102.583 71.5667 99.196 71.5667 99.196Z" fill="#6192BF"/>
<path d="M65.3743 93.003C65.2082 93.0051 65.0469 92.9474 64.9198 92.8404C64.7928 92.7334 64.7085 92.5843 64.6823 92.4202L64.136 90.162C64.1144 90.0688 64.1113 89.9722 64.1272 89.8777C64.1429 89.7833 64.1772 89.6929 64.2278 89.6117C64.2786 89.5305 64.3448 89.4601 64.4228 89.4045C64.5009 89.349 64.589 89.3093 64.6823 89.2879C64.8699 89.2536 65.0635 89.2905 65.2252 89.3917C65.387 89.4927 65.5051 89.6506 65.5564 89.8342L66.1029 92.0924C66.1243 92.1857 66.1274 92.2823 66.1116 92.3768C66.0958 92.4712 66.0616 92.5616 66.0109 92.6427C65.9601 92.724 65.8939 92.7944 65.8159 92.8499C65.738 92.9055 65.6497 92.9452 65.5564 92.9667L65.3743 93.003Z" fill="white"/>
<path d="M64.0641 87.4675C63.8885 87.4694 63.7179 87.408 63.5841 87.2941C63.4502 87.1803 63.362 87.0219 63.3357 86.8483C62.8986 83.898 64.6469 80.8384 64.7198 80.6927C64.7649 80.6087 64.8269 80.5348 64.9019 80.4759C64.9769 80.417 65.0633 80.3743 65.1557 80.3503C65.248 80.3263 65.3444 80.3217 65.4386 80.3368C65.5328 80.3518 65.6229 80.3862 65.7032 80.4377C65.8716 80.5301 65.9967 80.6853 66.0513 80.8695C66.1058 81.0537 66.0854 81.252 65.9946 81.4212C65.9582 81.4577 64.4283 84.1894 64.7561 86.6297C64.7716 86.7256 64.7678 86.8235 64.7449 86.9178C64.722 87.0121 64.6805 87.1009 64.6228 87.179C64.5652 87.2569 64.4925 87.3227 64.409 87.3722C64.3256 87.4217 64.2331 87.4542 64.137 87.4675H64.0641Z" fill="white"/>
<path d="M66.4654 115.404C66.2842 115.405 66.1091 115.339 65.9744 115.218C65.8398 115.096 65.7551 114.929 65.7369 114.749C65.3363 110.597 67.9588 105.315 68.068 105.097C68.155 104.923 68.3075 104.791 68.4918 104.729C68.6763 104.668 68.8776 104.682 69.0514 104.769C69.2254 104.856 69.3575 105.008 69.419 105.193C69.4805 105.377 69.4662 105.578 69.3792 105.752C69.3429 105.789 66.8297 110.888 67.1938 114.603C67.204 114.699 67.1949 114.796 67.1674 114.888C67.1398 114.98 67.0942 115.066 67.0332 115.141C66.9722 115.215 66.8971 115.277 66.8121 115.322C66.7272 115.367 66.6341 115.395 66.5382 115.404H66.4654Z" fill="white"/>
<path d="M90.2496 107.282C88.8927 107.284 87.5429 107.088 86.243 106.699L85.7694 106.59C85.6655 106.586 85.5636 106.56 85.4706 106.513C85.3777 106.466 85.2959 106.399 85.2308 106.318C85.1655 106.237 85.1185 106.143 85.0928 106.042C85.0672 105.941 85.0634 105.836 85.0817 105.734C85.1001 105.631 85.1403 105.534 85.1994 105.448C85.2586 105.363 85.3355 105.291 85.4248 105.237C85.5141 105.184 85.6139 105.15 85.7173 105.138C85.8208 105.127 85.9255 105.137 86.0244 105.17C86.2251 105.188 86.4217 105.237 86.6072 105.315C87.9184 105.643 90.9416 106.481 95.786 104.842C95.8742 104.808 95.9685 104.792 96.0632 104.795C96.1577 104.799 96.2506 104.822 96.336 104.863C96.4214 104.904 96.4974 104.962 96.5593 105.034C96.6214 105.105 96.668 105.189 96.6966 105.279C96.7312 105.37 96.7475 105.467 96.7443 105.564C96.741 105.661 96.7183 105.756 96.6776 105.845C96.6369 105.933 96.5789 106.012 96.5071 106.078C96.4353 106.143 96.3511 106.193 96.2595 106.226C94.3264 106.901 92.2968 107.257 90.2496 107.282Z" fill="white"/>
<path d="M65.1931 224.747C65.1931 224.747 54.5209 216.953 48.4382 211.744C42.3555 206.536 49.021 191.857 57.3984 169.93C65.7757 148.003 74.9909 150.589 74.9909 150.589C74.9909 150.589 81.2558 148.841 89.5239 160.022C97.7921 171.205 102.6 197.903 92.6199 224.639" fill="#6192BF"/>
<path d="M74.1539 222.162C74.1539 222.162 60.568 208.285 59.9852 203.403C59.6209 200.052 65.4122 188.652 67.9983 183.735C68.1027 183.547 68.2603 183.393 68.4514 183.294C68.6425 183.195 68.8586 183.155 69.0726 183.178C69.2866 183.201 69.489 183.288 69.6542 183.426C69.8195 183.564 69.9404 183.747 70.0016 183.953C71.8957 190.254 76.0479 207.083 70.9486 217.244" fill="white"/>
<path d="M114.326 225.803C114.326 225.803 111.668 210.616 110.684 204.46C109.701 198.303 110.866 191.93 114.326 180.201C117.787 168.473 109.919 159.039 105.876 153.649C102.416 149.023 96.7703 150.371 95.2769 150.808C95.235 150.822 95.1969 150.847 95.1658 150.878C95.1346 150.91 95.111 150.948 95.097 150.991C95.0829 151.033 95.0787 151.077 95.0847 151.121C95.0905 151.166 95.1065 151.208 95.1313 151.244C96.5518 152.993 103.436 162.027 102.234 173.099C100.886 185.411 100.485 219.649 107.224 225.986" fill="#6192BF"/>
<path d="M99.6484 112.235C99.6484 112.235 102.854 106.481 104.274 106.845C105.695 107.209 123.506 125.311 122.996 126.331C122.486 127.351 114.546 137.877 113.635 138.023C112.725 138.169 101.979 125.566 101.979 125.566L99.6484 112.235Z" fill="white"/>
<path d="M113.561 138.751C113.088 138.751 112.177 138.205 106.932 132.34C104.128 129.245 101.432 126.076 101.396 126.039L101.287 125.894L98.8828 112.089L99.0285 111.871C100.595 109.03 102.853 105.715 104.456 106.152C106.058 106.589 122.521 123.344 123.615 125.784C123.688 125.917 123.729 126.066 123.735 126.217C123.741 126.37 123.712 126.52 123.651 126.659C123.323 127.314 120.992 130.447 119.025 132.96C114.618 138.606 114.108 138.678 113.744 138.751H113.561ZM102.634 125.239C107.187 130.52 112.25 136.128 113.598 137.185C115.128 135.802 121.174 127.861 122.23 126.222C120.846 123.709 105.84 108.593 104.091 107.573C103.472 107.755 101.797 109.94 100.413 112.381L102.634 125.239Z" fill="#282928"/>
<path d="M246.764 224.564H31.5739C29.16 224.564 27.2031 226.521 27.2031 228.936V231.161C27.2031 233.575 29.16 235.532 31.5739 235.532H246.764C249.178 235.532 251.135 233.575 251.135 231.161V228.936C251.135 226.521 249.178 224.564 246.764 224.564Z" fill="white"/>
<path d="M246.762 236.259H31.5719C30.2195 236.259 28.9225 235.721 27.9662 234.765C27.0099 233.809 26.4727 232.512 26.4727 231.159V228.937C26.4727 227.585 27.0099 226.288 27.9662 225.331C28.9225 224.375 30.2195 223.838 31.5719 223.838H246.762C248.115 223.838 249.412 224.375 250.368 225.331C251.325 226.288 251.862 227.585 251.862 228.937V231.159C251.862 232.512 251.325 233.809 250.368 234.765C249.412 235.721 248.115 236.259 246.762 236.259ZM31.5719 225.295C30.6059 225.295 29.6795 225.679 28.9965 226.362C28.3134 227.045 27.9296 227.971 27.9296 228.937V231.159C27.9296 232.125 28.3134 233.051 28.9965 233.735C29.6795 234.418 30.6059 234.802 31.5719 234.802H246.762C247.728 234.802 248.654 234.418 249.337 233.735C250.021 233.051 250.405 232.125 250.405 231.159V228.937C250.405 227.971 250.021 227.045 249.337 226.362C248.654 225.679 247.728 225.295 246.762 225.295H31.5719Z" fill="#282928"/>
<path d="M230.553 235.529H47.4524C44.757 235.529 42.5352 237.568 42.5352 240.046V253.23C42.5352 255.707 44.757 257.747 47.4524 257.747H49.6378C51.4225 257.747 52.8794 259.095 52.8794 260.733V324.329C52.8794 325.73 53.4359 327.073 54.4264 328.064C55.4168 329.055 56.7601 329.611 58.1609 329.611H222.067C222.758 329.611 223.444 329.474 224.082 329.208C224.721 328.942 225.301 328.553 225.789 328.061C226.276 327.571 226.661 326.988 226.923 326.347C227.184 325.707 227.316 325.021 227.311 324.329V260.733C227.311 259.095 228.768 257.747 230.553 257.747C233.249 257.747 235.471 255.707 235.471 253.23V240.046C235.471 237.568 233.249 235.529 230.553 235.529Z" fill="white"/>
<path d="M222.069 330.34H58.1628C56.5689 330.34 55.0402 329.707 53.9132 328.58C52.7862 327.452 52.153 325.924 52.153 324.33V260.734C52.153 259.496 51.0237 258.476 49.6397 258.476H47.4543C44.3583 258.476 41.8086 256.109 41.8086 253.231V240.047C41.8086 237.132 44.3583 234.801 47.4543 234.801H230.555C233.688 234.801 236.201 237.132 236.201 240.047V253.231C236.201 256.109 233.688 258.476 230.555 258.476C229.171 258.476 228.042 259.496 228.042 260.734V324.33C228.042 325.918 227.413 327.441 226.295 328.568C225.176 329.694 223.656 330.33 222.069 330.34ZM47.4543 236.259C45.1596 236.259 43.2656 237.97 43.2656 240.047V253.231C43.2656 255.308 45.1596 257.019 47.4543 257.019H49.6397C51.8252 257.019 53.6099 258.696 53.6099 260.734V324.33C53.6099 325.538 54.0896 326.696 54.9434 327.55C55.7972 328.404 56.9553 328.884 58.1628 328.884H222.069C223.27 328.874 224.418 328.389 225.265 327.537C226.11 326.684 226.585 325.532 226.585 324.33V260.734C226.585 258.696 228.37 257.019 230.555 257.019C232.741 257.019 234.744 255.308 234.744 253.231V240.047C234.744 237.97 232.85 236.259 230.555 236.259H47.4543Z" fill="#282928"/>
<path d="M199.193 160.096V207.228C199.193 208.281 198.775 209.291 198.029 210.035C197.285 210.779 196.275 211.198 195.222 211.198H126.746C126.226 211.198 125.713 211.095 125.232 210.895C124.752 210.695 124.318 210.402 123.952 210.033C123.586 209.664 123.297 209.226 123.102 208.744C122.905 208.262 122.808 207.748 122.813 207.228V160.096C122.813 159.052 123.227 158.052 123.964 157.314C124.702 156.577 125.703 156.162 126.746 156.162H195.222C195.742 156.157 196.258 156.255 196.739 156.451C197.22 156.647 197.658 156.936 198.028 157.302C198.397 157.667 198.689 158.102 198.889 158.582C199.09 159.061 199.193 159.576 199.193 160.096Z" fill="white"/>
<path d="M195.224 211.926H126.748C126.133 211.926 125.524 211.805 124.956 211.568C124.387 211.332 123.872 210.985 123.439 210.548C123.005 210.11 122.662 209.593 122.43 209.023C122.198 208.452 122.081 207.842 122.086 207.227V160.095C122.086 158.859 122.577 157.674 123.451 156.799C124.326 155.924 125.512 155.434 126.748 155.434H195.224C196.465 155.434 197.654 155.923 198.534 156.796C199.415 157.67 199.914 158.856 199.923 160.095V207.227C199.923 208.473 199.428 209.669 198.547 210.55C197.665 211.432 196.471 211.926 195.224 211.926ZM126.748 156.89C125.899 156.89 125.082 157.228 124.482 157.828C123.881 158.43 123.543 159.245 123.543 160.095V207.227C123.538 207.652 123.617 208.072 123.776 208.466C123.936 208.859 124.171 209.216 124.469 209.517C124.766 209.819 125.121 210.058 125.513 210.221C125.905 210.385 126.324 210.469 126.748 210.469H195.224C196.084 210.469 196.909 210.127 197.516 209.52C198.125 208.912 198.467 208.088 198.467 207.227V160.095C198.457 159.242 198.11 158.426 197.504 157.827C196.896 157.227 196.078 156.89 195.224 156.89H126.748Z" fill="#282928"/>
<path d="M126.747 211.198H122.887C121.84 211.188 120.84 210.766 120.103 210.023C119.366 209.278 118.953 208.274 118.953 207.228V160.095C118.953 159.579 119.055 159.067 119.253 158.59C119.45 158.113 119.74 157.68 120.105 157.314C120.471 156.949 120.904 156.659 121.382 156.461C121.859 156.263 122.37 156.162 122.887 156.162H126.747C125.704 156.162 124.704 156.577 123.966 157.314C123.229 158.052 122.814 159.052 122.814 160.095V207.228C122.809 207.747 122.907 208.262 123.103 208.744C123.299 209.226 123.588 209.664 123.954 210.032C124.318 210.402 124.754 210.695 125.233 210.895C125.714 211.095 126.228 211.198 126.747 211.198Z" fill="white"/>
<path d="M126.745 211.926H122.885C121.645 211.916 120.459 211.417 119.586 210.537C118.713 209.656 118.223 208.467 118.223 207.227V160.095C118.232 158.862 118.726 157.682 119.599 156.81C120.471 155.937 121.651 155.442 122.885 155.434H126.745V156.89C125.896 156.89 125.08 157.228 124.48 157.828C123.878 158.43 123.54 159.245 123.54 160.095V207.227C123.536 207.652 123.615 208.072 123.773 208.466C123.933 208.859 124.169 209.216 124.466 209.517C124.764 209.819 125.119 210.058 125.511 210.221C125.902 210.385 126.322 210.469 126.745 210.469V211.926ZM122.885 156.89C122.037 156.9 121.228 157.24 120.629 157.839C120.03 158.438 119.689 159.249 119.68 160.095V207.227C119.679 208.081 120.016 208.9 120.616 209.506C121.216 210.114 122.031 210.459 122.885 210.469H123.359C122.528 209.595 122.07 208.433 122.084 207.227V160.095C122.079 158.902 122.536 157.754 123.359 156.89H122.885Z" fill="#282928"/>
<path d="M163.241 197.723H153.917C151.504 197.723 149.547 199.68 149.547 202.093V218.171C149.547 220.584 151.504 222.541 153.917 222.541H163.241C165.656 222.541 167.613 220.584 167.613 218.171V202.093C167.613 199.68 165.656 197.723 163.241 197.723Z" fill="white"/>
<path d="M163.28 223.255H153.919C152.567 223.255 151.27 222.718 150.314 221.761C149.357 220.805 148.82 219.508 148.82 218.156V202.093C148.82 200.741 149.357 199.444 150.314 198.487C151.27 197.531 152.567 196.994 153.919 196.994H163.28C164.633 196.994 165.93 197.531 166.886 198.487C167.843 199.444 168.379 200.741 168.379 202.093V218.156C168.379 219.508 167.843 220.805 166.886 221.761C165.93 222.718 164.633 223.255 163.28 223.255ZM153.919 198.451C152.954 198.451 152.026 198.834 151.343 199.517C150.66 200.2 150.277 201.128 150.277 202.093V218.156C150.277 219.121 150.66 220.048 151.343 220.732C152.026 221.415 152.954 221.798 153.919 221.798H163.28C164.246 221.798 165.172 221.415 165.855 220.732C166.538 220.048 166.923 219.121 166.923 218.156V202.093C166.923 201.128 166.538 200.2 165.855 199.517C165.172 198.834 164.246 198.451 163.28 198.451H153.919Z" fill="#282928"/>
<path d="M181.056 219.465H137.092C136.006 219.465 135.125 220.346 135.125 221.433V221.538C135.125 222.625 136.006 223.504 137.092 223.504H181.056C182.141 223.504 183.022 222.625 183.022 221.538V221.433C183.022 220.346 182.141 219.465 181.056 219.465Z" fill="white"/>
<path d="M181.053 224.239H137.09C136.375 224.239 135.689 223.955 135.184 223.449C134.679 222.944 134.395 222.258 134.395 221.543V221.398C134.404 220.689 134.692 220.013 135.197 219.515C135.701 219.018 136.382 218.738 137.09 218.738H181.053C181.762 218.738 182.442 219.018 182.946 219.515C183.451 220.013 183.739 220.689 183.748 221.398V221.543C183.748 222.258 183.464 222.944 182.959 223.449C182.454 223.955 181.768 224.239 181.053 224.239ZM137.09 220.196C136.767 220.195 136.458 220.321 136.227 220.545C135.995 220.77 135.861 221.076 135.851 221.398V221.543C135.851 221.871 135.982 222.187 136.215 222.419C136.447 222.651 136.761 222.781 137.09 222.781H181.053C181.382 222.781 181.696 222.651 181.928 222.419C182.161 222.187 182.292 221.871 182.292 221.543V221.398C182.282 221.076 182.148 220.77 181.916 220.545C181.685 220.321 181.376 220.195 181.053 220.196H137.09Z" fill="#282928"/>
<path d="M228.842 223.947L209.902 224.092L205.859 208.357H232.303L228.842 223.947Z" fill="#282928"/>
<path d="M234.45 204.859H204.292C203.387 204.859 202.652 205.594 202.652 206.499V208.095C202.652 209 203.387 209.733 204.292 209.733H234.45C235.356 209.733 236.089 209 236.089 208.095V206.499C236.089 205.594 235.356 204.859 234.45 204.859Z" fill="#282928"/>
<path d="M219.229 205.735C219.048 205.737 218.872 205.67 218.738 205.549C218.603 205.427 218.519 205.26 218.5 205.08C217.189 190.11 221.815 182.242 225.931 178.309C230.046 174.374 235.219 173.246 235.401 173.209C235.591 173.196 235.78 173.25 235.934 173.364C236.088 173.477 236.195 173.642 236.239 173.829C236.254 173.924 236.25 174.022 236.227 174.117C236.205 174.211 236.163 174.3 236.105 174.378C236.048 174.456 235.974 174.522 235.891 174.571C235.808 174.621 235.716 174.652 235.619 174.666C235.583 174.666 231.03 175.359 226.878 179.402C221.342 184.755 218.937 193.606 219.957 204.934C219.967 205.03 219.958 205.127 219.93 205.219C219.903 205.311 219.857 205.397 219.797 205.472C219.736 205.546 219.66 205.607 219.575 205.652C219.491 205.699 219.397 205.726 219.302 205.735H219.229Z" fill="#282928"/>
<path d="M237.329 174.483H235.69L233.941 174.046L234.051 173.39C235.106 166.87 243.921 167.599 246.581 167.963C246.776 167.984 246.964 168.055 247.122 168.17C247.282 168.286 247.409 168.439 247.491 168.619C247.585 168.787 247.631 168.977 247.625 169.17C247.619 169.363 247.559 169.551 247.454 169.712C246.617 171.168 243.994 174.483 237.329 174.483ZM235.981 172.99C242.391 173.427 245.014 170.768 245.997 169.275C243.411 168.983 236.928 168.655 235.653 172.917L235.981 172.99Z" fill="#282928"/>
<path d="M243.484 184.172H243.301L242.974 184.099C235.761 181.804 234.559 177.142 234.378 175.211C234.357 175.012 234.386 174.812 234.463 174.628C234.539 174.444 234.659 174.282 234.814 174.155C234.952 174.036 235.117 173.951 235.294 173.906C235.471 173.862 235.656 173.859 235.834 173.9C238.129 174.446 245.56 176.668 245.195 182.496C245.157 182.984 244.937 183.44 244.576 183.771C244.268 184.026 243.883 184.167 243.484 184.172ZM243.337 182.679H243.447L243.629 182.606C243.667 182.575 243.697 182.536 243.715 182.492C243.735 182.447 243.742 182.398 243.739 182.351C244.03 177.943 238.202 175.976 235.871 175.358C236.126 177.178 237.401 180.784 243.337 182.679Z" fill="#282928"/>
<path d="M243.668 179.364C243.556 179.36 243.445 179.333 243.345 179.283C243.244 179.232 243.156 179.16 243.086 179.072C243.03 178.993 242.991 178.904 242.971 178.81C242.95 178.716 242.947 178.618 242.964 178.524C242.982 178.429 243.017 178.339 243.069 178.257C243.121 178.177 243.189 178.107 243.268 178.052L246.655 175.539L243.596 173.062C243.518 173.005 243.452 172.933 243.404 172.849C243.356 172.765 243.326 172.672 243.315 172.577C243.305 172.48 243.315 172.383 243.344 172.291C243.374 172.199 243.422 172.114 243.487 172.042C243.607 171.894 243.783 171.798 243.975 171.778C244.165 171.757 244.356 171.813 244.507 171.933L247.785 174.592C247.938 174.704 248.062 174.853 248.143 175.024C248.226 175.196 248.265 175.385 248.258 175.576C248.258 175.768 248.212 175.957 248.123 176.129C248.035 176.3 247.905 176.448 247.748 176.559L244.106 179.217C243.984 179.321 243.828 179.372 243.668 179.364Z" fill="#282928"/>
<path d="M218.534 195.39H218.461C218.134 195.353 210.484 194.261 209.064 189.78C208.481 188.122 208.295 186.352 208.518 184.609C208.59 183.698 208.626 183.079 208.336 182.314C208.044 181.549 208.299 180.347 208.881 180.092C209.465 179.837 211.833 180.675 213.107 183.515C213.872 185.264 215.329 186.575 216.749 187.813C218.169 189.052 219.517 190.327 219.846 191.82C220.172 193.313 220.064 194.188 219.591 194.843C219.478 194.994 219.336 195.12 219.173 195.214C219.01 195.308 218.83 195.368 218.644 195.39H218.534ZM209.574 181.44C209.6 181.54 209.637 181.638 209.683 181.731C210.12 182.787 210.048 183.698 209.975 184.682C209.773 186.24 209.934 187.822 210.448 189.307C211.359 192.185 216.312 193.568 218.424 193.896C218.497 193.751 218.679 193.277 218.424 192.112C218.169 190.946 217.077 190.035 215.766 188.87C214.454 187.705 212.669 186.102 211.759 184.099C210.849 182.095 210.011 181.585 209.574 181.44Z" fill="#282928"/>
<path d="M77.6115 223.693L81.1445 217.318C81.181 217.245 81.1445 217.172 81.0717 217.172H44.3568C44.1704 217.176 43.9879 217.227 43.8279 217.323C43.668 217.418 43.5363 217.555 43.4463 217.718L40.2773 224.13L77.7937 224.311" fill="white"/>
<path d="M77.795 225.003L39.1133 224.785L42.8284 217.392C42.9616 217.098 43.177 216.849 43.4483 216.674C43.7196 216.5 44.0356 216.407 44.3582 216.408H81.0731C81.2136 216.408 81.3516 216.445 81.4731 216.516C81.5947 216.586 81.6955 216.688 81.7657 216.81C81.8357 216.93 81.8726 217.069 81.8726 217.21C81.8724 217.35 81.8355 217.488 81.7652 217.61L78.3778 223.765C78.4645 223.909 78.5146 224.071 78.5235 224.238C78.5284 224.337 78.5133 224.436 78.4789 224.529C78.4445 224.621 78.3915 224.705 78.3235 224.777C78.2553 224.849 78.1733 224.906 78.0825 224.945C77.9916 224.984 77.8938 225.003 77.795 225.003ZM41.4443 223.365L76.8845 223.546C76.8917 223.47 76.9167 223.394 76.9573 223.328L79.9805 217.901H44.3582C44.3079 217.906 44.2594 217.922 44.2154 217.947C44.1715 217.972 44.1333 218.006 44.1033 218.047L41.4443 223.365Z" fill="#282928"/>
<path d="M87.0461 225.038L82.3111 216.807C82.2526 216.702 82.1662 216.614 82.0614 216.554C81.9568 216.495 81.8376 216.465 81.7172 216.469C81.5967 216.473 81.4796 216.511 81.3787 216.576C81.278 216.642 81.1972 216.735 81.1455 216.844L76.6289 225.038H87.0461Z" fill="#282928"/>
<path d="M74.3335 221.323L45.2675 221.142C45.0743 221.142 44.8891 221.065 44.7524 220.928C44.6158 220.791 44.5391 220.606 44.5391 220.413C44.5391 220.219 44.6158 220.034 44.7524 219.897C44.8891 219.76 45.0743 219.684 45.2675 219.684L74.3335 219.867C74.527 219.884 74.7076 219.972 74.8417 220.112C74.9756 220.252 75.0539 220.438 75.062 220.632C75.0621 220.725 75.0431 220.818 75.006 220.905C74.969 220.991 74.9147 221.07 74.8465 221.134C74.7785 221.199 74.6977 221.249 74.6095 221.282C74.5213 221.314 74.4274 221.328 74.3335 221.323Z" fill="#282928"/>
<path d="M145.141 306.045C175.417 306.045 199.96 298.201 199.96 288.525C199.96 278.849 175.417 271.006 145.141 271.006C114.867 271.006 90.3242 278.849 90.3242 288.525C90.3242 298.201 114.867 306.045 145.141 306.045Z" fill="#6192BF"/>
<path d="M173.806 285.612H119.135C118.941 285.612 118.756 285.535 118.62 285.399C118.483 285.262 118.406 285.077 118.406 284.884C118.406 284.69 118.483 284.504 118.62 284.368C118.756 284.231 118.941 284.154 119.135 284.154H173.806C174 284.154 174.185 284.231 174.322 284.368C174.459 284.504 174.534 284.69 174.534 284.884C174.534 285.077 174.459 285.262 174.322 285.399C174.185 285.535 174 285.612 173.806 285.612Z" fill="white"/>
<path d="M169.948 294.062H122.232C122.039 294.062 121.854 293.985 121.717 293.849C121.581 293.712 121.504 293.527 121.504 293.334C121.504 293.141 121.581 292.956 121.717 292.819C121.854 292.682 122.039 292.605 122.232 292.605H169.948C170.14 292.605 170.326 292.682 170.462 292.819C170.599 292.956 170.676 293.141 170.676 293.334C170.676 293.527 170.599 293.712 170.462 293.849C170.326 293.985 170.14 294.062 169.948 294.062Z" fill="white"/>
<path d="M202.654 260.188H79.1425C78.9494 260.188 78.7641 260.112 78.6274 259.975C78.4908 259.838 78.4141 259.653 78.4141 259.46C78.4141 259.266 78.4908 259.081 78.6274 258.944C78.7641 258.807 78.9494 258.73 79.1425 258.73H202.654C202.848 258.73 203.033 258.807 203.169 258.944C203.306 259.081 203.383 259.266 203.383 259.46C203.383 259.653 203.306 259.838 203.169 259.975C203.033 260.112 202.848 260.188 202.654 260.188Z" fill="#282928"/>
<path d="M332.868 192.258H278.779C275.842 192.258 273.461 194.639 273.461 197.576V295.188C273.461 298.125 275.842 300.506 278.779 300.506H332.868C335.804 300.506 338.186 298.125 338.186 295.188V197.576C338.186 194.639 335.804 192.258 332.868 192.258Z" fill="#282928"/>
<path d="M301.544 192.403C301.351 192.403 301.166 192.326 301.029 192.19C300.893 192.053 300.816 191.868 300.816 191.675V133.105C300.815 131.946 300.357 130.833 299.541 130.01C299.168 129.638 298.725 129.344 298.237 129.144C297.749 128.944 297.227 128.842 296.699 128.844L252.592 129.135C251.484 129.173 250.435 129.645 249.672 130.449C248.908 131.253 248.492 132.325 248.512 133.433V152.992C248.512 153.186 248.435 153.372 248.298 153.508C248.162 153.645 247.976 153.721 247.784 153.721C247.59 153.721 247.404 153.645 247.269 153.508C247.132 153.372 247.055 153.186 247.055 152.992V133.433C247.034 131.945 247.601 130.508 248.629 129.432C249.657 128.356 251.067 127.726 252.555 127.678L296.664 127.387H296.699C297.418 127.382 298.131 127.521 298.793 127.796C299.457 128.071 300.058 128.478 300.561 128.99C301.104 129.528 301.534 130.17 301.828 130.876C302.122 131.582 302.274 132.34 302.272 133.105V191.675C302.272 191.868 302.196 192.053 302.059 192.19C301.922 192.326 301.738 192.403 301.544 192.403Z" fill="#282928"/>
<path d="M287.959 186.102C291.76 186.102 294.842 183.02 294.842 179.217C294.842 175.416 291.76 172.334 287.959 172.334C284.156 172.334 281.074 175.416 281.074 179.217C281.074 183.02 284.156 186.102 287.959 186.102Z" fill="#6192BF"/>
<path d="M305.986 301.018C305.793 301.018 305.608 300.942 305.471 300.806C305.335 300.669 305.258 300.483 305.258 300.289V192.039C305.258 191.846 305.335 191.661 305.471 191.524C305.608 191.387 305.793 191.311 305.986 191.311C306.18 191.311 306.366 191.387 306.502 191.524C306.639 191.661 306.716 191.846 306.716 192.039V300.289C306.716 300.483 306.639 300.669 306.502 300.806C306.366 300.942 306.18 301.018 305.986 301.018Z" fill="#6192BF"/>
<path d="M338.732 249.697L236.819 249.515C236.625 249.515 236.44 249.438 236.303 249.302C236.167 249.165 236.09 248.98 236.09 248.787C236.09 248.594 236.167 248.409 236.303 248.272C236.44 248.135 236.625 248.059 236.819 248.059L338.732 248.24C338.925 248.24 339.11 248.317 339.247 248.454C339.384 248.591 339.46 248.776 339.46 248.969C339.46 249.163 339.384 249.348 339.247 249.484C339.11 249.62 338.925 249.697 338.732 249.697Z" fill="#6192BF"/>
<path d="M245.454 269.512H256.381C257.371 269.52 258.317 269.912 259.024 270.605C259.73 271.298 260.141 272.237 260.169 273.227L260.496 283.608C260.527 284.609 260.162 285.583 259.48 286.32C258.799 287.055 257.856 287.493 256.855 287.541L245.635 288.051C245.119 288.07 244.604 287.986 244.123 287.803C243.639 287.62 243.198 287.342 242.824 286.986C242.45 286.63 242.152 286.201 241.947 285.727C241.742 285.253 241.634 284.743 241.629 284.226V273.335C241.629 272.321 242.033 271.349 242.749 270.632C243.466 269.914 244.44 269.512 245.454 269.512Z" fill="white"/>
<path d="M245.451 288.781C244.871 288.786 244.296 288.675 243.758 288.456C243.221 288.237 242.732 287.915 242.32 287.506C241.872 287.085 241.516 286.578 241.271 286.014C241.027 285.45 240.9 284.843 240.898 284.228V273.337C240.898 272.739 241.017 272.147 241.245 271.595C241.474 271.043 241.81 270.541 242.232 270.119C242.655 269.695 243.157 269.36 243.709 269.132C244.262 268.902 244.854 268.785 245.451 268.785H256.379C257.558 268.784 258.691 269.245 259.534 270.069C260.378 270.892 260.866 272.013 260.895 273.192L261.222 283.609C261.253 284.799 260.816 285.952 260.006 286.824C259.196 287.695 258.077 288.215 256.889 288.271L245.67 288.781H245.451ZM245.451 270.242C244.63 270.242 243.844 270.568 243.263 271.148C242.682 271.729 242.355 272.516 242.355 273.337V284.228C242.365 284.644 242.456 285.055 242.625 285.436C242.793 285.816 243.033 286.16 243.335 286.448C243.636 286.735 243.991 286.961 244.379 287.111C244.767 287.262 245.181 287.334 245.598 287.324L256.816 286.814C257.625 286.777 258.386 286.424 258.937 285.831C259.489 285.239 259.786 284.455 259.766 283.646L259.439 273.228C259.434 272.831 259.351 272.439 259.195 272.074C259.037 271.71 258.812 271.379 258.527 271.101C258.243 270.824 257.906 270.605 257.538 270.458C257.17 270.31 256.776 270.237 256.379 270.242H245.451Z" fill="#282928"/>
<path d="M254.741 276.106H246.4C246.207 276.106 246.022 276.029 245.885 275.893C245.749 275.756 245.672 275.571 245.672 275.377C245.672 275.184 245.749 274.999 245.885 274.862C246.022 274.725 246.207 274.648 246.4 274.648H254.741C254.934 274.648 255.12 274.725 255.256 274.862C255.393 274.999 255.47 275.184 255.47 275.377C255.47 275.571 255.393 275.756 255.256 275.893C255.12 276.029 254.934 276.106 254.741 276.106Z" fill="#282928"/>
<path d="M254.485 280.585H246.655C246.461 280.585 246.276 280.508 246.139 280.371C246.003 280.235 245.926 280.049 245.926 279.857C245.926 279.663 246.003 279.477 246.139 279.34C246.276 279.204 246.461 279.127 246.655 279.127H254.485C254.679 279.127 254.865 279.204 255.001 279.34C255.138 279.477 255.215 279.663 255.215 279.857C255.215 280.049 255.138 280.235 255.001 280.371C254.865 280.508 254.679 280.585 254.485 280.585Z" fill="#282928"/>
<path d="M293.169 203.767H281.076C280.883 203.767 280.698 203.69 280.561 203.554C280.425 203.417 280.348 203.232 280.348 203.039C280.348 202.845 280.425 202.659 280.561 202.523C280.698 202.386 280.883 202.311 281.076 202.311H293.169C293.361 202.311 293.547 202.386 293.683 202.523C293.82 202.659 293.897 202.845 293.897 203.039C293.897 203.232 293.82 203.417 293.683 203.554C293.547 203.69 293.361 203.767 293.169 203.767Z" fill="white"/>
<path d="M291.307 208.029H282.748C282.555 208.029 282.37 207.952 282.233 207.815C282.096 207.679 282.02 207.493 282.02 207.301C282.02 207.107 282.096 206.921 282.233 206.785C282.37 206.648 282.555 206.572 282.748 206.572H291.307C291.5 206.572 291.686 206.648 291.822 206.785C291.959 206.921 292.036 207.107 292.036 207.301C292.036 207.493 291.959 207.679 291.822 207.815C291.686 207.952 291.5 208.029 291.307 208.029Z" fill="white"/>
<path d="M293.53 213.785H281.074C280.977 213.79 280.879 213.775 280.789 213.74C280.698 213.705 280.615 213.652 280.547 213.584C280.478 213.514 280.425 213.432 280.39 213.341C280.356 213.25 280.34 213.153 280.345 213.056C280.345 212.864 280.421 212.678 280.558 212.542C280.695 212.405 280.88 212.328 281.074 212.328H293.53C293.723 212.328 293.909 212.405 294.045 212.542C294.182 212.678 294.259 212.864 294.259 213.056C294.265 213.153 294.249 213.25 294.215 213.341C294.179 213.432 294.126 213.514 294.057 213.584C293.989 213.652 293.906 213.705 293.816 213.74C293.724 213.775 293.628 213.79 293.53 213.785Z" fill="white"/>
<path d="M329.446 193.896H329.41C329.313 193.896 329.216 193.877 329.127 193.838C329.038 193.799 328.958 193.74 328.893 193.668C328.827 193.596 328.778 193.511 328.748 193.418C328.717 193.326 328.708 193.228 328.717 193.131L332.87 96.026C332.887 95.792 332.853 95.5572 332.771 95.3372C332.69 95.1173 332.562 94.9174 332.397 94.7512C332.061 94.4011 331.605 94.1926 331.122 94.1685L272.042 93.6585C271.813 93.658 271.585 93.7028 271.373 93.7903C271.16 93.8777 270.967 94.0063 270.804 94.1685C270.633 94.3338 270.497 94.5316 270.403 94.7506C270.309 94.9696 270.26 95.2051 270.257 95.4434V127.533C270.257 127.726 270.182 127.911 270.045 128.048C269.909 128.184 269.723 128.261 269.529 128.261C269.336 128.261 269.151 128.184 269.014 128.048C268.878 127.911 268.801 127.726 268.801 127.533V95.4434C268.806 95.0148 268.895 94.5913 269.063 94.1975C269.231 93.8036 269.477 93.4471 269.784 93.1487C270.082 92.8427 270.439 92.601 270.835 92.4381C271.229 92.2753 271.652 92.1947 272.079 92.2016L331.122 92.7115C331.559 92.7176 331.989 92.811 332.391 92.986C332.791 93.1612 333.152 93.4146 333.452 93.7313C334.041 94.3765 334.355 95.226 334.327 96.0989L330.175 193.204C330.157 193.387 330.074 193.559 329.94 193.686C329.806 193.813 329.631 193.888 329.446 193.896Z" fill="#282928"/>
<path d="M265.084 137.441H255.869C255.675 137.441 255.49 137.364 255.353 137.228C255.216 137.091 255.141 136.905 255.141 136.713C255.141 136.52 255.216 136.335 255.353 136.198C255.49 136.061 255.675 135.984 255.869 135.984H265.084C265.276 135.984 265.462 136.061 265.598 136.198C265.735 136.335 265.812 136.52 265.812 136.713C265.812 136.905 265.735 137.091 265.598 137.228C265.462 137.364 265.276 137.441 265.084 137.441Z" fill="#282928"/>
<path d="M265.086 141.373H257.838C257.645 141.373 257.46 141.297 257.323 141.16C257.186 141.024 257.109 140.838 257.109 140.644C257.109 140.452 257.186 140.266 257.323 140.13C257.46 139.993 257.645 139.916 257.838 139.916H265.086C265.28 139.916 265.464 139.993 265.601 140.13C265.737 140.266 265.814 140.452 265.814 140.644C265.814 140.838 265.737 141.024 265.601 141.16C265.464 141.297 265.28 141.373 265.086 141.373Z" fill="#282928"/>
<path d="M325.001 110.888V105.679C325.001 103.265 323.044 101.309 320.631 101.309H307.985C305.57 101.309 303.613 103.265 303.613 105.679V110.888C303.613 113.302 305.57 115.259 307.985 115.259H320.631C323.044 115.259 325.001 113.302 325.001 110.888Z" fill="#282928"/>
<path d="M318.845 106.48H308.974C308.782 106.48 308.596 106.404 308.46 106.267C308.323 106.13 308.246 105.945 308.246 105.752C308.246 105.559 308.323 105.373 308.46 105.237C308.596 105.1 308.782 105.023 308.974 105.023H318.845C319.038 105.023 319.224 105.1 319.36 105.237C319.497 105.373 319.574 105.559 319.574 105.752C319.574 105.945 319.497 106.13 319.36 106.267C319.224 106.404 319.038 106.48 318.845 106.48Z" fill="white"/>
<path d="M317.17 110.961H310.287C310.093 110.961 309.908 110.884 309.771 110.747C309.634 110.611 309.559 110.425 309.559 110.232C309.559 110.039 309.634 109.854 309.771 109.717C309.908 109.581 310.093 109.504 310.287 109.504H317.17C317.364 109.504 317.55 109.581 317.686 109.717C317.823 109.854 317.898 110.039 317.898 110.232C317.898 110.425 317.823 110.611 317.686 110.747C317.55 110.884 317.364 110.961 317.17 110.961Z" fill="white"/>
<path d="M159.092 79.2363C159.001 79.2412 158.911 79.2282 158.824 79.1979C158.739 79.1675 158.659 79.1206 158.592 79.0597C158.524 78.9988 158.469 78.9251 158.43 78.843C158.391 78.7608 158.369 78.6716 158.364 78.5807L156.652 52.8293C156.651 52.6384 156.722 52.4542 156.85 52.3126C156.978 52.1711 157.154 52.0826 157.344 52.0644C157.44 52.0541 157.538 52.0645 157.631 52.0946C157.724 52.1248 157.809 52.1741 157.881 52.2395C157.953 52.3047 158.01 52.3845 158.05 52.4737C158.09 52.5627 158.109 52.6591 158.109 52.7565L159.821 78.4714C159.822 78.6623 159.751 78.8465 159.623 78.9881C159.495 79.1296 159.318 79.2182 159.129 79.2363H159.092Z" fill="#282928"/>
<path d="M171.878 78.5809C171.697 78.5818 171.522 78.5152 171.387 78.3939C171.252 78.2726 171.167 78.1056 171.149 77.9253L168.127 52.2831C168.111 52.1894 168.115 52.0935 168.138 52.0014C168.161 51.9093 168.204 51.8229 168.261 51.7478C168.32 51.6726 168.393 51.6101 168.476 51.5644C168.559 51.5186 168.651 51.4906 168.745 51.4818C168.839 51.4664 168.934 51.4705 169.027 51.4938C169.119 51.5171 169.205 51.559 169.281 51.6171C169.355 51.6752 169.419 51.7481 169.464 51.8313C169.51 51.9147 169.538 52.0064 169.547 52.1009L172.607 77.7432C172.619 77.9388 172.558 78.1321 172.437 78.2865C172.316 78.4409 172.143 78.5457 171.95 78.5809H171.878Z" fill="#282928"/>
<path d="M181.64 78.5793C181.455 78.5713 181.28 78.4968 181.146 78.3697C181.012 78.2424 180.929 78.071 180.911 77.8872L179.09 51.1888C179.079 51.095 179.089 51.0001 179.117 50.9099C179.145 50.8199 179.192 50.7364 179.253 50.6648C179.314 50.5932 179.389 50.5348 179.475 50.4934C179.559 50.4519 179.652 50.4283 179.745 50.4239C179.842 50.4139 179.938 50.4229 180.03 50.4505C180.122 50.478 180.208 50.5236 180.284 50.5846C180.358 50.6456 180.419 50.7207 180.464 50.8056C180.509 50.8905 180.537 50.9836 180.547 51.0795L182.368 77.8143C182.378 77.9082 182.368 78.0031 182.34 78.0932C182.312 78.1833 182.267 78.2667 182.205 78.3383C182.144 78.4099 182.068 78.4684 181.984 78.5097C181.899 78.5512 181.806 78.5749 181.712 78.5793H181.64Z" fill="#282928"/>
<path d="M193.038 77.9982C192.851 77.9984 192.671 77.9267 192.535 77.7979C192.4 77.669 192.32 77.4929 192.31 77.3061L190.161 51.8825C190.15 51.6855 190.217 51.4921 190.346 51.3428C190.475 51.1934 190.657 51.0996 190.853 51.0812C191.041 51.0708 191.224 51.1333 191.367 51.2554C191.509 51.3775 191.6 51.55 191.618 51.7368L193.766 77.1968C193.777 77.3939 193.71 77.5873 193.582 77.7366C193.453 77.8859 193.271 77.9796 193.075 77.9982H193.038Z" fill="#282928"/>
<path d="M151.185 66.1226C151.091 66.1276 150.998 66.1133 150.91 66.0807C150.822 66.0483 150.741 65.998 150.673 65.9332C150.605 65.8685 150.55 65.7905 150.513 65.7041C150.477 65.6178 150.457 65.5247 150.457 65.4306C150.456 65.2398 150.527 65.0555 150.655 64.9139C150.783 64.7724 150.96 64.6838 151.149 64.6657L195.076 62.9902H195.113C195.297 62.9982 195.473 63.0726 195.607 63.1998C195.74 63.3271 195.824 63.4984 195.841 63.6822C195.841 63.879 195.765 64.0682 195.63 64.2106C195.495 64.3531 195.309 64.4378 195.113 64.4472L151.222 66.1226H151.185Z" fill="#282928"/>
<path d="M170.492 39.8984C171.718 39.8984 172.714 38.9688 172.714 37.8223C172.714 36.6756 171.718 35.7461 170.492 35.7461C169.265 35.7461 168.27 36.6756 168.27 37.8223C168.27 38.9688 169.265 39.8984 170.492 39.8984Z" fill="#282928"/>
<path d="M186.193 62.7365C185.515 62.7161 184.857 62.5012 184.299 62.1174C182.44 60.9154 181.094 57.9651 182.077 55.4519C182.237 54.9776 182.504 54.5465 182.858 54.1926C183.212 53.8388 183.642 53.5716 184.117 53.4122C186.157 52.8294 188.56 54.4684 188.67 54.5413C188.828 54.6523 188.937 54.8223 188.971 55.0134C189.005 55.2047 188.963 55.4018 188.852 55.5611C188.741 55.7205 188.571 55.8292 188.379 55.8634C188.188 55.8976 187.991 55.8544 187.832 55.7432C187.285 55.3791 185.647 54.4684 184.517 54.8326C184.256 54.9262 184.02 55.0806 183.83 55.2833C183.64 55.4861 183.501 55.731 183.425 55.9982C182.732 57.7829 183.752 60.0048 185.1 60.9154C185.683 61.2796 186.593 61.571 187.432 60.6968C188.268 59.8227 188.56 59.3857 188.342 58.8029C188.123 58.2201 186.01 57.4188 185.063 57.3095C184.88 57.2743 184.716 57.1736 184.602 57.0259C184.488 56.8784 184.432 56.6942 184.444 56.5082C184.453 56.4123 184.482 56.3192 184.527 56.2343C184.572 56.1492 184.634 56.0742 184.708 56.0132C184.783 55.9522 184.868 55.9066 184.961 55.879C185.053 55.8514 185.15 55.8424 185.245 55.8525C185.647 55.8889 189.033 56.3625 189.725 58.3293C190.09 59.3492 189.653 60.4783 188.487 61.6802C188.196 62.0026 187.843 62.2624 187.449 62.444C187.055 62.6256 186.626 62.7252 186.193 62.7365Z" fill="#282928"/>
<path d="M160.186 185.3C162.198 185.3 163.828 183.669 163.828 181.659C163.828 179.647 162.198 178.016 160.186 178.016C158.174 178.016 156.543 179.647 156.543 181.659C156.543 183.669 158.174 185.3 160.186 185.3Z" fill="#282928"/>
</svg>
