<svg width="320" height="253" viewBox="0 0 320 253" fill="none" xmlns="http://www.w3.org/2000/svg">
<path d="M0 167.961L2.4741 177.513L238.409 252.832L319.57 193.962V185.927L0 167.961Z" fill="#BBD0E0"/>
<path d="M84.6368 124.75L319.57 185.924L238.409 244.138L0 167.958L84.6368 124.75Z" fill="#BBD0E0"/>
<path d="M244.526 240.11C244.612 240.161 243.279 242.976 241.554 246.395C239.83 249.815 238.364 252.549 238.277 252.498C238.191 252.447 239.524 249.633 241.249 246.213C242.974 242.793 244.439 240.059 244.526 240.11Z" fill="#EBEBEB"/>
<path d="M252.283 234.555C252.37 234.606 251.036 237.421 249.312 240.841C247.587 244.26 246.121 246.994 246.035 246.943C245.949 246.892 247.282 244.078 249.007 240.658C250.731 237.239 252.197 234.504 252.283 234.555Z" fill="#EBEBEB"/>
<path d="M260.033 228.993C260.12 229.044 258.786 231.858 257.062 235.278C255.337 238.697 253.871 241.432 253.785 241.381C253.699 241.33 255.032 238.515 256.757 235.096C258.481 231.676 259.947 228.949 260.033 228.993Z" fill="#EBEBEB"/>
<path d="M267.783 223.438C267.87 223.489 266.536 226.304 264.812 229.723C263.087 233.143 261.621 235.877 261.535 235.826C261.449 235.775 262.782 232.961 264.507 229.541C266.231 226.121 267.697 223.387 267.783 223.438Z" fill="#EBEBEB"/>
<path d="M275.541 217.884C275.628 217.935 274.294 220.749 272.57 224.169C270.845 227.588 269.379 230.323 269.293 230.271C269.207 230.22 270.54 227.406 272.265 223.986C273.989 220.559 275.455 217.832 275.541 217.884Z" fill="#EBEBEB"/>
<path d="M283.299 212.321C283.385 212.372 282.052 215.187 280.328 218.606C278.603 222.026 277.137 224.76 277.051 224.709C276.965 224.658 278.298 221.843 280.022 218.424C281.747 215.004 283.213 212.27 283.299 212.321Z" fill="#EBEBEB"/>
<path d="M291.049 206.766C291.135 206.817 289.802 209.632 288.078 213.051C286.353 216.471 284.887 219.205 284.801 219.154C284.715 219.103 286.048 216.289 287.772 212.869C289.497 209.45 290.963 206.715 291.049 206.766Z" fill="#EBEBEB"/>
<path d="M298.799 201.204C298.885 201.255 297.552 204.069 295.828 207.489C294.103 210.909 292.637 213.643 292.551 213.592C292.465 213.541 293.798 210.726 295.522 207.307C297.247 203.88 298.713 201.153 298.799 201.204Z" fill="#EBEBEB"/>
<path d="M306.557 195.641C306.643 195.692 305.31 198.507 303.585 201.926C301.861 205.346 300.395 208.08 300.309 208.029C300.222 207.978 301.556 205.164 303.28 201.744C305.005 198.325 306.471 195.59 306.557 195.641Z" fill="#EBEBEB"/>
<path d="M314.315 190.087C314.401 190.138 313.068 192.952 311.343 196.372C309.619 199.791 308.153 202.526 308.066 202.475C307.98 202.424 309.313 199.609 311.038 196.189C312.763 192.763 314.228 190.036 314.315 190.087Z" fill="#EBEBEB"/>
<path d="M319.573 189.478C319.66 189.529 318.883 191.235 317.849 193.291C316.814 195.347 315.905 196.973 315.819 196.922C315.733 196.871 316.509 195.165 317.544 193.109C318.585 191.053 319.487 189.427 319.573 189.478Z" fill="#EBEBEB"/>
<path d="M236.335 252.026C236.302 252.062 235.771 251.501 234.962 250.546C234.153 249.591 233.065 248.242 231.911 246.703C230.757 245.165 229.762 243.728 229.065 242.671C228.369 241.614 227.971 240.936 228.011 240.899C228.05 240.87 228.521 241.49 229.264 242.504C230.08 243.612 231.075 244.961 232.183 246.455C233.304 247.936 234.319 249.27 235.148 250.364C235.91 251.362 236.375 251.99 236.335 252.026Z" fill="#EBEBEB"/>
<path d="M225.39 248.604C225.356 248.641 224.826 248.079 224.017 247.124C223.207 246.169 222.12 244.82 220.965 243.281C219.811 241.743 218.816 240.307 218.12 239.249C217.423 238.192 217.025 237.514 217.065 237.478C217.105 237.448 217.576 238.068 218.319 239.082C219.135 240.19 220.13 241.539 221.237 243.041C222.358 244.521 223.373 245.855 224.202 246.949C224.965 247.941 225.429 248.568 225.39 248.604Z" fill="#EBEBEB"/>
<path d="M214.452 245.19C214.419 245.227 213.888 244.665 213.079 243.71C212.27 242.755 211.182 241.406 210.028 239.867C208.874 238.329 207.879 236.893 207.182 235.835C206.486 234.778 206.088 234.1 206.128 234.063C206.168 234.034 206.638 234.654 207.381 235.668C208.197 236.776 209.192 238.125 210.3 239.619C211.421 241.1 212.436 242.434 213.265 243.528C214.028 244.534 214.492 245.154 214.452 245.19Z" fill="#EBEBEB"/>
<path d="M203.515 241.776C203.481 241.812 202.951 241.251 202.142 240.296C201.332 239.341 200.245 237.992 199.09 236.453C197.936 234.915 196.941 233.478 196.245 232.421C195.548 231.364 195.15 230.686 195.19 230.649C195.23 230.62 195.701 231.24 196.444 232.254C197.26 233.362 198.255 234.711 199.362 236.205C200.483 237.686 201.498 239.02 202.327 240.114C203.09 241.112 203.554 241.74 203.515 241.776Z" fill="#EBEBEB"/>
<path d="M192.577 238.354C192.544 238.391 192.013 237.829 191.204 236.874C190.395 235.919 189.307 234.57 188.153 233.031C186.999 231.493 186.004 230.057 185.307 228.999C184.611 227.942 184.213 227.264 184.253 227.228C184.293 227.198 184.763 227.818 185.506 228.832C186.322 229.94 187.317 231.289 188.425 232.784C189.546 234.264 190.561 235.598 191.396 236.692C192.153 237.691 192.617 238.318 192.577 238.354Z" fill="#EBEBEB"/>
<path d="M181.64 234.948C181.606 234.984 181.076 234.423 180.267 233.468C179.457 232.513 178.37 231.164 177.215 229.625C176.061 228.087 175.066 226.65 174.37 225.593C173.673 224.536 173.275 223.858 173.315 223.821C173.355 223.792 173.826 224.412 174.569 225.425C175.385 226.534 176.38 227.883 177.487 229.377C178.608 230.857 179.623 232.192 180.459 233.285C181.215 234.284 181.679 234.911 181.64 234.948Z" fill="#EBEBEB"/>
<path d="M170.702 231.526C170.669 231.562 170.138 231.001 169.329 230.046C168.52 229.091 167.432 227.742 166.278 226.203C165.124 224.665 164.129 223.228 163.432 222.171C162.736 221.114 162.338 220.436 162.378 220.399C162.418 220.37 162.888 220.99 163.631 222.004C164.447 223.112 165.442 224.461 166.55 225.963C167.671 227.443 168.686 228.777 169.515 229.871C170.278 230.862 170.742 231.49 170.702 231.526Z" fill="#EBEBEB"/>
<path d="M159.765 227.424C159.731 227.461 159.201 226.899 158.392 225.944C157.582 224.989 156.495 223.64 155.34 222.102C154.186 220.563 153.191 219.127 152.495 218.07C151.798 217.012 151.4 216.334 151.44 216.298C151.48 216.269 151.951 216.888 152.694 217.902C153.51 219.01 154.505 220.359 155.612 221.854C156.733 223.334 157.748 224.668 158.577 225.762C159.34 226.768 159.804 227.388 159.765 227.424Z" fill="#EBEBEB"/>
<path d="M147.593 223.706C147.56 223.742 147.029 223.181 146.22 222.226C145.41 221.27 144.323 219.921 143.169 218.383C142.014 216.845 141.019 215.408 140.323 214.351C139.627 213.294 139.229 212.616 139.268 212.579C139.308 212.55 139.779 213.17 140.522 214.183C141.338 215.291 142.333 216.64 143.44 218.142C144.561 219.623 145.576 220.957 146.405 222.051C147.162 223.042 147.626 223.669 147.593 223.706Z" fill="#EBEBEB"/>
<path d="M135.421 219.987C135.388 220.023 134.857 219.462 134.048 218.507C133.239 217.552 132.151 216.203 130.997 214.664C129.843 213.126 128.848 211.689 128.151 210.632C127.455 209.575 127.057 208.897 127.096 208.86C127.136 208.831 127.607 209.451 128.35 210.464C129.166 211.573 130.161 212.922 131.269 214.424C132.39 215.904 133.404 217.238 134.234 218.332C134.996 219.323 135.461 219.95 135.421 219.987Z" fill="#EBEBEB"/>
<path d="M123.171 215.667C123.138 215.703 122.607 215.142 121.798 214.186C120.989 213.231 119.901 211.882 118.747 210.344C117.593 208.805 116.598 207.369 115.901 206.312C115.205 205.255 114.807 204.577 114.846 204.54C114.886 204.511 115.357 205.131 116.1 206.144C116.916 207.252 117.911 208.601 119.019 210.103C120.14 211.583 121.154 212.918 121.984 214.011C122.746 215.01 123.211 215.63 123.171 215.667Z" fill="#EBEBEB"/>
<path d="M110.921 211.893C110.888 211.93 110.357 211.368 109.548 210.413C108.739 209.458 107.651 208.109 106.497 206.571C105.343 205.032 104.348 203.596 103.651 202.538C102.955 201.481 102.557 200.803 102.596 200.767C102.636 200.737 103.107 201.357 103.85 202.371C104.666 203.479 105.661 204.828 106.769 206.323C107.89 207.803 108.904 209.137 109.734 210.231C110.49 211.237 110.954 211.857 110.921 211.893Z" fill="#EBEBEB"/>
<path d="M98.5927 207.94C98.5596 207.977 98.0289 207.415 97.2197 206.46C96.4105 205.505 95.3227 204.156 94.1685 202.617C93.0144 201.079 92.0195 199.643 91.323 198.585C90.6265 197.528 90.2286 196.85 90.2684 196.813C90.3081 196.784 90.7791 197.404 91.522 198.418C92.3378 199.526 93.3328 200.875 94.4405 202.377C95.5615 203.857 96.5763 205.191 97.4121 206.285C98.1682 207.277 98.6325 207.904 98.5927 207.94Z" fill="#EBEBEB"/>
<path d="M86.7177 204.268C86.6846 204.305 86.1539 203.743 85.3447 202.788C84.5355 201.833 83.4477 200.484 82.2935 198.946C81.1394 197.407 80.1445 195.971 79.448 194.913C78.7515 193.856 78.3536 193.178 78.3934 193.142C78.4331 193.112 78.9041 193.732 79.647 194.746C80.4628 195.854 81.4578 197.203 82.5655 198.698C83.6865 200.178 84.7013 201.512 85.5371 202.606C86.2932 203.605 86.7575 204.232 86.7177 204.268Z" fill="#EBEBEB"/>
<path d="M74.5459 200.768C74.5127 200.805 73.9821 200.243 73.1728 199.288C72.3636 198.333 71.2758 196.984 70.1217 195.446C68.9675 193.907 67.9726 192.471 67.2761 191.413C66.5797 190.356 66.1817 189.678 66.2215 189.642C66.2613 189.612 66.7322 190.232 67.4751 191.246C68.291 192.354 69.2859 193.703 70.3936 195.198C71.5146 196.678 72.5294 198.012 73.3586 199.106C74.1147 200.105 74.579 200.732 74.5459 200.768Z" fill="#EBEBEB"/>
<path d="M63.8506 196.846C63.8174 196.883 63.2868 196.321 62.4775 195.366C61.6683 194.411 60.5805 193.062 59.4264 191.524C58.2722 189.985 57.2773 188.549 56.5808 187.492C55.8844 186.434 55.4864 185.756 55.5262 185.72C55.566 185.691 56.0369 186.31 56.7798 187.324C57.5957 188.432 58.5906 189.781 59.6983 191.283C60.8193 192.763 61.8341 194.097 62.6633 195.191C63.4194 196.183 63.8837 196.81 63.8506 196.846Z" fill="#EBEBEB"/>
<path d="M53.1552 192.924C53.1221 192.961 52.5914 192.399 51.7822 191.444C50.973 190.489 49.8852 189.14 48.731 187.602C47.5769 186.063 46.582 184.627 45.8855 183.57C45.189 182.512 44.7911 181.834 44.8309 181.798C44.8706 181.769 45.3416 182.388 46.0845 183.402C46.9003 184.51 47.8953 185.859 49.003 187.354C50.124 188.834 51.1388 190.168 51.9679 191.262C52.7241 192.261 53.1884 192.888 53.1552 192.924Z" fill="#EBEBEB"/>
<path d="M43.4443 190.01C43.4111 190.047 42.8805 189.485 42.0713 188.53C41.262 187.575 40.1742 186.226 39.0201 184.688C37.866 183.149 36.871 181.713 36.1746 180.656C35.4781 179.598 35.0801 178.92 35.1199 178.884C35.1597 178.855 35.6307 179.474 36.3735 180.488C37.1894 181.596 38.1844 182.945 39.2921 184.44C40.413 185.92 41.4279 187.254 42.257 188.348C43.0198 189.347 43.4841 189.974 43.4443 190.01Z" fill="#EBEBEB"/>
<path d="M32.3271 186.667C32.294 186.703 31.7633 186.142 30.9541 185.186C30.1449 184.231 29.0571 182.882 27.9029 181.344C26.7488 179.805 25.7538 178.369 25.0574 177.312C24.3609 176.255 23.9629 175.577 24.0027 175.54C24.0425 175.511 24.5135 176.131 25.2564 177.144C26.0722 178.252 27.0672 179.601 28.1749 181.096C29.2958 182.576 30.3107 183.91 31.1398 185.004C31.9026 186.003 32.3669 186.63 32.3271 186.667Z" fill="#EBEBEB"/>
<path d="M22.2177 183.44C22.1846 183.477 21.6539 182.915 20.8447 181.96C20.0355 181.005 18.9477 179.656 17.7935 178.117C16.6394 176.579 15.6445 175.143 14.948 174.085C14.2515 173.028 13.8536 172.35 13.8934 172.313C13.9331 172.284 14.4041 172.904 15.147 173.918C15.9628 175.026 16.9578 176.375 18.0655 177.869C19.1865 179.35 20.2013 180.684 21.0304 181.778C21.7866 182.777 22.2509 183.404 22.2177 183.44Z" fill="#EBEBEB"/>
<path d="M10.7802 179.518C10.7471 179.555 10.2164 178.993 9.40721 178.038C8.59799 177.083 7.51018 175.734 6.35604 174.196C5.2019 172.657 4.20696 171.221 3.51049 170.163C2.81403 169.106 2.41605 168.428 2.45585 168.392C2.49565 168.362 2.96659 168.982 3.70948 169.996C4.52534 171.104 5.52029 172.453 6.628 173.948C7.74897 175.428 8.76382 176.762 9.59294 177.856C10.3491 178.855 10.82 179.482 10.7802 179.518Z" fill="#EBEBEB"/>
<path d="M228.437 104.878C228.152 105.038 227.866 105.206 227.581 105.366C227.11 117.601 226.639 129.829 226.162 142.063C225.903 148.808 225.658 155.684 227.946 162.297L264.666 173.051C266.165 170.281 267.014 167.175 267.26 164.083C268.732 145.519 268.666 135.479 268.367 123.325C268.261 119.067 268.606 109.194 265.024 106.547C259.008 102.107 253.443 103.602 247.361 102.129C241.278 100.656 235.023 104.243 228.782 104.163" fill="#275E8E"/>
<path d="M210.742 148.028L199.917 129.188C199.466 129.188 167.979 136.129 167.979 136.129C167.979 136.129 146.057 138.214 145.514 138.608C144.97 139.002 138.297 152.593 138.297 152.593C142.714 153.387 144.519 147.139 144.519 147.139L148.936 144.361L154.349 145.053C152.803 145.826 151.503 146.592 151.099 147.139C149.924 148.728 149.294 151.798 150.017 151.9C150.74 152.002 152.054 149.72 155.456 149.224C158.859 148.728 167.489 146.745 167.489 146.745L170.586 147.146L210.742 148.028Z" fill="#F4FCFF"/>
<path d="M159.775 142.625C159.802 142.727 158.395 143.281 156.704 144.083C155.013 144.878 153.673 145.614 153.626 145.52C153.58 145.432 154.853 144.535 156.571 143.733C158.283 142.924 159.755 142.523 159.775 142.625Z" fill="black"/>
<path d="M183.658 33.4729C184.719 46.8525 185.628 61.0997 179.891 72.9554C181.164 72.671 182.325 71.8398 183.074 70.6732C182.604 75.1063 182.126 79.6124 182.789 84.0163C183.453 88.4203 185.416 92.7878 188.845 95.1794C188.898 94.6252 188.945 94.0711 188.998 93.5242C190.318 102.959 197.873 110.914 206.509 111.949C210.243 112.394 214.521 111.344 216.498 107.837C218.004 105.168 217.811 101.8 217.573 98.6719C216.014 78.3583 214.455 58.0374 212.896 37.7237C212.459 32.0584 211.935 26.094 208.976 21.4276C205.646 16.1706 199.312 13.4582 193.621 14.8435C187.93 16.2289 183.24 21.6463 182.245 27.9533" fill="#1D1644"/>
<path d="M208.487 72.6508C208.487 72.6508 199.506 78.3599 196.774 83.1065C194.034 87.8459 195.056 101.138 195.056 101.138C195.056 101.138 193.192 108.517 193.172 115.342C193.152 123.019 198.578 128.648 199.957 132.768C201.337 136.895 200.389 155.699 200.389 155.699L251.489 157.07V118.382L258.281 119.06C258.281 119.06 260.49 81.291 250.222 76.5152C239.954 71.7394 227.597 67 227.597 67L208.487 72.6508Z" fill="#BBD0E0"/>
<path d="M258.53 107.981C258.53 107.981 258.424 108.222 258.125 108.608C257.833 108.995 257.336 109.52 256.566 109.986C255.803 110.453 254.762 110.832 253.528 110.949C252.288 111.073 250.855 110.832 249.383 110.278C247.904 109.724 246.391 108.849 244.799 107.872C243.207 106.91 241.523 105.83 239.592 105.145C237.676 104.43 235.493 104.379 233.344 104.912C231.195 105.466 229.086 106.501 226.937 107.566C224.788 108.63 222.652 109.666 220.45 110.213C218.261 110.752 215.986 110.65 214.036 109.87C212.079 109.112 210.407 107.96 208.875 106.888C207.343 105.809 205.917 104.802 204.524 104.081C203.138 103.359 201.791 102.914 200.577 102.79C199.363 102.666 198.302 102.797 197.486 103.06C195.821 103.592 195.152 104.452 195.125 104.387C195.125 104.387 195.284 104.183 195.656 103.891C196.02 103.592 196.617 103.206 197.453 102.921C198.282 102.63 199.363 102.476 200.604 102.579C201.844 102.681 203.224 103.118 204.637 103.833C206.056 104.547 207.502 105.546 209.034 106.611C210.573 107.668 212.231 108.798 214.148 109.527C215.104 109.892 216.125 110.132 217.18 110.161C217.704 110.234 218.241 110.132 218.778 110.125C219.315 110.059 219.853 109.957 220.39 109.841C222.546 109.301 224.655 108.273 226.804 107.208C228.953 106.144 231.082 105.101 233.278 104.54C235.467 103.993 237.735 104.059 239.699 104.802C241.669 105.517 243.367 106.611 244.952 107.588C246.531 108.572 248.023 109.454 249.476 110.016C250.922 110.577 252.315 110.825 253.528 110.73C254.742 110.643 255.764 110.293 256.52 109.855C257.283 109.418 257.787 108.922 258.092 108.557C258.384 108.193 258.516 107.967 258.53 107.981Z" fill="#FAFAFA"/>
<path d="M256.88 93.9141C256.887 93.9214 256.841 93.9652 256.754 94.0381C256.668 94.111 256.542 94.2422 256.363 94.3735C256.005 94.6433 255.435 95.0005 254.632 95.2557C253.033 95.7953 250.486 95.7078 247.734 94.4245C246.361 93.7902 244.941 92.9152 243.402 92.0403C241.863 91.1726 240.179 90.2903 238.268 89.9331C236.365 89.5539 234.302 89.6633 232.232 90.0935C230.156 90.5237 228.06 91.2747 225.951 92.1205C223.835 92.9736 221.772 93.8485 219.723 94.5047C217.673 95.161 215.617 95.5911 213.647 95.5911C209.674 95.6276 206.251 94.2131 203.618 92.7621C200.965 91.2893 199.008 89.7435 197.675 88.6717C197.018 88.1248 196.507 87.6946 196.169 87.3884C196.016 87.2499 195.89 87.1332 195.784 87.0384C195.698 86.9582 195.658 86.9145 195.665 86.9072C195.671 86.8999 195.718 86.9363 195.811 87.0019C195.917 87.0894 196.049 87.1915 196.215 87.3228C196.587 87.6217 197.104 88.03 197.754 88.5477C199.107 89.5831 201.084 91.0851 203.724 92.5142C206.35 93.9287 209.747 95.2849 213.64 95.2339C215.577 95.2193 217.6 94.7891 219.63 94.1402C221.666 93.4912 223.716 92.609 225.838 91.7559C227.961 90.9028 230.07 90.1518 232.179 89.7143C234.282 89.2768 236.385 89.1748 238.335 89.5758C240.291 89.9549 242.009 90.8591 243.548 91.7413C245.087 92.6381 246.493 93.5204 247.846 94.1548C250.539 95.4526 253.033 95.5766 254.612 95.088C256.191 94.6506 256.854 93.8558 256.88 93.9141Z" fill="#FAFAFA"/>
<path d="M233.961 130.469C233.967 130.483 233.841 130.549 233.609 130.673C233.371 130.797 233.019 130.965 232.568 131.176C231.653 131.592 230.326 132.204 228.588 132.663C226.877 133.116 224.642 133.349 222.386 132.452C220.124 131.592 218.042 129.827 215.806 128.216C213.578 126.553 211.157 125.547 208.868 125.153C207.721 124.964 206.62 124.905 205.585 124.927C204.557 124.986 203.595 125.088 202.733 125.292C201.008 125.656 199.675 126.247 198.786 126.714C197.891 127.173 197.426 127.494 197.407 127.457C197.4 127.443 197.513 127.363 197.732 127.21C197.957 127.064 198.275 126.823 198.72 126.582C199.595 126.079 200.935 125.438 202.68 125.037C203.549 124.818 204.524 124.694 205.565 124.621C206.613 124.585 207.734 124.628 208.908 124.818C211.243 125.197 213.737 126.225 215.986 127.909C218.241 129.543 220.297 131.285 222.486 132.138C224.668 133.028 226.83 132.831 228.528 132.423C230.246 132.007 231.586 131.431 232.508 131.059C232.946 130.877 233.298 130.731 233.576 130.622C233.828 130.505 233.954 130.454 233.961 130.469Z" fill="#FAFAFA"/>
<path d="M233.862 144.29C233.856 144.326 233.391 144.188 232.536 144.049C231.68 143.911 230.427 143.816 228.888 143.947C227.349 144.078 225.531 144.45 223.555 145.041C221.578 145.624 219.442 146.426 217.147 147.112C214.852 147.79 212.597 148.256 210.514 148.227C208.438 148.205 206.581 147.739 205.142 147.053C203.702 146.361 202.681 145.486 202.077 144.793C201.779 144.443 201.553 144.159 201.427 143.947C201.295 143.743 201.228 143.634 201.235 143.626C201.268 143.597 201.54 144.035 202.17 144.691C202.794 145.34 203.815 146.164 205.235 146.813C206.654 147.454 208.478 147.885 210.514 147.885C212.551 147.892 214.773 147.425 217.054 146.747C219.336 146.069 221.479 145.274 223.475 144.705C225.465 144.129 227.309 143.779 228.868 143.677C230.433 143.583 231.7 143.714 232.556 143.903C232.987 143.998 233.312 144.086 233.531 144.159C233.756 144.232 233.869 144.275 233.862 144.29Z" fill="#FAFAFA"/>
<path d="M233.797 127.148C233.705 127.148 233.625 121.862 233.625 115.344C233.625 108.818 233.705 103.539 233.797 103.539C233.89 103.539 233.97 108.825 233.97 115.344C233.97 121.862 233.89 127.148 233.797 127.148Z" fill="#1D1644"/>
<path d="M228.983 134.295C228.983 134.31 228.89 134.324 228.704 134.339C228.525 134.346 228.253 134.382 227.908 134.375C227.212 134.39 226.203 134.324 224.976 134.062C222.549 133.573 219.199 132.093 216.506 129.074C213.82 126.048 212.546 122.337 212.148 119.654C211.942 118.305 211.903 117.189 211.929 116.431C211.929 116.052 211.969 115.753 211.982 115.556C212.002 115.359 212.015 115.25 212.029 115.25C212.108 115.25 211.923 116.949 212.393 119.603C212.845 122.235 214.125 125.852 216.758 128.805C219.391 131.75 222.648 133.245 225.036 133.792C227.43 134.375 228.983 134.207 228.983 134.295Z" fill="#1D1644"/>
<g opacity="0.3">
<path d="M202.004 152.22C209.426 147.364 219.376 148.188 226.062 142.173C229.206 139.337 231.255 135.253 232.476 130.988C233.696 126.723 234.16 122.253 234.618 117.812C235.043 126.059 235.467 134.298 235.892 142.545C235.978 144.236 236.011 146.11 235.016 147.393C234.174 148.48 232.807 148.852 231.534 149.165C226.108 150.492 220.689 151.819 215.263 153.146C210.859 154.225 206.149 155.275 201.938 153.504" fill="black"/>
</g>
<g opacity="0.2">
<path d="M223.242 90.7524C221.842 92.6481 220.416 94.5876 219.654 96.8771C218.891 99.1666 218.897 101.923 220.231 103.869C221.683 105.999 224.416 106.699 226.791 106.181C229.165 105.656 231.248 104.117 233.138 102.455C234.08 101.624 235.108 100.712 236.309 100.741C237.025 100.756 237.695 101.121 238.398 101.252C240.348 101.631 242.285 100.231 243.4 98.4301C244.514 96.6292 245.011 94.4636 245.642 92.4002C246.278 90.3368 247.134 88.2296 248.726 86.9317C250.205 85.7213 252.268 85.2328 253.183 83.4756C254.337 81.2809 252.825 78.3279 250.716 77.2999C248.606 76.2718 246.179 76.6145 243.897 76.9791" fill="black"/>
</g>
<g opacity="0.2">
<path d="M226.768 134.004C226.894 134.216 226.735 134.653 226.204 135.163C225.68 135.674 224.758 136.213 223.505 136.469C222.264 136.716 220.706 136.658 219.1 136.038C217.482 135.419 215.936 134.245 214.663 132.728C213.396 131.204 212.507 129.52 211.91 127.945C211.313 126.37 210.968 124.919 210.763 123.701C210.365 121.266 210.451 119.72 210.895 119.575C211.36 119.421 212.122 120.741 213.078 122.856C214.053 124.948 215.233 127.806 217.203 130.154C218.178 131.314 219.253 132.225 220.308 132.801C221.369 133.384 222.443 133.676 223.372 133.793C225.229 134.026 226.496 133.537 226.768 134.004Z" fill="black"/>
</g>
<path d="M258.279 119.066C258.273 119.168 252.78 118.708 246.021 118.03C239.262 117.352 233.79 116.725 233.797 116.616C233.804 116.514 239.289 116.973 246.055 117.651C252.814 118.329 258.292 118.964 258.279 119.066Z" fill="#1D1644"/>
<path d="M217.728 13.4375C220.746 16.3249 223.081 18.6435 226.278 20.8601C229.475 23.0766 232.785 25.7234 233.972 29.668C234.834 32.5408 234.516 35.9385 236.247 38.2863C237.726 40.2915 240.234 40.8821 242.303 42.0997C245.945 44.2361 248.359 48.7057 248.319 53.2409C248.293 56.1428 247.391 59.2562 248.638 61.8082C249.725 64.0393 252.16 65.133 253.374 67.2912C254.528 69.3474 254.349 71.9577 253.97 74.342C253.393 77.9803 252.166 81.9104 249.208 83.653C247.198 84.8342 244.711 84.7467 242.582 83.8499C240.452 82.953 238.642 81.3344 237.043 79.5553C233.965 76.121 231.544 71.9869 229.966 67.4881C228.082 62.1071 227.432 56.3178 226.523 50.6306C224.858 40.2185 222.265 29.9888 218.802 20.1309C217.967 17.7321 216.448 15.603 217.728 13.4375Z" fill="#1D1644"/>
<path d="M242.712 59.0847C242.706 59.0701 242.892 58.9462 243.236 58.7128C243.581 58.4722 244.079 58.1077 244.682 57.5754C245.279 57.0431 245.976 56.3286 246.626 55.3661C247.263 54.4037 247.86 53.1569 248.032 51.6694C248.185 50.1966 247.913 48.4685 246.971 47.0467C246.5 46.3468 245.876 45.7197 245.087 45.3916C244.311 45.027 243.416 44.9906 242.507 44.9177C241.605 44.8447 240.597 44.75 239.734 44.1375C238.872 43.5469 238.295 42.5261 238.01 41.4543C237.718 40.3752 237.645 39.2158 237.738 38.0711C237.831 36.9264 238.043 35.7962 238.182 34.6515C238.321 33.514 238.388 32.3693 238.195 31.2829C238.01 30.1965 237.572 29.1976 237.001 28.3226C235.861 26.5581 234.255 25.3332 232.67 24.378C231.072 23.4228 229.46 22.6718 228.014 21.8333C226.561 21.0021 225.261 20.1344 224.1 19.2886C221.785 17.5898 220.074 15.9784 218.933 14.8118C218.363 14.2285 217.938 13.7618 217.653 13.441C217.527 13.2879 217.421 13.1712 217.335 13.0691C217.262 12.9816 217.229 12.9379 217.235 12.9306C217.242 12.9233 217.282 12.9598 217.361 13.04C217.454 13.1348 217.567 13.2441 217.7 13.3827C217.998 13.6889 218.436 14.141 219.019 14.7024C220.18 15.8253 221.911 17.4002 224.226 19.0626C225.387 19.8865 226.687 20.7396 228.133 21.5562C229.573 22.3802 231.184 23.1166 232.809 24.0718C234.421 25.0269 236.079 26.2737 237.267 28.1111C237.857 29.0226 238.321 30.0725 238.52 31.2172C238.719 32.362 238.653 33.5505 238.514 34.7098C238.368 35.8691 238.162 36.992 238.069 38.1076C237.977 39.2158 238.043 40.3241 238.321 41.3449C238.593 42.3657 239.124 43.2917 239.9 43.8312C240.676 44.3854 241.618 44.4948 242.52 44.5677C243.422 44.6479 244.357 44.6843 245.193 45.0854C246.036 45.4499 246.699 46.128 247.19 46.8644C248.165 48.3737 248.437 50.1747 248.258 51.6986C248.059 53.2516 247.429 54.513 246.765 55.4901C246.089 56.4598 245.366 57.1671 244.749 57.6921C244.132 58.2098 243.615 58.5597 243.256 58.7785C243.077 58.8878 242.938 58.968 242.845 59.0191C242.766 59.0701 242.719 59.092 242.712 59.0847Z" fill="#BBD0E0"/>
<path d="M195.602 190.663L217.205 176.306C218.094 175.716 219.241 176.029 219.779 177.006C220.316 177.983 220.031 179.245 219.142 179.835L197.545 194.192L195.602 190.663Z" fill="#275E8E"/>
<g opacity="0.4">
<path d="M219.14 179.827L217.203 176.298C218.092 175.708 219.239 176.021 219.777 176.998C220.314 177.975 220.029 179.237 219.14 179.827Z" fill="black"/>
</g>
<g opacity="0.4">
<path d="M196.923 193.053L218.508 178.703L217.965 177.717L196.38 192.067L196.923 193.053Z" fill="black"/>
</g>
<path d="M197.543 194.193L192.031 195.447L195.6 190.664L197.543 194.193Z" fill="#E8505B"/>
<g opacity="0.5">
<path d="M197.543 194.193L192.031 195.447L195.6 190.664L197.543 194.193Z" fill="white"/>
</g>
<path d="M193.822 195.035L193.192 193.883L192.031 195.443L193.822 195.035Z" fill="#1D1644"/>
<path d="M197.611 18.0327C189.346 21.0295 184.697 30.6249 187.018 39.8411C188.816 46.9793 190.892 54.7081 192.471 59.185C196.152 69.597 203.939 69.1814 203.939 69.1814C203.939 69.1814 205.392 75.904 206.672 82.3204C207.892 88.4305 213.723 92.346 219.699 91.07C225.616 89.8086 229.476 83.9172 228.362 77.8508L218.591 31.0405C216.442 20.7524 206.725 14.7298 197.611 18.0327Z" fill="#F4FCFF"/>
<path d="M190.784 43.3924C190.904 44.1288 191.573 44.6246 192.27 44.5006C192.973 44.3767 193.444 43.684 193.325 42.9476C193.205 42.2112 192.535 41.7154 191.839 41.8393C191.136 41.9633 190.665 42.6559 190.784 43.3924Z" fill="#1D1644"/>
<path d="M189.919 41.7118C190.111 41.8576 190.914 40.8514 192.267 40.5379C193.613 40.2025 194.761 40.7275 194.874 40.5087C194.927 40.4139 194.708 40.1223 194.204 39.8817C193.713 39.6411 192.917 39.4734 192.074 39.6775C191.232 39.8817 190.589 40.3921 190.25 40.8368C189.905 41.2889 189.826 41.6535 189.919 41.7118Z" fill="#1D1644"/>
<path d="M204.643 40.6814C204.763 41.4178 205.433 41.9136 206.129 41.7897C206.832 41.6657 207.303 40.9731 207.184 40.2367C207.065 39.5002 206.395 39.0044 205.698 39.1284C204.995 39.2523 204.524 39.945 204.643 40.6814Z" fill="#1D1644"/>
<path d="M204.153 38.8993C204.345 39.0451 205.148 38.0389 206.501 37.7254C207.848 37.39 208.995 37.915 209.108 37.6962C209.161 37.6014 208.942 37.3098 208.438 37.0692C207.947 36.8286 207.151 36.6609 206.309 36.865C205.466 37.0692 204.823 37.5796 204.485 38.0243C204.14 38.4764 204.06 38.841 204.153 38.8993Z" fill="#1D1644"/>
<path d="M201.408 51.1037C201.395 51.0162 200.526 51.0599 199.127 51.1912C198.775 51.2349 198.43 51.2349 198.324 50.9943C198.191 50.7391 198.251 50.2944 198.331 49.8131C198.477 48.8142 198.623 47.7716 198.782 46.6779C199.392 42.2228 199.75 38.5845 199.591 38.5626C199.425 38.5407 198.802 42.1281 198.191 46.5904C198.052 47.6841 197.913 48.734 197.787 49.7329C197.74 50.1923 197.614 50.7391 197.9 51.2641C198.045 51.5266 198.344 51.6724 198.576 51.687C198.815 51.7089 199.007 51.6651 199.18 51.636C200.566 51.3881 201.415 51.1912 201.408 51.1037Z" fill="#1D1644"/>
<path d="M203.938 68.9387C203.938 68.9387 210.63 67.8377 216.321 61.9609C216.321 61.9609 214.59 70.1272 204.574 71.4542L203.938 68.9387Z" fill="#1D1644"/>
<path d="M207.518 33.4825C207.425 33.7887 206.344 33.6429 205.057 33.7231C203.77 33.7814 202.709 34.0512 202.59 33.7523C202.457 33.4825 203.492 32.6658 205.004 32.5856C206.516 32.4981 207.624 33.1981 207.518 33.4825Z" fill="#1D1644"/>
<path d="M193.662 34.889C193.675 35.2098 192.568 35.5014 191.261 35.9316C189.954 36.3472 188.88 36.7556 188.734 36.4785C188.588 36.216 189.523 35.3046 190.976 34.8379C192.415 34.364 193.655 34.5827 193.662 34.889Z" fill="#1D1644"/>
<path d="M244.28 73.8587C244.28 73.8587 238.947 67.4277 239.378 60.0562C239.809 52.6774 237.713 47.8943 233.959 46.1954C231.326 45.0069 230.278 42.0247 229.873 39.5384C229.19 35.3678 228.155 31.27 226.537 27.4275C224.202 21.8788 221.091 16.177 216.76 12.5897C211.128 7.9232 202.286 4.80252 196.847 9.73145C194.327 12.0209 192.834 12.3855 190.579 16.2791C190.579 16.2791 187.866 17.3217 186.467 18.0217C181.645 20.4351 179.887 27.3473 180.398 31.8533C181.578 42.2945 187.329 43.607 189.578 50.2639C189.578 50.2639 186.878 35.7834 187.09 31.7877C187.336 27.1577 190.46 24.0152 190.46 24.0152C194.28 23.2569 196.304 25.2474 198.499 28.7618C200.695 32.2762 202.127 35.1636 205.722 36.775C209.112 38.2843 212.136 41.6602 216.726 38.0874C216.726 38.0874 219.141 40.9019 219.466 44.5257C219.791 48.1495 216.541 50.1765 218.922 55.7689C221.303 61.3613 225.761 65.1528 226.225 67.3767" fill="#1D1644"/>
<path d="M206.359 51.3613C206.173 51.3904 206.419 52.732 205.543 53.9205C204.674 55.109 203.341 55.2476 203.368 55.4371C203.368 55.5246 203.706 55.634 204.256 55.5319C204.8 55.4371 205.556 55.0726 206.087 54.3434C206.618 53.6143 206.75 52.7758 206.691 52.2144C206.638 51.6384 206.439 51.3321 206.359 51.3613Z" fill="#1D1644"/>
<path d="M218.93 55.4375C221.543 58.2738 222.598 62.7215 221.576 66.6005C220.906 69.1525 219.421 71.4347 219.082 74.0668C218.671 77.275 220.011 80.3957 221.138 83.3852C222.266 86.3746 223.195 89.8161 222.007 92.7837C221.51 94.0232 220.674 95.0732 220.163 96.3054C219.653 97.5376 219.547 99.149 220.402 100.119C220.999 100.797 221.908 100.986 222.764 101.074C229.131 101.694 235.651 97.5376 238.325 91.1577C238.756 92.215 239.187 93.2722 239.618 94.3294C242.483 89.5828 243.817 83.7497 243.332 78.0771C242.848 72.4044 240.553 66.9432 236.938 62.8674" fill="#1D1644"/>
<path d="M215.011 40.3369C214.865 39.6224 216.198 37.8214 216.842 37.6391C218.328 37.2162 220.914 37.2527 222.095 41.7368C223.78 48.1459 217.764 47.9636 217.704 47.7814C217.664 47.6355 215.528 42.8597 215.011 40.3369Z" fill="#F4FCFF"/>
<path d="M218.471 44.8975C218.491 44.8683 218.591 44.9413 218.79 44.9777C218.982 45.0069 219.28 44.9777 219.552 44.7517C220.103 44.3069 220.342 43.0674 220.063 41.9008C219.924 41.3102 219.665 40.7925 219.36 40.3915C219.061 39.9759 218.697 39.7425 218.372 39.779C218.04 39.8009 217.874 40.0707 217.854 40.2748C217.821 40.479 217.894 40.5956 217.868 40.6175C217.854 40.6394 217.715 40.5519 217.688 40.2675C217.682 40.1363 217.708 39.9613 217.814 39.7936C217.921 39.6259 218.113 39.4946 218.332 39.4509C218.79 39.3415 219.314 39.6696 219.652 40.1071C220.017 40.5373 220.315 41.1206 220.474 41.7841C220.779 43.0893 220.494 44.4892 219.718 45.0215C219.34 45.2694 218.962 45.2402 218.743 45.1454C218.524 45.0506 218.458 44.9194 218.471 44.8975Z" fill="#A36957"/>
<path d="M246.381 58.6735C246.315 58.6516 246.368 58.3673 246.388 57.8496C246.401 57.3319 246.348 56.5663 246.009 55.6768C245.678 54.7945 245.061 53.781 244.093 52.9425C243.111 52.0967 241.791 51.4259 240.245 50.828C238.707 50.2156 236.896 49.6687 235.098 48.4948C234.209 47.9042 233.314 47.124 232.631 46.0814C231.934 45.0533 231.483 43.8721 231.112 42.6982C230.734 41.5243 230.435 40.3358 230.024 39.2275C229.613 38.1265 229.089 37.1058 228.319 36.3766C226.774 34.8673 224.326 34.5392 221.932 34.7434C219.504 34.9548 216.997 35.6183 214.417 35.3923C213.136 35.2829 211.85 34.8965 210.735 34.2913C209.614 33.6861 208.639 32.906 207.77 32.0747C206.039 30.405 204.732 28.5312 203.499 26.8833C202.265 25.2282 201.091 23.7553 199.851 22.6543C197.41 20.3722 194.664 19.9128 192.932 20.219C192.057 20.3576 191.407 20.6565 190.982 20.8971C190.558 21.1305 190.332 21.2836 190.286 21.2252C190.253 21.1815 190.399 20.9336 190.79 20.5763C191.175 20.219 191.838 19.767 192.793 19.4972C193.742 19.2274 194.969 19.1399 196.335 19.4316C197.695 19.7159 199.214 20.4451 200.593 21.5971C202 22.7273 203.293 24.2366 204.587 25.8698C205.887 27.4958 207.193 29.2603 208.805 30.7477C210.41 32.2424 212.327 33.4091 214.543 33.5403C216.771 33.7299 219.166 33.1028 221.792 32.8549C223.112 32.7455 224.452 32.7747 225.779 33.0664C227.092 33.3507 228.406 33.9705 229.434 34.984C230.475 35.9975 231.112 37.3245 231.55 38.5567C231.987 39.8036 232.273 41.0212 232.611 42.1368C232.936 43.2523 233.321 44.2731 233.858 45.1116C234.375 45.9501 235.085 46.6136 235.848 47.1605C237.393 48.2542 239.118 48.8667 240.677 49.5812C242.242 50.2739 243.661 51.0978 244.709 52.1332C245.764 53.1904 246.368 54.3935 246.64 55.4362C246.918 56.4861 246.858 57.3611 246.726 57.9079C246.593 58.4548 246.421 58.6954 246.381 58.6735Z" fill="#BBD0E0"/>
<path d="M211.629 10.4399C210.422 9.14201 209.646 7.31918 209.673 5.46719C209.692 3.6079 210.561 1.7559 212.007 0.786155C212.976 0.137227 214.156 -0.0961006 215.284 0.0351433C217.824 0.341379 220.06 2.64544 220.504 5.41615C220.949 8.18685 219.556 11.1836 217.261 12.4231C214.966 13.6626 211.954 13.0356 210.23 10.9576" fill="#1D1644"/>
<path d="M186.612 46.3769C186.585 46.3697 186.612 45.9541 186.652 45.203C186.632 44.452 186.579 43.3656 186.247 42.0678C185.929 40.7699 185.372 39.2825 184.715 37.6492C184.078 36.0087 183.309 34.2077 182.891 32.1516C182.672 31.1308 182.612 30.0954 182.652 29.1038C182.712 28.1049 182.937 27.1643 183.269 26.3331C183.926 24.6488 184.967 23.402 185.955 22.5781C186.964 21.7541 187.919 21.3385 188.582 21.1417C188.914 21.0323 189.186 20.9885 189.365 20.9667C189.544 20.9375 189.643 20.9302 189.643 20.9448C189.65 20.9885 189.265 21.0396 188.622 21.2802C187.978 21.5135 187.063 21.9583 186.101 22.7822C185.159 23.6134 184.171 24.8384 183.554 26.4643C183.242 27.2737 183.03 28.1705 182.984 29.1257C182.957 30.0808 183.01 31.0724 183.223 32.0641C183.621 34.0546 184.377 35.8556 185 37.5034C185.644 39.144 186.181 40.6606 186.479 41.9949C186.784 43.3219 186.804 44.4447 186.778 45.203C186.745 45.5822 186.692 45.8738 186.665 46.0707C186.645 46.2822 186.625 46.3842 186.612 46.3769Z" fill="#BBD0E0"/>
<path d="M192.723 98.463C192.717 98.4776 192.584 98.3901 192.332 98.2151C192.073 98.0474 191.722 97.763 191.284 97.3766C190.408 96.5964 189.268 95.2694 188.239 93.3517C187.225 91.4341 186.369 88.9113 185.971 85.9948C185.573 83.0856 185.673 79.8263 186.084 76.4869C186.495 73.1402 187.118 69.9976 187.609 67.1321C188.107 64.2666 188.458 61.6709 188.604 59.4762C188.75 57.2815 188.704 55.4952 188.611 54.2702C188.518 53.0453 188.412 52.3672 188.445 52.3672C188.458 52.3672 188.492 52.5349 188.551 52.8484C188.611 53.1692 188.677 53.6432 188.75 54.2557C188.89 55.4806 188.969 57.2815 188.856 59.4908C188.744 61.7001 188.412 64.3177 187.934 67.1905C187.463 70.0632 186.847 73.1985 186.435 76.5306C186.031 79.8555 185.918 83.071 186.296 85.9438C186.667 88.8165 187.49 91.3029 188.458 93.2132C189.44 95.1235 190.541 96.4579 191.377 97.2599C192.206 98.0692 192.75 98.4192 192.723 98.463Z" fill="#BBD0E0"/>
<path d="M222.304 96.9373C222.297 96.93 222.344 96.8863 222.423 96.8061C222.523 96.7113 222.649 96.6019 222.802 96.4561C223.133 96.1498 223.624 95.6978 224.248 95.0999C225.468 93.8895 227.226 92.0886 228.937 89.4637C230.635 86.8607 232.273 83.3025 232.579 79.0371C232.744 76.9226 232.565 74.655 231.862 72.4822C231.199 70.2875 229.839 68.3553 228.725 66.1898C228.168 65.1034 227.69 63.9586 227.445 62.7629C227.193 61.5671 227.146 60.3494 227.186 59.1755C227.272 56.8204 227.657 54.6039 227.697 52.4748C227.75 50.3457 227.544 48.3187 227.086 46.4959C226.635 44.6731 225.919 43.069 225.05 41.7784C223.292 39.1827 221.064 37.9213 219.505 37.4547C217.913 36.988 216.978 37.1411 216.984 37.0828C216.984 37.0755 217.044 37.0682 217.15 37.0609C217.283 37.0536 217.442 37.0464 217.648 37.0391C218.079 37.0609 218.729 37.0828 219.538 37.3161C221.137 37.7463 223.425 38.9858 225.249 41.618C226.151 42.9232 226.887 44.5564 227.365 46.4157C227.843 48.2677 228.061 50.3312 228.015 52.4894C227.989 54.6549 227.604 56.8861 227.524 59.1974C227.484 60.3494 227.537 61.5306 227.776 62.6827C228.015 63.8347 228.473 64.943 229.023 66.0075C230.118 68.1366 231.497 70.0979 232.181 72.3655C232.897 74.5967 233.069 76.9226 232.897 79.0736C232.565 83.4192 230.874 87.0211 229.136 89.6314C227.378 92.2636 225.587 94.0427 224.334 95.2239C223.697 95.8072 223.193 96.2373 222.841 96.529C222.682 96.6602 222.549 96.7623 222.443 96.8498C222.357 96.9081 222.311 96.9373 222.304 96.9373Z" fill="#BBD0E0"/>
<path d="M219.113 15.8519C219.126 15.8519 219.106 15.9686 219.066 16.1873C219.04 16.3113 219.013 16.4425 218.987 16.5883C218.934 16.7487 218.881 16.9237 218.821 17.1206C218.549 17.9008 218.045 19.0309 217.07 20.1027C216.121 21.1892 214.682 22.2245 212.884 22.6474C211.989 22.8516 211.007 22.888 210.026 22.6985C209.044 22.5235 208.062 22.1589 207.107 21.6995C205.19 20.7663 203.532 19.5705 201.933 18.7028C200.341 17.8133 198.803 17.2737 197.463 17.1716C196.123 17.055 195.042 17.3393 194.345 17.6383C193.649 17.9518 193.317 18.2362 193.297 18.207C193.291 18.1997 193.37 18.1195 193.529 17.9883C193.689 17.857 193.947 17.682 194.292 17.4997C194.989 17.1498 196.096 16.8217 197.476 16.9019C198.856 16.9675 200.454 17.507 202.073 18.382C203.698 19.2424 205.363 20.4382 207.24 21.3423C208.182 21.7943 209.13 22.1443 210.079 22.3193C211.027 22.5016 211.956 22.4724 212.818 22.2901C214.543 21.9037 215.949 20.934 216.891 19.8986C217.866 18.8778 218.39 17.7987 218.688 17.055C218.755 16.8727 218.821 16.6977 218.881 16.5446C218.92 16.406 218.96 16.2748 218.993 16.1581C219.06 15.954 219.1 15.8446 219.113 15.8519Z" fill="#BBD0E0"/>
<path d="M206.043 174.986L164.414 197.101L88.1016 174.228L125.565 151.727L206.043 174.986Z" fill="#275E8E"/>
<path d="M160.144 174.053L171.195 178.063L181.429 171.953L164.403 165.945L154.453 171.611L160.144 174.053Z" fill="white"/>
<path d="M78.3906 112.453C78.7355 113.977 88.1013 174.225 88.1013 174.225L164.414 197.105L154.351 132.665L78.3906 112.453Z" fill="#275E8E"/>
<path d="M158.865 161.523C158.957 161.509 160.277 169.456 161.81 179.278C163.342 189.107 164.509 197.083 164.416 197.098C164.323 197.112 163.004 189.165 161.471 179.336C159.939 169.522 158.772 161.538 158.865 161.523Z" fill="#455A64"/>
<path d="M196.761 166.065C196.761 166.065 241.448 170.272 248.843 164.381C256.246 158.489 256.246 118.941 256.246 118.941L234.105 116.695L233.793 144.184C232.261 145.584 193.73 152.598 190.413 152.321C190.413 152.321 170.223 154.69 169.122 154.69C168.02 154.69 160.711 163.826 160.711 164.264C160.711 164.264 160.81 165.474 161.514 165.912C161.514 165.912 160.611 167.122 161.613 168.333C161.613 168.333 161.315 169.871 162.416 170.206C163.517 170.534 163.616 171.089 164.916 170.206C166.216 169.324 172.624 163.826 172.624 163.826L177.426 163.389C177.426 163.389 165.712 170.761 166.714 172.416C167.715 174.063 170.017 172.197 172.617 170.658C175.217 169.12 179.522 166.364 180.325 166.145C181.134 165.912 196.761 166.065 196.761 166.065Z" fill="#F4FCFF"/>
<path d="M175.631 159.137C175.637 159.21 174.702 159.196 173.269 159.611C171.837 160.005 169.94 160.924 168.109 162.382C166.278 163.84 164.819 165.452 163.771 166.611C162.723 167.778 162.073 168.5 162.033 168.463C162.013 168.449 162.153 168.244 162.424 167.887C162.69 167.537 163.088 167.034 163.592 166.422C164.6 165.211 166.039 163.556 167.91 162.069C169.774 160.581 171.737 159.684 173.216 159.342C173.953 159.167 174.563 159.101 174.981 159.094C175.399 159.094 175.631 159.116 175.631 159.137Z" fill="black"/>
<path d="M173.092 157.334C173.092 157.407 172.289 157.392 171.049 157.764C169.815 158.121 168.183 158.938 166.631 160.243C165.079 161.548 163.859 162.985 162.977 164.02C162.101 165.063 161.55 165.704 161.517 165.668C161.484 165.639 161.962 164.932 162.797 163.838C163.633 162.759 164.834 161.271 166.426 159.937C168.011 158.603 169.709 157.793 170.989 157.502C171.626 157.349 172.157 157.29 172.521 157.29C172.886 157.283 173.092 157.312 173.092 157.334Z" fill="black"/>
<path d="M240.817 152.532C240.757 152.547 240.611 151.884 240.213 150.892C239.816 149.9 239.119 148.595 238.084 147.392C237.043 146.196 235.889 145.372 235.007 144.891C234.124 144.403 233.527 144.213 233.547 144.147C233.554 144.111 234.177 144.213 235.113 144.651C236.041 145.081 237.262 145.897 238.336 147.137C239.404 148.376 240.094 149.747 240.439 150.79C240.784 151.84 240.85 152.525 240.817 152.532Z" fill="black"/>
<path opacity="0.64" d="M112.487 160.324L128.043 149.584C128.1 149.54 128.172 149.611 128.14 149.681L122.08 162.394C122.015 162.518 121.895 162.589 121.766 162.571L112.607 160.943C112.326 160.89 112.245 160.483 112.487 160.324Z" fill="url(#paint0_linear_3098_5007)"/>
<path opacity="0.64" d="M128.073 149.63L113.876 164.767C113.643 165.014 113.876 165.43 114.182 165.324L121.868 162.643C121.94 162.617 122.005 162.555 122.045 162.484L128.145 149.683C128.153 149.639 128.105 149.595 128.073 149.63Z" fill="url(#paint1_linear_3098_5007)"/>
<path opacity="0.64" d="M125.96 146.109C125.654 146.109 125.542 146.552 125.799 146.729L128.584 148.622C128.696 148.693 128.833 148.684 128.93 148.595L131.103 146.702C131.328 146.507 131.199 146.109 130.918 146.109H125.96Z" fill="url(#paint2_linear_3098_5007)"/>
<path opacity="0.64" d="M127.921 149.313L104.14 140.13C103.842 140.015 103.601 140.413 103.818 140.669L121.692 162.255C121.837 162.423 122.087 162.388 122.183 162.184L128.098 149.781C128.179 149.604 128.098 149.383 127.921 149.313Z" fill="url(#paint3_linear_3098_5007)"/>
<defs>
<linearGradient id="paint0_linear_3098_5007" x1="112.344" y1="156.07" x2="128.146" y2="156.07" gradientUnits="userSpaceOnUse">
<stop stop-color="white"/>
<stop offset="0.9993" stop-color="#00BAD3"/>
</linearGradient>
<linearGradient id="paint1_linear_3098_5007" x1="113.776" y1="157.48" x2="128.138" y2="157.48" gradientUnits="userSpaceOnUse">
<stop stop-color="white"/>
<stop offset="0.9993" stop-color="#00BAD3"/>
</linearGradient>
<linearGradient id="paint2_linear_3098_5007" x1="125.655" y1="147.393" x2="131.225" y2="147.393" gradientUnits="userSpaceOnUse">
<stop stop-color="white"/>
<stop offset="0.9993" stop-color="#00BAD3"/>
</linearGradient>
<linearGradient id="paint3_linear_3098_5007" x1="103.731" y1="151.237" x2="128.124" y2="151.237" gradientUnits="userSpaceOnUse">
<stop stop-color="white"/>
<stop offset="0.9993" stop-color="#00BAD3"/>
</linearGradient>
</defs>
</svg>
