<svg width="260" height="248" viewBox="0 0 260 248" fill="none" xmlns="http://www.w3.org/2000/svg">
<path d="M259.166 129.582C258.869 119.009 258.983 81.102 259.021 70.7864C259.027 69.3485 257.965 68.1884 256.657 68.1953L197.995 68.5705C196.681 68.5774 195.625 69.7722 195.657 71.2171L196.99 128.748C197.022 130.131 198.046 131.242 199.303 131.263L256.771 132.249C258.123 132.27 259.204 131.061 259.166 129.582Z" fill="#275E8E"/>
<path d="M93.8961 93.7729L79.1973 78.1016H76.8087C76.8087 78.1016 62.9947 97.5727 63.614 99.0315C64.2333 100.49 68.6631 101.366 68.6631 101.366L68.84 106.721L82.3255 115.259L83.0079 112.681L86.0159 113.348C86.0159 113.348 90.3573 107.02 90.3573 99.8164C90.3573 92.6129 93.8961 93.7729 93.8961 93.7729Z" fill="#1D1644"/>
<path d="M85.3282 87.8803C85.0628 87.783 78.1305 77.4188 77.8651 77.2243C77.5997 77.0298 68.304 78.8776 62.724 88.1234C57.1441 97.3693 59.6276 100.196 60.6007 100.391C61.5739 100.586 82.4719 101.169 84.0644 99.9047C85.6632 98.6405 85.3282 87.8803 85.3282 87.8803Z" fill="#275E8E"/>
<path d="M64.2878 85.8359C64.2878 85.8359 68.2879 88.302 67.7003 90.0316C67.1126 91.7683 63.0429 99.9166 59.422 98.9996C59.1566 98.9302 59.0301 97.8187 59.2071 96.6725C59.6873 93.5674 61.0081 90.8444 62.6827 88.2881L64.2878 85.8359Z" fill="white"/>
<g opacity="0.3">
<path d="M83.6962 84.9927C83.5635 84.8955 81.4908 82.2697 79.4181 82.6656C77.3454 83.0616 72.391 86.3473 69.6863 88.9592C66.9817 91.5711 67.1586 92.3352 67.1586 92.3352C67.1586 92.3352 75.6328 86.0347 78.2933 85.0969C80.9474 84.1522 83.6962 84.9927 83.6962 84.9927Z" fill="black"/>
</g>
<path d="M64.2839 85.8368C64.2649 85.8229 64.1323 85.9757 63.9111 86.2744C63.6836 86.5662 63.3739 87.0108 63.0011 87.5665C62.2617 88.6779 61.2759 90.2548 60.4165 92.1512C59.9804 93.0959 59.6582 94.0476 59.3801 94.8951C59.0831 95.7842 59.0578 96.6317 59.0136 97.3125C58.9694 98.0002 59.0325 98.5976 59.2095 98.9519C59.3801 99.3131 59.5697 99.4242 59.576 99.4103C59.6013 99.3895 59.4496 99.2367 59.3296 98.8963C59.2032 98.549 59.1779 98.0071 59.2474 97.3333C59.3169 96.6526 59.3738 95.8329 59.6645 95.0132C59.9615 94.1588 60.2838 93.2418 60.7135 92.311C61.5603 90.4493 62.5019 88.8585 63.1907 87.7124C63.8858 86.5731 64.3281 85.8715 64.2839 85.8368Z" fill="#1D1644"/>
<path d="M215.14 159.93C215.14 159.93 228.942 189.522 235.482 194.475L234.465 196.712C234.465 196.712 233.896 197.191 225.315 189.362C216.733 181.533 212.082 172.253 208.012 169.391C203.943 166.529 201.617 165.556 201.617 165.556L215.14 159.93Z" fill="#1D1644"/>
<path d="M168.069 183.96C169.389 183.96 174.862 183.96 174.862 183.96L160.005 195.971L159.013 199.396L164.688 201.716L165.225 213.393C165.225 213.393 158.596 224.931 157.983 225.153C157.376 225.376 142.994 224.806 142.994 224.806L139.91 213.198L139.164 197.34C139.164 197.34 160.157 182.516 160.46 182.516C160.764 182.516 168.069 183.96 168.069 183.96Z" fill="#1D1644"/>
<path d="M200.608 239.61C216.254 235.523 225.924 218.267 222.205 201.067C218.487 183.868 202.789 173.239 187.143 177.326C171.496 181.413 161.827 198.669 165.545 215.869C169.263 233.068 184.961 243.698 200.608 239.61Z" fill="#BBD0E0"/>
<path d="M193.884 226.771C203.066 226.771 210.51 218.589 210.51 208.495C210.51 198.401 203.066 190.219 193.884 190.219C184.702 190.219 177.258 198.401 177.258 208.495C177.258 218.589 184.702 226.771 193.884 226.771Z" fill="#275E8E"/>
<path d="M193.884 218.924C199.122 218.924 203.369 214.256 203.369 208.497C203.369 202.739 199.122 198.07 193.884 198.07C188.645 198.07 184.398 202.739 184.398 208.497C184.398 214.256 188.645 218.924 193.884 218.924Z" fill="#BBD0E0"/>
<path d="M210.213 175.154C209.171 173.605 208.532 182.392 206.7 184.407C204.867 186.421 198.782 184.567 190.813 186.088C178.098 188.512 174.364 196.035 171.394 199.835C170.673 200.759 169.523 201.127 168.462 200.808L158.578 197.848C158.578 197.848 164.537 181.725 181.037 176.349C197.53 170.965 210.213 175.154 210.213 175.154Z" fill="#1D1644"/>
<path d="M30.5097 242.029C47.3597 242.029 61.0193 227.013 61.0193 208.491C61.0193 189.969 47.3597 174.953 30.5097 174.953C13.6597 174.953 0 189.969 0 208.491C0 227.013 13.6597 242.029 30.5097 242.029Z" fill="#BBD0E0"/>
<path d="M30.5083 227.647C40.1304 227.647 47.9307 219.072 47.9307 208.495C47.9307 197.918 40.1304 189.344 30.5083 189.344C20.8862 189.344 13.0859 197.918 13.0859 208.495C13.0859 219.072 20.8862 227.647 30.5083 227.647Z" fill="#275E8E"/>
<path d="M129.154 218.796C128.832 218.816 124.275 226.131 124.275 226.131H121.267V228.847C121.267 228.847 110.803 228.333 108.654 228.021C106.505 227.708 103.921 226.284 103.921 226.284C103.921 226.284 87.1493 224.818 82.7069 223.818C78.2644 222.818 74.3906 220.018 74.3906 220.018C74.3906 220.018 126.715 214.78 127.144 215.1C127.574 215.42 129.154 218.796 129.154 218.796Z" fill="#1D1644"/>
<path d="M82.9748 115.874C82.7347 117.472 74.2352 139.09 74.2352 139.09L80.5482 143.626L69.6221 164.437L76.2953 196.19C76.2953 196.19 94.6214 196.454 111.86 190.32L123.027 167.64C123.027 167.64 120.354 160.165 119.627 152.163C119.627 152.163 115.26 150.829 114.774 147.363C114.287 143.897 117.687 138.826 117.687 138.826C117.687 138.826 133.706 131.087 169.878 127.621C169.878 127.621 192.457 123.085 193.91 123.349C195.364 123.613 197.797 129.135 197.797 129.135C197.797 129.135 217.703 129.219 219.643 137.228C219.643 137.228 221.583 143.098 199.25 154.837C176.918 166.577 152.152 176.983 152.152 176.983C152.152 176.983 150.212 187.66 146.566 190.056C142.92 192.453 105.781 206.068 92.1884 205.269C78.5956 204.47 74.4691 202.331 66.2161 196.461C57.963 190.591 48.7368 172.975 46.0701 166.841C43.4033 160.707 55.2963 154.566 62.5761 144.959C69.856 135.352 79.5688 112.672 79.5688 112.672L82.9748 115.874Z" fill="#BBD0E0"/>
<g opacity="0.3">
<path d="M61.0138 211.534C61.0138 211.534 49.9677 200.677 46.9344 197.565C43.8948 194.459 43.6673 193.556 43.6673 193.556L36.6465 201.024L35.25 198.891L44.9817 187.93L61.652 206.018L61.0201 210.77" fill="black"/>
</g>
<path d="M31.991 164.75C31.991 164.75 16.7299 167.147 9.02665 177.212C1.32341 187.278 3.50358 188.236 3.50358 188.236C3.50358 188.236 14.9858 184.881 21.8169 188.236C28.6481 191.591 28.5027 197.822 28.5027 197.822L34.3166 201.018L45.7039 186.958L36.2124 164.75H31.991Z" fill="#275E8E"/>
<g opacity="0.3">
<path d="M42.5057 190.886C42.5057 190.886 39.5419 185.044 36.7424 180.063C33.6649 174.596 28.3125 165.586 28.3125 165.586L32.7612 164.148L44.9828 187.919L42.5057 190.886Z" fill="black"/>
</g>
<path d="M66.8744 104.68C65.8569 104.68 61.0606 107.076 55.3922 113.467C49.7238 119.858 20.0735 156.925 19.9282 159.96C19.9219 160.071 19.9219 160.176 19.9219 160.28C19.9345 162.774 21.8618 164.753 24.1305 164.753H29.2302L33.0092 167.629C33.0092 167.629 42.3112 191.379 58.8805 205.307C58.8805 205.307 61.3513 208.051 62.6594 211.406C63.9675 214.761 65.2756 218.915 66.8744 219.714C68.4731 220.513 138.238 219.874 139.11 217.318C139.983 214.761 141.291 209.809 141.581 206.613C141.872 203.418 148.413 195.429 156.116 191.595C163.819 187.76 217.887 160.28 218.614 157.084C219.34 153.889 223.113 141.274 219.334 136.314C215.562 131.361 157.007 162.357 143.61 175.937C143.275 176.278 126.605 193.192 126.605 193.192C126.605 193.192 95.5009 199.264 94.3382 199.583C93.1754 199.903 71.6644 198.944 71.6644 198.944L63.0891 179.932L56.9847 164.913L72.1004 137.912C72.1004 137.912 80.9032 112.675 80.2397 112.675C79.5762 112.675 66.8744 104.68 66.8744 104.68Z" fill="#275E8E"/>
<path d="M215.213 187.992L222.588 205.303L179.073 225.149L172.969 209.012L215.213 187.992Z" fill="#1D1644"/>
<path d="M224.71 190.375L217.203 192.653L220.287 199.892L226.36 198.086L224.71 190.375Z" fill="#1D1644"/>
<path d="M175.009 214.391L153.567 223.727H134.603V218.76H130.641V227.089H140.227V228.839H153.22L176.974 219.587L175.009 214.391Z" fill="#1D1644"/>
<path d="M219.293 154.348C219.262 154.48 211.805 159.078 208.746 159.287C205.688 159.495 204.506 157.3 203.817 155.654C203.129 154.007 202.383 151.194 202.383 151.194C202.383 151.194 219.521 136.516 219.698 136.849C220.949 139.114 221.088 139.836 221.088 144.477C221.088 146.408 219.394 154.334 219.293 154.348Z" fill="white"/>
<g opacity="0.3">
<path d="M151.598 194.388C151.933 194.083 120.052 206.934 117.473 207.795C114.895 208.656 112.203 217.652 112.203 217.652C112.203 217.652 115.344 210.879 119.376 209.15C123.414 207.427 146.157 199.341 151.598 194.388Z" fill="black"/>
</g>
<g opacity="0.3">
<path d="M63.0716 138.113L36.0312 153.319C36.0312 153.319 40.5117 144.76 53.0302 138.279C60.4428 134.445 72.7023 127.484 72.7023 127.484L72.1082 128.624C70.0039 132.68 66.8631 135.98 63.0716 138.113Z" fill="black"/>
</g>
<path d="M119.641 152.169C119.641 152.176 119.717 152.19 119.856 152.217C120.02 152.245 120.228 152.287 120.5 152.328C121.088 152.426 121.916 152.558 122.971 152.724C125.119 153.058 128.235 153.523 132.09 154.058C135.945 154.586 140.532 155.197 145.645 155.718C146.921 155.843 148.236 155.975 149.575 156.059C150.245 156.107 150.928 156.149 151.616 156.17C152.293 156.198 153.019 156.219 153.714 156.08C156.514 155.586 159.225 154.405 161.961 153.155C167.415 150.578 172.413 147.66 176.913 144.951C181.412 142.228 185.399 139.651 188.723 137.449C190.385 136.344 191.883 135.33 193.185 134.427C194.493 133.524 195.58 132.663 196.357 131.815C197.141 130.989 197.602 130.141 197.691 129.502C197.798 128.856 197.545 128.55 197.545 128.571C197.526 128.571 197.747 128.87 197.621 129.488C197.514 130.093 197.052 130.905 196.262 131.711C195.479 132.531 194.392 133.364 193.077 134.247C191.763 135.136 190.259 136.129 188.591 137.22C185.254 139.394 181.254 141.943 176.748 144.646C172.243 147.334 167.25 150.244 161.809 152.808C159.092 154.051 156.375 155.232 153.645 155.718C152.962 155.85 152.293 155.836 151.604 155.809C150.921 155.788 150.245 155.753 149.575 155.704C148.236 155.621 146.927 155.496 145.651 155.378C140.539 154.878 135.951 154.294 132.096 153.794C128.26 153.28 125.145 152.863 122.971 152.572C121.909 152.433 121.075 152.321 120.487 152.238C120.216 152.203 120.001 152.183 119.843 152.162C119.716 152.169 119.641 152.162 119.641 152.169Z" fill="#455A64"/>
<path d="M117.688 145.283C117.688 145.289 117.751 145.317 117.883 145.359C118.035 145.408 118.225 145.477 118.471 145.553C118.989 145.72 119.748 145.984 120.752 146.227C122.749 146.748 125.688 147.325 129.366 147.498C130.282 147.568 131.249 147.54 132.247 147.561C133.252 147.526 134.295 147.519 135.369 147.429C137.524 147.29 139.824 147.012 142.219 146.575C147.015 145.727 152.197 144.241 157.518 142.309C162.839 140.385 167.812 138.26 172.35 136.377C176.881 134.474 180.982 132.848 184.457 131.556C186.189 130.889 187.737 130.202 189.026 129.431C190.315 128.673 191.339 127.833 192.072 127.034C192.818 126.242 193.235 125.478 193.526 124.978C193.639 124.728 193.728 124.526 193.797 124.373C193.854 124.235 193.886 124.165 193.88 124.165C193.829 124.123 193.456 125.367 191.977 126.937C191.244 127.715 190.221 128.521 188.938 129.257C187.655 130.007 186.113 130.674 184.382 131.32C180.9 132.577 176.779 134.182 172.242 136.071C167.699 137.94 162.725 140.052 157.417 141.976C152.109 143.907 146.952 145.394 142.175 146.255C139.792 146.7 137.499 146.984 135.356 147.137C134.282 147.235 133.246 147.248 132.247 147.29C131.249 147.276 130.288 147.311 129.378 147.248C125.719 147.109 122.781 146.575 120.784 146.095C119.779 145.88 119.015 145.637 118.49 145.491C118.244 145.421 118.048 145.366 117.896 145.331C117.757 145.296 117.688 145.283 117.688 145.283Z" fill="#455A64"/>
<path d="M153.802 156.182C153.796 156.168 153.688 156.217 153.493 156.314C153.265 156.432 152.981 156.578 152.639 156.752C151.9 157.134 150.832 157.689 149.499 158.328C146.832 159.628 143.091 161.281 138.889 162.899C134.68 164.504 130.819 165.768 127.994 166.567C126.585 166.984 125.435 167.276 124.638 167.477C124.272 167.574 123.969 167.651 123.722 167.72C123.514 167.776 123.406 167.817 123.406 167.831C123.406 167.845 123.52 167.831 123.735 167.797C123.981 167.748 124.291 167.692 124.664 167.623C125.466 167.463 126.629 167.206 128.051 166.824C130.895 166.081 134.781 164.858 138.996 163.247C143.205 161.628 146.946 159.933 149.593 158.565C150.921 157.891 151.976 157.3 152.696 156.877C153.025 156.675 153.303 156.515 153.524 156.377C153.714 156.265 153.808 156.196 153.802 156.182Z" fill="#455A64"/>
<path d="M125.157 192.18C125.163 192.18 125.214 192.097 125.309 191.93C125.41 191.742 125.555 191.492 125.732 191.173C126.111 190.485 126.655 189.505 127.35 188.248C128.759 185.713 130.787 182.031 133.568 177.689C134.964 175.522 136.563 173.202 138.434 170.861C140.304 168.513 142.447 166.144 144.93 163.949C147.407 161.747 150.232 159.747 153.322 158.003C156.406 156.252 159.73 154.731 163.187 153.335C177.057 147.805 190.081 144.36 199.567 142.352C204.313 141.352 208.18 140.678 210.853 140.255C212.18 140.046 213.217 139.879 213.937 139.768C214.278 139.713 214.544 139.671 214.739 139.636C214.923 139.602 215.011 139.588 215.011 139.581C215.011 139.574 214.916 139.581 214.733 139.602C214.537 139.622 214.272 139.657 213.931 139.699C213.223 139.789 212.18 139.914 210.841 140.116C208.161 140.498 204.287 141.13 199.529 142.102C190.025 144.047 176.975 147.458 163.079 152.995C159.61 154.391 156.273 155.926 153.177 157.69C150.08 159.448 147.23 161.462 144.747 163.692C142.251 165.908 140.102 168.298 138.232 170.666C136.361 173.028 134.769 175.362 133.378 177.544C130.61 181.913 128.614 185.622 127.236 188.179C126.566 189.45 126.042 190.45 125.675 191.138C125.504 191.464 125.372 191.721 125.277 191.916C125.195 192.083 125.151 192.18 125.157 192.18Z" fill="#455A64"/>
<path d="M30.5106 219.416C36.0005 219.416 40.4509 214.524 40.4509 208.489C40.4509 202.455 36.0005 197.562 30.5106 197.562C25.0207 197.562 20.5703 202.455 20.5703 208.489C20.5703 214.524 25.0207 219.416 30.5106 219.416Z" fill="#BBD0E0"/>
<path d="M36.2356 153.097C36.242 153.104 36.343 152.979 36.5326 152.729C36.7222 152.486 36.975 152.104 37.3352 151.638C38.0303 150.694 39.0793 149.36 40.4822 147.832C41.8788 146.296 43.6672 144.608 45.8094 142.962C47.9517 141.323 50.4478 139.746 53.1714 138.329C58.6503 135.515 63.5351 132.785 67.055 130.792C68.7864 129.798 70.1956 128.986 71.213 128.402C71.6743 128.124 72.0472 127.902 72.3379 127.735C72.5907 127.583 72.7234 127.492 72.717 127.478C72.7107 127.464 72.5718 127.534 72.3063 127.666C72.0157 127.819 71.6301 128.02 71.1562 128.27C70.1325 128.826 68.7043 129.604 66.9538 130.563C63.4087 132.501 58.5113 135.189 53.0324 138.002C50.2898 139.426 47.781 141.024 45.6388 142.691C43.4965 144.365 41.7081 146.081 40.3242 147.651C38.934 149.214 37.9102 150.582 37.2467 151.555C36.9055 152.034 36.6654 152.43 36.4947 152.687C36.3052 152.951 36.223 153.09 36.2356 153.097Z" fill="#1D1644"/>
<path d="M48.3326 146.946C49.1225 146.953 49.5648 147.953 49.0719 148.634C47.6817 150.551 44.6168 153.948 39.239 155.969C31.4284 158.908 30.2277 157.394 31.0492 156.49C31.8012 155.664 41.8679 146.863 48.3326 146.946Z" fill="white"/>
<path d="M219.193 154.721C219.218 154.728 219.288 154.478 219.408 154.034C219.521 153.582 219.679 152.936 219.869 152.123C220.235 150.512 220.804 148.289 221.108 145.746C221.266 144.482 221.354 143.26 221.31 142.148C221.266 141.03 221.089 140.036 220.842 139.238C220.596 138.439 220.299 137.827 220.065 137.438C219.825 137.049 219.66 136.862 219.648 136.876C219.591 136.91 220.204 137.73 220.627 139.314C220.836 140.099 220.988 141.071 221.013 142.162C221.038 143.246 220.937 144.447 220.785 145.705C220.488 148.212 219.957 150.442 219.648 152.075C219.49 152.887 219.363 153.547 219.288 154.006C219.205 154.464 219.174 154.714 219.193 154.721Z" fill="#1D1644"/>
<g opacity="0.3">
<path d="M196.978 156.031L154.986 180.511C154.986 180.511 154.778 181.15 158.576 179.712C162.374 178.281 191.607 162.123 196.978 156.031Z" fill="black"/>
</g>
<path d="M249.882 131.068L247.032 134.472H211.732C211.732 134.472 205.419 130.304 205.034 130.297C204.648 130.29 249.882 131.068 249.882 131.068Z" fill="#1D1644"/>
<path d="M112.927 21.4527C111.177 14.1658 115.423 8.60853 121.894 6.10778L122.539 5.85771C129.61 3.62092 134.672 6.99693 136.511 14.8257L143.626 40.5765L143.961 41.8338L129.104 51.5451L127.057 45.0709C127.057 45.0709 120.03 46.5088 117.61 39.2219C116.428 35.6931 114.551 28.2325 112.927 21.4527Z" fill="#BBD0E0"/>
<path d="M116.932 27.7969C117.09 28.3526 117.653 28.6652 118.19 28.4985C118.721 28.3248 119.03 27.7344 118.866 27.1787C118.708 26.6229 118.146 26.3034 117.615 26.4771C117.078 26.6438 116.774 27.2342 116.932 27.7969Z" fill="#1D1644"/>
<path d="M115.51 24.4782C115.674 24.5685 116.205 23.7072 117.229 23.3112C118.246 22.9014 119.181 23.1931 119.251 23.0125C119.289 22.9291 119.087 22.7277 118.676 22.5957C118.272 22.4568 117.64 22.4151 117.001 22.6652C116.363 22.9152 115.914 23.3807 115.687 23.7627C115.459 24.1517 115.428 24.4365 115.51 24.4782Z" fill="#1D1644"/>
<path d="M126.034 24.4766C126.192 25.0323 126.754 25.3449 127.292 25.1782C127.822 25.0045 128.132 24.4141 127.968 23.8583C127.81 23.3026 127.247 22.9831 126.717 23.1567C126.179 23.3304 125.876 23.9209 126.034 24.4766Z" fill="#1D1644"/>
<path d="M125.632 20.7985C125.796 20.8888 126.327 20.0275 127.351 19.6315C128.368 19.2217 129.304 19.5134 129.373 19.3328C129.411 19.2495 129.209 19.048 128.798 18.916C128.394 18.7771 127.762 18.7354 127.124 18.9855C126.485 19.2356 126.037 19.701 125.809 20.083C125.582 20.472 125.556 20.7569 125.632 20.7985Z" fill="#1D1644"/>
<path d="M124.592 30.5827C124.579 30.5202 123.903 30.6453 122.822 30.8953C122.551 30.9648 122.285 31.0065 122.178 30.8259C122.051 30.6453 122.058 30.291 122.077 29.9089C122.102 29.117 122.121 28.2904 122.146 27.4221C122.222 23.8932 122.178 21.0312 122.051 21.0312C121.925 21.0312 121.754 23.8863 121.679 27.4151C121.666 28.2834 121.653 29.1101 121.641 29.902C121.647 30.2632 121.596 30.7008 121.868 31.0829C122.007 31.2704 122.247 31.3538 122.431 31.3399C122.614 31.333 122.766 31.2774 122.898 31.2357C123.966 30.8884 124.611 30.6453 124.592 30.5827Z" fill="#1D1644"/>
<path d="M127.847 30.1907C127.676 30.2463 128.068 31.4688 127.392 32.6984C126.722 33.9349 125.496 34.2544 125.54 34.4281C125.547 34.5114 125.881 34.5601 126.387 34.3864C126.886 34.2127 127.543 33.7681 127.954 33.011C128.365 32.2538 128.384 31.448 128.264 30.934C128.144 30.406 127.923 30.1559 127.847 30.1907Z" fill="#1D1644"/>
<path d="M123.955 16.4905C124.151 16.7545 125.13 16.2196 126.381 15.9139C127.626 15.5805 128.72 15.5944 128.789 15.254C128.821 15.0942 128.555 14.8719 128.069 14.7261C127.588 14.5802 126.874 14.5385 126.129 14.733C125.383 14.9275 124.764 15.3096 124.385 15.6708C124.012 16.039 123.866 16.3654 123.955 16.4905Z" fill="#1D1644"/>
<path d="M114.342 21.3103C114.601 21.4979 115.226 20.956 116.067 20.6157C116.901 20.2405 117.685 20.185 117.767 19.8515C117.798 19.6918 117.602 19.4834 117.211 19.3583C116.825 19.2402 116.244 19.2402 115.669 19.4834C115.094 19.7265 114.664 20.1572 114.449 20.5323C114.234 20.9144 114.222 21.2131 114.342 21.3103Z" fill="#1D1644"/>
<path d="M137.712 22.3607C137.39 21.2145 137.99 19.978 139.052 19.6932C140.335 19.3459 141.965 19.5821 142.786 22.4371C144.246 27.5011 139.324 28.0638 139.273 27.9179C139.235 27.8206 138.306 24.4863 137.712 22.3607Z" fill="#FFC4A3"/>
<path d="M139.733 25.6692C139.745 25.6484 139.834 25.7039 139.986 25.7248C140.137 25.7456 140.377 25.7109 140.586 25.5303C141.016 25.1621 141.18 24.1757 140.94 23.2518C140.82 22.7864 140.605 22.3765 140.352 22.0709C140.106 21.7513 139.815 21.5638 139.556 21.6055C139.297 21.6263 139.17 21.8486 139.151 22.0084C139.132 22.1681 139.189 22.2654 139.164 22.2793C139.158 22.3001 139.044 22.2307 139.019 22.0084C139.006 21.9042 139.031 21.7652 139.107 21.6263C139.189 21.4874 139.335 21.3832 139.512 21.3415C139.872 21.2443 140.295 21.4943 140.573 21.8347C140.87 22.1681 141.123 22.6266 141.256 23.1476C141.521 24.1757 141.319 25.2941 140.712 25.7387C140.415 25.9471 140.112 25.9332 139.941 25.8568C139.777 25.7873 139.72 25.6831 139.733 25.6692Z" fill="#FFA175"/>
<path d="M105.702 165.742L110.265 190.576L80.5389 197.266C80.1534 194.279 94.4162 184.901 94.4162 184.901L90.8647 169.125L105.702 165.742Z" fill="#455A64"/>
<g opacity="0.6">
<path d="M103.359 181.492C103.966 181.527 104.491 182.11 104.472 182.742C104.453 183.374 103.878 183.951 103.271 183.923C102.664 183.902 102.013 183.222 102.102 182.596C102.19 181.964 102.898 181.332 103.48 181.506" fill="white"/>
</g>
<g opacity="0.6">
<path d="M110.269 190.574L109.713 188.094L81.4212 195.436C81.4212 195.436 80.2079 196.332 80.5428 197.263L110.269 190.574Z" fill="white"/>
</g>
<path d="M94.3939 184.956C94.4255 185.109 95.1649 185.012 95.9738 185.331C96.789 185.63 97.2819 186.206 97.402 186.116C97.5283 186.054 97.1429 185.206 96.1634 184.831C95.1776 184.449 94.3308 184.824 94.3939 184.956Z" fill="#1D1644"/>
<path d="M91.2349 187.112C91.2286 187.264 91.9048 187.382 92.5178 187.903C93.1434 188.411 93.4025 189.07 93.5415 189.036C93.6805 189.029 93.6173 188.126 92.84 187.487C92.0754 186.834 91.2096 186.966 91.2349 187.112Z" fill="#1D1644"/>
<path d="M90.1488 191.38C90.2879 191.38 90.3447 190.582 89.8202 189.845C89.2957 189.102 88.55 188.928 88.5121 189.067C88.4552 189.206 88.9797 189.554 89.4031 190.172C89.8391 190.769 90.0035 191.394 90.1488 191.38Z" fill="#1D1644"/>
<path d="M93.751 181.816C93.8394 181.941 94.4651 181.58 95.2929 181.455C96.1207 181.309 96.8159 181.455 96.8664 181.309C96.9296 181.184 96.2028 180.767 95.2233 180.927C94.2502 181.086 93.6625 181.719 93.751 181.816Z" fill="#1D1644"/>
<g opacity="0.3">
<path d="M160.744 137.375C160.744 137.375 153.18 144.065 137.508 144.724C121.836 145.384 116.414 141.05 116.414 141.05L118.221 138.632L160.744 137.375Z" fill="black"/>
</g>
<path d="M135.292 111.875C133.839 112.139 99.0889 112.757 91.2087 113.424C83.3285 114.091 80.5796 116.265 78.8039 120.975C77.0345 125.685 78.0077 133.708 81.003 141.141C83.9984 148.574 92.8581 182.236 92.8581 182.236L109.194 178.117C109.194 178.117 104.321 147.004 101.421 141.141C98.5202 135.278 98.5202 135.278 98.5202 135.278C98.5202 135.278 114.723 141.12 126.818 141.655C138.913 142.19 146.635 141.752 151.122 137.584C155.609 133.416 163.11 129.429 162.87 117.196L135.292 111.875Z" fill="#BBD0E0"/>
<path d="M90.4541 128.495C90.4288 128.537 90.9154 128.968 91.7243 129.649C92.6216 130.399 93.6959 131.295 94.8839 132.288C96.0656 133.282 97.1399 134.178 98.0372 134.928C98.8461 135.602 99.358 136.005 99.3896 135.963C99.4149 135.928 98.9599 135.449 98.1826 134.726C97.4116 134.004 96.3184 133.032 95.0798 131.997C93.8475 130.961 92.7037 130.065 91.8569 129.44C91.0165 128.815 90.4793 128.454 90.4541 128.495Z" fill="#455A64"/>
<path d="M90.8132 131.318C90.7689 131.408 92.8733 132.672 95.5021 134.152C98.131 135.624 100.299 136.75 100.336 136.659C100.381 136.569 98.2826 135.305 95.6475 133.825C93.0186 132.353 90.8574 131.227 90.8132 131.318Z" fill="#455A64"/>
<path d="M128.027 0.518066C127.035 0.768142 110.599 4.97775 108.634 23.1568C106.662 41.3359 115.212 52.4781 120.362 50.943C122.707 50.2483 129.456 40.3912 134.473 37.5639C139.497 34.7367 150.335 29.756 150.335 29.756C150.335 29.756 152.439 18.329 146.53 8.93727C140.622 -0.454447 132.799 -0.697577 128.027 0.518066Z" fill="#1D1644"/>
<path d="M119.981 19.059C116.038 19.4063 108.329 26.9086 108.329 26.9086C107.665 31.8406 108.948 39.4401 109.245 39.2943C109.245 39.2943 122.421 28.5063 123.508 25.5193C124.5 22.8101 123.925 18.7186 119.981 19.059Z" fill="#455A64"/>
<path d="M150.737 26.0625C144.134 27.2156 138.212 31.4113 132.891 35.6904C127.255 40.2195 122.97 45.3322 118.148 50.8686C118.888 51.0909 119.665 51.2506 120.354 50.9519C122.774 49.903 129.504 42.1854 134.522 38.5037C139.217 35.0583 150.326 29.765 150.326 29.765C150.326 29.765 150.864 28.3549 150.737 26.0625Z" fill="#1D1644"/>
<g opacity="0.3">
<path d="M112.767 23.038L112.641 36.431L115.908 33.5759L116.034 20.7109L112.767 23.038Z" fill="white"/>
</g>
<g opacity="0.3">
<path d="M117.047 20.1209L117.331 32.2912L119.094 30.6449L118.772 19.3359C118.772 19.3359 117.338 19.9611 117.047 20.1209Z" fill="white"/>
</g>
<path d="M89.1204 93.1094C89.9672 93.6859 91.7113 94.8043 93.1078 95.6865C93.9736 96.2353 94.7951 97.0133 95.0542 98.0692C95.1806 98.5902 95.149 99.1876 94.852 99.6183C94.4412 100.209 93.6577 100.313 92.9878 100.188C92.318 100.063 89.2973 98.2915 87.9766 97.2217L89.1204 93.1094Z" fill="#455A64"/>
<path d="M97.1855 91.7438C96.9959 91.6882 89.9435 86.9924 88.844 87.1035C87.7444 87.2146 82.1771 89.5834 81.937 90.5837C81.6969 91.584 82.9418 93.9042 82.9418 93.9042H83.1819C83.1819 93.9042 82.2214 94.9045 82.9418 95.9603C83.6622 97.0162 84.4963 97.7525 84.4963 97.7525C84.4963 97.7525 83.0871 99.1766 84.2878 100.385C85.4884 101.594 87.6433 100.177 87.6433 100.177C87.6433 100.177 89.2231 101.219 90.0889 100.698C90.9546 100.177 90.3543 99.3919 90.3543 99.3919L88.7998 98.0165C88.7998 98.0165 88.37 98.2944 88.9451 96.6828C89.5202 95.0712 90.0952 95.0365 91.2706 95.0503C92.446 95.0642 94.2154 96.1201 94.5567 97.176C94.8916 98.2319 97.1918 99.8643 97.1918 99.8643V91.7438H97.1855Z" fill="#BBD0E0"/>
<path d="M127.005 48.5746C127.005 48.5746 123.732 62.8914 123.599 69.2892C123.403 78.924 125.135 108.759 123.789 109.378C120.414 110.927 120.414 112.379 120.414 112.379C120.414 112.379 124.016 115.275 132.629 120.742C141.249 126.209 146.879 140.859 147.878 140.727C148.87 140.595 161.11 138.504 164.883 128.647C167.316 122.291 165.401 112.552 165.401 112.552C165.401 112.552 157.951 58.7513 156.232 53.1941C155.088 49.4846 152.314 46.6435 144.168 44.5665C136.421 42.5937 131.587 44.0316 127.005 48.5746Z" fill="#275E8E"/>
<g opacity="0.3">
<path d="M147.766 80.2422C147.766 80.2422 143.229 100.582 142.123 102.311C141.023 104.041 162.995 112.273 162.667 112.544C162.338 112.814 145.371 107.778 142.123 106.104L140.473 105C140.473 105 138.723 108.556 133.693 110.265C128.662 111.974 119.266 107.695 119.266 107.695L147.766 80.2422Z" fill="black"/>
</g>
<path d="M143.704 97.3062C143.691 97.327 143.969 97.5632 144.493 97.98C145.012 98.3968 145.776 98.9733 146.73 99.6749C148.639 101.078 151.325 102.933 154.377 104.815C157.429 106.698 160.273 108.254 162.352 109.317C163.395 109.845 164.241 110.261 164.835 110.532C165.429 110.803 165.758 110.942 165.771 110.921C165.777 110.901 165.467 110.713 164.892 110.407C164.267 110.067 163.445 109.622 162.459 109.094C160.405 107.976 157.593 106.392 154.541 104.51C151.495 102.627 148.797 100.814 146.863 99.4665C145.934 98.8205 145.163 98.2787 144.576 97.8688C144.026 97.4868 143.722 97.2853 143.704 97.3062Z" fill="#1D1644"/>
<path d="M155.147 50.5032C157.213 50.6213 159.337 50.5309 161.251 49.6696C163.166 48.8152 164.847 47.0716 165.283 44.8487C165.618 43.1398 165.188 41.3198 164.367 39.8194C163.545 38.3189 162.364 37.1033 161.112 36.0127C158.496 33.7273 155.539 31.9281 152.392 30.7055C150.97 30.1498 149.409 29.7191 147.962 30.1776C146.944 30.5041 146.091 31.2335 145.257 31.9559C141.838 34.9082 138.42 37.8674 135.001 40.8197C131.702 43.6747 128.233 46.7798 126.938 51.177L127.569 55.8242L136.271 49.9961L155.147 50.5032Z" fill="#275E8E"/>
<path d="M147.69 79.9202C147.76 79.9897 149.175 78.3503 150.856 76.2663C152.537 74.1824 153.845 72.4388 153.776 72.3693C153.706 72.2999 152.291 73.9392 150.61 76.0232C148.929 78.1072 147.621 79.8507 147.69 79.9202Z" fill="#1D1644"/>
<path d="M143.281 43.8192C143.269 43.8748 144.128 44.104 145.487 44.5347C146.845 44.9723 148.722 45.6184 150.631 46.7229C151.579 47.2855 152.425 47.9177 153.146 48.5637C153.854 49.2236 154.435 49.8974 154.858 50.5087C155.718 51.7383 156.059 52.6413 156.122 52.6066C156.141 52.5996 156.065 52.3704 155.901 51.9675C155.819 51.766 155.724 51.516 155.566 51.252C155.415 50.988 155.269 50.6615 155.042 50.3559C154.631 49.7099 154.056 49.0013 153.335 48.3067C152.609 47.6329 151.743 46.9729 150.782 46.4033C148.836 45.278 146.928 44.6667 145.544 44.2916C144.849 44.104 144.286 43.979 143.894 43.9026C143.503 43.8262 143.281 43.7984 143.281 43.8192Z" fill="#1D1644"/>
<g opacity="0.3">
<path d="M148.086 45.4292C150.235 45.714 152.326 46.3809 154.45 46.8463C156.573 47.3187 158.778 47.5896 160.895 47.0825C162.633 46.6657 164.308 45.6446 165.369 44.1094C165.35 44.3595 165.319 44.6095 165.275 44.8596C164.838 47.0825 163.158 48.8191 161.243 49.6805C159.328 50.5349 157.205 50.6252 155.138 50.5141H155.025C154.772 50.2084 154.532 49.8819 154.292 49.5763C152.674 47.534 150.475 46.0683 148.086 45.4292Z" fill="black"/>
</g>
<path d="M133.18 51.3456C133.224 51.4151 134.103 50.4287 135.916 49.609C136.814 49.1992 137.945 48.8657 139.228 48.7685C140.504 48.6712 141.932 48.8379 143.323 49.3937C144.707 49.9633 145.895 50.8524 146.811 51.8458C147.727 52.8322 148.397 53.895 148.833 54.8467C149.724 56.7639 149.813 58.1393 149.888 58.1185C149.901 58.1185 149.895 58.0352 149.882 57.8754C149.863 57.7156 149.851 57.4794 149.787 57.1807C149.686 56.5833 149.465 55.722 149.035 54.7355C148.612 53.7491 147.948 52.6377 147.02 51.6096C146.091 50.5815 144.865 49.6507 143.436 49.0602C141.996 48.4906 140.517 48.3239 139.203 48.442C137.882 48.5601 136.725 48.9282 135.822 49.3798C134.912 49.8313 134.236 50.3175 133.806 50.7066C133.585 50.8872 133.433 51.0608 133.326 51.172C133.224 51.2762 133.174 51.3387 133.18 51.3456Z" fill="#1D1644"/>
<path d="M150.336 69.9303C150.134 70.7153 143.353 97.3205 140.295 101.329C137.23 105.337 132.459 108.164 127.315 108.164C122.171 108.164 102.455 106.414 100.123 103.989C97.7973 101.565 92.7862 91.9022 98.0439 91.0756C103.302 90.2559 126.449 89.985 126.449 89.985C126.449 89.985 127.182 89.0402 127.309 89.0402C127.435 89.0402 126.203 87.4495 126.449 85.9421C127.018 82.4896 127.795 66.9572 129.141 61.8445C130.487 56.7319 134.532 48.917 141.022 50.4036C147.524 51.8902 152.03 63.3728 150.336 69.9303Z" fill="#275E8E"/>
<path d="M128.11 91.5623C128.097 91.5762 128.325 91.8193 128.773 92.2083C129.222 92.5973 129.886 93.1322 130.764 93.7088C131.642 94.2853 132.729 94.8966 133.987 95.4385C134.619 95.7094 135.289 95.9664 135.996 96.1817C136.357 96.2929 136.698 96.404 137.096 96.4874C137.292 96.5221 137.513 96.543 137.734 96.4735C137.943 96.404 138.189 96.2581 138.259 95.9317C138.309 95.5913 138.107 95.362 137.962 95.2162C137.804 95.0633 137.639 94.9522 137.481 94.8341C137.166 94.5979 136.843 94.3895 136.521 94.1881C135.883 93.7852 135.251 93.4309 134.638 93.1183C133.418 92.4862 132.281 92.0138 131.326 91.6248C130.372 91.2427 129.589 90.9649 129.045 90.7843C128.502 90.6037 128.198 90.5134 128.192 90.5342C128.186 90.555 128.476 90.687 129.007 90.9163C129.595 91.1663 130.347 91.4859 131.251 91.8679C132.192 92.2847 133.311 92.7779 134.518 93.424C135.118 93.7435 135.744 94.0978 136.369 94.5007C136.679 94.7021 137.001 94.9105 137.305 95.1398C137.462 95.2578 137.627 95.362 137.747 95.4871C137.88 95.6121 137.968 95.758 137.936 95.8622C137.924 95.9664 137.791 96.0845 137.639 96.1262C137.494 96.1748 137.317 96.1678 137.147 96.1331C136.799 96.0567 136.432 95.9386 136.085 95.8414C135.383 95.626 134.72 95.3829 134.094 95.1259C132.843 94.6118 131.762 94.0283 130.878 93.4865C129.993 92.9446 129.311 92.4445 128.843 92.0972C128.375 91.7429 128.123 91.5414 128.11 91.5623Z" fill="#1D1644"/>
<path d="M124.563 93.912C124.551 93.9259 124.69 94.2177 125.012 94.7039C125.328 95.1902 125.827 95.8779 126.529 96.6212C127.23 97.3714 128.14 98.1842 129.24 98.9413C129.789 99.3165 130.39 99.6707 131.028 99.9972C131.35 100.164 131.679 100.317 132.014 100.463C132.349 100.595 132.759 100.789 133.214 100.56C133.429 100.449 133.581 100.136 133.543 99.8861C133.518 99.636 133.423 99.4345 133.322 99.2539C133.094 98.8997 132.873 98.6218 132.646 98.3161C132.191 97.7257 131.736 97.1769 131.287 96.6629C130.383 95.6487 129.505 94.8081 128.74 94.1413C127.976 93.4744 127.331 92.9812 126.87 92.6547C126.415 92.3282 126.149 92.1685 126.137 92.1893C126.124 92.2101 126.364 92.4116 126.794 92.7728C127.224 93.134 127.849 93.655 128.589 94.3427C129.328 95.0304 130.181 95.8849 131.066 96.8991C131.508 97.4062 131.957 97.9549 132.399 98.5454C132.614 98.8371 132.861 99.1497 133.044 99.4484C133.227 99.761 133.303 100.122 133.056 100.247C132.816 100.386 132.45 100.275 132.134 100.129C131.799 99.9833 131.477 99.8374 131.161 99.6777C130.529 99.3581 129.941 99.0108 129.391 98.6565C128.304 97.9341 127.394 97.1561 126.68 96.4336C125.258 95.0027 124.614 93.8704 124.563 93.912Z" fill="#1D1644"/>
<path d="M129.148 61.8594C129.148 61.8594 129.097 62.0261 129.015 62.3526C128.927 62.6791 128.819 63.1723 128.699 63.8252C128.459 65.1242 128.181 67.0623 127.909 69.5561C127.631 72.0499 127.359 75.0995 127.056 78.6283C126.904 80.3927 126.753 82.2822 126.544 84.2689C126.487 84.769 126.431 85.2692 126.355 85.7693C126.254 86.2834 126.292 86.86 126.45 87.374C126.595 87.895 126.835 88.3813 127.088 88.8467L127.176 89.0134L127.195 89.0481C127.208 89.0412 127.151 88.9578 127.303 88.9022C127.208 88.9231 127.183 88.9578 127.151 88.9786C127.037 89.0759 126.955 89.1731 126.867 89.2704C126.69 89.4718 126.525 89.6803 126.355 89.8886L126.45 89.84C120.452 89.9164 113.558 90.0206 106.044 90.3263C104.168 90.4027 102.247 90.5069 100.3 90.6597C99.8136 90.7083 99.3207 90.7292 98.8278 90.7986C98.3412 90.8612 97.8357 90.8889 97.3365 91.0834C96.8436 91.2571 96.3696 91.5975 96.0599 92.0837C95.7503 92.57 95.6113 93.1605 95.5797 93.7301C95.5165 94.8832 95.7819 96.0085 96.1168 97.0783C96.4644 98.155 96.9131 99.1831 97.4186 100.19C97.9305 101.191 98.5055 102.163 99.1628 103.08C99.5103 103.532 99.8136 103.99 100.294 104.358C100.768 104.685 101.28 104.872 101.785 105.067C104.155 105.859 106.556 106.255 108.913 106.637C111.277 107.005 113.615 107.29 115.915 107.54C118.215 107.783 120.478 107.984 122.696 108.13C123.808 108.207 124.901 108.269 125.988 108.304C127.075 108.346 128.162 108.339 129.224 108.2C133.489 107.602 137.205 105.213 139.79 102.17C140.106 101.774 140.434 101.406 140.674 100.954C140.801 100.739 140.946 100.531 141.06 100.301L141.376 99.6277C141.818 98.7385 142.134 97.8216 142.494 96.9394C143.151 95.1541 143.739 93.4175 144.27 91.7503C146.381 85.0886 147.834 79.6008 148.845 75.8219C149.332 73.9325 149.711 72.4667 149.97 71.4525C150.09 70.9593 150.185 70.5842 150.248 70.3133C150.311 70.0563 150.33 69.9243 150.33 69.9243C150.33 69.9243 150.286 70.0493 150.216 70.3064C150.141 70.5773 150.04 70.9524 149.907 71.4386C149.635 72.4459 149.231 73.9116 148.719 75.7872C147.67 79.5591 146.185 85.0261 144.049 91.6739C143.512 93.3341 142.918 95.0569 142.26 96.8352C141.9 97.7104 141.578 98.6274 141.142 99.4957L140.826 100.163C140.719 100.378 140.58 100.579 140.453 100.788C140.219 101.218 139.897 101.587 139.587 101.969C137.034 104.956 133.369 107.29 129.186 107.873C128.143 108.012 127.081 108.012 125.995 107.97C124.914 107.929 123.814 107.866 122.708 107.79C120.497 107.637 118.234 107.436 115.94 107.192C113.647 106.942 111.315 106.658 108.958 106.289C106.607 105.907 104.206 105.504 101.886 104.733C101.393 104.546 100.894 104.358 100.471 104.067C100.079 103.775 99.7377 103.295 99.4155 102.865C98.7709 101.976 98.2085 101.01 97.6966 100.031C97.1974 99.0442 96.755 98.023 96.4138 96.9741C96.0852 95.9321 95.8324 94.8346 95.8956 93.7718C95.9272 93.2438 96.0536 92.7228 96.3191 92.306C96.5845 91.8892 96.9825 91.5975 97.4312 91.4308C97.8735 91.2571 98.3664 91.2293 98.853 91.1668C99.3396 91.0973 99.8262 91.0696 100.313 91.0209C102.259 90.8681 104.174 90.7639 106.051 90.6806C113.558 90.361 120.452 90.236 126.45 90.1387H126.506L126.544 90.0901C126.709 89.8817 126.873 89.6733 127.044 89.4788C127.126 89.3815 127.214 89.2843 127.303 89.2148C127.322 89.194 127.347 89.194 127.315 89.194C127.486 89.1384 127.429 89.0273 127.435 89.0064L127.423 88.9578L127.397 88.9022L127.303 88.7216C127.05 88.2632 126.822 87.7977 126.683 87.3045C126.538 86.8113 126.5 86.3181 126.595 85.8249C126.671 85.3109 126.728 84.8038 126.778 84.3036C126.98 82.31 127.119 80.4205 127.265 78.6561C127.549 75.1203 127.802 72.0708 128.055 69.577C128.307 67.0832 128.56 65.152 128.775 63.8461C128.882 63.1931 128.977 62.6999 129.053 62.3665C129.123 62.033 129.148 61.8594 129.148 61.8594Z" fill="#1D1644"/>
<g opacity="0.3">
<path d="M134.065 92.9123C135.197 93.3986 136.277 94.0794 137.263 94.8157C137.535 95.0171 137.769 95.2742 137.939 95.5798C138.002 95.6979 138.066 95.8507 138.009 95.9758C137.965 96.073 137.876 96.1216 137.781 96.1564C137.51 96.2536 137.225 96.3022 136.941 96.2953C135.582 96.2606 134.495 95.5173 133.364 94.8852C132.271 94.2739 131.121 93.7668 130.072 93.0652C129.219 92.5025 128.416 91.7939 127.841 90.9048C127.708 90.6964 127.898 90.4324 128.113 90.5158C130.027 91.3216 132.189 92.1065 134.065 92.9123Z" fill="black"/>
</g>
<g opacity="0.8">
<path d="M127.511 74.5234L147.619 80.0946L145.768 86.534L126.93 81.3936L127.511 74.5234Z" fill="white"/>
</g>
<g opacity="0.8">
<path d="M111.872 90.375L112.554 106.873C110.45 106.623 108.384 106.317 106.368 105.949L106.172 90.507L111.872 90.375Z" fill="white"/>
</g>
<path opacity="0.64" d="M219.673 111.183L243.752 94.5561C243.845 94.4977 243.952 94.6 243.899 94.7024L234.52 114.379C234.426 114.576 234.227 114.686 234.027 114.649L219.846 112.127C219.42 112.054 219.307 111.439 219.673 111.183Z" fill="url(#paint0_linear_3098_4508)"/>
<path opacity="0.64" d="M243.804 94.6277L221.827 118.055C221.468 118.435 221.82 119.086 222.299 118.918L234.192 114.772C234.312 114.728 234.412 114.64 234.465 114.516L243.911 94.7081C243.937 94.6423 243.857 94.5765 243.804 94.6277Z" fill="url(#paint1_linear_3098_4508)"/>
<path opacity="0.64" d="M240.534 89.1797C240.061 89.1797 239.882 89.8597 240.288 90.1376L244.598 93.0696C244.764 93.1866 244.984 93.172 245.137 93.0331L248.502 90.101C248.848 89.7939 248.655 89.1797 248.21 89.1797H240.534Z" fill="url(#paint2_linear_3098_4508)"/>
<path opacity="0.64" d="M243.571 94.1285L206.754 79.9214C206.295 79.7459 205.922 80.3601 206.248 80.755L233.913 114.163C234.132 114.426 234.525 114.375 234.678 114.053L243.831 94.8597C243.97 94.5818 243.844 94.2382 243.571 94.1285Z" fill="url(#paint3_linear_3098_4508)"/>
<defs>
<linearGradient id="paint0_linear_3098_4508" x1="219.456" y1="104.599" x2="243.915" y2="104.599" gradientUnits="userSpaceOnUse">
<stop stop-color="white"/>
<stop offset="0.9993" stop-color="#00BAD3"/>
</linearGradient>
<linearGradient id="paint1_linear_3098_4508" x1="221.682" y1="106.777" x2="243.914" y2="106.777" gradientUnits="userSpaceOnUse">
<stop stop-color="white"/>
<stop offset="0.9993" stop-color="#00BAD3"/>
</linearGradient>
<linearGradient id="paint2_linear_3098_4508" x1="240.065" y1="91.1625" x2="248.687" y2="91.1625" gradientUnits="userSpaceOnUse">
<stop stop-color="white"/>
<stop offset="0.9993" stop-color="#00BAD3"/>
</linearGradient>
<linearGradient id="paint3_linear_3098_4508" x1="206.131" y1="97.1104" x2="243.888" y2="97.1104" gradientUnits="userSpaceOnUse">
<stop stop-color="white"/>
<stop offset="0.9993" stop-color="#00BAD3"/>
</linearGradient>
</defs>
</svg>
