<svg width="194" height="66" viewBox="0 0 194 66" fill="none" xmlns="http://www.w3.org/2000/svg">
<g id="Group">
<path id="Vector" opacity="0.66" d="M24.0765 52.4847L66.8627 24.9629C67.0196 24.8665 67.2078 25.0433 67.1294 25.2039L50.4572 57.7867C50.2846 58.108 49.9396 58.2847 49.5789 58.2365L24.3745 54.0592C23.6217 53.9307 23.4178 52.9025 24.0765 52.4847Z" fill="url(#paint0_linear_2353_3498)"/>
<path id="Vector_2" opacity="0.66" d="M66.9412 25.0743L27.8878 63.8587C27.2604 64.4852 27.8878 65.5617 28.719 65.2886L49.8455 58.4282C50.0494 58.3639 50.2376 58.2033 50.3317 58.0105L67.1137 25.2028C67.1764 25.1064 67.0353 24.994 66.9412 25.0743Z" fill="url(#paint1_linear_2353_3498)"/>
<path id="Vector_3" d="M61.122 16.061C60.2751 16.061 59.9614 17.1856 60.6829 17.6355L68.3524 22.4876C68.6504 22.6804 69.0268 22.6482 69.3091 22.4233L75.3005 17.5712C75.9278 17.0732 75.5671 16.0449 74.7829 16.0449H61.122V16.061Z" fill="#004079"/>
<path id="Vector_4" opacity="0.64" d="M66.5328 24.256L1.11445 0.718719C0.298882 0.429524 -0.359862 1.44171 0.22045 2.10043L49.3744 57.4172C49.7665 57.851 50.4566 57.7706 50.7232 57.2404L66.9876 25.445C67.2229 24.9951 67.0033 24.4328 66.5328 24.256Z" fill="url(#paint2_linear_2353_3498)"/>
<g id="Group_2">
<path id="Vector_5" d="M93.2267 41.8011H100.112V45.2071H89.0391V23.8066H93.2267V41.8011Z" fill="#004079"/>
<path id="Vector_6" d="M103.05 25.4777C102.563 24.9957 102.312 24.4012 102.312 23.6782C102.312 22.9713 102.563 22.3608 103.05 21.8949C103.536 21.4129 104.148 21.1719 104.885 21.1719C105.622 21.1719 106.234 21.4129 106.72 21.8949C107.206 22.3769 107.457 22.9713 107.457 23.6782C107.457 24.4012 107.206 24.9957 106.72 25.4777C106.234 25.9597 105.622 26.2007 104.885 26.2007C104.163 26.2007 103.536 25.9597 103.05 25.4777ZM106.955 28.225V45.1912H102.767V28.225H106.955Z" fill="#004079"/>
<path id="Vector_7" d="M117.986 41.2384L122.173 28.2246H126.628L120.495 45.1908H115.414L109.312 28.2246H113.798L117.986 41.2384Z" fill="#004079"/>
<path id="Vector_8" d="M135.289 28.7399C136.152 28.2258 137.156 27.9688 138.269 27.9688V32.4674H137.156C135.838 32.4674 134.85 32.7887 134.176 33.4153C133.501 34.0419 133.172 35.1504 133.172 36.725V45.1759H128.984V28.2258H133.172V30.8607C133.721 29.961 134.427 29.2541 135.289 28.7399Z" fill="#004079"/>
<path id="Vector_9" d="M156.358 37.9932H144.25C144.344 39.2143 144.768 40.1782 145.505 40.8691C146.242 41.56 147.152 41.9134 148.234 41.9134C149.787 41.9134 150.9 41.2226 151.559 39.8569H156.076C155.59 41.4957 154.68 42.8292 153.331 43.8896C151.983 44.95 150.304 45.4641 148.344 45.4641C146.744 45.4641 145.317 45.0946 144.046 44.3716C142.776 43.6486 141.788 42.6203 141.082 41.2868C140.376 39.9533 140.016 38.427 140.016 36.6918C140.016 34.9406 140.361 33.3982 141.066 32.0647C141.757 30.7312 142.745 29.719 143.999 28.996C145.254 28.273 146.697 27.9196 148.344 27.9196C149.912 27.9196 151.324 28.273 152.579 28.9639C153.818 29.6547 154.79 30.6508 155.48 31.9201C156.17 33.1893 156.515 34.6675 156.515 36.3223C156.484 36.9489 156.453 37.5112 156.358 37.9932ZM152.155 35.1173C152.139 34.0087 151.747 33.1251 150.994 32.4664C150.242 31.8076 149.301 31.4702 148.218 31.4702C147.183 31.4702 146.305 31.7916 145.599 32.4342C144.893 33.0769 144.454 33.9766 144.297 35.1173H152.155ZM151.528 23.7423L144.642 26.9556V23.9029L151.528 20.2559V23.7423Z" fill="#004079"/>
<path id="Vector_10" d="M174.812 37.9936H162.703C162.798 39.2146 163.221 40.1786 163.958 40.8695C164.695 41.5603 165.605 41.9138 166.687 41.9138C168.24 41.9138 169.353 41.2229 170.012 39.8573H174.529C174.043 41.4961 173.133 42.8296 171.785 43.89C170.436 44.9503 168.758 45.4645 166.797 45.4645C165.197 45.4645 163.77 45.0949 162.5 44.372C161.229 43.649 160.241 42.6207 159.535 41.2872C158.829 39.9537 158.469 38.4274 158.469 36.6922C158.469 34.941 158.814 33.3986 159.52 32.0651C160.21 30.7316 161.198 29.7194 162.453 28.9964C163.707 28.2734 165.15 27.9199 166.797 27.9199C168.365 27.9199 169.777 28.2734 171.032 28.9642C172.271 29.6551 173.243 30.6512 173.933 31.9205C174.623 33.1897 174.968 34.6678 174.968 36.3227C174.937 36.9493 174.89 37.5116 174.812 37.9936ZM170.593 35.1177C170.577 34.0091 170.185 33.1254 169.432 32.4667C168.679 31.808 167.738 31.4706 166.656 31.4706C165.621 31.4706 164.742 31.7919 164.037 32.4346C163.331 33.0772 162.892 33.977 162.735 35.1177H170.593Z" fill="#004079"/>
<path id="Vector_11" d="M181.047 44.3856C179.776 43.6626 178.773 42.6344 178.035 41.3009C177.314 39.9674 176.938 38.441 176.938 36.7059C176.938 34.9707 177.314 33.4444 178.067 32.1109C178.82 30.7774 179.839 29.7491 181.125 29.0261C182.427 28.3031 183.87 27.9336 185.47 27.9336C187.069 27.9336 188.512 28.3031 189.798 29.0261C191.1 29.7491 192.12 30.7774 192.873 32.1109C193.625 33.4444 194.002 34.9707 194.002 36.7059C194.002 38.441 193.625 39.9674 192.857 41.3009C192.088 42.6344 191.053 43.6626 189.751 44.3856C188.45 45.1086 186.991 45.4781 185.376 45.4781C183.76 45.4781 182.317 45.1086 181.047 44.3856ZM187.493 41.1723C188.167 40.8028 188.701 40.2244 189.093 39.4693C189.485 38.7142 189.689 37.7984 189.689 36.7059C189.689 35.0992 189.281 33.846 188.45 32.9785C187.618 32.1109 186.615 31.6771 185.407 31.6771C184.215 31.6771 183.211 32.1109 182.396 32.9785C181.596 33.846 181.188 35.0832 181.188 36.7059C181.188 38.3125 181.58 39.5657 182.364 40.4333C183.148 41.3009 184.152 41.7347 185.344 41.7347C186.113 41.7347 186.818 41.5419 187.493 41.1723Z" fill="#004079"/>
</g>
<g id="Group_3">
<g id="Group_4">
<path id="Vector_12" d="M90.3137 55.887H92.1331V56.1601H89.9844V51.1152H90.2981V55.887H90.3137Z" fill="#004079"/>
<path id="Vector_13" d="M92.9072 53.1408C93.064 52.8356 93.2836 52.6106 93.5659 52.45C93.8482 52.2893 94.1619 52.209 94.5069 52.209C94.9147 52.209 95.2441 52.3054 95.5264 52.5143C95.8087 52.707 95.9969 52.9641 96.1224 53.2854V52.2733H96.4361V56.1613H96.1224V55.1331C96.0126 55.4544 95.8087 55.7115 95.5264 55.9043C95.2441 56.1131 94.899 56.2095 94.5069 56.2095C94.1462 56.2095 93.8325 56.1292 93.5659 55.9685C93.2836 55.8079 93.064 55.5669 92.9072 55.2616C92.7503 54.9563 92.6719 54.6029 92.6719 54.2012C92.6719 53.7996 92.7503 53.4461 92.9072 53.1408ZM95.9028 53.3015C95.7616 53.0444 95.5734 52.8356 95.3382 52.691C95.1029 52.5464 94.8363 52.4821 94.5383 52.4821C94.2246 52.4821 93.958 52.5464 93.7227 52.691C93.4874 52.8356 93.3149 53.0284 93.1738 53.2854C93.0483 53.5425 92.9699 53.8478 92.9699 54.2012C92.9699 54.5547 93.0326 54.8599 93.1738 55.117C93.2992 55.3741 93.4874 55.5669 93.7227 55.7115C93.958 55.8561 94.2246 55.9203 94.5226 55.9203C94.8206 55.9203 95.0872 55.8561 95.3225 55.7115C95.5578 55.5669 95.746 55.3741 95.8871 55.1009C96.0283 54.8278 96.091 54.5386 96.091 54.2012C96.1067 53.8638 96.0439 53.5586 95.9028 53.3015Z" fill="#004079"/>
<path id="Vector_14" d="M100.347 52.4027C100.582 52.2581 100.88 52.1777 101.256 52.1777V52.5151H101.147C100.77 52.5151 100.457 52.6276 100.221 52.8365C99.9704 53.0453 99.8449 53.4148 99.8449 53.8968V56.1461H99.5312V52.2581H99.8449V53.0614C99.9547 52.7722 100.112 52.5633 100.347 52.4027Z" fill="#004079"/>
<path id="Vector_15" d="M105.42 54.3282H102.126C102.142 54.6817 102.205 54.9709 102.346 55.2119C102.487 55.4529 102.675 55.6296 102.895 55.7421C103.13 55.8546 103.381 55.9188 103.648 55.9188C104.024 55.9188 104.338 55.8224 104.589 55.6296C104.84 55.4368 104.997 55.1798 105.059 54.8584H105.389C105.31 55.2601 105.122 55.5814 104.808 55.8224C104.495 56.0634 104.103 56.1919 103.632 56.1919C103.271 56.1919 102.958 56.1116 102.675 55.951C102.393 55.7903 102.173 55.5493 102.017 55.244C101.86 54.9388 101.781 54.5853 101.781 54.1836C101.781 53.782 101.86 53.4285 102.017 53.1233C102.173 52.818 102.393 52.5931 102.675 52.4324C102.958 52.2717 103.271 52.1914 103.632 52.1914C103.993 52.1914 104.306 52.2717 104.589 52.4324C104.871 52.5931 105.059 52.8019 105.2 53.0751C105.342 53.3482 105.404 53.6213 105.404 53.9266C105.42 54.1194 105.42 54.2479 105.42 54.3282ZM104.934 53.1875C104.793 52.9465 104.62 52.7698 104.385 52.6573C104.15 52.5449 103.914 52.4806 103.648 52.4806C103.381 52.4806 103.13 52.5449 102.911 52.6573C102.691 52.7698 102.503 52.9465 102.362 53.1875C102.22 53.4285 102.142 53.7177 102.126 54.0712H105.106C105.122 53.7177 105.059 53.4285 104.934 53.1875Z" fill="#004079"/>
<path id="Vector_16" d="M109.198 52.6115C109.48 52.9007 109.622 53.3185 109.622 53.8808V56.1622H109.308V53.8968C109.308 53.4309 109.198 53.0775 108.963 52.8365C108.728 52.5955 108.43 52.4669 108.038 52.4669C107.63 52.4669 107.3 52.5955 107.049 52.8686C106.798 53.1417 106.689 53.5434 106.689 54.0575V56.1622H106.375V52.2741H106.689V53.0935C106.798 52.8043 106.971 52.5794 107.222 52.4187C107.473 52.2581 107.755 52.1777 108.085 52.1777C108.539 52.1777 108.916 52.3223 109.198 52.6115Z" fill="#004079"/>
<path id="Vector_17" d="M111.206 52.5466V55.1172C111.206 55.4064 111.254 55.5992 111.363 55.7117C111.457 55.8241 111.646 55.8723 111.912 55.8723H112.336V56.1615H111.865C111.536 56.1615 111.285 56.0812 111.128 55.9205C110.971 55.7599 110.893 55.4867 110.893 55.1172V52.5466H110.312V52.2735H110.893V51.2773H111.206V52.2735H112.336V52.5466H111.206Z" fill="#004079"/>
<path id="Vector_18" d="M113.98 52.4027C114.215 52.2581 114.513 52.1777 114.889 52.1777V52.5151H114.78C114.403 52.5151 114.089 52.6276 113.854 52.8365C113.603 53.0453 113.478 53.4148 113.478 53.8968V56.1461H113.164V52.2581H113.478V53.0614C113.572 52.7722 113.744 52.5633 113.98 52.4027Z" fill="#004079"/>
<path id="Vector_19" d="M119.029 54.3298H115.736C115.751 54.6833 115.814 54.9725 115.955 55.2134C116.096 55.4544 116.285 55.6312 116.504 55.7436C116.739 55.8561 116.99 55.9204 117.257 55.9204C117.633 55.9204 117.947 55.824 118.198 55.6312C118.449 55.4384 118.606 55.1813 118.669 54.86H118.998C118.92 55.2616 118.731 55.583 118.418 55.824C118.104 56.065 117.712 56.1935 117.241 56.1935C116.881 56.1935 116.567 56.1132 116.285 55.9525C116.002 55.7918 115.783 55.5508 115.626 55.2456C115.469 54.9403 115.391 54.5869 115.391 54.1852C115.391 53.7835 115.469 53.4301 115.626 53.1248C115.783 52.8195 116.002 52.5946 116.285 52.434C116.567 52.2733 116.881 52.193 117.241 52.193C117.602 52.193 117.916 52.2733 118.198 52.434C118.48 52.5946 118.669 52.8035 118.81 53.0766C118.951 53.3497 119.014 53.6229 119.014 53.9281C119.045 54.1209 119.045 54.2495 119.029 54.3298ZM118.559 53.1891C118.418 52.9481 118.245 52.7714 118.01 52.6589C117.775 52.5464 117.539 52.4822 117.273 52.4822C117.006 52.4822 116.755 52.5464 116.536 52.6589C116.316 52.7714 116.128 52.9481 115.987 53.1891C115.845 53.4301 115.767 53.7193 115.751 54.0727H118.731C118.747 53.7193 118.684 53.4301 118.559 53.1891ZM117.837 51.0522L116.457 51.9359V51.6628L117.837 50.7148V51.0522Z" fill="#004079"/>
<path id="Vector_20" d="M123.404 54.3282H120.111C120.126 54.6817 120.189 54.9709 120.33 55.2119C120.471 55.4529 120.66 55.6296 120.879 55.7421C121.114 55.8546 121.365 55.9188 121.632 55.9188C122.008 55.9188 122.322 55.8224 122.573 55.6296C122.824 55.4368 122.981 55.1798 123.044 54.8584H123.373C123.295 55.2601 123.106 55.5814 122.793 55.8224C122.479 56.0634 122.087 56.1919 121.616 56.1919C121.256 56.1919 120.942 56.1116 120.66 55.951C120.377 55.7903 120.158 55.5493 120.001 55.244C119.844 54.9388 119.766 54.5853 119.766 54.1836C119.766 53.782 119.844 53.4285 120.001 53.1233C120.158 52.818 120.377 52.5931 120.66 52.4324C120.942 52.2717 121.256 52.1914 121.616 52.1914C121.977 52.1914 122.291 52.2717 122.573 52.4324C122.855 52.5931 123.044 52.8019 123.185 53.0751C123.326 53.3482 123.389 53.6213 123.389 53.9266C123.42 54.1194 123.42 54.2479 123.404 54.3282ZM122.934 53.1875C122.793 52.9465 122.62 52.7698 122.385 52.6573C122.15 52.5449 121.914 52.4806 121.648 52.4806C121.381 52.4806 121.13 52.5449 120.911 52.6573C120.691 52.7698 120.503 52.9465 120.362 53.1875C120.22 53.4285 120.142 53.7177 120.126 54.0712H123.106C123.122 53.7177 123.059 53.4285 122.934 53.1875Z" fill="#004079"/>
<path id="Vector_21" d="M129.183 52.6115C129.465 52.9007 129.606 53.3185 129.606 53.8808V56.1622H129.292V53.8968C129.292 53.4309 129.183 53.0775 128.947 52.8365C128.712 52.5955 128.414 52.4669 128.022 52.4669C127.614 52.4669 127.285 52.5955 127.034 52.8686C126.783 53.1417 126.673 53.5434 126.673 54.0575V56.1622H126.359V52.2741H126.673V53.0935C126.783 52.8043 126.955 52.5794 127.206 52.4187C127.457 52.2581 127.74 52.1777 128.069 52.1777C128.524 52.1777 128.9 52.3223 129.183 52.6115Z" fill="#004079"/>
<path id="Vector_22" d="M131.441 55.9685C131.159 55.8079 130.939 55.5669 130.767 55.2616C130.61 54.9563 130.531 54.6029 130.531 54.2012C130.531 53.7996 130.61 53.4461 130.782 53.1408C130.939 52.8356 131.174 52.6106 131.457 52.45C131.739 52.2893 132.068 52.209 132.413 52.209C132.774 52.209 133.088 52.2893 133.37 52.45C133.652 52.6106 133.872 52.8356 134.044 53.1408C134.217 53.4461 134.28 53.7996 134.28 54.2012C134.28 54.6029 134.201 54.9563 134.029 55.2616C133.872 55.5669 133.637 55.7918 133.354 55.9685C133.072 56.1292 132.743 56.2095 132.398 56.2095C132.037 56.2095 131.723 56.1292 131.441 55.9685ZM133.166 55.7436C133.401 55.6151 133.605 55.4223 133.747 55.1652C133.888 54.9081 133.966 54.5868 133.966 54.2173C133.966 53.8478 133.888 53.5264 133.747 53.2694C133.605 53.0123 133.417 52.8195 133.166 52.691C132.931 52.5624 132.664 52.4982 132.398 52.4982C132.131 52.4982 131.864 52.5624 131.629 52.691C131.394 52.8195 131.206 53.0123 131.065 53.2694C130.923 53.5264 130.845 53.8478 130.845 54.2173C130.845 54.5868 130.923 54.9081 131.065 55.1652C131.206 55.4223 131.394 55.6151 131.629 55.7436C131.864 55.8721 132.115 55.9364 132.398 55.9364C132.664 55.9203 132.931 55.8561 133.166 55.7436Z" fill="#004079"/>
<path id="Vector_23" d="M138.45 52.2563V56.1444H138.136V55.2929C138.026 55.5821 137.854 55.823 137.603 55.9676C137.352 56.1283 137.07 56.2086 136.74 56.2086C136.285 56.2086 135.925 56.064 135.627 55.7749C135.344 55.4857 135.188 55.0679 135.188 54.5056V52.2402H135.501V54.4895C135.501 54.9555 135.611 55.3089 135.846 55.5499C136.082 55.7909 136.38 55.9194 136.772 55.9194C137.179 55.9194 137.509 55.7909 137.76 55.5178C138.011 55.2447 138.12 54.8591 138.12 54.3289V52.2402H138.45V52.2563Z" fill="#004079"/>
<path id="Vector_24" d="M140.889 55.8065L142.285 52.2559H142.615L141.046 56.1439H140.717L139.148 52.2559H139.493L140.889 55.8065Z" fill="#004079"/>
<path id="Vector_25" d="M146.732 54.3282H143.439C143.454 54.6817 143.517 54.9709 143.658 55.2119C143.8 55.4529 143.988 55.6296 144.207 55.7421C144.443 55.8546 144.694 55.9188 144.96 55.9188C145.337 55.9188 145.65 55.8224 145.901 55.6296C146.152 55.4368 146.309 55.1798 146.372 54.8584H146.701C146.623 55.2601 146.434 55.5814 146.121 55.8224C145.807 56.0634 145.415 56.1919 144.944 56.1919C144.584 56.1919 144.27 56.1116 143.988 55.951C143.705 55.7903 143.486 55.5493 143.329 55.244C143.172 54.9388 143.094 54.5853 143.094 54.1836C143.094 53.782 143.172 53.4285 143.329 53.1233C143.486 52.818 143.705 52.5931 143.988 52.4324C144.27 52.2717 144.584 52.1914 144.944 52.1914C145.305 52.1914 145.619 52.2717 145.901 52.4324C146.184 52.5931 146.372 52.8019 146.513 53.0751C146.654 53.3482 146.717 53.6213 146.717 53.9266C146.748 54.1194 146.748 54.2479 146.732 54.3282ZM146.246 53.1875C146.105 52.9465 145.933 52.7698 145.697 52.6573C145.462 52.5449 145.227 52.4806 144.96 52.4806C144.694 52.4806 144.443 52.5449 144.223 52.6573C144.003 52.7698 143.815 52.9465 143.674 53.1875C143.533 53.4285 143.454 53.7177 143.439 54.0712H146.419C146.45 53.7177 146.387 53.4285 146.246 53.1875Z" fill="#004079"/>
<path id="Vector_26" d="M148.017 50.8418V56.1437H147.703V50.8418H148.017Z" fill="#004079"/>
<path id="Vector_27" d="M149.47 50.8418V56.1437H149.156V50.8418H149.47Z" fill="#004079"/>
<path id="Vector_28" d="M154.061 54.3282H150.767C150.783 54.6817 150.845 54.9709 150.987 55.2119C151.128 55.4529 151.316 55.6296 151.535 55.7421C151.771 55.8546 152.022 55.9188 152.288 55.9188C152.665 55.9188 152.978 55.8224 153.229 55.6296C153.48 55.4368 153.637 55.1798 153.7 54.8584H154.029C153.951 55.2601 153.763 55.5814 153.449 55.8224C153.135 56.0634 152.743 56.1919 152.273 56.1919C151.912 56.1919 151.598 56.1116 151.316 55.951C151.034 55.7903 150.814 55.5493 150.657 55.244C150.5 54.9388 150.422 54.5853 150.422 54.1836C150.422 53.782 150.5 53.4285 150.657 53.1233C150.814 52.818 151.034 52.5931 151.316 52.4324C151.598 52.2717 151.912 52.1914 152.273 52.1914C152.633 52.1914 152.947 52.2717 153.229 52.4324C153.496 52.5931 153.7 52.8019 153.841 53.0751C153.982 53.3482 154.045 53.6213 154.045 53.9266C154.061 54.1194 154.061 54.2479 154.061 54.3282ZM153.574 53.1875C153.433 52.9465 153.261 52.7698 153.025 52.6573C152.79 52.5449 152.555 52.4806 152.288 52.4806C152.022 52.4806 151.771 52.5449 151.551 52.6573C151.332 52.7698 151.143 52.9465 151.002 53.1875C150.861 53.4285 150.783 53.7177 150.767 54.0712H153.747C153.763 53.7177 153.7 53.4285 153.574 53.1875Z" fill="#004079"/>
<path id="Vector_29" d="M159.651 52.5155C159.934 52.7083 160.122 52.9654 160.247 53.2867V52.2745H160.561V56.2911C160.561 56.6446 160.483 56.9659 160.326 57.2391C160.169 57.5122 159.965 57.721 159.699 57.8656C159.432 58.0102 159.15 58.0906 158.82 58.0906C158.35 58.0906 157.958 57.9781 157.644 57.7371C157.33 57.4961 157.126 57.1909 157.032 56.7892H157.346C157.44 57.0945 157.613 57.3515 157.863 57.5283C158.114 57.705 158.444 57.8014 158.82 57.8014C159.087 57.8014 159.322 57.7371 159.542 57.6247C159.761 57.4961 159.918 57.3355 160.044 57.0945C160.169 56.8695 160.232 56.5964 160.232 56.2911V55.1504C160.122 55.4557 159.918 55.7127 159.636 55.9216C159.353 56.1305 159.008 56.2269 158.616 56.2269C158.256 56.2269 157.942 56.1465 157.675 55.9859C157.393 55.8252 157.173 55.5842 157.017 55.2789C156.86 54.9737 156.781 54.6202 156.781 54.2186C156.781 53.8169 156.86 53.4634 157.017 53.1582C157.173 52.8529 157.393 52.628 157.675 52.4673C157.958 52.3067 158.271 52.2263 158.616 52.2263C159.024 52.2103 159.369 52.3067 159.651 52.5155ZM160.028 53.3028C159.887 53.0457 159.699 52.8369 159.463 52.6923C159.228 52.5477 158.961 52.4834 158.663 52.4834C158.35 52.4834 158.083 52.5477 157.848 52.6923C157.613 52.8369 157.44 53.0297 157.299 53.2867C157.173 53.5438 157.095 53.849 157.095 54.2025C157.095 54.556 157.158 54.8612 157.299 55.1183C157.424 55.3754 157.613 55.5681 157.848 55.7127C158.083 55.8573 158.35 55.9216 158.648 55.9216C158.946 55.9216 159.212 55.8573 159.448 55.7127C159.683 55.5681 159.871 55.3753 160.012 55.1022C160.153 54.8452 160.216 54.5399 160.216 54.2025C160.232 53.8651 160.169 53.5598 160.028 53.3028Z" fill="#004079"/>
<path id="Vector_30" d="M165.107 54.3298H161.814C161.829 54.6833 161.892 54.9725 162.033 55.2134C162.175 55.4544 162.363 55.6312 162.582 55.7436C162.818 55.8561 163.069 55.9204 163.335 55.9204C163.712 55.9204 164.025 55.824 164.276 55.6312C164.527 55.4384 164.684 55.1813 164.747 54.86H165.076C164.998 55.2616 164.809 55.583 164.496 55.824C164.182 56.065 163.79 56.1935 163.319 56.1935C162.959 56.1935 162.645 56.1132 162.363 55.9525C162.08 55.7918 161.861 55.5508 161.704 55.2456C161.547 54.9403 161.469 54.5869 161.469 54.1852C161.469 53.7835 161.547 53.4301 161.704 53.1248C161.861 52.8195 162.08 52.5946 162.363 52.434C162.645 52.2733 162.959 52.193 163.319 52.193C163.68 52.193 163.994 52.2733 164.276 52.434C164.543 52.5946 164.747 52.8035 164.888 53.0766C165.029 53.3497 165.092 53.6229 165.092 53.9281C165.123 54.1209 165.123 54.2495 165.107 54.3298ZM164.637 53.1891C164.496 52.9481 164.323 52.7714 164.088 52.6589C163.853 52.5464 163.617 52.4822 163.351 52.4822C163.084 52.4822 162.833 52.5464 162.614 52.6589C162.394 52.7714 162.206 52.9481 162.065 53.1891C161.924 53.4301 161.845 53.7193 161.829 54.0727H164.809C164.825 53.7193 164.762 53.4301 164.637 53.1891ZM163.915 51.0522L162.535 51.9359V51.6628L163.915 50.7148V51.0522Z" fill="#004079"/>
<path id="Vector_31" d="M168.901 52.6115C169.184 52.9007 169.325 53.3185 169.325 53.8808V56.1622H169.011V53.8968C169.011 53.4309 168.901 53.0775 168.666 52.8365C168.431 52.5955 168.133 52.4669 167.741 52.4669C167.333 52.4669 167.003 52.5955 166.753 52.8686C166.502 53.1417 166.392 53.5434 166.392 54.0575V56.1622H166.078V52.2741H166.392V53.0935C166.502 52.8043 166.674 52.5794 166.925 52.4187C167.176 52.2581 167.458 52.1777 167.788 52.1777C168.243 52.1777 168.619 52.3223 168.901 52.6115Z" fill="#004079"/>
<path id="Vector_32" d="M173.85 54.3298H170.556C170.572 54.6833 170.634 54.9725 170.776 55.2134C170.917 55.4544 171.105 55.6312 171.324 55.7436C171.56 55.8561 171.811 55.9204 172.077 55.9204C172.454 55.9204 172.767 55.824 173.018 55.6312C173.269 55.4384 173.426 55.1813 173.489 54.86H173.818C173.74 55.2616 173.552 55.583 173.238 55.824C172.924 56.065 172.532 56.1935 172.062 56.1935C171.701 56.1935 171.387 56.1132 171.105 55.9525C170.823 55.7918 170.603 55.5508 170.446 55.2456C170.289 54.9403 170.211 54.5869 170.211 54.1852C170.211 53.7835 170.289 53.4301 170.446 53.1248C170.603 52.8195 170.823 52.5946 171.105 52.434C171.387 52.2733 171.701 52.193 172.062 52.193C172.422 52.193 172.736 52.2733 173.018 52.434C173.301 52.5946 173.489 52.8035 173.63 53.0766C173.771 53.3497 173.834 53.6229 173.834 53.9281C173.865 54.1209 173.865 54.2495 173.85 54.3298ZM173.379 53.1891C173.238 52.9481 173.065 52.7714 172.83 52.6589C172.595 52.5464 172.36 52.4822 172.093 52.4822C171.826 52.4822 171.575 52.5464 171.356 52.6589C171.136 52.7714 170.948 52.9481 170.807 53.1891C170.666 53.4301 170.587 53.7193 170.572 54.0727H173.552C173.567 53.7193 173.505 53.4301 173.379 53.1891ZM172.673 51.0522L171.293 51.9359V51.6628L172.673 50.7148V51.0522Z" fill="#004079"/>
<path id="Vector_33" d="M175.636 52.4027C175.871 52.2581 176.169 52.1777 176.546 52.1777V52.5151H176.436C176.059 52.5151 175.746 52.6276 175.51 52.8365C175.259 53.0453 175.134 53.4148 175.134 53.8968V56.1461H174.82V52.2581H175.134V53.0614C175.228 52.7722 175.401 52.5633 175.636 52.4027Z" fill="#004079"/>
<path id="Vector_34" d="M177.313 53.1408C177.47 52.8356 177.69 52.6106 177.972 52.45C178.254 52.2893 178.568 52.209 178.913 52.209C179.321 52.209 179.65 52.3054 179.933 52.5143C180.215 52.7231 180.403 52.9641 180.529 53.2854V52.2733H180.842V56.1613H180.529V55.1331C180.419 55.4544 180.215 55.7115 179.933 55.9043C179.65 56.1131 179.305 56.2095 178.913 56.2095C178.552 56.2095 178.239 56.1292 177.972 55.9685C177.69 55.8079 177.47 55.5669 177.313 55.2616C177.157 54.9563 177.078 54.6029 177.078 54.2012C177.078 53.7996 177.157 53.4461 177.313 53.1408ZM180.309 53.3015C180.168 53.0444 179.98 52.8356 179.744 52.691C179.509 52.5464 179.243 52.4821 178.945 52.4821C178.631 52.4821 178.364 52.5464 178.129 52.691C177.894 52.8356 177.721 53.0284 177.58 53.2854C177.455 53.5425 177.376 53.8478 177.376 54.2012C177.376 54.5547 177.439 54.8599 177.58 55.117C177.706 55.3741 177.894 55.5669 178.129 55.7115C178.364 55.8561 178.631 55.9203 178.929 55.9203C179.227 55.9203 179.493 55.8561 179.729 55.7115C179.964 55.5669 180.152 55.3741 180.293 55.1009C180.435 54.8439 180.497 54.5386 180.497 54.2012C180.529 53.8638 180.45 53.5586 180.309 53.3015Z" fill="#004079"/>
<path id="Vector_35" d="M182.457 52.5466V55.1172C182.457 55.4064 182.504 55.5992 182.613 55.7117C182.707 55.8241 182.896 55.8723 183.162 55.8723H183.586V56.1615H183.115C182.786 56.1615 182.535 56.0812 182.378 55.9205C182.221 55.7599 182.143 55.4867 182.143 55.1172V52.5466H181.562V52.2735H182.143V51.2773H182.457V52.2735H183.586V52.5466H182.457Z" fill="#004079"/>
<path id="Vector_36" d="M184.383 51.3101C184.336 51.2619 184.305 51.1977 184.305 51.1013C184.305 51.0209 184.336 50.9567 184.383 50.9085C184.43 50.8603 184.493 50.8281 184.571 50.8281C184.65 50.8281 184.712 50.8603 184.76 50.9085C184.807 50.9567 184.838 51.0209 184.838 51.1013C184.838 51.1816 184.807 51.2619 184.76 51.3101C184.712 51.3583 184.65 51.3905 184.571 51.3905C184.493 51.3905 184.43 51.3744 184.383 51.3101ZM184.728 52.258V56.1461H184.414V52.258H184.728Z" fill="#004079"/>
<path id="Vector_37" d="M186.597 55.9685C186.315 55.8079 186.095 55.5669 185.923 55.2616C185.766 54.9563 185.688 54.6029 185.688 54.2012C185.688 53.7996 185.766 53.4461 185.938 53.1408C186.111 52.8356 186.331 52.6106 186.613 52.45C186.895 52.2893 187.225 52.209 187.57 52.209C187.93 52.209 188.244 52.2893 188.526 52.45C188.809 52.6106 189.028 52.8356 189.201 53.1408C189.358 53.4461 189.436 53.7996 189.436 54.2012C189.436 54.6029 189.358 54.9563 189.185 55.2616C189.028 55.5669 188.793 55.7918 188.511 55.9685C188.228 56.1292 187.899 56.2095 187.554 56.2095C187.209 56.2095 186.879 56.1292 186.597 55.9685ZM188.338 55.7436C188.573 55.6151 188.777 55.4223 188.918 55.1652C189.06 54.9081 189.138 54.5868 189.138 54.2173C189.138 53.8478 189.06 53.5264 188.918 53.2694C188.777 53.0123 188.589 52.8195 188.338 52.691C188.103 52.5624 187.836 52.4982 187.57 52.4982C187.303 52.4982 187.036 52.5624 186.801 52.691C186.566 52.8195 186.378 53.0123 186.236 53.2694C186.095 53.5264 186.017 53.8478 186.017 54.2173C186.017 54.5868 186.095 54.9081 186.236 55.1652C186.378 55.4223 186.566 55.6151 186.801 55.7436C187.036 55.8721 187.287 55.9364 187.57 55.9364C187.836 55.9203 188.087 55.8561 188.338 55.7436Z" fill="#004079"/>
<path id="Vector_38" d="M193.229 52.6115C193.512 52.9007 193.653 53.3185 193.653 53.8808V56.1622H193.339V53.8968C193.339 53.4309 193.229 53.0775 192.994 52.8365C192.759 52.5955 192.461 52.4669 192.069 52.4669C191.661 52.4669 191.332 52.5955 191.081 52.8686C190.83 53.1417 190.72 53.5434 190.72 54.0575V56.1622H190.406V52.2741H190.72V53.0935C190.83 52.8043 191.002 52.5794 191.253 52.4187C191.504 52.2581 191.786 52.1777 192.116 52.1777C192.571 52.1777 192.947 52.3223 193.229 52.6115Z" fill="#004079"/>
</g>
</g>
</g>
<defs>
<linearGradient id="paint0_linear_2353_3498" x1="23.6788" y1="41.5867" x2="67.1435" y2="41.5867" gradientUnits="userSpaceOnUse">
<stop stop-color="#00B8D0"/>
<stop offset="0.19" stop-color="#009CBB"/>
<stop offset="0.5559" stop-color="#006A98"/>
<stop offset="0.8341" stop-color="#004C81"/>
<stop offset="0.99" stop-color="#004079"/>
<stop offset="1" stop-color="#004079"/>
</linearGradient>
<linearGradient id="paint1_linear_2353_3498" x1="27.6259" y1="45.1948" x2="67.1311" y2="45.1948" gradientUnits="userSpaceOnUse">
<stop stop-color="#00B8D0"/>
<stop offset="0.19" stop-color="#009CBB"/>
<stop offset="0.5559" stop-color="#006A98"/>
<stop offset="0.8341" stop-color="#004C81"/>
<stop offset="0.99" stop-color="#004079"/>
<stop offset="1" stop-color="#004079"/>
</linearGradient>
<linearGradient id="paint2_linear_2353_3498" x1="-0.00979085" y1="29.1917" x2="67.086" y2="29.1917" gradientUnits="userSpaceOnUse">
<stop stop-color="#004079"/>
<stop offset="0.0881" stop-color="#004079"/>
<stop offset="0.2212" stop-color="#00487F"/>
<stop offset="0.4265" stop-color="#005E8E"/>
<stop offset="0.6784" stop-color="#0081A8"/>
<stop offset="0.965" stop-color="#00B2CB"/>
<stop offset="0.9993" stop-color="#00B8D0"/>
</linearGradient>
</defs>
</svg>
