<svg width="1537" height="1283" viewBox="0 0 1537 1283" fill="none" xmlns="http://www.w3.org/2000/svg">
<g opacity="0.64">
<path opacity="0.66" d="M489.366 1027.98L1358.99 481.782C1362.24 479.743 1366.08 483.304 1364.3 486.7L1025.58 1133.06C1022.19 1139.53 1015.05 1143.09 1007.85 1141.92L495.688 1059.08C480.243 1056.59 476.115 1036.3 489.366 1027.98Z" fill="url(#paint0_linear_2212_1702)"/>
<path opacity="0.66" d="M1360.65 484.192L566.888 1253.79C554.027 1266.25 566.751 1287.55 583.826 1282.14L1013.26 1145.99C1017.52 1144.64 1021.08 1141.66 1023.16 1137.7L1364.24 486.855C1365.42 484.582 1362.5 482.406 1360.65 484.192Z" fill="url(#paint1_linear_2212_1702)"/>
<path d="M1242.43 305.213C1225.35 305.213 1218.98 327.626 1233.52 336.603L1389.27 432.858C1395.35 436.595 1403.12 436.147 1408.72 431.727L1530.35 335.471C1542.95 325.499 1535.91 305.204 1519.83 305.204H1242.43V305.213Z" fill="url(#paint2_linear_2212_1702)"/>
<path opacity="0.64" d="M1352.25 467.887L22.6828 1.02915C6.05637 -4.79597 -7.34041 15.4309 4.51472 28.4569L1003.59 1125.96C1011.51 1134.67 1025.69 1132.85 1031.15 1122.42L1361.64 491.764C1366.45 482.601 1362.01 471.312 1352.25 467.887Z" fill="url(#paint3_linear_2212_1702)"/>
</g>
<defs>
<linearGradient id="paint0_linear_2212_1702" x1="481.415" y1="811.667" x2="1364.75" y2="811.667" gradientUnits="userSpaceOnUse">
<stop stop-color="#D9F4F3"/>
<stop offset="1" stop-color="#94D2FF"/>
</linearGradient>
<linearGradient id="paint1_linear_2212_1702" x1="561.632" y1="883.27" x2="1364.5" y2="883.27" gradientUnits="userSpaceOnUse">
<stop stop-color="#D9F4F3"/>
<stop offset="0.973958" stop-color="#94D2FF"/>
</linearGradient>
<linearGradient id="paint2_linear_2212_1702" x1="1225.44" y1="370.3" x2="1536.8" y2="370.3" gradientUnits="userSpaceOnUse">
<stop stop-color="#94D2FF"/>
<stop offset="1" stop-color="#D9F4F3"/>
</linearGradient>
<linearGradient id="paint3_linear_2212_1702" x1="0.00235468" y1="565.755" x2="1363.6" y2="565.755" gradientUnits="userSpaceOnUse">
<stop stop-color="#94D2FF"/>
<stop offset="1" stop-color="#D9F4F3"/>
</linearGradient>
</defs>
</svg>
