<svg width="267" height="272" viewBox="0 0 267 272" fill="none" xmlns="http://www.w3.org/2000/svg">
<g filter="url(#filter0_d_3105_3984)">
<path d="M147.496 59.5633C148.361 59.2135 148.668 57.9537 148.182 56.7494C147.695 55.545 146.599 54.8523 145.734 55.202C144.868 55.5518 144.561 56.8116 145.047 58.0159C145.534 59.2203 146.63 59.913 147.496 59.5633Z" fill="black"/>
<path d="M136.07 64.1883C136.935 63.8385 137.242 62.5787 136.756 61.3744C136.269 60.17 135.173 59.4773 134.308 59.827C133.442 60.1768 133.135 61.4366 133.622 62.6409C134.108 63.8453 135.204 64.538 136.07 64.1883Z" fill="black"/>
<path d="M142.041 52.0482C142.284 52.0448 142.515 51.9457 142.685 51.7727C143.106 51.3501 143.582 50.9855 144.1 50.6886C145.415 49.9107 146.926 49.522 148.454 49.5678C148.574 49.5726 148.694 49.5536 148.806 49.5117C148.918 49.4699 149.02 49.4059 149.108 49.3238C149.195 49.2417 149.265 49.1429 149.314 49.0333C149.362 48.9238 149.389 48.8056 149.391 48.6857C149.396 48.5636 149.376 48.4417 149.333 48.3272C149.29 48.2126 149.225 48.1078 149.141 48.0188C149.057 47.9298 148.957 47.8584 148.845 47.8089C148.733 47.7594 148.613 47.7326 148.491 47.7303C146.62 47.679 144.773 48.1566 143.163 49.1084C142.52 49.4872 141.928 49.9439 141.398 50.4681C141.266 50.5955 141.175 50.7596 141.137 50.9392C141.099 51.1189 141.116 51.3058 141.185 51.4758C141.254 51.6459 141.372 51.7914 141.525 51.8934C141.678 51.9954 141.858 52.0493 142.041 52.0482Z" fill="black"/>
<path d="M147.607 71.7078C147.531 71.6147 147.437 71.5378 147.331 71.4816C147.224 71.4255 147.107 71.3913 146.988 71.381C146.868 71.3707 146.747 71.3846 146.633 71.4218C146.518 71.459 146.412 71.5187 146.321 71.5975C145.531 72.2406 144.722 72.3142 144.447 72.1304C144.394 72.0778 144.351 72.0149 144.322 71.9454C144.294 71.8758 144.281 71.8012 144.282 71.7262C144.279 71.6694 144.266 71.6136 144.244 71.5608L141.562 62.0247C141.497 61.7883 141.34 61.5878 141.126 61.4672C140.912 61.3465 140.659 61.3157 140.423 61.3816C140.187 61.4474 139.986 61.6043 139.865 61.8179C139.745 62.0316 139.714 62.2844 139.78 62.5207L142.463 71.9834C142.493 72.305 142.591 72.6167 142.749 72.8983C142.907 73.1799 143.122 73.4253 143.381 73.6187C143.807 73.9148 144.315 74.0691 144.832 74.0597C145.696 74.0597 146.652 73.6922 147.497 73.0124C147.682 72.8523 147.797 72.6263 147.817 72.3825C147.838 72.1387 147.763 71.8966 147.607 71.7078Z" fill="black"/>
<path d="M153.506 74.5023C153.398 74.449 153.28 74.4176 153.159 74.41C153.038 74.4024 152.917 74.4187 152.803 74.458C152.688 74.4972 152.583 74.5587 152.492 74.6388C152.401 74.7189 152.328 74.8162 152.274 74.9249C151.792 75.9696 151.003 76.8423 150.011 77.4266C149.019 78.011 147.874 78.2792 146.726 78.1955C146.606 78.1855 146.486 78.1995 146.371 78.2369C146.257 78.2742 146.152 78.334 146.061 78.4128C145.97 78.4915 145.896 78.5876 145.843 78.6955C145.79 78.8033 145.759 78.9207 145.752 79.0407C145.737 79.2814 145.817 79.5186 145.975 79.7009C146.133 79.883 146.356 79.9957 146.597 80.0146H147.148C148.198 80.0141 149.238 79.7951 150.198 79.3714C151.833 78.6199 153.153 77.3198 153.928 75.6966C154.03 75.482 154.042 75.2362 153.962 75.0126C153.883 74.7889 153.72 74.6055 153.506 74.5023Z" fill="black"/>
<path d="M143.768 159.316L142.336 158.618L142.115 158.544C141.691 158.401 141.23 158.417 140.817 158.589C140.404 158.762 140.069 159.079 139.873 159.482L136.639 166.151C136.438 166.569 136.402 167.047 136.539 167.489C136.675 167.933 136.973 168.308 137.374 168.54L137.484 168.595L139.028 169.348L141.913 170.744L143.566 171.554L144.154 171.829C144.372 171.936 144.608 171.998 144.849 172.013C145.09 172.029 145.332 171.996 145.561 171.917C145.79 171.839 146 171.716 146.182 171.556C146.363 171.396 146.51 171.201 146.617 170.983L149.85 164.314C150.06 163.877 150.089 163.376 149.93 162.918C149.772 162.461 149.44 162.084 149.005 161.871L148.196 161.466L146.543 160.676L143.768 159.316ZM141.766 168.466C141.689 168.61 141.576 168.73 141.437 168.815C141.297 168.898 141.138 168.943 140.975 168.944C140.814 168.947 140.654 168.902 140.516 168.816C140.411 168.757 140.319 168.677 140.245 168.582C140.172 168.487 140.117 168.378 140.087 168.261C140.056 168.145 140.049 168.023 140.066 167.904C140.083 167.784 140.123 167.67 140.186 167.566L142.115 164.167H142.133L142.188 164.075L142.243 164.02C142.259 163.988 142.284 163.961 142.317 163.947L142.372 163.891L142.446 163.855L142.538 163.799H142.611L142.703 163.762H142.721L145.33 163.211C145.448 163.187 145.57 163.187 145.689 163.209C145.807 163.233 145.92 163.279 146.021 163.345C146.121 163.411 146.208 163.497 146.275 163.598C146.344 163.697 146.39 163.81 146.415 163.928C146.438 164.046 146.439 164.168 146.417 164.287C146.393 164.405 146.347 164.518 146.281 164.619C146.214 164.719 146.128 164.806 146.029 164.873C145.928 164.94 145.816 164.988 145.698 165.013L143.512 165.472L141.766 168.466Z" fill="#3B79AF"/>
<path d="M170.484 84.0578L170.705 84.0939C171.974 84.3367 173.226 84.6624 174.453 85.0681C175.898 85.5713 177.31 86.1671 178.679 86.8506L182.592 62.4862C182.659 62.0856 182.644 61.6761 182.552 61.281C182.459 60.8857 182.288 60.5128 182.051 60.1834C181.814 59.854 181.514 59.5747 181.169 59.3613C180.824 59.1479 180.439 59.0048 180.039 58.94L165.487 56.6065C165.323 56.5761 165.157 56.5638 164.99 56.5699C164.347 56.5729 163.719 56.7715 163.19 57.1394C162.532 57.6269 162.09 58.3521 161.958 59.1605L157.623 86.0783C157.557 86.4781 157.571 86.8867 157.664 87.2807C157.758 87.6746 157.927 88.0462 158.165 88.3738C158.402 88.7024 158.702 88.9794 159.048 89.191C159.393 89.4026 159.776 89.544 160.177 89.6064L163.612 90.1573L163.888 89.8824L164.163 89.6434C163.521 88.9638 162.675 87.9165 162.621 86.8506C162.565 85.7848 163.226 84.756 164.31 84.2226C166.295 83.2306 168.61 83.6902 170.484 84.0578ZM167.122 59.8221C167.806 59.8184 168.477 60.0183 169.048 60.3965C169.619 60.7747 170.065 61.314 170.328 61.9459C170.591 62.5779 170.662 63.274 170.529 63.9457C170.396 64.6175 170.067 65.2347 169.583 65.7189C169.098 66.2031 168.481 66.5325 167.809 66.6651C167.137 66.7978 166.442 66.7279 165.81 66.4641C165.178 66.2005 164.638 65.7548 164.261 65.184C163.882 64.6131 163.683 63.9427 163.686 63.258C163.686 62.3467 164.048 61.4728 164.693 60.8284C165.336 60.184 166.211 59.8221 167.122 59.8221Z" fill="#6192BF"/>
<path d="M237.643 101.084C245.506 101.084 251.88 94.7094 251.88 86.8464C251.88 78.9835 245.506 72.6094 237.643 72.6094C229.78 72.6094 223.406 78.9835 223.406 86.8464C223.406 94.7094 229.78 101.084 237.643 101.084Z" fill="#3B79AF"/>
<path d="M220.868 83.5596C220.799 85.5197 221.125 87.4748 221.828 89.3061C222.53 91.1384 223.594 92.8098 224.956 94.2218C226.319 95.6329 227.952 96.7562 229.758 97.5227C231.564 98.2901 233.505 98.6851 235.467 98.6851C237.429 98.6851 239.371 98.2901 241.177 97.5227C242.983 96.7562 244.615 95.6329 245.977 94.2218C247.34 92.8098 248.405 91.1384 249.107 89.3061C249.809 87.4748 250.134 85.5197 250.065 83.5596C250.068 81.3479 249.558 79.1657 248.577 77.1837C247.134 74.2166 244.727 71.8263 241.75 70.4033C238.773 68.9802 235.402 68.6082 232.186 69.3481C228.971 70.0881 226.101 71.8962 224.046 74.4772C221.99 77.0583 220.87 80.26 220.868 83.5596ZM235.458 70.8079C237.98 70.8079 240.445 71.5557 242.542 72.9569C244.64 74.3581 246.274 76.3496 247.239 78.6796C248.204 81.0097 248.456 83.5733 247.965 86.0472C247.472 88.5212 246.258 90.7932 244.475 92.5758C242.691 94.3593 240.419 95.5744 237.945 96.0658C235.472 96.5583 232.909 96.3057 230.578 95.3403C228.248 94.3749 226.256 92.7406 224.855 90.644C223.455 88.5465 222.707 86.0814 222.707 83.5596C222.707 80.1776 224.049 76.9341 226.441 74.5428C228.832 72.1514 232.076 70.8079 235.458 70.8079Z" fill="black"/>
<path d="M239.993 74.9248C239.886 74.8641 239.77 74.8253 239.649 74.811C239.528 74.7966 239.406 74.8069 239.289 74.8412C239.173 74.8757 239.063 74.9333 238.97 75.0108C238.876 75.0883 238.799 75.1841 238.743 75.2923L230.107 91.0206C229.995 91.2361 229.969 91.4867 230.038 91.7198C230.107 91.9528 230.263 92.1498 230.474 92.2698C230.611 92.3409 230.762 92.379 230.915 92.3799C231.08 92.379 231.242 92.3341 231.384 92.2503C231.525 92.1664 231.643 92.0464 231.723 91.9021L240.342 76.1743C240.403 76.0698 240.442 75.9542 240.458 75.834C240.473 75.714 240.466 75.5919 240.432 75.4753C240.4 75.3587 240.344 75.2497 240.269 75.1551C240.193 75.0606 240.099 74.9822 239.993 74.9248Z" fill="black"/>
<path d="M233.122 81.338C233.77 81.338 234.402 81.1462 234.94 80.7869C235.477 80.4274 235.896 79.9166 236.144 79.3191C236.392 78.7214 236.456 78.0638 236.33 77.4294C236.204 76.7949 235.893 76.2122 235.435 75.7548C234.978 75.2974 234.395 74.9859 233.761 74.8598C233.126 74.7335 232.469 74.7983 231.871 75.0458C231.273 75.2934 230.762 75.7125 230.403 76.2504C230.044 76.7883 229.852 77.4206 229.852 78.0675C229.854 78.3333 229.885 78.5983 229.944 78.8575C230.124 79.5651 230.533 80.1929 231.109 80.6421C231.684 81.0911 232.393 81.336 233.122 81.338ZM234.537 78.0675C234.54 78.2548 234.505 78.4408 234.435 78.6145C234.365 78.7883 234.261 78.9465 234.129 79.0798C233.998 79.2131 233.841 79.319 233.668 79.3912C233.496 79.4635 233.309 79.5007 233.122 79.5007C232.743 79.5007 232.378 79.3496 232.109 79.0809C231.841 78.8121 231.69 78.4476 231.69 78.0675C231.69 77.8801 231.727 77.6946 231.799 77.5218C231.871 77.3489 231.977 77.1921 232.11 77.0605C232.244 76.9288 232.402 76.8251 232.575 76.755C232.75 76.685 232.935 76.6502 233.122 76.6527C233.309 76.6502 233.494 76.6851 233.667 76.7553C233.84 76.8256 233.997 76.9297 234.129 77.0615C234.26 77.1934 234.365 77.3504 234.435 77.5232C234.505 77.6959 234.54 77.8809 234.537 78.0675Z" fill="black"/>
<path d="M237.805 85.25C237.159 85.25 236.526 85.4421 235.989 85.8019C235.451 86.1608 235.031 86.6718 234.784 87.2695C234.537 87.8673 234.471 88.5245 234.598 89.1593C234.724 89.7932 235.036 90.3763 235.493 90.8337C235.951 91.291 236.533 91.6021 237.168 91.7288C237.803 91.8546 238.46 91.7903 239.058 91.5426C239.655 91.2949 240.165 90.8756 240.525 90.3383C240.885 89.8 241.076 89.1681 241.076 88.5206C241.076 87.6537 240.732 86.8219 240.119 86.2086C239.505 85.5952 238.673 85.25 237.805 85.25ZM237.805 89.9356C237.522 89.9356 237.244 89.8507 237.008 89.6928C236.772 89.5348 236.588 89.3095 236.48 89.0462C236.372 88.7839 236.345 88.4943 236.401 88.2164C236.459 87.9375 236.596 87.682 236.799 87.4831C237.001 87.2832 237.258 87.1476 237.537 87.095C237.817 87.0413 238.106 87.0725 238.367 87.1837C238.629 87.2949 238.851 87.4821 239.006 87.72C239.162 87.958 239.243 88.2369 239.239 88.5206C239.234 88.898 239.081 89.2578 238.813 89.5221C238.545 89.7873 238.183 89.9356 237.805 89.9356Z" fill="black"/>
<path d="M217.46 38.5777C225.323 38.5777 231.697 32.2035 231.697 24.3406C231.697 16.4777 225.323 10.1035 217.46 10.1035C209.597 10.1035 203.223 16.4777 203.223 24.3406C203.223 32.2035 209.597 38.5777 217.46 38.5777Z" fill="#6192BF"/>
<path d="M207.783 34.4638C210.395 35.9908 213.411 36.6833 216.428 36.4486C219.444 36.2139 222.317 35.0631 224.661 33.1505C227.005 31.238 228.709 28.6547 229.544 25.7468C230.38 22.839 230.307 19.7451 229.336 16.8799C228.566 14.6096 227.258 12.5595 225.523 10.9048C223.789 9.25017 221.679 8.04012 219.376 7.37809C217.071 6.71607 214.641 6.62187 212.293 7.10349C209.945 7.58512 207.748 8.62823 205.89 10.1436C204.033 11.659 202.57 13.6016 201.627 15.8056C200.684 18.0094 200.288 20.4088 200.475 22.7988C200.66 25.1888 201.422 27.4982 202.695 29.5296C203.967 31.561 205.713 33.2541 207.783 34.4638ZM215.298 8.66665C217.865 8.67025 220.374 9.43477 222.508 10.8635C224.641 12.2924 226.304 14.3214 227.285 16.6944C228.266 19.0673 228.522 21.6778 228.019 24.196C227.518 26.7142 226.281 29.0271 224.465 30.8427C222.649 32.6584 220.336 33.8952 217.818 34.3971C215.301 34.8989 212.69 34.6432 210.317 33.6623C207.944 32.6814 205.915 31.0191 204.486 28.8857C203.058 26.7522 202.293 24.2432 202.289 21.6755C202.289 18.2254 203.659 14.9165 206.099 12.4768C208.539 10.0372 211.848 8.66665 215.298 8.66665Z" fill="black"/>
<path d="M211.294 14.84C209.641 16.8795 210.412 20.2235 212.177 21.7302C213.353 22.7408 214.675 22.7041 215.722 22.7041C216.769 22.7041 217.432 22.7041 218.02 23.2369C218.608 23.7697 219.25 25.5887 218.608 26.7096C217.964 27.8304 216.09 28.0509 215.355 28.0326C213.132 27.9774 211.736 26.2135 211.46 25.846C211.391 25.748 211.303 25.6651 211.2 25.6024C211.098 25.5397 210.984 25.4985 210.865 25.4813C210.747 25.4641 210.626 25.4712 210.51 25.5024C210.394 25.5336 210.286 25.5879 210.192 25.6623C210.094 25.7333 210.011 25.823 209.948 25.9261C209.885 26.0292 209.843 26.1439 209.823 26.2634C209.805 26.3829 209.81 26.5049 209.838 26.6225C209.867 26.74 209.918 26.8508 209.99 26.9485C210.412 27.5181 211.809 29.1717 214.069 29.7045V30.8254C214.069 31.069 214.166 31.3027 214.338 31.475C214.51 31.6473 214.744 31.7441 214.988 31.7441C215.232 31.7441 215.465 31.6473 215.637 31.475C215.81 31.3027 215.906 31.069 215.906 30.8254V29.8699C217.891 29.7781 219.434 28.988 220.206 27.6099C221.216 25.846 220.794 23.3288 219.269 21.8956C218.13 20.8115 216.788 20.8483 215.705 20.8666C214.62 20.885 213.977 20.8666 213.371 20.3338C212.287 19.415 211.753 17.1735 212.727 15.9975C213.132 15.5014 213.83 15.1706 214.639 15.0788C215.85 15.0093 217.041 15.411 217.964 16.1996C218.056 16.278 218.162 16.3376 218.277 16.375C218.392 16.4124 218.513 16.4267 218.633 16.4173C218.753 16.408 218.871 16.375 218.978 16.3203C219.085 16.2656 219.181 16.1902 219.26 16.0986C219.338 16.0069 219.397 15.9006 219.434 15.7859C219.473 15.6712 219.487 15.5503 219.477 15.4299C219.468 15.3097 219.434 15.1924 219.38 15.0848C219.325 14.9774 219.25 14.8816 219.159 14.8032C218.232 14.0144 217.107 13.4935 215.906 13.2965V12.286C215.906 12.0423 215.81 11.8086 215.637 11.6363C215.465 11.464 215.232 11.3672 214.988 11.3672C214.744 11.3672 214.51 11.464 214.338 11.6363C214.166 11.8086 214.069 12.0423 214.069 12.286V13.3148C212.985 13.4554 211.994 14.0001 211.294 14.84Z" fill="black"/>
<path d="M59.6785 115.419C67.5414 115.419 73.9155 109.045 73.9155 101.182C73.9155 93.3195 67.5414 86.9453 59.6785 86.9453C51.8156 86.9453 45.4414 93.3195 45.4414 101.182C45.4414 109.045 51.8156 115.419 59.6785 115.419Z" fill="#6192BF"/>
<path d="M72.2011 98.5538C72.1937 95.6274 71.3195 92.7683 69.6886 90.3382C68.0578 87.9082 65.7434 86.0154 63.0377 84.8999C60.332 83.7843 57.3565 83.4947 54.4866 84.069C51.6168 84.6434 48.9814 86.0544 46.9132 88.1256C44.845 90.1958 43.4367 92.8336 42.8662 95.7035C42.2956 98.5743 42.5884 101.549 43.7076 104.253C44.8268 106.959 46.7221 109.271 49.1543 110.898C51.5865 112.526 54.4465 113.396 57.3732 113.4C59.322 113.4 61.2516 113.016 63.0518 112.27C64.852 111.523 66.4874 110.43 67.8646 109.051C69.2417 107.672 70.3336 106.035 71.0776 104.234C71.8217 102.433 72.2035 100.503 72.2011 98.5538ZM44.3643 98.5538C44.3567 95.5055 45.4165 92.5518 47.3601 90.2036C49.3037 87.8555 52.0081 86.2611 55.0039 85.6995C57.9999 85.1368 61.098 85.6419 63.7606 87.1261C66.4231 88.6093 68.4822 90.9789 69.58 93.8224C70.6778 96.6659 70.7453 99.8049 69.7706 102.692C68.796 105.581 66.8407 108.036 64.2443 109.633C61.6479 111.231 58.5743 111.867 55.557 111.434C52.5398 111.001 49.7694 109.526 47.7268 107.264C45.5669 104.877 44.369 101.774 44.3643 98.5538Z" fill="black"/>
<path d="M57.0617 88.2461C56.818 88.2461 56.5844 88.3426 56.4121 88.5152C56.2398 88.6869 56.143 88.9209 56.143 89.1647V90.1935C55.059 90.3339 54.068 90.879 53.3685 91.7186C51.7148 93.7761 52.4866 97.1023 54.2505 98.6275C55.4264 99.6192 56.7494 99.6006 57.7967 99.5831C58.844 99.5646 59.5239 99.5831 60.0934 100.116C60.663 100.648 61.3245 102.468 60.6815 103.607C60.0383 104.745 58.1641 104.948 57.4292 104.911C55.2059 104.856 53.8095 103.092 53.5339 102.743C53.4645 102.646 53.3766 102.563 53.275 102.5C53.1735 102.437 53.0603 102.395 52.9423 102.376C52.8243 102.357 52.7037 102.362 52.5877 102.391C52.4715 102.419 52.3622 102.47 52.2661 102.541C52.1682 102.612 52.0852 102.702 52.022 102.805C51.9588 102.907 51.9166 103.022 51.8979 103.142C51.879 103.261 51.8841 103.383 51.9126 103.501C51.9411 103.618 51.9926 103.729 52.0639 103.827C52.4866 104.396 53.883 106.069 56.143 106.601V107.704C56.143 107.948 56.2398 108.181 56.4121 108.354C56.5844 108.526 56.818 108.623 57.0617 108.623C57.3054 108.623 57.5391 108.526 57.7114 108.354C57.8837 108.181 57.9804 107.948 57.9804 107.704V106.748C59.9648 106.657 61.5266 105.867 62.28 104.507C63.2905 102.725 62.8679 100.207 61.3429 98.7737C60.2037 97.7089 58.8624 97.7264 57.7783 97.745C56.6942 97.7635 56.0512 97.745 55.4448 97.2125C54.3607 96.2939 53.8279 94.0706 54.8017 92.8761C55.2059 92.3797 55.9041 92.0491 56.7126 91.976C57.3136 91.9321 57.9172 92.0092 58.4882 92.2013C59.0592 92.3944 59.5862 92.6986 60.0383 93.0964C60.2289 93.2476 60.47 93.3207 60.7125 93.3003C60.9549 93.2798 61.1803 93.1676 61.3429 92.9863C61.4984 92.7971 61.574 92.5553 61.5533 92.3115C61.5328 92.0677 61.4177 91.8414 61.2326 91.6815C60.309 90.8917 59.1823 90.3758 57.9804 90.1935V89.1647C57.9804 88.9209 57.8837 88.6869 57.7114 88.5152C57.5391 88.3426 57.3054 88.2461 57.0617 88.2461Z" fill="black"/>
<path d="M167.123 66.7114C167.807 66.715 168.476 66.5155 169.047 66.1382C169.617 65.7608 170.063 65.2226 170.327 64.5917C170.591 63.9609 170.663 63.2658 170.532 62.5945C170.4 61.9232 170.073 61.306 169.59 60.821C169.108 60.3361 168.493 60.0053 167.822 59.8704C167.151 59.7357 166.456 59.8031 165.824 60.0639C165.191 60.3249 164.651 60.7676 164.271 61.336C163.89 61.9045 163.688 62.573 163.688 63.257C163.688 64.17 164.048 65.0458 164.692 65.6931C165.336 66.3404 166.21 66.7065 167.123 66.7114ZM167.123 61.6585C167.445 61.6549 167.76 61.7471 168.028 61.9233C168.297 62.0996 168.507 62.3519 168.631 62.6481C168.756 62.9443 168.789 63.271 168.728 63.5863C168.667 63.9016 168.512 64.1914 168.284 64.4186C168.057 64.6459 167.767 64.8003 167.453 64.8621C167.137 64.9238 166.81 64.8903 166.514 64.7657C166.218 64.6409 165.965 64.4309 165.789 64.1622C165.613 63.8935 165.521 63.5784 165.525 63.257C165.525 62.8331 165.693 62.4265 165.993 62.1267C166.292 61.8269 166.699 61.6585 167.123 61.6585Z" fill="black"/>
<path d="M171.124 164.167C172.88 164.167 174.303 162.743 174.303 160.988C174.303 159.232 172.88 157.809 171.124 157.809C169.368 157.809 167.945 159.232 167.945 160.988C167.945 162.743 169.368 164.167 171.124 164.167Z" fill="#3B79AF"/>
<path d="M109.867 64.2303C110.713 64.2303 111.541 63.9792 112.245 63.5088C112.949 63.0384 113.498 62.3698 113.822 61.5875C114.146 60.8052 114.231 59.9444 114.066 59.114C113.9 58.2834 113.492 57.5207 112.894 56.9219C112.295 56.3232 111.532 55.9154 110.702 55.7502C109.872 55.585 109.011 55.6699 108.229 55.9939C107.447 56.3179 106.778 56.8667 106.308 57.5707C105.837 58.2747 105.586 59.1025 105.586 59.9492C105.583 60.512 105.692 61.0698 105.907 61.5903C106.12 62.1109 106.436 62.5838 106.834 62.9818C107.232 63.3798 107.705 63.6951 108.226 63.9094C108.746 64.1237 109.304 64.2328 109.867 64.2303ZM109.867 57.5238C110.351 57.5238 110.824 57.6675 111.226 57.937C111.629 58.2063 111.942 58.589 112.126 59.0366C112.311 59.4842 112.358 59.9766 112.262 60.4511C112.166 60.9256 111.932 61.361 111.588 61.702C111.245 62.0431 110.808 62.2743 110.332 62.3666C109.857 62.4588 109.365 62.4077 108.919 62.22C108.472 62.0322 108.092 61.7161 107.826 61.3118C107.56 60.9075 107.419 60.4332 107.423 59.9492C107.428 59.3042 107.687 58.6873 108.146 58.233C108.603 57.7787 109.222 57.5237 109.867 57.5238Z" fill="black"/>
<path d="M88.3867 54.1074C88.3867 55.4447 88.7836 56.752 89.5267 57.864C90.2697 58.9759 91.3258 59.8426 92.5613 60.3544C93.7968 60.8661 95.1562 61 96.4677 60.7392C97.7793 60.4782 98.9836 59.8342 99.9295 58.8887C100.875 57.943 101.519 56.7382 101.78 55.4265C102.041 54.1149 101.907 52.7554 101.395 51.5198C100.883 50.2843 100.017 49.2282 98.9046 48.4853C97.7929 47.7423 96.4862 47.3457 95.1483 47.3457C93.3551 47.3457 91.6349 48.0581 90.3672 49.3262C89.0995 50.5942 88.3867 52.3141 88.3867 54.1074ZM95.1483 49.1832C96.1225 49.1832 97.0743 49.4719 97.8846 50.013C98.694 50.5541 99.3249 51.3232 99.6974 52.223C100.071 53.1227 100.168 54.1129 99.9782 55.068C99.7881 56.0233 99.319 56.9007 98.6306 57.5894C97.9421 58.278 97.0645 58.7471 96.1089 58.937C95.1542 59.1271 94.1635 59.0296 93.2644 58.6569C92.3643 58.2842 91.5949 57.653 91.0537 56.8432C90.5125 56.0333 90.2239 55.0813 90.2239 54.1074C90.2239 52.8014 90.7427 51.5489 91.6661 50.6254C92.5896 49.7019 93.8426 49.1832 95.1483 49.1832Z" fill="black"/>
<path d="M17.5019 60.2433C25.5865 66.7661 36.317 70.349 47.7273 70.349C59.1376 70.349 69.8681 66.7661 77.9527 60.2433C86.037 53.7205 90.5753 44.9193 90.5753 35.5852C90.5753 26.2513 86.0926 17.5235 77.9527 10.9456C69.8129 4.36771 59.1376 0.839844 47.7273 0.839844C36.317 0.839844 25.5865 4.42281 17.5019 10.9456C9.41731 17.4683 4.87891 26.2696 4.87891 35.5852C4.87891 44.9009 9.36222 53.6653 17.5019 60.2433ZM47.7273 2.67721C70.3458 2.67721 88.7382 17.4317 88.7382 35.5852C88.7382 53.7388 70.3458 68.5117 47.7273 68.5117C25.1088 68.5117 6.71627 53.7388 6.71627 35.5852C6.71627 17.4317 25.1088 2.67721 47.7273 2.67721Z" fill="black"/>
<path d="M118.928 103.478C119.163 103.418 119.365 103.269 119.495 103.065C119.625 102.86 119.671 102.614 119.627 102.376C119.601 102.257 119.552 102.145 119.482 102.046C119.412 101.946 119.323 101.862 119.221 101.797C119.119 101.732 119.004 101.688 118.885 101.667C118.766 101.647 118.643 101.651 118.525 101.678C113.122 102.872 102.907 108.016 95.134 112.426C87.3621 116.837 77.5134 123.139 73.4528 127.383C67.0402 134.108 64.9823 144.048 68.455 151.526C71.4867 158.086 78.1749 161.76 83.2645 163.69C83.3711 163.726 83.4828 163.745 83.5952 163.745H83.7974L100.224 168.854L107.022 171.003C111.267 172.363 115.658 173.777 120.013 175.009C121.446 175.412 123.118 175.817 124.734 175.817C125.799 175.837 126.853 175.616 127.822 175.173C128.384 174.897 128.915 174.558 129.401 174.163C132.801 175.119 137.449 176.185 140.738 176.864C141.331 176.99 141.868 177.306 142.264 177.764C143.716 179.464 145.363 180.986 147.169 182.303C150.098 184.455 153.4 186.043 156.908 186.988L157.147 187.025C157.35 187.025 157.548 186.959 157.711 186.836C157.873 186.713 157.992 186.541 158.047 186.346C158.109 186.112 158.076 185.863 157.956 185.652C157.836 185.443 157.638 185.289 157.404 185.224C154.112 184.332 151.01 182.844 148.254 180.833C146.564 179.594 145.022 178.163 143.66 176.571C143.269 176.129 142.803 175.762 142.282 175.486C142.65 174.2 143.09 172.896 143.568 171.572L141.914 170.764C141.388 172.173 140.929 173.569 140.537 174.953L137.322 174.237C137.322 174.219 137.322 174.219 137.339 174.2C137.872 172.509 138.442 170.911 139.03 169.367L137.486 168.615L137.376 168.559C136.751 170.176 136.146 171.867 135.576 173.649C135.557 173.704 135.557 173.759 135.539 173.833L130.945 172.694C131.203 172.381 131.441 172.087 131.662 171.775C133.463 169.68 135.355 166.336 136.053 164.407L136.182 164.021C137.247 161.062 138.332 158.013 137.872 154.852L142.76 157.315C142.577 157.681 142.338 158.105 142.116 158.564L142.338 158.637L143.77 159.335C143.991 158.894 144.211 158.491 144.395 158.142L147.188 159.556L146.544 160.696L148.198 161.485L148.823 160.382L151.874 161.926C152.001 161.983 152.138 162.014 152.277 162.018C152.488 162.024 152.693 161.956 152.859 161.829C153.026 161.701 153.144 161.52 153.193 161.316C153.243 161.112 153.22 160.897 153.131 160.707C153.041 160.517 152.89 160.364 152.7 160.272L137.468 152.592L137.211 152.519C137.123 152.279 137.018 152.046 136.898 151.821C135.227 148.476 132.36 145.996 127.895 144.048C126.94 143.626 126.278 143.35 126.242 143.35C122.089 141.623 110.844 137.084 102.135 133.575C101.908 133.482 101.654 133.483 101.429 133.579C101.202 133.673 101.024 133.854 100.931 134.08C100.839 134.307 100.84 134.561 100.934 134.787C101.03 135.012 101.21 135.192 101.436 135.283C110.146 138.793 121.391 143.331 125.544 145.041L127.161 145.72C131.221 147.503 133.793 149.708 135.263 152.648C137.027 156.193 135.778 159.703 134.455 163.414L134.307 163.782C133.756 165.325 132.323 167.916 130.872 169.827C130.71 169.909 130.575 170.036 130.486 170.194C130.413 170.342 130.302 170.489 130.211 170.635L130.082 170.801C130.01 170.875 129.953 170.962 129.916 171.058C129.126 172.087 128.024 173.043 127.013 173.521C125.176 174.402 122.438 173.796 120.528 173.245C116.191 172.014 111.818 170.618 107.591 169.257L100.775 167.09L82.695 161.448H82.5479C78.0095 159.52 72.6259 156.212 70.1087 150.773C66.9483 143.956 68.8776 134.861 74.7941 128.669C81.7579 121.356 109.392 105.591 118.928 103.478Z" fill="black"/>
<path d="M145.7 164.975C145.818 164.951 145.93 164.904 146.03 164.837C146.13 164.769 146.216 164.682 146.282 164.581C146.349 164.481 146.395 164.368 146.418 164.25C146.441 164.131 146.44 164.009 146.417 163.891C146.392 163.773 146.345 163.661 146.277 163.56C146.21 163.461 146.123 163.375 146.023 163.309C145.922 163.242 145.809 163.196 145.691 163.173C145.572 163.15 145.45 163.151 145.332 163.174L142.723 163.726H142.704L142.612 163.762H142.539L142.448 163.818L142.374 163.855L142.319 163.91C142.286 163.924 142.26 163.951 142.245 163.983L142.19 164.038L142.135 164.13H142.117L140.187 167.529C140.125 167.633 140.084 167.748 140.067 167.867C140.051 167.986 140.058 168.108 140.089 168.224C140.119 168.341 140.174 168.45 140.247 168.545C140.321 168.64 140.413 168.72 140.518 168.778C140.655 168.866 140.815 168.91 140.977 168.907C141.14 168.906 141.299 168.861 141.438 168.777C141.578 168.694 141.691 168.573 141.768 168.429L143.514 165.398L145.7 164.975Z" fill="black"/>
<path d="M262.079 200.88H219.597C219.248 194.982 219.267 193.438 219.672 187.944C219.689 187.78 219.657 187.613 219.579 187.467C222.349 183.442 224.574 179.068 226.194 174.458C227.094 171.812 227.591 169.276 228.325 165.436C228.528 164.37 228.748 163.194 229.024 161.89C229.483 159.539 229.869 157.094 230.199 154.394C231.468 144.324 231.229 136.827 230.971 133.263C230.163 121.981 229.63 114.521 223.934 108.311C220.645 104.746 216.732 102.854 213.277 101.182C207.067 98.1865 201.573 97.2864 198.284 96.7355C195.209 96.2362 192.101 95.9661 188.987 95.9271C187.933 94.1767 186.64 92.5814 185.147 91.186C183.327 89.4775 181.619 88.4858 180.387 87.7691L183.897 65.9956C184.007 65.7384 184.135 65.4995 184.246 65.2422C187.645 57.8742 190.658 50.6348 190.089 42.8442C189.482 34.3737 185.624 25.8298 179.468 19.3805C174.269 13.9233 167.618 10.2853 160.746 9.12779C159.607 8.94397 158.449 8.81535 157.291 8.74192C144.65 8.02529 132.193 14.9891 126.275 26.0871C125.896 26.8023 125.347 27.414 124.677 27.8693C123.135 28.8946 121.791 30.1892 120.708 31.6911C117.089 36.744 117.732 42.5318 118.081 45.6371C119.385 57.3047 129.087 64.8196 132.284 67.3002L132.559 67.5206C134.672 72.206 137.226 77.8285 139.688 82.1647C140.203 83.0835 140.754 84.0021 141.288 84.9207L141.398 85.0679C142.141 85.8841 142.987 86.6008 143.915 87.1996C144.9 87.8285 145.97 88.3112 147.094 88.6321C148.002 88.8944 148.942 89.0241 149.887 89.0182H149.978C149.629 90.8193 149.115 92.2342 148.453 93.2445C146.469 96.1845 142.941 96.8827 132.082 98.6097C129.803 98.9773 127.599 99.3996 125.504 99.8589C125.385 99.8852 125.273 99.934 125.174 100.004C125.075 100.073 124.99 100.162 124.925 100.265C124.86 100.367 124.817 100.482 124.796 100.601C124.776 100.721 124.779 100.843 124.806 100.962C124.848 101.164 124.959 101.346 125.12 101.477C125.28 101.607 125.481 101.678 125.687 101.678H125.89C127.948 101.218 130.134 100.815 132.376 100.447C136.436 99.8043 139.578 99.2894 142.078 98.7199L134.269 107.797C133.93 108.191 133.69 108.661 133.568 109.168C133.448 109.674 133.448 110.201 133.569 110.706C133.691 111.212 133.931 111.681 134.271 112.076C134.609 112.471 135.037 112.78 135.518 112.978L140.846 115.183L133.423 119.96C132.925 120.279 132.497 120.696 132.164 121.184C131.831 121.674 131.602 122.226 131.488 122.806C131.374 123.386 131.38 123.984 131.504 124.562C131.629 125.14 131.869 125.687 132.21 126.171L154.792 158.344C154.875 158.466 154.988 158.565 155.12 158.633C155.252 158.7 155.398 158.734 155.545 158.729C155.666 158.732 155.785 158.707 155.894 158.656C156.088 158.576 156.248 158.432 156.348 158.247C156.448 158.064 156.483 157.852 156.446 157.646L145.164 97.8013C147.387 96.9744 148.858 95.9271 149.978 94.2733C150.842 92.9685 151.485 91.1499 151.871 88.871L152.624 88.7608C153.746 88.5589 154.857 88.2947 155.95 87.9709C156.214 88.8583 156.723 89.653 157.419 90.2635C158.115 90.8749 158.968 91.2776 159.882 91.4249L162.859 91.9027C162.819 92.2966 162.844 92.6935 162.932 93.0787C163.016 93.3264 163.134 93.5614 163.281 93.7769C162.547 94.1211 161.979 94.7423 161.701 95.5039C161.595 95.8881 161.568 96.2898 161.621 96.6848C161.675 97.0797 161.809 97.459 162.013 97.8013C162.165 98.0636 162.344 98.3103 162.546 98.5356C161.224 99.2894 160.322 100.428 160.066 101.715C159.941 102.201 159.993 102.715 160.212 103.167C160.434 103.57 160.966 104.214 162.234 104.214L162.73 104.177C164.145 104.03 165.467 103.791 166.754 103.552L169.675 103.075C169.882 105.53 170.374 107.954 171.146 110.296C171.044 110.416 170.981 110.562 170.961 110.718L163.869 157.939C163.854 158 163.849 158.061 163.851 158.124V165.712L163.612 165.565C161.076 163.984 159.129 163.03 155.894 161.816C155.779 161.758 155.653 161.724 155.524 161.717C155.395 161.71 155.265 161.731 155.145 161.777C155.025 161.824 154.915 161.896 154.824 161.988C154.733 162.08 154.663 162.19 154.617 162.311C154.571 162.432 154.552 162.561 154.559 162.69C154.567 162.82 154.602 162.946 154.663 163.06C154.722 163.175 154.806 163.275 154.908 163.355C155.009 163.436 155.126 163.494 155.252 163.525C158.394 164.719 160.195 165.602 162.656 167.145H162.675C164.214 168.044 165.651 169.11 166.956 170.324C168.434 171.626 169.715 173.137 170.759 174.807C171.898 176.682 172.432 178.28 172.854 179.547C173.453 181.393 173.859 183.296 174.067 185.225C174.23 187.047 174.212 188.882 174.012 190.7C173.883 191.932 173.681 192.777 173.056 193.383C172.432 193.989 172.303 193.898 172.247 193.879C172.163 193.832 172.092 193.762 172.046 193.677C171.934 193.521 171.777 193.403 171.596 193.341C171.415 193.277 171.219 193.274 171.035 193.328C171.089 193.134 171.132 192.938 171.164 192.74C171.671 190.637 171.979 188.489 172.083 186.328C172.137 185.206 172.137 184.049 172.1 182.91C172.093 182.666 171.99 182.436 171.813 182.268C171.635 182.101 171.398 182.012 171.154 182.018C170.911 182.026 170.68 182.13 170.513 182.307C170.346 182.485 170.256 182.722 170.263 182.965C170.3 184.049 170.3 185.152 170.245 186.236C170.116 188.955 169.767 190.535 169.382 192.354C169.087 193.696 168.904 194.174 168.499 194.669C168.322 194.873 168.118 195.052 167.893 195.202C167.675 195.356 167.419 195.446 167.152 195.463C166.886 195.478 166.621 195.421 166.386 195.294L166.019 195.111C165.915 195.057 165.804 195.02 165.688 195.001L165.891 194.504C166.41 193.17 166.786 191.784 167.011 190.37C167.287 188.844 167.507 187.283 167.691 185.721C167.717 185.48 167.647 185.238 167.495 185.049C167.343 184.86 167.123 184.738 166.882 184.711C166.761 184.695 166.639 184.704 166.521 184.736C166.404 184.769 166.294 184.824 166.199 184.9C166.103 184.975 166.023 185.069 165.964 185.175C165.905 185.281 165.867 185.398 165.853 185.519C165.688 187.044 165.467 188.569 165.211 190.058C165 191.352 164.655 192.62 164.181 193.842C163.576 195.367 163.226 195.606 163.226 195.606C162.877 195.735 162.418 195.441 161.866 194.706C161.826 194.633 161.777 194.565 161.719 194.504C161.587 194.372 161.419 194.282 161.236 194.246C161.053 194.21 160.863 194.229 160.69 194.302C162.325 192.079 163.428 189.58 164.071 187.779C164.117 187.665 164.138 187.543 164.135 187.42C164.132 187.297 164.104 187.176 164.053 187.064C164.004 186.952 163.93 186.851 163.841 186.768C163.75 186.684 163.645 186.62 163.529 186.578C163.414 186.536 163.291 186.519 163.168 186.525C163.045 186.531 162.925 186.563 162.815 186.616C162.705 186.67 162.606 186.745 162.525 186.838C162.444 186.93 162.383 187.037 162.344 187.155C161.646 189.102 160.415 191.895 158.485 194.137C157.769 194.963 156.593 195.79 155.435 195.606L155.179 195.533C155.16 195.496 155.16 195.238 155.38 194.779C155.987 193.549 156.831 192.501 157.732 191.381C158.633 190.259 159.588 189.047 160.268 187.632C160.375 187.413 160.391 187.159 160.312 186.929C160.232 186.698 160.064 186.508 159.846 186.401C159.626 186.293 159.373 186.278 159.143 186.357C158.911 186.437 158.721 186.605 158.614 186.824C158.026 188.055 157.181 189.102 156.281 190.222C155.38 191.344 154.425 192.574 153.727 193.971C153.028 195.367 153.451 196.36 153.8 196.746C154.161 197.123 154.641 197.364 155.16 197.426L155.767 197.462C157.199 197.462 158.706 196.69 159.882 195.331L160.158 195.001C160.131 195.13 160.136 195.264 160.171 195.392C160.206 195.519 160.271 195.637 160.36 195.735L160.397 195.79C161.37 197.095 162.289 197.48 163.042 197.48C163.332 197.475 163.617 197.42 163.888 197.316C164.297 197.151 164.644 196.862 164.879 196.489C164.964 196.588 165.064 196.675 165.174 196.746L165.541 196.929C166.014 197.167 166.536 197.293 167.067 197.297C167.736 197.296 168.39 197.091 168.941 196.709C169.296 196.458 169.622 196.169 169.914 195.845C170.175 195.517 170.398 195.159 170.576 194.779C170.865 195.206 171.294 195.518 171.788 195.662C171.951 195.697 172.118 195.715 172.285 195.716C173.295 195.716 174.067 194.963 174.342 194.687C175.463 193.604 175.702 192.152 175.849 190.903C176.064 188.949 176.077 186.979 175.886 185.023C175.661 182.97 175.23 180.945 174.6 178.978C173.465 175.104 171.247 171.636 168.206 168.983C167.408 168.253 166.567 167.572 165.688 166.943V158.362L175.353 143.443C176.529 149.395 178.531 158.197 181.178 169.019C184.411 182.249 192.974 197.904 206.515 198.528H206.571C206.807 198.524 207.033 198.43 207.202 198.267C207.373 198.103 207.475 197.882 207.489 197.646C207.494 197.525 207.475 197.405 207.434 197.291C207.392 197.178 207.328 197.074 207.246 196.985C207.164 196.896 207.066 196.825 206.956 196.774C206.846 196.724 206.728 196.695 206.608 196.69C200.783 196.414 195.546 193.108 191.044 186.841C187.553 181.991 184.613 175.34 182.959 168.578C179.524 154.467 177.172 143.847 176.308 138.5C176.308 138.427 176.29 138.353 176.29 138.298C176.265 138.213 176.247 138.127 176.235 138.041C176.216 137.966 176.216 137.912 176.198 137.839C176.18 137.765 176.18 137.802 176.18 137.783C175.831 135.707 176.069 133.226 176.253 131.867C176.75 128.247 181.178 127.236 184.411 126.483L185.201 126.299C190.07 125.141 192.312 124.665 194.664 125.417C195.435 125.675 197.787 126.446 199.643 128.688C201.058 130.415 201.922 132.933 203.612 137.949C203.943 138.922 204.164 139.62 204.164 139.62C205.56 144.067 209.309 156.285 212.193 165.767C212.255 165.953 212.373 166.115 212.531 166.23C212.689 166.345 212.879 166.408 213.075 166.41L213.351 166.373C213.583 166.297 213.776 166.133 213.889 165.918C214.002 165.701 214.026 165.45 213.957 165.216C211.054 155.753 207.324 143.534 205.909 139.069C205.909 139.032 205.689 138.353 205.357 137.361C203.576 132.124 202.693 129.496 201.058 127.512C199.911 126.142 198.474 125.043 196.85 124.297C196.869 124.205 196.869 124.112 196.85 124.021L195.491 115.826C195.234 114.283 194.572 113.015 193.69 112.426C193.484 112.269 193.245 112.157 192.992 112.101C192.738 112.043 192.475 112.042 192.22 112.096L176.106 115.568L175.702 115.716C173.386 112.299 171.605 106.62 171.458 102.009V101.935C171.451 101.928 171.446 101.919 171.443 101.91C171.44 101.9 171.438 101.89 171.439 101.88C171.439 101.843 171.421 101.825 171.421 101.789L171.384 101.696L171.347 101.623C171.347 101.586 171.329 101.568 171.31 101.531L171.256 101.476C171.237 101.457 171.219 101.421 171.182 101.403C171.146 101.384 171.164 101.365 171.146 101.347L171.053 101.292L170.998 101.255L170.907 101.201H170.833C170.833 101.198 170.833 101.196 170.832 101.193C170.831 101.191 170.83 101.189 170.828 101.187C170.826 101.186 170.824 101.184 170.822 101.183C170.819 101.182 170.817 101.182 170.815 101.182C170.69 101.14 170.559 101.129 170.429 101.145C169.014 101.311 167.709 101.531 166.423 101.77C165.137 102.009 163.888 102.229 162.528 102.377C162.301 102.407 162.07 102.395 161.848 102.34C161.838 102.254 161.845 102.166 161.866 102.082C162.05 101.145 162.913 100.282 164.181 99.8043C166.001 99.1061 168.187 99.1421 170.3 99.1977H171.734C171.976 99.1977 172.21 99.1012 172.383 98.9286C172.556 98.756 172.652 98.5229 172.652 98.2791C172.652 98.0354 172.556 97.8013 172.383 97.6297C172.21 97.4571 171.976 97.3606 171.734 97.3606H170.337C169.051 97.305 167.763 97.3235 166.479 97.4152C165.79 97.4844 165.107 97.6073 164.439 97.7828C164.101 97.5527 163.819 97.2523 163.612 96.9013C163.533 96.7803 163.479 96.6448 163.454 96.5024C163.428 96.3601 163.432 96.2148 163.465 96.0743C163.523 95.9242 163.612 95.7877 163.726 95.6736C163.84 95.5595 163.976 95.4707 164.126 95.4122C165.321 94.8427 167.067 94.8613 168.463 94.8798H168.592C169.731 94.8798 170.888 94.9715 172.009 95.0817L173.644 95.2659H173.901C174.12 95.2279 174.318 95.1129 174.458 94.9422C174.599 94.7706 174.673 94.5531 174.666 94.3318C174.659 94.1104 174.572 93.8988 174.422 93.736C174.271 93.5731 174.067 93.4707 173.847 93.4463C172.174 93.263 170.392 93.0787 168.609 93.0602H168.481C167.344 93.0143 166.206 93.0758 165.082 93.2445C165.019 93.1509 164.963 93.0524 164.916 92.95L164.696 92.6009C164.65 92.363 164.665 92.1172 164.739 91.8861C164.813 91.655 164.943 91.4463 165.118 91.2786C165.301 91.0924 165.511 90.9363 165.743 90.8193C166.276 90.5433 166.754 90.4702 168.077 90.4878C170.036 90.4478 171.993 90.6087 173.92 90.9656C174.93 91.1499 175.959 91.3703 176.97 91.6462C177.206 91.7067 177.457 91.6716 177.667 91.5468C177.877 91.4229 178.03 91.2211 178.091 90.9841C178.152 90.7481 178.116 90.4975 177.992 90.2869C177.868 90.0762 177.665 89.9241 177.429 89.8637C176.382 89.5877 175.316 89.3488 174.25 89.1469C172.214 88.7783 170.146 88.6126 168.077 88.6506C167.351 88.6155 166.623 88.6642 165.909 88.7978C165.101 88.0996 164.476 87.2357 164.457 86.7764C164.439 86.3171 164.733 86.0967 165.137 85.8948C166.552 85.1966 168.463 85.5643 170.134 85.8948L170.355 85.9319C171.542 86.1669 172.715 86.4741 173.864 86.8505C175.804 87.5126 177.675 88.362 179.45 89.3858C180.681 90.1026 182.207 90.9841 183.897 92.5648C185.381 93.968 186.655 95.576 187.682 97.342C188.654 98.8652 189.427 100.508 189.978 102.229C190.438 103.661 190.733 105.14 190.861 106.639C190.897 106.876 190.916 107.116 190.916 107.356C190.934 107.588 191.038 107.805 191.208 107.965C191.378 108.125 191.601 108.216 191.834 108.219H191.89C192.011 108.212 192.129 108.182 192.237 108.129C192.346 108.075 192.444 108.002 192.524 107.912C192.604 107.821 192.665 107.716 192.705 107.601C192.744 107.487 192.761 107.366 192.753 107.246C192.654 105.353 192.308 103.482 191.724 101.678C191.311 100.341 190.762 99.0476 190.089 97.8198C192.736 97.9105 195.375 98.169 197.99 98.5912C201.168 99.1061 206.515 99.9876 212.468 102.872C215.942 104.544 219.524 106.271 222.593 109.598C227.848 115.33 228.362 122.533 229.134 133.428C229.391 136.938 229.63 144.287 228.381 154.209C228.05 156.856 227.664 159.263 227.205 161.559C226.947 162.882 226.727 164.058 226.525 165.142C225.771 169.019 225.312 171.371 224.449 173.906C221.881 181.221 217.75 187.886 212.34 193.438C212.173 193.616 212.081 193.851 212.085 194.095C212.088 194.337 212.186 194.57 212.358 194.743C212.534 194.903 212.763 194.995 213.002 195.001C213.249 195 213.487 194.9 213.663 194.725C215.082 193.25 216.424 191.705 217.687 190.095C217.43 193.953 217.467 195.938 217.76 200.917H119.624C120.451 196.158 120.654 194.54 121.094 189.708C121.462 185.611 121.737 181.459 121.94 177.361C121.947 177.24 121.93 177.119 121.891 177.005C121.851 176.89 121.79 176.785 121.71 176.695C121.63 176.604 121.532 176.53 121.423 176.478C121.315 176.425 121.197 176.394 121.076 176.387C120.83 176.377 120.59 176.464 120.409 176.629C120.227 176.794 120.116 177.024 120.102 177.27C119.918 181.349 119.624 185.482 119.257 189.543C118.816 194.413 118.614 195.974 117.75 200.917H73.5788C73.3352 200.917 73.1015 201.013 72.9292 201.186C72.7569 201.357 72.6602 201.591 72.6602 201.835C72.6602 202.079 72.7569 202.312 72.9292 202.485C73.1015 202.657 73.3352 202.754 73.5788 202.754H262.079C262.322 202.754 262.556 202.657 262.728 202.485C262.901 202.312 262.997 202.079 262.997 201.835C263.002 201.711 262.982 201.589 262.939 201.473C262.895 201.356 262.827 201.251 262.742 201.161C262.656 201.073 262.552 201.002 262.439 200.953C262.325 200.905 262.202 200.88 262.079 200.88ZM133.718 125.105C133.519 124.825 133.379 124.509 133.306 124.174C133.234 123.84 133.23 123.493 133.294 123.157C133.356 122.819 133.487 122.497 133.68 122.212C133.873 121.927 134.123 121.685 134.416 121.504L143.327 115.771C143.467 115.678 143.578 115.548 143.649 115.396C143.721 115.244 143.749 115.075 143.731 114.907C143.719 114.742 143.661 114.585 143.564 114.452C143.466 114.318 143.333 114.216 143.179 114.154L136.216 111.288C136.007 111.195 135.823 111.055 135.677 110.88C135.53 110.704 135.427 110.498 135.374 110.275C135.321 110.053 135.319 109.822 135.37 109.6C135.42 109.376 135.521 109.169 135.665 108.991L143.639 99.6755L153.855 153.806L133.718 125.105ZM164.31 84.2225C163.226 84.7559 162.564 85.7847 162.62 86.8505C162.675 87.9163 163.52 88.9636 164.164 89.6433L163.888 89.8822L163.612 90.1572L160.176 89.6062C159.776 89.5438 159.392 89.4024 159.047 89.1908C158.702 88.9792 158.401 88.7023 158.164 88.3736C157.928 88.046 157.757 87.6745 157.664 87.2805C157.571 86.8866 157.556 86.478 157.622 86.0782L161.958 59.1604C162.089 58.352 162.531 57.6267 163.189 57.1393C163.718 56.7714 164.346 56.5727 164.99 56.5697C165.156 56.5636 165.323 56.5759 165.486 56.6064L180.038 58.9399C180.439 59.0046 180.823 59.1478 181.168 59.3611C181.514 59.5745 181.814 59.8539 182.051 60.1833C182.289 60.5127 182.458 60.8856 182.551 61.2808C182.643 61.6759 182.658 62.0855 182.593 62.4861L178.679 86.8505C177.309 86.1669 175.897 85.5711 174.452 85.0679C173.226 84.6623 171.973 84.3366 170.704 84.0938L170.483 84.0577C168.609 83.69 166.294 83.2305 164.31 84.2225ZM149.519 14.7686C152.752 13.4089 156.152 12.9312 159.349 13.4273C162.215 13.8499 164.384 14.934 165.835 15.6505C167.69 16.5796 169.433 17.7136 171.035 19.0314C171.185 19.1512 171.293 19.3145 171.344 19.4987C171.396 19.6829 171.389 19.8788 171.325 20.0589C171.26 20.239 171.141 20.3944 170.984 20.5034C170.826 20.6123 170.638 20.6695 170.447 20.6666C170.232 20.663 170.024 20.5851 169.859 20.4462C168.366 19.2184 166.739 18.1642 165.008 17.3043C163.667 16.6427 161.646 15.6322 159.073 15.2463C155.472 14.6951 152.275 15.5954 150.236 16.459C150.013 16.5432 149.768 16.5381 149.549 16.4448C149.331 16.3514 149.157 16.1772 149.064 15.9585C148.972 15.7398 148.967 15.4938 149.052 15.272C149.137 15.0501 149.304 14.8697 149.519 14.7686ZM152.312 86.9421C150.364 87.2727 148.949 87.2542 147.59 86.869C146.64 86.5901 145.737 86.1757 144.907 85.6374C144.132 85.1547 143.427 84.5667 142.813 83.8919C142.298 83.0283 141.783 82.1281 141.288 81.246C138.825 76.9465 136.272 71.2689 134.158 66.5835C133.823 65.713 133.443 64.8604 133.019 64.0295C132.266 62.4126 131.237 60.2078 130.134 57.4333C130.366 57.1923 130.611 56.9653 130.869 56.7534C132.059 55.7911 133.5 55.1916 135.021 55.0262C135.148 55.0204 135.272 54.9885 135.385 54.9326C135.498 54.8769 135.599 54.7982 135.681 54.7017C135.763 54.6052 135.823 54.4928 135.859 54.3717C135.895 54.2507 135.907 54.1235 135.891 53.998C135.876 53.8725 135.835 53.7515 135.771 53.6426C135.707 53.5337 135.621 53.4391 135.519 53.3649C135.416 53.2907 135.3 53.2384 135.176 53.2112C135.053 53.1841 134.925 53.1827 134.801 53.2072C132.938 53.4098 131.171 54.1432 129.712 55.3202L129.436 55.5591C129.197 54.8976 128.939 54.2178 128.702 53.5012C127.58 50.1387 126.809 47.8052 126.441 46.1331C126.074 44.4612 126.294 43.7813 126.441 43.671C126.588 43.5608 127.268 43.7262 128.003 43.965C128.733 44.2117 129.475 44.4202 130.226 44.5898C133.754 45.3431 136.547 44.6264 142.132 43.1933C144.684 42.544 147.194 41.7402 149.648 40.7863C150.795 40.3437 152.069 40.3625 153.203 40.8386C154.336 41.3148 155.242 42.2113 155.73 43.3403L160.047 53.2991C160.176 53.618 160.411 53.8832 160.712 54.0503C161.013 54.2175 161.362 54.2766 161.701 54.2178C162.038 54.167 162.349 54.0061 162.585 53.7601C162.821 53.5142 162.969 53.197 163.005 52.8581C163.024 52.6376 163.024 52.3252 163.042 51.9578C163.079 51.2963 163.116 50.0836 163.244 49.7344C163.576 48.8525 164.769 48.0625 165.652 48.1176C166.231 48.1763 166.784 48.3923 167.25 48.7423C168.279 49.4405 169.143 50.598 169.731 52.0496C170.171 53.1704 170.631 54.4199 170.741 55.5958L165.78 54.7873C164.489 54.5858 163.171 54.8956 162.105 55.6509C161.579 56.0286 161.135 56.5077 160.797 57.0599C160.46 57.6121 160.236 58.2264 160.139 58.8665L155.803 85.7846C155.781 85.8939 155.77 86.0041 155.767 86.1152C154.631 86.4536 153.477 86.7296 152.312 86.9421ZM176.492 117.369L192.588 113.897C192.808 113.97 193.433 114.687 193.672 116.139L194.921 123.58C192.092 122.772 189.299 123.433 184.779 124.517L184.007 124.701C181.968 125.16 179.322 125.766 177.319 127.126L176.143 119.997C175.886 118.454 176.308 117.48 176.492 117.369ZM174.508 117.186C174.189 118.195 174.126 119.269 174.324 120.31L175.684 128.486C175.702 128.522 175.702 128.559 175.72 128.596C175.017 129.459 174.57 130.504 174.434 131.609C174.232 133.135 173.974 135.982 174.416 138.353C174.545 139.125 174.691 140.006 174.875 141.017C174.733 141.097 174.613 141.211 174.526 141.347L166.313 154.008L172.395 113.529C172.951 114.775 173.628 115.962 174.416 117.076C174.452 117.131 174.471 117.168 174.508 117.186Z" fill="black"/>
<path d="M34.3487 200.879H12.0242C11.7806 200.879 11.5468 200.975 11.3745 201.148C11.2023 201.321 11.1055 201.554 11.1055 201.798C11.1055 202.041 11.2023 202.275 11.3745 202.447C11.5468 202.62 11.7806 202.716 12.0242 202.716H34.3487C34.5923 202.716 34.826 202.62 34.9983 202.447C35.1706 202.275 35.2674 202.041 35.2674 201.798C35.2674 201.554 35.1706 201.321 34.9983 201.148C34.826 200.975 34.5923 200.879 34.3487 200.879Z" fill="black"/>
<path d="M24.6109 54.9147L30.7662 44.7171C30.8619 44.643 30.9772 44.5983 31.0979 44.5885C31.2186 44.5787 31.3395 44.6043 31.446 44.6619L34.2022 45.8563C35.3781 46.3523 36.701 45.9481 37.2339 44.9376L41.809 36.1548C41.847 36.1087 41.8947 36.0716 41.9487 36.0462C42.0027 36.0208 42.0617 36.0076 42.1214 36.0077L47.2477 35.6403C47.6233 35.6227 47.988 35.5088 48.3066 35.3092C48.6253 35.1096 48.8871 34.8313 49.0667 34.501L56.4715 19.6365L55.4059 28.9338L57.2432 29.1358L59.1725 12.1582L46.7884 23.9176L48.0378 25.2589L54.8178 18.8096L47.4131 33.6742C47.3791 33.7189 47.3342 33.7541 47.2827 33.7766C47.2313 33.7991 47.175 33.8081 47.1191 33.8028L41.9928 34.1887C41.6223 34.1985 41.2609 34.3054 40.9449 34.4989C40.6287 34.6925 40.3692 34.9656 40.1921 35.2912L35.5986 44.0923C35.5435 44.1842 35.2495 44.2945 34.9371 44.1659L32.1626 42.9715C31.0417 42.4755 29.774 42.8246 29.2044 43.7616L23.7656 52.765V55.319L24.6109 54.9147Z" fill="#6192BF"/>
<path d="M23.7656 57.3389L44.3997 47.5639C44.715 47.4143 45.0732 47.3817 45.4104 47.472L52.5394 49.4013C52.7003 49.4559 52.8747 49.4559 53.0356 49.4013L69.4804 44.716L61.8919 50.1914L62.976 51.6797L76.8117 41.6658L59.7789 40.4531L59.6502 42.2722L68.9659 42.952L52.76 47.5639L45.8881 45.7082C45.1306 45.4999 44.3239 45.5649 43.6097 45.8919L24.6109 54.9135L23.7656 55.3178V57.3389Z" fill="#3B79AF"/>
<path d="M21.9297 59.0311C21.9297 59.2747 22.0265 59.5084 22.1988 59.6807C22.3711 59.853 22.6048 59.9498 22.8485 59.9498L71.5949 59.2883C71.8385 59.2859 72.0713 59.1868 72.2418 59.0127C72.4124 58.8387 72.5069 58.6041 72.5044 58.3604C72.502 58.1168 72.4028 57.8841 72.2289 57.7135C72.0548 57.543 71.8202 57.4485 71.5765 57.4509L23.7671 58.094V13.8308C23.7671 13.5872 23.6703 13.3535 23.498 13.1812C23.3258 13.0089 23.0921 12.9121 22.8485 12.9121C22.6048 12.9121 22.3711 13.0089 22.1988 13.1812C22.0265 13.3535 21.9297 13.5872 21.9297 13.8308V58.7004C21.9543 58.8092 21.9543 58.9222 21.9297 59.0311Z" fill="black"/>
<path d="M155.892 252.693C155.648 252.69 155.414 252.785 155.24 252.956C155.066 253.126 154.967 253.359 154.965 253.603C154.962 253.847 155.057 254.081 155.227 254.256C155.398 254.429 155.631 254.529 155.874 254.531L198.98 255.21H198.998C199.242 255.213 199.476 255.119 199.651 254.948C199.824 254.777 199.924 254.545 199.926 254.301C199.929 254.058 199.834 253.823 199.663 253.649C199.493 253.475 199.261 253.376 199.017 253.373L155.911 252.712L155.892 252.693Z" fill="black"/>
<path d="M134.341 227.906C134.098 227.904 133.864 227.999 133.689 228.17C133.516 228.34 133.416 228.572 133.414 228.816C133.411 229.06 133.506 229.295 133.676 229.468C133.847 229.643 134.079 229.741 134.323 229.744L177.429 230.406H177.448C177.687 230.401 177.915 230.305 178.085 230.138C178.256 229.971 178.356 229.744 178.366 229.506C178.361 229.265 178.267 229.034 178.1 228.86C177.932 228.686 177.706 228.582 177.466 228.568L134.36 227.906H134.341Z" fill="black"/>
<path d="M205.12 229.396C205.123 229.276 205.102 229.156 205.058 229.043C205.014 228.93 204.949 228.828 204.865 228.741C204.781 228.654 204.682 228.584 204.57 228.536C204.46 228.488 204.341 228.461 204.22 228.459L183.973 228.018C183.73 228.018 183.497 228.111 183.322 228.279C183.148 228.448 183.044 228.676 183.035 228.919C183.032 229.039 183.054 229.159 183.098 229.272C183.142 229.384 183.208 229.486 183.291 229.574C183.375 229.661 183.474 229.73 183.585 229.779C183.696 229.826 183.815 229.853 183.935 229.856L204.183 230.296H204.202C204.443 230.296 204.674 230.202 204.845 230.034C205.017 229.865 205.116 229.636 205.12 229.396Z" fill="black"/>
<path d="M127.985 252.932C127.982 253.052 128.003 253.172 128.047 253.285C128.091 253.397 128.156 253.499 128.24 253.587C128.324 253.674 128.423 253.743 128.535 253.792C128.645 253.84 128.764 253.866 128.885 253.869L149.133 254.309H149.151C149.272 254.31 149.392 254.288 149.503 254.243C149.615 254.198 149.718 254.131 149.803 254.047C149.889 253.962 149.958 253.862 150.005 253.751C150.053 253.64 150.077 253.521 150.079 253.4C150.08 253.28 150.058 253.16 150.013 253.048C149.967 252.935 149.901 252.834 149.816 252.747C149.732 252.661 149.632 252.593 149.521 252.545C149.409 252.499 149.291 252.473 149.17 252.472L128.922 252.032C128.801 252.029 128.681 252.05 128.569 252.094C128.456 252.138 128.353 252.203 128.266 252.287C128.18 252.371 128.109 252.47 128.061 252.582C128.013 252.692 127.987 252.811 127.985 252.932Z" fill="black"/>
<path d="M187.519 243.341C187.762 243.344 187.997 243.25 188.171 243.079C188.346 242.908 188.444 242.675 188.447 242.432C188.449 242.189 188.354 241.954 188.185 241.779C188.014 241.606 187.781 241.506 187.537 241.504L157.679 241.082H157.661C157.419 241.086 157.188 241.184 157.016 241.356C156.846 241.527 156.747 241.758 156.742 242.001C156.742 242.243 156.839 242.477 157.011 242.65C157.184 242.822 157.417 242.919 157.661 242.919L187.519 243.341Z" fill="black"/>
<path d="M131.785 240.971C131.783 241.091 131.805 241.211 131.849 241.324C131.893 241.437 131.958 241.539 132.042 241.626C132.125 241.713 132.225 241.783 132.335 241.832C132.446 241.879 132.565 241.906 132.685 241.908L149.094 242.367H149.113C149.355 242.372 149.591 242.28 149.767 242.111C149.942 241.943 150.045 241.711 150.05 241.467C150.055 241.223 149.962 240.988 149.793 240.812C149.625 240.636 149.392 240.535 149.149 240.53L132.741 240.07C132.495 240.066 132.258 240.157 132.079 240.326C131.9 240.494 131.795 240.726 131.785 240.971Z" fill="black"/>
<path d="M203.592 244.15L204.475 240.64C204.787 239.391 203.501 238.362 201.608 238.344L196.298 238.307C194.405 238.288 192.605 239.3 192.292 240.549L191.411 244.077C191.098 245.326 192.366 246.355 194.258 246.373L199.587 246.41C201.479 246.41 203.262 245.418 203.592 244.15Z" fill="#6192BF"/>
<path d="M208.723 211.187L132.727 210.471H132.709C132.465 210.471 132.232 210.567 132.059 210.74C131.887 210.912 131.79 211.145 131.79 211.389C131.79 211.633 131.887 211.867 132.059 212.039C132.232 212.211 132.465 212.308 132.709 212.308L208.704 213.025C209.153 213.024 209.597 213.122 210.003 213.313C210.41 213.503 210.77 213.781 211.057 214.127C211.34 214.475 211.544 214.88 211.655 215.315C211.766 215.749 211.781 216.204 211.699 216.644L204.037 258.28C203.885 259.128 203.44 259.896 202.778 260.447C202.115 260.999 201.28 261.298 200.418 261.293H200.362L122.769 260.136C122.437 260.134 122.109 260.055 121.813 259.905C121.516 259.755 121.259 259.539 121.06 259.273C120.86 259.008 120.724 258.701 120.664 258.376C120.603 258.051 120.62 257.716 120.711 257.398L130.026 222.322C130.056 222.205 130.063 222.083 130.047 221.964C130.03 221.844 129.989 221.729 129.928 221.624C129.866 221.52 129.785 221.429 129.689 221.357C129.592 221.284 129.482 221.231 129.365 221.201C129.248 221.171 129.126 221.164 129.006 221.181C128.887 221.198 128.772 221.238 128.668 221.3C128.563 221.361 128.473 221.442 128.4 221.539C128.327 221.636 128.275 221.745 128.245 221.862L118.928 256.921C118.769 257.51 118.746 258.127 118.862 258.726C118.977 259.325 119.227 259.89 119.594 260.377C119.961 260.864 120.435 261.262 120.979 261.538C121.522 261.815 122.122 261.964 122.732 261.973L200.344 263.13H200.418C201.71 263.134 202.963 262.684 203.958 261.858C204.951 261.032 205.624 259.882 205.856 258.611L213.5 216.975C213.636 216.273 213.613 215.549 213.436 214.857C213.257 214.164 212.928 213.519 212.471 212.969C212.015 212.415 211.444 211.969 210.795 211.66C210.148 211.352 209.44 211.191 208.723 211.187Z" fill="black"/>
<path d="M206.349 220.044C206.47 220.045 206.589 220.023 206.701 219.978C206.813 219.933 206.915 219.866 207.001 219.782C207.087 219.697 207.156 219.597 207.203 219.485C207.251 219.374 207.275 219.255 207.276 219.134C207.278 219.013 207.256 218.895 207.21 218.782C207.165 218.67 207.099 218.569 207.014 218.482C206.93 218.396 206.829 218.327 206.719 218.28C206.607 218.232 206.487 218.208 206.367 218.207L163.261 217.545H163.243C163.003 217.545 162.772 217.64 162.6 217.807C162.429 217.976 162.329 218.205 162.324 218.446C162.324 218.688 162.418 218.921 162.586 219.095C162.753 219.27 162.982 219.373 163.225 219.383L206.33 220.044H206.349Z" fill="black"/>
<path d="M109.088 215.436L73.5234 239.431L75.215 241.938L110.779 217.943L109.088 215.436Z" fill="#6192BF"/>
<path d="M116.832 210.489L109.353 212.859C109.194 212.906 109.045 212.983 108.916 213.087C108.787 213.19 108.679 213.319 108.6 213.465L71.1722 238.62L71.0253 238.417L66.9646 241.21C66.8155 241.315 66.7009 241.462 66.6355 241.632C66.57 241.802 66.5567 241.988 66.5971 242.166L66.8728 243.415C67.1475 244.617 67.8536 245.676 68.8572 246.392L69.9412 247.146C70.0909 247.26 70.2734 247.323 70.4619 247.327C70.6504 247.33 70.835 247.272 70.9885 247.163L75.0492 244.37L74.9206 244.169L112.349 219.015C112.677 218.983 112.98 218.825 113.193 218.573L118.209 212.528C118.384 212.315 118.484 212.049 118.496 211.774C118.509 211.498 118.432 211.226 118.277 210.998C118.123 210.769 117.898 210.596 117.638 210.505C117.379 210.413 117.096 210.407 116.832 210.489ZM108.545 215.726L110.236 218.224L74.6634 242.13L72.9729 239.612L108.545 215.726Z" fill="black"/>
<path d="M167.527 116.247C167.487 116.132 167.426 116.025 167.346 115.935C167.265 115.843 167.167 115.769 167.058 115.716C166.948 115.663 166.83 115.632 166.708 115.626C166.587 115.619 166.465 115.636 166.351 115.677C164.036 116.43 160.398 117.147 156.263 116.173C154.491 115.761 152.794 115.08 151.228 114.152C151.017 114.03 150.765 113.997 150.529 114.061C150.293 114.125 150.092 114.28 149.971 114.492C149.849 114.704 149.815 114.956 149.88 115.192C149.943 115.428 150.098 115.629 150.31 115.75C152.038 116.762 153.908 117.505 155.859 117.955C157.327 118.312 158.832 118.491 160.342 118.488C162.583 118.475 164.808 118.115 166.939 117.423C167.168 117.339 167.357 117.17 167.467 116.952C167.577 116.732 167.598 116.481 167.527 116.247Z" fill="black"/>
<path d="M149.04 15.9611C149.083 16.0732 149.151 16.1754 149.235 16.2615C149.319 16.3476 149.42 16.4157 149.532 16.462C149.643 16.5083 149.763 16.5318 149.883 16.5309C150.004 16.53 150.123 16.5049 150.234 16.4572C152.273 15.5936 155.471 14.6932 159.072 15.2445C161.644 15.6303 163.666 16.6409 165.007 17.3024C166.737 18.1624 168.365 19.2165 169.858 20.4443C169.95 20.5237 170.058 20.5838 170.173 20.6212C170.289 20.6587 170.412 20.6726 170.533 20.6624C170.655 20.6521 170.773 20.6178 170.881 20.5614C170.988 20.5051 171.085 20.4278 171.162 20.3341C171.311 20.1412 171.381 19.8988 171.357 19.6563C171.333 19.4138 171.217 19.1896 171.034 19.0296C169.432 17.7118 167.688 16.5778 165.833 15.6487C164.382 14.9321 162.214 13.8481 159.348 13.4254C156.15 12.9294 152.751 13.4071 149.517 14.7667C149.297 14.8637 149.124 15.043 149.035 15.2663C148.945 15.4896 148.947 15.7391 149.04 15.9611Z" fill="white"/>
<path d="M53.5322 195.366C54.1202 195.366 54.6897 195.349 55.241 195.293L40.5969 173.244L37.7305 175.081L50.4453 195.11C51.4643 195.289 52.4975 195.375 53.5322 195.366Z" fill="#3B79AF"/>
<path d="M68.1957 218.224V186.456H68.1222C67.6996 180.981 61.3238 176.626 53.5331 176.626C51.2731 176.626 48.2965 177.195 45.9998 178.059L41.6452 171.481H41.6818L39.6608 168.21C39.4272 167.834 39.0824 167.54 38.6741 167.369C38.2658 167.198 37.8143 167.158 37.3823 167.255H37.364C35.8918 167.584 34.5837 168.424 33.6707 169.625C33.4089 169.966 33.2565 170.379 33.2335 170.809C33.2106 171.238 33.3181 171.665 33.5421 172.032L35.5816 175.321L35.6736 175.266V175.302L40.2854 182.56C39.4035 184.067 38.9258 185.648 38.9258 187.063C38.9259 187.327 38.9442 187.59 38.9809 187.853V218.224H38.9992C39.4954 223.664 45.8528 227.963 53.5883 227.963C61.3238 227.963 67.6813 223.664 68.159 218.224H68.1957ZM66.1194 217.563C66.1194 222.157 60.497 225.887 53.5883 225.887C46.6796 225.887 41.0572 222.157 41.0572 217.563V192.445C43.6111 195.441 48.2598 197.462 53.5331 197.462C58.8065 197.462 63.5838 195.385 66.1194 192.335V217.563ZM53.5331 178.702C60.4602 178.702 66.0827 182.45 66.0827 187.044C66.0827 190.774 62.3527 193.953 57.2447 195L47.1758 179.823C48.8478 179.254 51.4018 178.702 53.5331 178.702ZM41.0572 187.724V187.356H41.0204C41.0045 187.253 40.9984 187.148 41.0021 187.044C41.0248 186.214 41.2453 185.401 41.6452 184.674L47.8555 194.467C44.0889 193.181 41.4063 190.664 41.0572 187.724ZM40.5978 173.245L55.242 195.294C54.6907 195.349 54.1211 195.367 53.5331 195.367C52.4985 195.376 51.4652 195.29 50.4463 195.11L37.7314 175.082L40.5978 173.245Z" fill="black"/>
</g>
<defs>
<filter id="filter0_d_3105_3984" x="0.878906" y="0.839844" width="266.117" height="270.291" filterUnits="userSpaceOnUse" color-interpolation-filters="sRGB">
<feFlood flood-opacity="0" result="BackgroundImageFix"/>
<feColorMatrix in="SourceAlpha" type="matrix" values="0 0 0 0 0 0 0 0 0 0 0 0 0 0 0 0 0 0 127 0" result="hardAlpha"/>
<feOffset dy="4"/>
<feGaussianBlur stdDeviation="2"/>
<feComposite in2="hardAlpha" operator="out"/>
<feColorMatrix type="matrix" values="0 0 0 0 0 0 0 0 0 0 0 0 0 0 0 0 0 0 0.25 0"/>
<feBlend mode="normal" in2="BackgroundImageFix" result="effect1_dropShadow_3105_3984"/>
<feBlend mode="normal" in="SourceGraphic" in2="effect1_dropShadow_3105_3984" result="shape"/>
</filter>
</defs>
</svg>
