<svg width="215" height="98" viewBox="0 0 215 98" fill="none" xmlns="http://www.w3.org/2000/svg">
<path d="M0.261858 93.3018C-0.415131 94.814 0.26197 96.5887 1.7742 97.2657C3.28644 97.9427 5.06115 97.2656 5.73814 95.7534L0.261858 93.3018ZM120 38.5276L121.182 35.7702L121.127 35.7466L121.071 35.7253L120 38.5276ZM213.741 27.4724C215.09 26.5109 215.405 24.6376 214.443 23.2883L198.773 1.30047C197.812 -0.0488148 195.939 -0.363121 194.589 0.598442C193.24 1.56001 192.926 3.43332 193.887 4.7826L207.816 24.3273L188.271 38.2558C186.922 39.2174 186.608 41.0907 187.569 42.44C188.531 43.7893 190.404 44.1036 191.753 43.142L213.741 27.4724ZM120.129 94.4936L120.898 97.3932L120.129 94.4936ZM119.867 94.5271L119.847 97.527L119.867 94.5271ZM5.73814 95.7534C11.9831 81.8037 25.2134 62.2956 44.4456 49.261C63.5447 36.3165 88.5657 29.7261 118.929 41.3299L121.071 35.7253C88.6343 23.3291 61.572 30.4053 41.0794 44.2942C20.7199 58.0929 6.85028 78.5848 0.261858 93.3018L5.73814 95.7534ZM118.818 41.285C121.53 42.4472 124.903 45.5958 127.957 50.2417C130.956 54.8052 133.401 60.4451 134.482 66.1039C135.566 71.7795 135.236 77.2226 133.029 81.6291C130.873 85.9327 126.734 89.637 119.359 91.594L120.898 97.3932C129.685 95.0614 135.358 90.3745 138.393 84.3165C141.376 78.3615 141.616 71.4727 140.375 64.9781C139.131 58.4666 136.357 52.0977 132.971 46.9462C129.639 41.8769 125.461 37.604 121.182 35.7702L118.818 41.285ZM119.888 91.5272C113.019 91.4797 107.892 86.9813 105.716 79.8225C103.525 72.6096 104.482 62.8891 110.114 53.577C121.25 35.1641 151.201 17.8703 211.504 27.988L212.496 22.0707C150.958 11.7457 117.915 29.0838 104.98 50.472C98.5765 61.0604 97.2303 72.5328 99.9754 81.5669C102.737 90.655 109.788 97.4576 119.847 97.527L119.888 91.5272ZM119.359 91.594C119.453 91.5691 119.539 91.5533 119.616 91.5433C119.694 91.5333 119.784 91.5265 119.888 91.5272L119.847 97.527C120.205 97.5295 120.565 97.4818 120.898 97.3932L119.359 91.594Z" fill="#004079"/>
</svg>
