<svg width="1512" height="662" viewBox="0 0 1512 662" fill="none" xmlns="http://www.w3.org/2000/svg">
<mask id="mask0_21_1032" style="mask-type:alpha" maskUnits="userSpaceOnUse" x="0" y="0" width="1512" height="856">
<rect width="1512" height="856" fill="#004079"/>
</mask>
<g mask="url(#mask0_21_1032)">
<g opacity="0.14">
<path opacity="0.66" d="M587.366 759.977L1456.99 213.782C1460.24 211.743 1464.08 215.304 1462.3 218.7L1123.58 865.063C1120.19 871.532 1113.05 875.094 1105.85 873.923L593.688 791.083C578.243 788.595 574.115 768.3 587.366 759.977Z" fill="url(#paint0_linear_21_1032)"/>
<path opacity="0.66" d="M1458.65 216.192L664.887 985.79C652.027 998.251 664.751 1019.55 681.826 1014.14L1111.26 877.992C1115.52 876.645 1119.08 873.659 1121.16 869.698L1462.24 218.856C1463.42 216.582 1460.5 214.406 1458.65 216.192Z" fill="url(#paint1_linear_21_1032)"/>
<path d="M1340.43 37.2134C1323.35 37.2134 1316.98 59.6259 1331.52 68.6026L1487.27 164.858C1493.35 168.595 1501.12 168.147 1506.72 163.727L1628.35 67.4708C1640.95 57.4988 1633.91 37.2036 1617.83 37.2036H1340.43V37.2134Z" fill="url(#paint2_linear_21_1032)"/>
<path opacity="0.64" d="M1450.25 199.887L120.683 -266.971C104.056 -272.796 90.6596 -252.569 102.515 -239.543L1101.59 857.96C1109.51 866.673 1123.69 864.848 1129.15 854.418L1459.64 223.764C1464.45 214.601 1460.01 203.312 1450.25 199.887Z" fill="url(#paint3_linear_21_1032)"/>
</g>
</g>
<defs>
<linearGradient id="paint0_linear_21_1032" x1="579.415" y1="543.667" x2="1462.75" y2="543.667" gradientUnits="userSpaceOnUse">
<stop stop-color="white"/>
<stop offset="0.092" stop-color="#F9FDFE"/>
<stop offset="0.2175" stop-color="#E7F8FB"/>
<stop offset="0.3624" stop-color="#CBF0F5"/>
<stop offset="0.5217" stop-color="#A2E5EE"/>
<stop offset="0.693" stop-color="#6FD7E4"/>
<stop offset="0.8713" stop-color="#31C6D9"/>
<stop offset="1" stop-color="#00B8D0"/>
</linearGradient>
<linearGradient id="paint1_linear_21_1032" x1="659.631" y1="615.27" x2="1462.5" y2="615.27" gradientUnits="userSpaceOnUse">
<stop stop-color="white"/>
<stop offset="0.092" stop-color="#F9FDFE"/>
<stop offset="0.2175" stop-color="#E7F8FB"/>
<stop offset="0.3624" stop-color="#CBF0F5"/>
<stop offset="0.5217" stop-color="#A2E5EE"/>
<stop offset="0.693" stop-color="#6FD7E4"/>
<stop offset="0.8713" stop-color="#31C6D9"/>
<stop offset="1" stop-color="#00B8D0"/>
</linearGradient>
<linearGradient id="paint2_linear_21_1032" x1="1323.44" y1="102.3" x2="1634.8" y2="102.3" gradientUnits="userSpaceOnUse">
<stop stop-color="white"/>
<stop offset="0.092" stop-color="#F9FDFE"/>
<stop offset="0.2175" stop-color="#E7F8FB"/>
<stop offset="0.3624" stop-color="#CBF0F5"/>
<stop offset="0.5217" stop-color="#A2E5EE"/>
<stop offset="0.693" stop-color="#6FD7E4"/>
<stop offset="0.8713" stop-color="#31C6D9"/>
<stop offset="1" stop-color="#00B8D0"/>
</linearGradient>
<linearGradient id="paint3_linear_21_1032" x1="98.0024" y1="297.755" x2="1461.6" y2="297.755" gradientUnits="userSpaceOnUse">
<stop stop-color="white"/>
<stop offset="0.092" stop-color="#F9FDFE"/>
<stop offset="0.2175" stop-color="#E7F8FB"/>
<stop offset="0.3624" stop-color="#CBF0F5"/>
<stop offset="0.5217" stop-color="#A2E5EE"/>
<stop offset="0.693" stop-color="#6FD7E4"/>
<stop offset="0.8713" stop-color="#31C6D9"/>
<stop offset="1" stop-color="#00B8D0"/>
</linearGradient>
</defs>
</svg>
