<svg width="44" height="28" viewBox="0 0 44 28" fill="none" xmlns="http://www.w3.org/2000/svg">
<path d="M14.2596 11.0293C14.2554 11.1135 14.2472 11.1809 14.2472 11.2482C14.2472 12.924 14.2513 16.5575 14.2513 16.5575H21.4645C21.4645 17.1049 20.8293 19.3027 18.8168 20.6963C17.6331 21.5131 16.3051 21.8878 14.8988 21.9805C13.9049 22.0478 12.9274 21.9426 11.9748 21.6352C8.96413 20.65 6.7247 17.8711 6.41952 14.486C6.34528 13.6481 6.3989 12.8145 6.58448 11.9935C7.47943 7.9852 11.1912 5.0211 15.4473 5.66108C17.3321 5.94738 18.4167 6.74735 19.4065 7.61048C20.7097 6.28 22.0006 4.96216 23.3286 3.60642C23.0069 3.36643 22.2604 2.59593 20.9407 1.81702C18.9611 0.650744 16.8289 0.0655024 14.5482 0.0444506C14.1193 0.0360299 13.6863 0.0655025 13.2615 0.0823439C12.5109 0.116027 11.7727 0.246548 11.0427 0.436015C8.13104 1.19388 5.71016 2.75593 3.81304 5.1432C1.99429 7.43364 1.01274 10.0651 0.831274 12.9997C0.752914 14.2418 0.84777 15.4839 1.11584 16.7049C1.87469 20.1111 3.62333 22.8604 6.38652 24.9235C8.52696 26.5234 10.9355 27.3739 13.5791 27.5255C15.0679 27.6097 16.5443 27.4666 17.996 27.0792C20.6974 26.3592 22.9368 24.9235 24.6236 22.6331C27.0651 19.3153 27.6548 15.0712 26.9331 11.0377H14.2596V11.0293Z" fill="#004079"/>
<path d="M43.227 11.21H38.6616V6.5491V6.41016H38.5255H35.1189H34.9828V6.5491V11.21H30.4173H30.2812V11.3447V14.8267V14.9656H30.4173H34.9828V19.6265V19.7612H35.1189H38.5255H38.6616V19.6265V14.9656H43.227H43.359V14.8267V11.3447V11.21H43.227Z" fill="#004079"/>
</svg>
