<svg width="112" height="112" viewBox="0 0 112 112" fill="none" xmlns="http://www.w3.org/2000/svg">
<g clip-path="url(#clip0_2358_3591)">
<path d="M14 56H18.6667M56 14V18.6667M93.3333 56H98M26.1333 26.1333L29.4 29.4M85.8667 26.1333L82.6 29.4" stroke="#3273BA" stroke-width="4" stroke-linecap="round" stroke-linejoin="round"/>
<path d="M42.0052 74.668C38.0874 71.7296 35.1934 67.633 33.7332 62.9585C32.273 58.284 32.3206 53.2686 33.8693 48.6227C35.4179 43.9767 38.3891 39.9358 42.362 37.0723C46.3348 34.2088 51.1079 32.668 56.0052 32.668C60.9025 32.668 65.6756 34.2088 69.6484 37.0723C73.6213 39.9358 76.5925 43.9767 78.1411 48.6227C79.6898 53.2686 79.7374 58.284 78.2772 62.9585C76.817 67.633 73.923 71.7296 70.0052 74.668C68.1832 76.4716 66.8113 78.6787 66.0006 81.1109C65.1899 83.543 64.9631 86.1319 65.3385 88.668C65.3385 91.1433 64.3552 93.5173 62.6049 95.2676C60.8545 97.018 58.4806 98.0013 56.0052 98.0013C53.5299 98.0013 51.1559 97.018 49.4055 95.2676C47.6552 93.5173 46.6719 91.1433 46.6719 88.668C47.0473 86.1319 46.8205 83.543 46.0098 81.1109C45.1991 78.6787 43.8272 76.4716 42.0052 74.668Z" stroke="#3273BA" stroke-width="4" stroke-linecap="round" stroke-linejoin="round"/>
<path d="M45.2656 79.332H66.7323" stroke="#3273BA" stroke-width="4" stroke-linecap="round" stroke-linejoin="round"/>
</g>
<defs>
<clipPath id="clip0_2358_3591">
<rect width="112" height="112" fill="white"/>
</clipPath>
</defs>
</svg>
