<svg width="313" height="313" viewBox="0 0 313 313" fill="none" xmlns="http://www.w3.org/2000/svg">
<path d="M267.327 179.311C268.339 172.664 269.969 167.854 271.394 163.602L271.435 163.499C272.508 160.134 273.818 156.851 275.357 153.673C276.431 151.506 277.484 149.69 278.351 148.306H278.309L278.804 147.604L279.63 146.304C280.27 145.334 280.931 144.384 281.591 143.475C280.393 142.423 279.176 141.412 277.896 140.441C276.503 142.142 275.207 143.92 274.016 145.767L273.974 145.726C272.058 148.788 270.322 151.959 268.772 155.221C266.966 158.958 265.601 162.893 264.706 166.946C263.137 173.118 262.476 180.054 264.065 186.102C264.54 187.878 265.634 189.013 266.377 190.458L266.501 187.608C266.626 185.73 266.79 182.923 267.327 179.311Z" fill="#3B79AF"/>
<path d="M192.645 193.946C192.665 193.72 192.665 193.513 192.685 193.307C192.706 193.1 192.685 192.398 192.665 191.965C192.665 192.625 192.665 193.286 192.645 193.946Z" fill="#3B79AF"/>
<path d="M178.816 144.488L178.92 144.652L179.249 144.178L178.816 144.488Z" fill="#3B79AF"/>
<path d="M180.156 146.447C180.962 147.666 181.705 148.842 182.427 150.039L182.612 149.915L182.675 150.019L182.468 150.143C182.943 150.947 183.397 151.753 183.851 152.578C186.329 157.223 187.814 161.31 188.805 164.014C190.787 169.463 192.852 175.099 193.966 182.427C194.502 185.936 194.709 188.888 194.771 194.42C195.514 193.037 196.484 191.881 196.917 190.126C198.507 183.707 197.867 176.338 196.278 169.815C195.886 168.205 195.432 166.657 194.957 165.17C192.892 158.833 190.394 152.888 186.968 147.293C185.905 145.551 184.754 143.863 183.521 142.236C182.592 143.166 181.477 144.59 180.156 146.447Z" fill="#3B79AF"/>
<path d="M257.708 135.343C256.726 137.231 255.63 139.058 254.426 140.813C250.359 146.8 245.777 151.175 242.454 154.375C239.13 157.574 235.992 160.238 232.484 163.004C232.31 163.132 232.101 163.204 231.885 163.21H231.74C231.568 163.208 231.398 163.165 231.244 163.086C225.238 159.845 219.768 155.015 214.979 148.719C210.954 143.455 207.506 137.262 204.699 130.347C203.171 130.925 201.686 131.545 200.281 132.164C203.192 139.513 206.825 146.076 211.078 151.671C213.976 155.524 217.346 158.998 221.109 162.012C224.179 164.649 227.562 166.895 231.183 168.7C231.432 168.926 231.74 169.076 232.071 169.134H232.132C232.345 169.169 232.562 169.161 232.773 169.113L232.813 169.155L232.917 169.073C233.126 168.995 233.322 168.884 233.495 168.742C235.394 167.173 237.252 165.563 239.047 163.932C242.247 161.187 245.591 158.215 247.346 156.481C250.525 153.384 255.293 148.719 259.401 142.547C261.562 139.361 263.356 135.939 264.747 132.349C263.179 131.565 261.609 130.822 260.061 130.141C259.398 131.927 258.612 133.665 257.708 135.343Z" fill="#3B79AF"/>
<path d="M177.741 288.466L176.07 289.684C175.067 290.405 173.819 290.699 172.601 290.502C171.382 290.305 170.291 289.632 169.567 288.631L167.854 286.278C167.775 286.166 167.676 286.071 167.56 285.998C167.445 285.926 167.315 285.877 167.18 285.856C167.045 285.835 166.907 285.841 166.775 285.875C166.642 285.908 166.517 285.968 166.409 286.051C166.193 286.212 166.048 286.452 166.005 286.718C165.963 286.984 166.026 287.256 166.182 287.476L167.895 289.85C168.517 290.711 169.336 291.413 170.285 291.894C171.232 292.375 172.281 292.622 173.345 292.616C174.757 292.613 176.135 292.173 177.287 291.356L178.959 290.139C179.069 290.058 179.162 289.957 179.233 289.841C179.304 289.726 179.351 289.597 179.372 289.463C179.393 289.329 179.388 289.191 179.355 289.06C179.324 288.927 179.267 288.803 179.186 288.694C179.106 288.584 179.006 288.49 178.89 288.42C178.774 288.349 178.645 288.301 178.511 288.28C178.377 288.26 178.24 288.265 178.107 288.297C177.976 288.328 177.851 288.387 177.741 288.466Z" fill="black"/>
<path d="M69.5561 163.044C69.5561 162.77 69.4474 162.507 69.2539 162.314C69.0604 162.12 68.7979 162.012 68.5241 162.012H21.4805C17.8062 162.012 14.6892 160.113 14.6892 157.843V95.0074C14.6892 92.7574 17.8062 90.8377 21.4805 90.8377C21.7543 90.8377 22.0168 90.729 22.2103 90.5354C22.4038 90.3418 22.5126 90.0793 22.5126 89.8056C22.5126 89.5318 22.4038 89.2693 22.2103 89.0758C22.0168 88.8822 21.7543 88.7734 21.4805 88.7734C16.5263 88.7734 12.625 91.5189 12.625 95.0074V157.843C12.625 161.331 16.5263 164.077 21.4805 164.077H68.5241C68.7979 164.077 69.0604 163.967 69.2539 163.774C69.4474 163.58 69.5561 163.318 69.5561 163.044Z" fill="black"/>
<path d="M33.1414 100.623H81.5268C81.8005 100.623 82.063 100.514 82.2566 100.32C82.4501 100.127 82.5589 99.8644 82.5589 99.5907C82.5589 99.3169 82.4501 99.0544 82.2566 98.8608C82.063 98.6673 81.8005 98.5586 81.5268 98.5586H33.1414C32.8678 98.5586 32.6052 98.6673 32.4116 98.8608C32.2181 99.0544 32.1094 99.3169 32.1094 99.5907C32.1094 99.8644 32.2181 100.127 32.4116 100.32C32.6052 100.514 32.8678 100.623 33.1414 100.623Z" fill="black"/>
<path d="M32.7703 144.342H55.7452C59.3438 146.561 63.4897 147.734 67.7176 147.728C69.7017 147.723 71.6778 147.474 73.6007 146.985L74.8805 149.111C74.738 149.044 74.5833 149.01 74.4264 149.008H33.142C32.8682 149.008 32.6057 149.116 32.4122 149.309C32.2186 149.503 32.1098 149.766 32.1098 150.04C32.1098 150.313 32.2186 150.576 32.4122 150.769C32.6057 150.963 32.8682 151.071 33.142 151.071H72.5892C72.0055 151.614 71.5354 152.266 71.2061 152.991C70.8552 153.9 70.9998 154.581 71.2061 154.993C71.6603 155.964 72.6925 156.48 74.0548 156.645C73.7562 157.025 73.5067 157.441 73.3117 157.883C73.1748 158.2 73.1041 158.541 73.1041 158.885C73.1041 159.229 73.1748 159.569 73.3117 159.886C73.8897 161.104 75.3966 161.599 77.3163 161.599H77.502C77.0574 162.048 76.7066 162.582 76.4699 163.168C76.0984 164.077 76.2635 164.757 76.4699 165.17C77.0273 166.388 78.5342 166.883 80.4539 166.883H80.8461C80.4429 167.345 80.128 167.876 79.9172 168.452C79.8189 168.738 79.7793 169.041 79.8006 169.342C79.8219 169.644 79.9037 169.938 80.0411 170.207C80.5571 171.115 81.6511 171.486 83.0548 171.486C83.9032 171.478 84.748 171.375 85.5731 171.178L85.697 171.322C86.1376 171.823 86.6211 172.287 87.142 172.705C88.4176 173.733 89.8638 174.53 91.4149 175.058C92.9675 175.566 94.591 175.824 96.2245 175.821C97.3536 175.811 98.4796 175.7 99.5892 175.492C99.8587 175.436 100.096 175.278 100.25 175.05C100.404 174.823 100.464 174.544 100.415 174.273C100.388 174.141 100.335 174.014 100.259 173.902C100.183 173.79 100.086 173.693 99.9727 173.619C99.8596 173.544 99.7329 173.492 99.5998 173.467C99.4667 173.441 99.3298 173.442 99.197 173.469C98.2166 173.651 97.2218 173.748 96.2245 173.758L97.4631 173.014C98.4672 172.405 99.1931 171.427 99.486 170.29C99.6357 169.722 99.6709 169.131 99.5894 168.549C99.5078 167.968 99.3113 167.409 99.0113 166.904L97.2979 164.056C97.3704 163.925 97.4259 163.787 97.4631 163.643C97.5732 163.356 97.6193 163.048 97.5979 162.741C97.5765 162.434 97.4882 162.136 97.3392 161.868C97.0296 161.29 96.4516 160.918 95.7085 160.732C96.369 160.071 96.8644 159.432 97.0915 158.812C97.2367 158.499 97.3136 158.159 97.3171 157.814C97.3206 157.468 97.2507 157.126 97.1121 156.81C96.5135 155.551 94.9447 155.056 92.9217 155.097C93.3603 154.634 93.7101 154.096 93.9539 153.508C94.0958 153.193 94.1692 152.851 94.1692 152.506C94.1692 152.161 94.0958 151.82 93.9539 151.506C93.4998 150.555 92.4677 150.04 91.1052 149.875C91.4038 149.494 91.6535 149.078 91.8484 148.636C91.9853 148.32 92.0559 147.979 92.0559 147.635C92.0559 147.29 91.9853 146.949 91.8484 146.633C91.1053 145.044 88.7727 144.694 85.9653 145.065L83.8186 141.452C87.4526 138.149 89.9882 133.813 91.0846 129.026C92.2583 123.951 91.6383 118.626 89.3301 113.957C88.7941 112.907 88.18 111.901 87.4929 110.943V95.0074C87.4929 91.5189 83.6121 88.7734 78.6374 88.7734H33.1007C32.8269 88.7734 32.5644 88.8822 32.3709 89.0758C32.1773 89.2693 32.0686 89.5318 32.0686 89.8056C32.0686 90.0793 32.1773 90.3418 32.3709 90.5354C32.5644 90.729 32.8269 90.8377 33.1007 90.8377H78.6374C82.3323 90.8377 85.4286 92.7574 85.4286 95.0074V108.487C82.9224 105.924 79.8247 104.017 76.408 102.934C70.4424 100.994 64.0227 101.572 58.3254 104.523C57.3881 105.013 56.4847 105.564 55.6213 106.175H33.2452C32.9714 106.175 32.7089 106.283 32.5154 106.477C32.3218 106.67 32.2131 106.933 32.2131 107.207C32.2131 107.481 32.3218 107.743 32.5154 107.937C32.7089 108.13 32.9714 108.24 33.2452 108.24H53.0411C49.5885 111.447 47.149 115.594 46.0227 120.17H33.142C32.8682 120.17 32.6057 120.279 32.4122 120.473C32.2186 120.666 32.1098 120.929 32.1098 121.202C32.1098 121.476 32.2186 121.738 32.4122 121.932C32.6057 122.125 32.8682 122.235 33.142 122.235H45.6305C45.3347 124.153 45.2862 126.103 45.486 128.035H34.0709C33.7971 128.035 33.5346 128.143 33.341 128.337C33.1475 128.53 33.0387 128.793 33.0387 129.067C33.0387 129.341 33.1475 129.603 33.341 129.797C33.5346 129.99 33.7971 130.099 34.0709 130.099H45.8163C46.7748 134.831 49.2714 139.113 52.9172 142.278H32.7703C32.4967 142.278 32.2342 142.387 32.0405 142.581C31.847 142.774 31.7383 143.037 31.7383 143.31C31.7383 143.583 31.847 143.846 32.0405 144.04C32.2342 144.233 32.4967 144.342 32.7703 144.342ZM59.2956 106.36C61.8042 105.028 64.5544 104.212 67.3836 103.961C70.2128 103.709 73.0637 104.027 75.7681 104.895C78.2887 105.692 80.6236 106.986 82.6342 108.703C84.6447 110.419 86.2899 112.521 87.4722 114.886C91.7865 123.473 89.4745 134 81.8163 140.462L81.1558 141.019L83.7979 145.457C82.3993 145.801 81.0266 146.242 79.6901 146.778C78.6716 147.177 77.6789 147.639 76.7176 148.161L74.5502 144.549L73.7865 144.776C64.1259 147.645 53.9286 143.393 49.5525 134.661C44.4539 124.505 48.8301 111.81 59.2956 106.36ZM89.9699 147.521C90.0112 147.583 89.9906 147.707 89.9286 147.872C89.7016 148.43 89.0617 149.152 88.0709 149.936C85.9247 150.254 83.8246 150.829 81.8163 151.65C79.8739 152.401 78.03 153.385 76.3254 154.581C74.4057 154.767 73.2291 154.478 73.064 154.126C73.0504 153.999 73.0718 153.871 73.1259 153.755C73.6213 152.496 76.3048 150.35 80.4539 148.698C86.048 146.447 89.6603 146.861 89.9699 147.521ZM95.2337 157.677C95.2506 157.739 95.2538 157.805 95.2431 157.87C95.2324 157.934 95.2081 157.995 95.1718 158.048C94.9035 158.771 93.9126 159.762 92.3644 160.794C90.4706 161.182 88.6329 161.806 86.8942 162.651C85.8036 163.152 84.7544 163.74 83.7566 164.406C80.5364 165.109 78.5548 164.778 78.3277 164.282C78.3148 164.162 78.3362 164.04 78.3897 163.932C78.8851 162.651 81.5685 160.505 85.7176 158.854C88.9172 157.574 91.4768 157.161 93.1282 157.161C94.3668 157.161 95.1098 157.388 95.2337 157.677ZM97.236 167.978C97.5495 168.522 97.6385 169.167 97.4845 169.775C97.3302 170.385 96.945 170.909 96.4103 171.239L94.0778 172.623C93.5384 172.946 92.8924 173.042 92.2819 172.891C91.6707 172.728 91.1458 172.336 90.8163 171.796L89.6396 169.836L90.5066 169.444C92.4264 168.535 94.5525 167.235 95.9562 165.851L97.236 167.978ZM89.619 167.565C85.1603 169.691 82.2498 169.608 81.8575 169.216C81.8163 168.68 83.4882 166.533 87.7612 164.51C92.0342 162.487 95.1718 162.466 95.5433 162.858C95.5846 163.395 93.9333 165.541 89.619 167.565ZM92.0342 152.764C91.7452 153.508 90.6925 154.56 89.0204 155.634C87.6376 155.976 86.2791 156.411 84.9539 156.934C83.4442 157.542 81.9874 158.274 80.5984 159.122C77.3782 159.824 75.4172 159.493 75.1901 158.999C75.1732 158.94 75.1682 158.879 75.1753 158.818C75.1824 158.759 75.2015 158.7 75.2314 158.647C75.7474 157.368 78.4103 155.221 82.58 153.569C85.7796 152.289 88.3186 151.877 89.9906 151.877C91.2291 151.877 91.9515 152.103 92.0961 152.392C92.1097 152.52 92.0882 152.648 92.0342 152.764Z" fill="black"/>
<path d="M76.7822 126.961H60.2478C59.7003 126.961 59.1753 127.179 58.7882 127.566C58.401 127.953 58.1836 128.478 58.1836 129.026C58.1836 129.573 58.401 130.098 58.7882 130.485C59.1753 130.872 59.7003 131.089 60.2478 131.089H76.7822C77.3297 131.089 77.8547 130.872 78.2418 130.485C78.629 130.098 78.8464 129.573 78.8464 129.026C78.8464 128.478 78.629 127.953 78.2418 127.566C77.8547 127.179 77.3297 126.961 76.7822 126.961Z" fill="black"/>
<path d="M23.8723 107.228C26.0498 107.228 27.815 105.417 27.815 103.183C27.815 100.948 26.0498 99.1367 23.8723 99.1367C21.6949 99.1367 19.9297 100.948 19.9297 103.183C19.9297 105.417 21.6949 107.228 23.8723 107.228Z" fill="#3B79AF"/>
<path d="M23.8723 129.293C26.0498 129.293 27.815 127.482 27.815 125.247C27.815 123.013 26.0498 121.201 23.8723 121.201C21.6949 121.201 19.9297 123.013 19.9297 125.247C19.9297 127.482 21.6949 129.293 23.8723 129.293Z" fill="#6192BF"/>
<path d="M23.8732 151.072C26.6207 151.072 28.848 148.798 28.848 145.994C28.848 143.189 26.6207 140.916 23.8732 140.916C21.1256 140.916 18.8984 143.189 18.8984 145.994C18.8984 148.798 21.1256 151.072 23.8732 151.072Z" fill="black"/>
<path d="M36.5274 229.945V240.349C37.2741 239.134 38.1163 237.981 39.0457 236.902C39.4454 236.366 39.9605 235.929 40.5525 235.621C41.1209 235.361 41.7537 235.274 42.3711 235.373C42.9885 235.472 43.5625 235.753 44.0205 236.179C44.5365 236.695 44.8049 237.314 45.0526 237.851L45.1557 238.098C45.2384 238.284 45.5067 238.862 45.8164 239.007H45.8989C45.8989 239.007 46.2911 238.862 46.7246 237.603L49.2223 230.44C49.6351 229.284 50.0892 227.963 50.9356 226.828C51.7819 225.692 53.392 224.66 54.8369 224.639H54.8782C57.6237 224.639 59.2957 227.137 60.4516 229.326L64.2498 236.447C64.4356 236.777 64.6214 237.149 64.8484 237.294C65.0755 237.438 65.0755 237.396 65.1168 237.376C65.7567 237.273 66.7062 235.89 67.2223 235.147C67.472 234.764 67.7479 234.398 68.0479 234.052L68.4814 233.557C69.8438 232.029 72.1351 229.449 74.798 231.225C75.9333 231.968 76.8622 233.248 77.8736 234.61C80.3301 237.954 81.7337 239.337 84.025 237.706C85.1604 236.881 86.1512 235.25 87.0181 233.826C87.3691 233.269 87.6787 232.752 88.009 232.278C89.392 230.213 90.7751 228.107 92.0755 225.981L92.1581 225.837C92.9012 224.619 93.6856 223.339 94.8209 222.307C95.1649 222.003 95.5383 221.733 95.9356 221.502H44.9494C43.8417 221.502 42.7448 221.721 41.7216 222.145C40.6984 222.569 39.7691 223.192 38.9868 223.976C38.2044 224.76 37.5845 225.691 37.1624 226.715C36.7404 227.74 36.5247 228.837 36.5274 229.945Z" fill="#6192BF"/>
<path d="M102.44 222.205C106.22 225.133 108.891 229.261 110.016 233.909C110.049 234.039 110.058 234.174 110.038 234.307C110.019 234.441 109.973 234.568 109.904 234.684C109.836 234.799 109.744 234.9 109.635 234.979C109.527 235.059 109.404 235.116 109.273 235.147C109.007 235.211 108.729 235.168 108.493 235.029C108.258 234.892 108.087 234.667 108.014 234.404C106.993 230.211 104.585 226.487 101.181 223.835C100.624 223.401 99.9426 222.948 99.2408 222.804C98.5389 222.659 97.1559 223.009 96.2063 223.876C95.2568 224.743 94.6169 225.776 93.9151 226.931L93.8325 227.076C92.5114 229.223 91.1283 231.369 89.7041 233.454C89.4151 233.888 89.1054 234.404 88.7752 234.92C87.805 236.51 86.711 238.326 85.2247 239.4C83.3669 240.742 81.5298 240.844 79.7752 239.709C78.3921 238.822 77.2775 237.314 76.2041 235.849C75.1307 234.384 74.4907 233.496 73.6651 232.959C72.8394 232.422 71.7041 233.083 70.032 234.941C69.8669 235.126 69.7224 235.312 69.5573 235.477C69.3279 235.755 69.1142 236.044 68.9173 236.344C68.0504 237.603 66.9564 239.172 65.4907 239.441C65.1744 239.493 64.8508 239.481 64.5389 239.406C64.227 239.332 63.9331 239.196 63.6743 239.008C63.0549 238.574 62.7041 237.913 62.4357 237.438L58.6376 230.317C57.7499 228.645 56.5114 226.726 54.8806 226.726H54.86C54.0756 226.745 53.2087 227.241 52.5894 228.087C51.9701 228.934 51.5366 230.069 51.1651 231.143L48.6674 238.305C48.1925 239.709 47.5527 240.576 46.727 240.927C46.4456 241.048 46.1412 241.108 45.8348 241.101C45.5285 241.093 45.2272 241.02 44.9517 240.886C44.0642 240.472 43.5894 239.626 43.2797 238.966L43.1559 238.698C43.0286 238.321 42.8326 237.971 42.578 237.666C42.4246 237.532 42.2372 237.444 42.0367 237.411C41.8361 237.379 41.6304 237.402 41.4426 237.48C41.1168 237.682 40.8301 237.94 40.5962 238.244C39.2832 239.798 38.1477 241.494 37.2109 243.301H108.117C109.091 243.301 110.054 243.109 110.953 242.736C111.852 242.364 112.669 241.818 113.357 241.131C114.045 240.442 114.591 239.625 114.963 238.726C115.336 237.827 115.528 236.864 115.528 235.89V224.372C115.529 223.393 115.333 222.424 114.95 221.523H101.45C101.794 221.729 102.125 221.956 102.44 222.205Z" fill="#6192BF"/>
<path d="M117.177 221.605C117.453 222.502 117.592 223.434 117.59 224.371V235.89C117.585 238.401 116.584 240.808 114.809 242.584C113.033 244.36 110.627 245.359 108.116 245.364H37.457C38.1682 246.738 39.2431 247.891 40.5646 248.696C41.886 249.5 43.4031 249.926 44.9501 249.927H116.042C118.278 249.922 120.42 249.029 121.998 247.447C123.578 245.864 124.464 243.72 124.464 241.484V229.945C124.467 227.908 123.73 225.938 122.389 224.405C121.049 222.871 119.197 221.876 117.177 221.605Z" fill="#6192BF"/>
<path d="M117.591 235.891V224.373C117.593 223.436 117.454 222.503 117.178 221.607C116.58 219.669 115.378 217.973 113.747 216.766C112.118 215.559 110.145 214.905 108.116 214.898H37.0451C34.5339 214.904 32.1272 215.904 30.3514 217.68C28.5758 219.455 27.5757 221.862 27.5703 224.373V235.891C27.5757 238.403 28.5758 240.81 30.3514 242.585C32.1272 244.361 34.5339 245.361 37.0451 245.366H108.116C110.628 245.361 113.034 244.361 114.809 242.585C116.585 240.81 117.586 238.403 117.591 235.891ZM29.6345 235.891V224.373C29.6345 222.407 30.4153 220.523 31.8051 219.133C33.1948 217.744 35.0797 216.962 37.0451 216.962H108.116C109.578 216.961 111.009 217.394 112.225 218.207C113.441 219.019 114.389 220.174 114.949 221.525C115.332 222.425 115.528 223.394 115.527 224.373V235.891C115.527 236.865 115.335 237.828 114.963 238.727C114.59 239.626 114.045 240.443 113.356 241.132C112.669 241.82 111.852 242.365 110.952 242.738C110.053 243.11 109.089 243.302 108.116 243.302H37.2102C38.147 241.495 39.2825 239.8 40.5956 238.245C40.8293 237.941 41.116 237.683 41.4418 237.481C41.6298 237.403 41.8354 237.38 42.0359 237.413C42.2365 237.445 42.4239 237.534 42.5772 237.667C42.832 237.972 43.0279 238.322 43.1552 238.699L43.2791 238.967C43.5887 239.628 44.0634 240.474 44.9511 240.887C45.2265 241.021 45.5278 241.094 45.8342 241.102C46.1406 241.109 46.4449 241.05 46.7263 240.929C47.552 240.577 48.1919 239.71 48.6666 238.307L51.1644 231.144C51.5359 230.071 51.9282 228.955 52.5887 228.088C53.2493 227.221 54.0749 226.747 54.8593 226.727H54.88C56.5107 226.727 57.7493 228.646 58.6368 230.318L62.435 237.44C62.7033 237.914 63.0543 238.575 63.6735 239.009C63.9324 239.198 64.2264 239.333 64.5382 239.407C64.8501 239.482 65.1736 239.494 65.4901 239.442C66.9556 239.174 68.0497 237.605 68.9167 236.345C69.1134 236.045 69.3271 235.756 69.5566 235.478C69.7217 235.313 69.8662 235.128 70.0314 234.942C71.7033 233.084 72.6529 232.3 73.6644 232.961C74.6759 233.621 75.3158 234.653 76.2033 235.851C77.091 237.047 78.3914 238.823 79.7744 239.71C81.529 240.846 83.3662 240.743 85.224 239.401C86.7102 238.328 87.8042 236.511 88.7744 234.921C89.1048 234.406 89.4144 233.889 89.7033 233.456C91.1277 231.371 92.5107 229.224 93.8318 227.077L93.9144 226.933C94.6162 225.777 95.2768 224.683 96.2057 223.877C97.1346 223.073 98.2905 222.618 99.24 222.805C100.19 222.991 100.623 223.403 101.18 223.837C104.585 226.488 106.992 230.212 108.013 234.406C108.086 234.669 108.257 234.893 108.492 235.031C108.728 235.169 109.006 235.212 109.272 235.149C109.403 235.117 109.526 235.06 109.635 234.981C109.743 234.901 109.835 234.8 109.904 234.685C109.973 234.569 110.018 234.442 110.037 234.309C110.057 234.176 110.049 234.04 110.015 233.91C108.891 229.262 106.22 225.135 102.44 222.206C102.124 221.958 101.793 221.73 101.449 221.525C100.896 221.177 100.289 220.926 99.6529 220.782C98.4556 220.533 97.1346 220.822 95.9373 221.525C95.54 221.755 95.1666 222.025 94.8226 222.329C93.6873 223.362 92.9029 224.641 92.1597 225.86L92.0772 226.004C90.7768 228.13 89.3938 230.235 88.0107 232.3C87.6804 232.775 87.3708 233.29 87.0199 233.847C86.1529 235.273 85.1621 236.903 84.0267 237.729C81.7355 239.359 80.3318 237.976 77.8754 234.632C76.864 233.269 75.935 231.99 74.7997 231.247C72.1368 229.472 69.8456 232.052 68.4832 233.579L68.0497 234.075C67.7496 234.42 67.4737 234.785 67.224 235.169C66.7079 235.912 65.7584 237.295 65.1185 237.398C65.0772 237.419 64.9947 237.419 64.8502 237.316C64.7057 237.212 64.4373 236.8 64.2515 236.469L60.4534 229.348C59.2973 227.16 57.6254 224.662 54.88 224.662H54.8387C53.3938 224.683 51.9487 225.508 50.9373 226.85C49.9258 228.192 49.6368 229.307 49.224 230.463L46.7263 237.625C46.2928 238.885 45.9006 239.029 45.9006 239.029H45.818C45.5084 238.885 45.2401 238.307 45.1575 238.121L45.0543 237.873C44.8066 237.336 44.5383 236.718 44.0222 236.201C43.5642 235.776 42.9903 235.495 42.3728 235.396C41.7555 235.297 41.1226 235.383 40.5543 235.644C39.9622 235.952 39.4471 236.389 39.0474 236.923C38.1179 238.004 37.2758 239.157 36.529 240.37C36.0557 241.111 35.6217 241.876 35.2286 242.663C35.1593 242.79 35.1171 242.931 35.1047 243.075C33.5324 242.642 32.146 241.704 31.1578 240.406C30.1697 239.108 29.6345 237.522 29.6345 235.891Z" fill="black"/>
<path d="M300.458 209.035C300.438 208.147 300.418 207.197 300.397 206.206C300.169 196.877 300.045 192.211 299.942 190.457C299.241 178.36 298.869 172.291 297.094 165.872C295.566 160.34 293.977 154.622 289.105 148.408C287.476 146.352 285.689 144.426 283.759 142.649C283.715 142.585 283.659 142.528 283.594 142.484C283.589 142.484 283.584 142.482 283.579 142.478C283.575 142.474 283.573 142.469 283.573 142.464C274.594 134.247 262.704 128.633 253.188 125.124C250.463 123.927 248.233 121.739 247.161 119.178C246.459 117.507 246.21 115.526 245.963 113.606C245.902 113.151 245.839 112.676 245.777 112.243C245.53 110.489 245.488 107.619 245.467 105.328C245.467 105.163 245.447 104.997 245.447 104.833C252.548 100.807 261.589 93.9749 265.574 83.6743C268.257 76.7179 269.061 69.4106 267.844 62.5574C266.564 55.2294 262.973 48.6033 257.77 43.8762C252.568 39.1492 246.045 36.4244 238.47 35.5162C231.637 34.6905 224.371 35.4542 217.498 37.7455H217.435C210.273 40.656 205.815 44.4955 202.965 50.234C202.197 51.7686 201.576 53.372 201.108 55.0231C200.714 56.3844 200.41 57.7705 200.199 59.1721C199.759 62.298 199.704 65.4661 200.034 68.6056C200.377 72.1098 201.026 75.5772 201.975 78.968C202.362 77.4769 203.108 76.1032 204.148 74.9664C205.188 73.8294 206.49 72.9639 207.94 72.445C208.25 68.8326 209.323 65.0964 211.945 62.4129C212.296 62.0413 212.77 61.6078 213.287 61.4633C213.802 61.3188 214.422 61.4221 215.103 61.546C225.671 63.6051 235.739 67.6994 244.745 73.601C245.241 73.9313 245.653 74.2203 245.839 74.5712C246.025 74.9221 246.045 75.562 245.984 76.2639L245.447 84.0872C245.428 84.3243 245.491 84.5608 245.627 84.7564C245.763 84.9519 245.962 85.0947 246.19 85.1607C246.417 85.2234 246.657 85.2087 246.874 85.1189C247.091 85.0291 247.271 84.8695 247.387 84.6652C248.399 82.7661 249.534 81.5482 250.526 81.3005C251.02 81.1767 251.495 81.3005 252.011 81.6514C252.528 82.0024 253.271 83.1996 253.291 84.3143C253.311 85.429 252.961 86.4404 252.259 87.5964C251.557 88.7523 250.711 89.8257 249.245 90.5689C248.543 90.9198 248.399 90.9404 248.048 90.7959C247.947 90.7424 247.857 90.6726 247.779 90.5896C247.408 90.2799 246.727 89.7019 245.716 90.0529C245.218 90.2214 244.799 90.5665 244.539 91.0231C243.507 92.7776 243.444 94.6147 243.404 96.39C243.383 96.7409 243.383 97.0918 243.362 97.4427C243.279 98.7278 243.264 100.016 243.321 101.303C243.341 102.067 243.362 102.934 243.362 104.213C243.359 104.296 243.366 104.38 243.383 104.461C243.383 104.729 243.383 105.039 243.404 105.328C243.425 107.681 243.465 110.634 243.733 112.512L243.919 113.853C243.982 114.431 244.064 115.03 244.147 115.608C241.054 117.086 237.743 118.055 234.341 118.477C232.299 118.725 229.223 119.096 225.445 118.167C223.727 117.757 222.068 117.126 220.511 116.289C220.539 116.206 220.559 116.104 220.574 115.98C220.923 114.42 221.185 112.841 221.358 111.252C222.583 111.481 223.827 111.591 225.073 111.583C229.099 111.583 233.578 110.509 237.748 108.383C237.991 108.257 238.175 108.04 238.258 107.778C238.341 107.517 238.318 107.233 238.191 106.99C238.065 106.746 237.848 106.562 237.586 106.479C237.325 106.396 237.042 106.42 236.798 106.546C229.78 110.138 221.874 110.55 217.58 107.578C212.915 104.317 211.305 99.5069 209.984 94.6767C209.819 93.2523 209.633 91.8281 209.447 90.4451C207.849 90.1211 206.354 89.4126 205.092 88.3808C205.959 90.5896 206.908 92.8602 207.982 95.2341C209.365 100.229 211.161 105.617 216.403 109.271C217.309 109.887 218.295 110.373 219.335 110.716C219.232 112.305 218.84 114.225 218.551 115.566C218.468 116 218.406 116.372 218.344 116.661C218.158 117.754 217.931 118.642 217.787 119.178C217.353 120.893 217.126 121.739 216.796 122.357C216.197 123.555 214.876 124.566 213.018 125.289C210.583 126.011 207.734 126.961 204.906 128.034H204.885C201.231 129.418 197.598 130.966 194.894 132.452L193.16 133.401C189.466 135.403 185.626 137.468 182.468 140.358C181.539 141.225 180.445 142.525 179.247 144.156L178.917 144.631C174.004 151.505 167.461 163.725 162.362 173.819C162.299 173.939 162.261 174.07 162.249 174.206C162.238 174.342 162.253 174.478 162.296 174.607C162.338 174.736 162.406 174.855 162.495 174.957C162.585 175.059 162.694 175.143 162.817 175.202C162.953 175.284 163.111 175.326 163.271 175.325C163.464 175.326 163.653 175.272 163.818 175.17C163.982 175.068 164.115 174.922 164.199 174.747C170.103 163.085 175.14 154.085 178.917 148.284C180.053 150.039 181.084 151.752 182.034 153.528C184.449 158.048 185.854 161.887 186.864 164.695C188.908 170.31 190.828 175.595 191.922 182.715C192.356 185.565 192.562 188.042 192.665 191.943C192.685 192.377 192.685 192.81 192.685 193.284C192.685 193.759 192.706 194.234 192.706 194.729C192.809 203.977 192.5 213.659 191.798 223.464C191.787 223.599 191.803 223.735 191.844 223.865C191.886 223.995 191.953 224.115 192.04 224.218C192.129 224.321 192.237 224.407 192.359 224.469C192.48 224.53 192.612 224.568 192.748 224.578H192.83C193.088 224.578 193.336 224.481 193.524 224.304C193.712 224.127 193.826 223.886 193.841 223.629C194.564 213.741 194.874 204.018 194.771 194.708V194.419C194.708 188.888 194.502 185.936 193.965 182.426C192.851 175.099 190.786 169.463 188.805 164.014C187.814 161.309 186.328 157.223 183.85 152.578C183.396 151.752 182.943 150.947 182.468 150.142C182.447 150.101 182.426 150.08 182.426 150.039C181.704 148.841 180.961 147.666 180.156 146.447C181.477 144.59 182.592 143.166 183.521 142.236L183.871 141.906C186.844 139.181 190.394 137.262 194.151 135.238L195.885 134.289C197.165 133.587 198.672 132.865 200.282 132.163C201.892 131.461 203.172 130.924 204.699 130.346C207.507 137.262 210.954 143.454 214.979 148.718C219.768 155.014 225.238 159.844 231.245 163.085C231.398 163.164 231.568 163.207 231.74 163.209H231.885C232.101 163.203 232.31 163.131 232.484 163.003C235.993 160.237 239.358 157.326 242.454 154.374C245.55 151.422 250.36 146.799 254.427 140.812C255.631 139.057 256.726 137.23 257.709 135.342C258.538 133.755 259.276 132.122 259.918 130.45C259.957 130.337 259.978 130.218 259.979 130.099L260.062 130.14C261.61 130.821 263.179 131.564 264.747 132.348C269.37 134.628 273.772 137.33 277.896 140.42C279.177 141.39 280.394 142.401 281.592 143.454C280.931 144.362 280.27 145.312 279.63 146.282L278.805 147.582L278.351 148.305C277.484 149.689 276.432 151.505 275.358 153.672C273.819 156.85 272.509 160.133 271.436 163.498L271.394 163.602C269.97 167.853 268.339 172.663 267.327 179.31C266.791 182.922 266.626 185.73 266.502 187.588L266.378 190.436C266.275 193.615 266.316 196.835 266.502 199.993C266.518 200.256 266.634 200.503 266.826 200.684C267.018 200.864 267.271 200.964 267.534 200.963H267.597C267.732 200.956 267.865 200.92 267.987 200.862C268.109 200.803 268.218 200.719 268.308 200.618C268.399 200.516 268.468 200.398 268.512 200.269C268.556 200.141 268.575 200.004 268.566 199.87C268.339 195.82 268.339 191.761 268.566 187.711C268.669 185.894 268.835 183.149 269.371 179.62C270.362 173.138 271.951 168.431 273.356 164.262V164.159C274.181 161.743 275.276 158.461 277.195 154.581C278.424 152.107 279.81 149.715 281.344 147.417C281.922 146.55 282.5 145.683 283.078 144.879C284.654 146.364 286.117 147.964 287.454 149.668C292.077 155.571 293.606 161.083 295.092 166.429C296.805 172.622 297.156 178.629 297.878 190.58C297.982 192.293 298.085 196.959 298.311 206.248C298.339 207.239 298.36 208.167 298.374 209.035C297.837 223.112 283.202 232.195 270.816 235.683C256.325 239.771 245.571 242.516 240.554 243.383L240.39 243.445C238.387 243.775 236.014 243.548 234.713 243.362C231.245 242.867 230.213 238.12 229.47 234.651L229.284 233.826C228.128 228.582 227.633 226.167 228.376 223.629C228.624 222.802 229.367 220.285 231.576 218.283C233.227 216.775 235.704 215.846 240.638 214.009L242.288 213.41C247.615 211.553 264.376 205.917 273.892 202.718C274.151 202.624 274.363 202.434 274.486 202.189C274.609 201.943 274.633 201.66 274.552 201.397C274.459 201.14 274.269 200.928 274.022 200.809C273.775 200.689 273.491 200.671 273.232 200.757C263.715 203.957 246.954 209.613 241.607 211.471C241.566 211.471 240.906 211.697 239.915 212.069C234.734 214.009 232.153 214.979 230.172 216.755C229.065 217.775 228.149 218.984 227.468 220.325C227.267 220.237 227.044 220.209 226.828 220.243L218.757 221.791C217.769 221.971 216.842 222.389 216.053 223.009C215.207 223.711 214.834 224.599 215 225.466L215.888 230.11L217.787 239.894L218.468 243.445C217.249 244.044 215.888 244.497 214.112 245.056L213.452 245.282L212.481 245.571C207.982 246.954 203.647 247.801 201.479 247.697H201.045L200.942 247.759L200.881 247.801L200.777 247.862L200.716 247.925L200.653 248.007L200.592 248.069L200.53 248.151C200.53 248.193 200.509 248.214 200.488 248.254C200.427 248.391 200.399 248.539 200.406 248.688C200.447 250.298 200.592 251.784 200.736 253.229C200.881 254.674 201.005 256.119 201.045 257.667C201.065 257.922 201.023 258.177 200.922 258.41L200.653 258.37C199.621 258.081 198.733 257.028 198.321 255.562C197.702 253.456 197.949 251.02 198.197 248.668C198.259 248.131 198.321 247.573 198.362 247.058C198.385 246.786 198.3 246.518 198.126 246.31C197.953 246.101 197.704 245.968 197.433 245.942C197.298 245.929 197.16 245.941 197.03 245.98C196.899 246.02 196.777 246.084 196.672 246.171C196.566 246.256 196.479 246.363 196.415 246.484C196.35 246.604 196.311 246.735 196.298 246.872C196.257 247.387 196.216 247.904 196.153 248.44C195.927 250.649 195.679 252.899 196.092 255.087C195.792 255.437 195.428 255.725 195.018 255.933C194.874 256.012 194.716 256.06 194.552 256.073C194.389 256.088 194.224 256.068 194.069 256.016C193.754 255.852 193.516 255.57 193.408 255.232C192.871 253.828 193.057 251.867 193.202 250.319V250.174C193.4 248.282 193.696 246.401 194.09 244.539C194.119 244.408 194.122 244.271 194.097 244.137C194.073 244.005 194.021 243.879 193.946 243.767C193.869 243.654 193.772 243.558 193.659 243.485C193.545 243.412 193.418 243.363 193.284 243.341C193.152 243.314 193.015 243.314 192.881 243.339C192.748 243.365 192.622 243.418 192.509 243.492C192.395 243.567 192.298 243.663 192.222 243.775C192.147 243.888 192.094 244.014 192.067 244.147C191.657 246.07 191.347 248.012 191.137 249.968V250.113C191.014 251.495 190.869 253.106 191.117 254.633H190.746C190.319 254.609 189.906 254.475 189.548 254.241C189.265 254.137 189.016 253.958 188.826 253.725C188.643 253.497 188.491 253.248 188.371 252.982C188.124 252.362 188.082 251.826 188.227 250.36C188.413 248.379 188.557 246.645 189.32 243.837C189.609 242.723 189.961 241.608 190.353 240.514C190.446 240.256 190.433 239.972 190.317 239.725C190.201 239.477 189.991 239.286 189.734 239.193C189.606 239.144 189.471 239.121 189.335 239.126C189.198 239.13 189.065 239.163 188.942 239.221C188.818 239.279 188.707 239.361 188.616 239.462C188.525 239.564 188.457 239.683 188.413 239.812C188 240.968 187.628 242.145 187.318 243.322C186.514 246.294 186.348 248.172 186.162 250.174C186.018 251.784 186.018 252.693 186.472 253.766C186.647 254.208 186.892 254.619 187.195 254.984C187.538 255.428 187.98 255.787 188.485 256.035C188.989 256.281 189.544 256.409 190.105 256.408C190.299 256.408 190.493 256.387 190.683 256.347L191.137 256.285C191.28 256.264 191.416 256.207 191.529 256.119C191.856 256.935 192.484 257.593 193.284 257.956C193.646 258.098 194.031 258.168 194.419 258.163C194.926 258.163 195.427 258.05 195.885 257.832C196.194 257.688 196.485 257.508 196.752 257.296C197.495 258.844 198.672 259.979 200.075 260.372C200.351 260.45 200.635 260.492 200.922 260.496C201.204 260.499 201.484 260.45 201.748 260.351C202.264 260.124 203.151 259.463 203.11 257.627C203.068 255.789 202.925 254.509 202.779 253.064C202.779 252.94 202.759 252.817 202.759 252.714L211.14 264.294C211.883 265.325 212.187 266.61 211.986 267.865C211.887 268.483 211.666 269.074 211.337 269.605C211.007 270.137 210.575 270.597 210.066 270.962L174.954 296.433C174.446 296.802 173.871 297.066 173.26 297.212C172.65 297.357 172.017 297.381 171.397 297.281C170.778 297.181 170.185 296.96 169.651 296.631C169.116 296.301 168.653 295.869 168.287 295.36L138.995 254.86C138.627 254.353 138.363 253.777 138.217 253.166C138.072 252.556 138.049 251.923 138.148 251.304C138.248 250.684 138.468 250.091 138.798 249.557C139.128 249.023 139.56 248.559 140.069 248.193L175.181 222.783C175.99 222.192 176.966 221.874 177.968 221.874C178.231 221.874 178.493 221.895 178.753 221.936C179.369 222.027 179.963 222.242 180.495 222.569C181.027 222.895 181.487 223.326 181.848 223.835L188.392 232.877C187.125 234.166 185.979 235.569 184.966 237.067C183.573 239.08 182.377 241.223 181.394 243.466C180.826 244.801 180.35 246.173 179.97 247.573L179.928 247.676C179.331 249.803 178.628 252.218 179.475 254.592C179.517 254.727 179.573 254.859 179.639 254.984C179.874 255.581 180.284 256.092 180.816 256.45C181.151 256.653 181.523 256.787 181.911 256.842H182.282C182.685 256.839 183.083 256.762 183.459 256.615C184.158 256.318 184.79 255.883 185.316 255.335C185.499 255.156 185.609 254.915 185.624 254.659C185.64 254.404 185.559 254.151 185.399 253.952C185.194 253.712 184.907 253.557 184.594 253.518C184.278 253.496 183.966 253.6 183.727 253.807C183.587 253.93 183.481 254.087 183.417 254.262C183.214 254.44 182.984 254.586 182.736 254.695C182.478 254.799 182.189 254.799 181.931 254.695C181.807 254.613 181.601 254.406 181.415 253.87C180.795 252.136 181.373 250.153 181.911 248.234L181.951 248.11C182.306 246.8 182.755 245.517 183.293 244.271C184.218 242.157 185.344 240.138 186.658 238.244C187.797 236.531 189.135 234.957 190.642 233.557C192.352 232.035 194.27 230.762 196.339 229.78C197.837 229.031 199.398 228.417 201.005 227.943L202.058 227.654C202.318 227.586 202.543 227.418 202.681 227.186C202.82 226.955 202.863 226.678 202.8 226.415C202.732 226.148 202.561 225.92 202.327 225.777C202.091 225.634 201.809 225.589 201.541 225.652C199.42 226.19 197.365 226.958 195.41 227.943C193.441 228.879 191.596 230.058 189.919 231.452L183.521 222.617C182.996 221.888 182.333 221.271 181.57 220.8C180.805 220.329 179.956 220.012 179.07 219.871C178.183 219.729 177.278 219.764 176.405 219.973C175.532 220.181 174.71 220.561 173.983 221.089L138.85 246.52C137.384 247.584 136.4 249.185 136.114 250.973C135.827 252.762 136.262 254.59 137.323 256.058L166.614 296.558C167.139 297.288 167.803 297.908 168.568 298.381C169.332 298.855 170.184 299.172 171.072 299.316C171.959 299.46 172.867 299.428 173.742 299.219C174.618 299.012 175.443 298.633 176.171 298.106L211.305 272.675C212.033 272.15 212.65 271.486 213.122 270.723C213.594 269.959 213.909 269.11 214.051 268.224C214.193 267.337 214.158 266.431 213.949 265.559C213.74 264.686 213.361 263.864 212.832 263.138L203.11 249.72C206.33 249.452 210.83 248.296 214.091 247.243L214.773 247.016C216.775 246.376 218.282 245.902 219.727 245.138C220.438 245.515 221.235 245.699 222.038 245.674C222.482 245.672 222.924 245.63 223.36 245.55L231.369 244.003C232.235 244.761 233.304 245.25 234.445 245.406C235.655 245.578 236.876 245.668 238.098 245.674C239.223 245.694 240.346 245.576 241.442 245.324C246.748 244.353 257.317 241.628 271.394 237.666C284.461 233.991 299.901 224.289 300.458 209.096C300.458 209.076 300.438 209.076 300.438 209.055L300.458 209.035ZM247.944 44.6812C247.786 44.6787 247.629 44.6361 247.491 44.5574L243.754 42.7203C243.632 42.6606 243.524 42.5775 243.433 42.4757C243.343 42.374 243.274 42.2555 243.231 42.127C243.187 41.9986 243.168 41.8628 243.176 41.7272C243.185 41.5917 243.22 41.4592 243.28 41.3372C243.339 41.2153 243.423 41.1062 243.524 41.0163C243.626 40.9265 243.744 40.8575 243.873 40.8134C244.002 40.7693 244.137 40.751 244.273 40.7593C244.409 40.7678 244.541 40.8028 244.663 40.8624L248.399 42.7203C248.521 42.7797 248.63 42.8627 248.721 42.9644C248.81 43.0661 248.879 43.1847 248.923 43.3132C248.968 43.4416 248.986 43.5776 248.977 43.7132C248.969 43.8487 248.933 43.9813 248.874 44.1033C248.786 44.2755 248.654 44.4205 248.49 44.5224C248.326 44.6244 248.137 44.6793 247.944 44.6812ZM251.475 46.3739C251.545 46.2569 251.637 46.1548 251.746 46.0737C251.857 45.9926 251.981 45.9341 252.114 45.9014C252.246 45.8687 252.384 45.8627 252.518 45.8836C252.653 45.9044 252.782 45.9519 252.899 46.023C256.264 48.0666 258.926 50.8533 260.599 54.0735C262.085 56.9633 262.539 59.6674 262.828 61.4427C263.202 63.7414 263.32 66.0745 263.179 68.3991C263.162 68.662 263.048 68.9089 262.856 69.0893C262.664 69.2696 262.41 69.3698 262.146 69.3693H262.085C261.812 69.3482 261.56 69.2223 261.378 69.0182C261.198 68.8141 261.103 68.5478 261.114 68.2753C261.264 66.1093 261.152 63.9333 260.785 61.7937C260.515 60.1216 260.103 57.624 258.762 55.0231C256.883 51.3693 253.952 49.078 251.826 47.7776C251.709 47.7096 251.607 47.619 251.527 47.5112C251.446 47.4033 251.387 47.2804 251.355 47.1496C251.322 47.0188 251.315 46.8829 251.336 46.7496C251.357 46.6165 251.404 46.4887 251.475 46.3739ZM257.977 129.707C256.636 133.215 254.875 136.549 252.734 139.635C248.771 145.457 244.291 149.75 241.029 152.867C238.119 155.653 234.982 158.379 231.7 160.98C218.633 153.651 210.892 140.131 206.619 129.624C209.096 128.716 211.532 127.91 213.658 127.271L213.741 127.23C216.093 126.321 217.787 124.959 218.633 123.307C219.066 122.482 219.314 121.553 219.789 119.695C219.851 119.385 219.975 118.952 220.099 118.395C221.642 119.175 223.27 119.777 224.949 120.19C226.726 120.623 228.55 120.837 230.378 120.83C231.787 120.821 233.194 120.717 234.59 120.521C238.033 120.104 241.39 119.149 244.539 117.693C244.714 118.463 244.956 119.215 245.261 119.943C246.294 122.42 248.214 124.587 250.608 126.074C250.732 126.304 250.938 126.482 251.186 126.568L252.404 127.002L253.106 127.291L253.311 127.353C254.901 127.952 256.553 128.612 258.224 129.314C258.117 129.427 258.032 129.561 257.977 129.707ZM222.968 243.528C221.667 243.775 220.842 243.445 220.614 243.259L220.553 243.177C220.532 243.177 220.532 243.177 220.532 243.156L217.043 225.074C217.043 225.032 217.085 224.846 217.395 224.578C217.915 224.2 218.515 223.947 219.149 223.835L226.622 222.39C226.539 222.658 226.477 222.886 226.415 223.051C225.486 226.188 226.126 229.057 227.303 234.259C227.344 234.527 227.405 234.816 227.468 235.084C227.943 237.252 228.541 240.039 229.862 242.185L222.968 243.528Z" fill="black"/>
<path d="M115.918 172.952C117.278 170.884 119.093 169.155 121.224 167.895C123.536 166.594 127.417 165.501 130.018 166.079C133.259 167.132 135.405 168.122 138.357 169.463L139.761 170.125C149.85 174.757 159.67 179.954 169.175 185.688C169.337 185.787 169.524 185.838 169.713 185.833C169.89 185.83 170.063 185.783 170.219 185.697C170.373 185.611 170.505 185.487 170.601 185.338C170.738 185.101 170.779 184.82 170.713 184.554C170.648 184.288 170.482 184.059 170.249 183.914C160.672 178.148 150.782 172.918 140.628 168.246L139.204 167.606C136.293 166.244 134.002 165.191 130.595 164.097H130.513C127.685 163.457 124.093 164.303 121.451 165.501L114.247 160.898C113.513 160.402 112.671 160.091 111.79 159.989C110.779 159.907 109.933 160.237 109.52 160.918L101.366 173.758C100.933 174.439 100.995 175.326 101.511 176.214C101.972 176.968 102.609 177.598 103.368 178.051L110.077 182.324C109.811 184.021 109.996 185.758 110.614 187.361C111.625 189.879 113.669 191.179 115.65 192.46L116.745 193.161L117.818 193.905C119.779 195.205 121.802 196.567 123.763 197.93C129.915 202.141 135.178 206.001 139.864 209.737C142.176 211.574 146.965 215.372 154.087 217.705C155.965 218.303 159.598 219.48 164.118 219.48C164.911 219.485 165.703 219.451 166.492 219.377C170.136 219.036 173.658 217.879 176.793 215.991C181.541 213.102 184.885 208.911 189.591 199.973C190.375 198.508 191.119 197.063 191.82 195.658C191.894 195.537 191.941 195.402 191.96 195.261C191.977 195.12 191.967 194.977 191.927 194.842C191.889 194.705 191.821 194.578 191.731 194.468C191.64 194.359 191.529 194.27 191.402 194.206C191.275 194.141 191.137 194.104 190.995 194.097C190.853 194.088 190.711 194.109 190.578 194.158C190.445 194.208 190.324 194.284 190.222 194.382C190.118 194.481 190.038 194.598 189.984 194.73C189.282 196.113 188.539 197.558 187.775 199.003C182.655 208.725 179.476 211.946 175.719 214.237C172.849 215.952 169.634 217.01 166.306 217.333C161.084 217.808 156.79 216.404 154.726 215.744C147.956 213.535 143.373 209.881 141.164 208.126C136.438 204.349 131.111 200.468 124.939 196.217L118.974 192.191L117.88 191.448L116.766 190.726C114.99 189.57 113.298 188.496 112.534 186.576C111.604 184.264 112.1 181.931 112.781 179.743C113.627 177.06 114.639 174.83 115.918 172.952ZM110.821 179.104L110.511 180.136L104.484 176.296C103.554 175.697 103.162 175.017 103.141 174.79L111.233 162.054C111.439 161.971 112.224 162.012 113.153 162.611L119.387 166.615C117.335 167.985 115.575 169.745 114.205 171.796C112.823 173.84 111.708 176.235 110.821 179.104Z" fill="black"/>
<path d="M231.534 85.0165C232.422 85.0165 233.124 84.0876 233.124 82.9111C233.124 81.7344 232.422 80.8262 231.534 80.8262C230.647 80.8262 229.945 81.7551 229.945 82.9111C229.945 84.067 230.647 85.0165 231.534 85.0165Z" fill="black"/>
<path d="M214.98 85.0157C215.857 85.0157 216.569 84.073 216.569 82.9101C216.569 81.7473 215.857 80.8047 214.98 80.8047C214.102 80.8047 213.391 81.7473 213.391 82.9101C213.391 84.073 214.102 85.0157 214.98 85.0157Z" fill="black"/>
<path d="M231.722 78.6168C232.213 78.4862 232.719 78.4168 233.229 78.4104C233.834 78.4116 234.438 78.4878 235.024 78.6374C235.377 78.7022 235.722 78.799 236.056 78.9265C236.525 79.0932 236.974 79.3076 237.398 79.5663C237.557 79.6523 237.734 79.7017 237.914 79.7108C238.092 79.7099 238.267 79.664 238.421 79.5774C238.577 79.4908 238.708 79.3662 238.802 79.2155C238.876 79.0999 238.925 78.9705 238.948 78.8351C238.97 78.6997 238.965 78.5612 238.933 78.4279C238.899 78.2947 238.84 78.1695 238.757 78.0601C238.674 77.9506 238.57 77.8591 238.45 77.7911C237.907 77.4624 237.333 77.1861 236.737 76.9654C236.318 76.8246 235.89 76.7074 235.458 76.6145C234.715 76.4285 233.953 76.3383 233.187 76.3462C232.518 76.3542 231.852 76.4444 231.206 76.6145C231.074 76.6484 230.951 76.7079 230.843 76.7895C230.734 76.8711 230.642 76.9733 230.573 77.0902C230.504 77.2071 230.459 77.3365 230.44 77.4709C230.421 77.6054 230.428 77.7423 230.463 77.8737C230.496 78.0052 230.556 78.1287 230.637 78.2372C230.719 78.3457 230.822 78.437 230.938 78.5061C231.055 78.5751 231.185 78.6203 231.318 78.6393C231.453 78.6583 231.591 78.6507 231.722 78.6168Z" fill="black"/>
<path d="M210.52 80.0426C210.753 80.0397 210.978 79.9598 211.161 79.8155C211.482 79.5691 211.837 79.3677 212.214 79.2169C212.671 79.0401 213.149 78.9289 213.638 78.8866L214.526 78.8454C214.943 78.8668 215.358 78.929 215.764 79.0311C215.896 79.0652 216.032 79.0731 216.167 79.0542C216.301 79.0353 216.431 78.99 216.548 78.921C216.664 78.852 216.767 78.7605 216.848 78.6519C216.931 78.5433 216.989 78.4196 217.023 78.2881C217.092 78.0253 217.056 77.7457 216.92 77.5099C216.786 77.2742 216.562 77.1014 216.3 77.0289C215.74 76.8859 215.165 76.8029 214.587 76.7812C214.194 76.7726 213.801 76.7934 213.41 76.843C212.738 76.8965 212.077 77.0495 211.45 77.2972C210.895 77.5195 210.373 77.8183 209.902 78.1848C209.685 78.3558 209.543 78.6053 209.508 78.8795C209.474 79.1537 209.548 79.4306 209.716 79.6504C209.814 79.7699 209.936 79.8668 210.076 79.9344C210.215 80.0022 210.366 80.0391 210.52 80.0426Z" fill="black"/>
<path d="M225.486 97.0914C225.93 97.0853 226.372 97.0369 226.807 96.9469C226.942 96.9222 227.07 96.871 227.185 96.796C227.3 96.7212 227.398 96.6243 227.475 96.511C227.552 96.3976 227.605 96.2701 227.633 96.1358C227.66 96.0016 227.66 95.8633 227.633 95.729C227.573 95.4634 227.413 95.2313 227.186 95.0811C226.959 94.931 226.682 94.8747 226.415 94.924C225.974 95.0124 225.522 95.0401 225.073 95.0065C223.917 94.9033 223.772 94.635 223.752 93.6648C223.732 92.6946 223.772 91.7864 223.772 90.8782C223.814 88.7519 223.835 86.5639 223.669 84.3964C223.658 84.2608 223.622 84.1285 223.56 84.0072C223.498 83.8859 223.413 83.7781 223.31 83.6898C223.206 83.6015 223.086 83.5347 222.956 83.493C222.827 83.4513 222.69 83.4356 222.555 83.4469C222.419 83.4573 222.286 83.4945 222.165 83.5562C222.044 83.618 221.936 83.7032 221.848 83.8068C221.76 83.9104 221.693 84.0303 221.651 84.1599C221.609 84.2895 221.594 84.426 221.605 84.5616C221.77 86.6465 221.749 88.7726 221.729 90.8368C221.708 91.7657 221.688 92.7153 221.688 93.6648C221.709 95.7497 222.74 96.8644 224.888 97.0501L225.486 97.0914Z" fill="black"/>
<path d="M231.431 100.045C230.949 100.378 230.438 100.668 229.904 100.912C228.966 101.294 227.965 101.503 226.952 101.531C226.25 101.586 225.543 101.558 224.847 101.448C224.711 101.429 224.573 101.437 224.441 101.472C224.308 101.506 224.184 101.566 224.075 101.649C223.965 101.731 223.873 101.834 223.805 101.952C223.735 102.07 223.69 102.201 223.67 102.336C223.651 102.472 223.66 102.61 223.694 102.742C223.728 102.875 223.788 102.999 223.87 103.108C223.953 103.218 224.056 103.309 224.174 103.379C224.292 103.448 224.422 103.494 224.558 103.513C225.141 103.578 225.726 103.612 226.313 103.616H227.076C228.323 103.567 229.553 103.302 230.709 102.831C231.4 102.541 232.051 102.167 232.65 101.717C232.867 101.552 233.013 101.31 233.055 101.04C233.098 100.771 233.034 100.495 232.876 100.272C232.797 100.162 232.696 100.069 232.58 99.9977C232.464 99.9266 232.336 99.8793 232.201 99.8582C232.068 99.8371 231.93 99.8428 231.799 99.8748C231.666 99.9067 231.542 99.9645 231.431 100.045Z" fill="black"/>
<path d="M199.953 58.2032C199.904 58.3757 199.902 58.5577 199.945 58.7314C199.988 58.9051 200.076 59.0646 200.2 59.1941C200.411 57.7924 200.714 56.4064 201.109 55.0449C200.635 56.0634 200.248 57.1199 199.953 58.2032Z" fill="white"/>
<path d="M209.159 88.2578C209.138 88.1753 209.138 88.0721 209.117 87.9688C208.642 84.439 208.188 81.1157 207.92 77.7097C207.858 76.7808 207.817 75.79 207.817 74.7578C206.605 75.3549 205.582 76.2773 204.864 77.422C204.145 78.5666 203.76 79.8883 203.75 81.2395C203.75 84.563 206.041 87.3703 209.159 88.2578Z" fill="black"/>
<path d="M209.449 90.4659C210.062 90.5738 210.683 90.6291 211.306 90.6309C216.095 90.6309 220.079 87.1838 220.801 82.7043H220.472V80.6402H220.905C220.575 75.748 216.405 71.8672 211.306 71.8672C210.158 71.8643 209.018 72.0671 207.941 72.4659C206.491 72.9847 205.189 73.8503 204.15 74.9872C203.11 76.124 202.364 77.4978 201.977 78.9888C201.786 79.7237 201.689 80.4796 201.688 81.2388C201.688 82.6106 201.994 83.965 202.583 85.2038C203.172 86.4428 204.03 87.5351 205.093 88.4017C206.355 89.4334 207.85 90.1419 209.449 90.4659ZM203.751 81.2388C203.762 79.8876 204.147 78.5658 204.866 77.4212C205.583 76.2767 206.606 75.3543 207.818 74.7572C208.898 74.2083 210.095 73.9252 211.306 73.9315C215.476 73.9315 218.862 77.2136 218.862 81.2388C218.862 85.264 215.476 88.5668 211.306 88.5668C210.58 88.5697 209.856 88.4654 209.16 88.2572C206.042 87.3695 203.751 84.5622 203.751 81.2388Z" fill="#6192BF"/>
<path d="M234.28 90.6309C239.585 90.6309 243.899 86.4199 243.899 81.2387C243.899 76.0575 239.585 71.8672 234.28 71.8672C228.974 71.8672 224.66 76.0782 224.66 81.2387C224.66 86.3993 228.974 90.6309 234.28 90.6309ZM234.28 73.9314C238.449 73.9314 241.834 77.2134 241.834 81.2387C241.834 85.2639 238.449 88.5667 234.28 88.5667C230.109 88.5667 226.725 85.2846 226.725 81.2387C226.725 77.1929 230.109 73.9314 234.28 73.9314Z" fill="#6192BF"/>
<path d="M224.621 80.6406H220.906H220.473V82.7049H220.802H224.621V80.6406Z" fill="#6192BF"/>
<path d="M174.149 253.497C173.649 253.359 173.129 253.322 172.615 253.386C172.102 253.451 171.606 253.617 171.158 253.875C170.709 254.131 170.315 254.474 170 254.884C169.683 255.294 169.452 255.763 169.318 256.263L167.873 261.609C167.739 262.109 167.704 262.63 167.772 263.145C167.839 263.658 168.007 264.152 168.266 264.601C168.524 265.05 168.87 265.443 169.28 265.758C169.691 266.073 170.16 266.305 170.66 266.439L176.006 267.884C176.505 268.018 177.025 268.052 177.538 267.985C178.05 267.917 178.543 267.749 178.99 267.49C179.437 267.231 179.828 266.886 180.142 266.476C180.455 266.065 180.684 265.596 180.816 265.098L182.261 259.771C182.534 258.787 182.409 257.733 181.91 256.841C181.522 256.785 181.151 256.652 180.816 256.448C180.284 256.091 179.874 255.579 179.639 254.983L179.495 254.942L174.149 253.497Z" fill="#3B79AF"/>
<path d="M272.819 237.935C272.549 237.945 272.295 238.062 272.109 238.258C271.924 238.455 271.823 238.717 271.828 238.987L272.387 254.882C272.397 255.15 272.51 255.404 272.702 255.592C272.894 255.781 273.149 255.888 273.418 255.894H273.46C273.595 255.888 273.728 255.856 273.851 255.799C273.974 255.742 274.085 255.662 274.178 255.562C274.27 255.463 274.341 255.346 274.388 255.217C274.435 255.09 274.455 254.956 274.45 254.82L273.893 238.925C273.888 238.79 273.856 238.657 273.799 238.534C273.742 238.41 273.661 238.3 273.561 238.207C273.462 238.115 273.345 238.044 273.218 237.997C273.091 237.95 272.955 237.928 272.819 237.935Z" fill="black"/>
<path d="M248.875 44.1037C248.935 43.9817 248.97 43.8492 248.979 43.7136C248.987 43.5781 248.969 43.4421 248.924 43.3136C248.881 43.1851 248.812 43.0666 248.722 42.9649C248.631 42.8631 248.523 42.7801 248.401 42.7207L244.664 40.8629C244.542 40.8032 244.41 40.7683 244.274 40.7598C244.139 40.7514 244.003 40.7697 243.875 40.8139C243.746 40.8579 243.627 40.9269 243.525 41.0168C243.424 41.1066 243.34 41.2156 243.281 41.3376C243.222 41.4597 243.186 41.5922 243.178 41.7277C243.169 41.8632 243.188 41.9991 243.232 42.1275C243.276 42.256 243.345 42.3744 243.435 42.4762C243.525 42.5779 243.634 42.6611 243.756 42.7207L247.492 44.5579C247.631 44.6366 247.787 44.6792 247.946 44.6817C248.139 44.6797 248.328 44.6247 248.491 44.5228C248.655 44.4209 248.788 44.276 248.875 44.1037Z" fill="white"/>
<path d="M49.5548 134.661C53.931 143.393 64.1282 147.645 73.7887 144.776L74.5525 144.549L76.72 148.161C77.6812 147.639 78.6739 147.177 79.6924 146.778C81.0289 146.242 82.4016 145.801 83.8002 145.457L81.158 141.019L81.8185 140.462C89.4768 134.001 91.7887 123.473 87.4745 114.886C86.2922 112.521 84.647 110.419 82.6364 108.703C80.6259 106.987 78.291 105.692 75.7704 104.895C73.066 104.027 70.2151 103.709 67.3858 103.961C64.5566 104.212 61.8066 105.028 59.298 106.361C48.8323 111.81 44.4561 124.505 49.5548 134.661ZM61.0112 109.87C63.0388 108.793 65.262 108.133 67.5491 107.932C69.836 107.729 72.1404 107.988 74.3254 108.693C76.3719 109.343 78.268 110.396 79.902 111.789C81.5362 113.182 82.8755 114.888 83.8415 116.805C87.9493 125.022 84.4608 135.281 76.0181 139.677C73.5271 140.981 70.759 141.668 67.947 141.679C66.1735 141.68 64.411 141.402 62.7245 140.854C60.6748 140.209 58.776 139.16 57.1411 137.766C55.5061 136.372 54.1686 134.663 53.2084 132.741C49.0801 124.526 52.5892 114.267 61.0112 109.87Z" fill="#3B79AF"/>
<path d="M90.5076 169.444L89.6406 169.836L90.8173 171.796C91.1468 172.336 91.6717 172.728 92.2829 172.891C92.8934 173.042 93.5394 172.946 94.0788 172.623L96.4113 171.239C96.946 170.91 97.3313 170.385 97.4854 169.776C97.6397 169.167 97.5505 168.522 97.237 167.978L95.9572 165.852C94.5535 167.235 92.4274 168.535 90.5076 169.444Z" fill="#3B79AF"/>
<path d="M53.2083 132.741C54.1685 134.663 55.5059 136.372 57.141 137.766C58.7759 139.16 60.6748 140.21 62.7244 140.854C64.4109 141.402 66.1734 141.681 67.9469 141.68C70.7589 141.668 73.5269 140.982 76.018 139.678C84.4606 135.281 87.9491 125.022 83.8414 116.806C82.8754 114.888 81.5361 113.182 79.9019 111.789C78.2678 110.396 76.3718 109.344 74.3253 108.694C72.1402 107.988 69.8359 107.73 67.5489 107.932C65.2618 108.133 63.0387 108.793 61.0111 109.869C52.5891 114.267 49.08 124.526 53.2083 132.741ZM69.0822 109.932C70.6445 109.936 72.1969 110.18 73.6854 110.654C75.4726 111.217 77.1283 112.136 78.5538 113.351C79.9794 114.568 81.1458 116.059 81.9836 117.735C85.6166 124.959 82.4996 133.98 75.0684 137.84C73.286 138.787 71.3325 139.367 69.3226 139.547C67.3127 139.729 65.287 139.505 63.3643 138.893C61.576 138.326 59.9187 137.408 58.4902 136.193C57.0616 134.976 55.8904 133.487 55.0455 131.813C53.8174 129.34 53.3232 126.568 53.6212 123.824H80.4973C81.0448 123.824 81.5699 123.607 81.9569 123.22C82.3441 122.833 82.5616 122.307 82.5616 121.76C82.5616 121.213 82.3441 120.688 81.9569 120.301C81.5699 119.914 81.0448 119.696 80.4973 119.696H54.674C56.0784 116.246 58.6703 113.413 61.9813 111.707C64.1703 110.551 66.6067 109.941 69.0822 109.932Z" fill="black"/>
<path d="M108.632 158.028C108.694 158.237 108.823 158.42 108.997 158.55C109.172 158.68 109.384 158.75 109.602 158.75C109.708 158.75 109.814 158.728 109.912 158.689C110.042 158.648 110.163 158.583 110.269 158.496C110.374 158.408 110.461 158.302 110.524 158.181C110.587 158.06 110.626 157.927 110.638 157.791C110.649 157.655 110.635 157.518 110.593 157.388C109.891 155.179 108.426 152.021 105.473 149.523C103.981 148.297 102.283 147.347 100.458 146.715C99.7111 146.461 98.9448 146.267 98.1665 146.137C97.5031 146 96.8775 145.719 96.3325 145.316C95.7874 144.915 95.3357 144.398 95.0082 143.806C94.4928 142.899 93.8765 142.055 93.171 141.287C92.1387 140.129 90.9085 139.165 89.538 138.439C89.2962 138.311 89.0146 138.284 88.7527 138.361C88.4908 138.439 88.2691 138.614 88.1343 138.851C88.0697 138.972 88.0297 139.103 88.0165 139.24C88.0034 139.376 88.0173 139.513 88.0577 139.644C88.098 139.774 88.1638 139.895 88.2515 140C88.339 140.105 88.4466 140.191 88.5678 140.255C89.723 140.879 90.7632 141.696 91.6434 142.67C92.2418 143.335 92.7677 144.061 93.2123 144.837C94.2444 146.613 95.9164 147.831 97.8155 148.16C98.4883 148.281 99.1509 148.455 99.7972 148.677C101.381 149.227 102.855 150.051 104.153 151.113C106.712 153.28 108.013 156.067 108.632 158.028Z" fill="black"/>
<path d="M251.826 47.7773C253.952 49.0777 256.883 51.3691 258.762 55.0227C260.103 57.6236 260.516 60.1213 260.785 61.7933C261.152 63.933 261.264 66.109 261.114 68.275C261.103 68.5476 261.198 68.8138 261.378 69.0179C261.56 69.222 261.812 69.3479 262.085 69.3691H262.146C262.41 69.3695 262.664 69.2693 262.856 69.0889C263.048 68.9085 263.162 68.6617 263.179 68.3989C263.32 66.0742 263.202 63.741 262.828 61.4425C262.539 59.6672 262.085 56.9631 260.599 54.0732C258.927 50.8529 256.264 48.0663 252.899 46.0227C252.782 45.9516 252.653 45.9042 252.518 45.8833C252.384 45.8624 252.246 45.8684 252.114 45.9011C251.981 45.9337 251.857 45.9922 251.746 46.0734C251.637 46.1545 251.545 46.2565 251.475 46.3736C251.404 46.4884 251.357 46.6162 251.336 46.7494C251.315 46.8825 251.322 47.0186 251.355 47.1493C251.387 47.2801 251.446 47.403 251.526 47.5108C251.608 47.6187 251.709 47.7093 251.826 47.7773Z" fill="white"/>
</svg>
