<svg width="194" height="66" viewBox="0 0 194 66" fill="none" xmlns="http://www.w3.org/2000/svg">
<rect width="194" height="66" fill="#1E1E1E"/>
<g clip-path="url(#clip0_0_1)">
<rect width="1600" height="2794" transform="translate(-63 -75)" fill="white"/>
<rect x="-65" y="19" width="1602" height="859" fill="#F1F1F1"/>
<g filter="url(#filter0_bd_0_1)">
<rect x="-63" y="-75" width="1600" height="160" fill="white" fill-opacity="0.7" shape-rendering="crispEdges"/>
</g>
<path opacity="0.66" d="M24.0765 52.4847L66.8627 24.9629C67.0196 24.8665 67.2078 25.0433 67.1294 25.2039L50.4572 57.7867C50.2846 58.108 49.9396 58.2847 49.5789 58.2365L24.3745 54.0592C23.6217 53.9307 23.4178 52.9025 24.0765 52.4847Z" fill="url(#paint0_linear_0_1)"/>
<path opacity="0.66" d="M66.9412 25.0743L27.8878 63.8587C27.2604 64.4852 27.8878 65.5617 28.719 65.2886L49.8455 58.4282C50.0494 58.3639 50.2376 58.2033 50.3317 58.0105L67.1137 25.2028C67.1764 25.1064 67.0353 24.994 66.9412 25.0743Z" fill="url(#paint1_linear_0_1)"/>
<path d="M61.1259 16.061C60.279 16.061 59.9653 17.1856 60.6868 17.6355L68.3563 22.4876C68.6543 22.6804 69.0307 22.6482 69.313 22.4233L75.3044 17.5712C75.9317 17.0732 75.571 16.0449 74.7868 16.0449H61.1259V16.061Z" fill="#004079"/>
<path opacity="0.64" d="M66.5328 24.256L1.11445 0.718719C0.298882 0.429524 -0.359862 1.44171 0.22045 2.10043L49.3744 57.4172C49.7665 57.851 50.4566 57.7706 50.7232 57.2404L66.9876 25.445C67.2229 24.9951 67.0033 24.4328 66.5328 24.256Z" fill="url(#paint2_linear_0_1)"/>
<path d="M93.2267 41.8011H100.112V45.2071H89.0391V23.8066H93.2267V41.8011Z" fill="#004079"/>
<path d="M103.046 25.4777C102.56 24.9957 102.309 24.4012 102.309 23.6782C102.309 22.9713 102.56 22.3608 103.046 21.8949C103.532 21.4129 104.144 21.1719 104.881 21.1719C105.618 21.1719 106.23 21.4129 106.716 21.8949C107.202 22.3769 107.453 22.9713 107.453 23.6782C107.453 24.4012 107.202 24.9957 106.716 25.4777C106.23 25.9597 105.618 26.2007 104.881 26.2007C104.159 26.2007 103.532 25.9597 103.046 25.4777ZM106.951 28.225V45.1912H102.763V28.225H106.951Z" fill="#004079"/>
<path d="M117.99 41.2384L122.177 28.2246H126.632L120.499 45.1908H115.417L109.316 28.2246H113.802L117.99 41.2384Z" fill="#004079"/>
<path d="M135.289 28.7399C136.152 28.2258 137.156 27.9688 138.269 27.9688V32.4674H137.156C135.838 32.4674 134.85 32.7887 134.176 33.4153C133.501 34.0419 133.172 35.1504 133.172 36.725V45.1759H128.984V28.2258H133.172V30.8607C133.721 29.961 134.427 29.2541 135.289 28.7399Z" fill="#004079"/>
<path d="M156.355 37.9932H144.246C144.34 39.2143 144.764 40.1782 145.501 40.8691C146.238 41.56 147.148 41.9134 148.23 41.9134C149.783 41.9134 150.896 41.2226 151.555 39.8569H156.072C155.586 41.4957 154.676 42.8292 153.327 43.8896C151.979 44.95 150.3 45.4641 148.34 45.4641C146.74 45.4641 145.313 45.0946 144.042 44.3716C142.772 43.6486 141.784 42.6203 141.078 41.2868C140.372 39.9533 140.012 38.427 140.012 36.6918C140.012 34.9406 140.357 33.3982 141.063 32.0647C141.753 30.7312 142.741 29.719 143.995 28.996C145.25 28.273 146.693 27.9196 148.34 27.9196C149.908 27.9196 151.32 28.273 152.575 28.9639C153.814 29.6547 154.786 30.6508 155.476 31.9201C156.166 33.1893 156.511 34.6675 156.511 36.3223C156.48 36.9489 156.449 37.5112 156.355 37.9932ZM152.151 35.1173C152.136 34.0087 151.743 33.1251 150.991 32.4664C150.238 31.8076 149.297 31.4702 148.214 31.4702C147.179 31.4702 146.301 31.7916 145.595 32.4342C144.889 33.0769 144.45 33.9766 144.293 35.1173H152.151ZM151.524 23.7423L144.638 26.9556V23.9029L151.524 20.2559V23.7423Z" fill="#004079"/>
<path d="M174.815 37.9936H162.707C162.801 39.2146 163.225 40.1786 163.962 40.8695C164.699 41.5603 165.609 41.9138 166.691 41.9138C168.244 41.9138 169.357 41.2229 170.016 39.8573H174.533C174.047 41.4961 173.137 42.8296 171.788 43.89C170.44 44.9503 168.761 45.4645 166.801 45.4645C165.201 45.4645 163.774 45.0949 162.503 44.372C161.233 43.649 160.245 42.6207 159.539 41.2872C158.833 39.9537 158.473 38.4274 158.473 36.6922C158.473 34.941 158.818 33.3986 159.523 32.0651C160.214 30.7316 161.202 29.7194 162.456 28.9964C163.711 28.2734 165.154 27.9199 166.801 27.9199C168.369 27.9199 169.781 28.2734 171.036 28.9642C172.275 29.6551 173.247 30.6512 173.937 31.9205C174.627 33.1897 174.972 34.6678 174.972 36.3227C174.941 36.9493 174.894 37.5116 174.815 37.9936ZM170.596 35.1177C170.581 34.0091 170.189 33.1254 169.436 32.4667C168.683 31.808 167.742 31.4706 166.66 31.4706C165.625 31.4706 164.746 31.7919 164.04 32.4346C163.335 33.0772 162.896 33.977 162.739 35.1177H170.596Z" fill="#004079"/>
<path d="M181.047 44.3856C179.776 43.6626 178.773 42.6344 178.035 41.3009C177.314 39.9674 176.938 38.441 176.938 36.7059C176.938 34.9707 177.314 33.4444 178.067 32.1109C178.82 30.7774 179.839 29.7491 181.125 29.0261C182.427 28.3031 183.87 27.9336 185.47 27.9336C187.069 27.9336 188.512 28.3031 189.798 29.0261C191.1 29.7491 192.12 30.7774 192.873 32.1109C193.625 33.4444 194.002 34.9707 194.002 36.7059C194.002 38.441 193.625 39.9674 192.857 41.3009C192.088 42.6344 191.053 43.6626 189.751 44.3856C188.45 45.1086 186.991 45.4781 185.376 45.4781C183.76 45.4781 182.317 45.1086 181.047 44.3856ZM187.493 41.1723C188.167 40.8028 188.701 40.2244 189.093 39.4693C189.485 38.7142 189.689 37.7984 189.689 36.7059C189.689 35.0992 189.281 33.846 188.45 32.9785C187.618 32.1109 186.615 31.6771 185.407 31.6771C184.215 31.6771 183.211 32.1109 182.396 32.9785C181.596 33.846 181.188 35.0832 181.188 36.7059C181.188 38.3125 181.58 39.5657 182.364 40.4333C183.148 41.3009 184.152 41.7347 185.344 41.7347C186.113 41.7347 186.818 41.5419 187.493 41.1723Z" fill="#004079"/>
<path d="M90.3098 55.887H92.1292V56.1601H89.9805V51.1152H90.2941V55.887H90.3098Z" fill="#004079"/>
<path d="M92.8993 53.1408C93.0562 52.8356 93.2758 52.6106 93.5581 52.45C93.8404 52.2893 94.154 52.209 94.4991 52.209C94.9069 52.209 95.2363 52.3054 95.5186 52.5143C95.8009 52.707 95.9891 52.9641 96.1146 53.2854V52.2733H96.4283V56.1613H96.1146V55.1331C96.0048 55.4544 95.8009 55.7115 95.5186 55.9043C95.2363 56.1131 94.8912 56.2095 94.4991 56.2095C94.1384 56.2095 93.8247 56.1292 93.5581 55.9685C93.2758 55.8079 93.0562 55.5669 92.8993 55.2616C92.7425 54.9563 92.6641 54.6029 92.6641 54.2012C92.6641 53.7996 92.7425 53.4461 92.8993 53.1408ZM95.895 53.3015C95.7538 53.0444 95.5656 52.8356 95.3304 52.691C95.0951 52.5464 94.8285 52.4821 94.5305 52.4821C94.2168 52.4821 93.9502 52.5464 93.7149 52.691C93.4796 52.8356 93.3071 53.0284 93.166 53.2854C93.0405 53.5425 92.9621 53.8478 92.9621 54.2012C92.9621 54.5547 93.0248 54.8599 93.166 55.117C93.2914 55.3741 93.4796 55.5669 93.7149 55.7115C93.9502 55.8561 94.2168 55.9203 94.5148 55.9203C94.8128 55.9203 95.0794 55.8561 95.3147 55.7115C95.5499 55.5669 95.7381 55.3741 95.8793 55.1009C96.0205 54.8278 96.0832 54.5386 96.0832 54.2012C96.0989 53.8638 96.0361 53.5586 95.895 53.3015Z" fill="#004079"/>
<path d="M100.347 52.4027C100.582 52.2581 100.88 52.1777 101.256 52.1777V52.5151H101.147C100.77 52.5151 100.457 52.6276 100.221 52.8365C99.9704 53.0453 99.8449 53.4148 99.8449 53.8968V56.1461H99.5312V52.2581H99.8449V53.0614C99.9547 52.7722 100.112 52.5633 100.347 52.4027Z" fill="#004079"/>
<path d="M105.412 54.3282H102.118C102.134 54.6817 102.197 54.9709 102.338 55.2119C102.479 55.4529 102.667 55.6296 102.887 55.7421C103.122 55.8546 103.373 55.9188 103.64 55.9188C104.016 55.9188 104.33 55.8224 104.581 55.6296C104.832 55.4368 104.989 55.1798 105.051 54.8584H105.381C105.302 55.2601 105.114 55.5814 104.8 55.8224C104.487 56.0634 104.095 56.1919 103.624 56.1919C103.263 56.1919 102.95 56.1116 102.667 55.951C102.385 55.7903 102.166 55.5493 102.009 55.244C101.852 54.9388 101.773 54.5853 101.773 54.1836C101.773 53.782 101.852 53.4285 102.009 53.1233C102.166 52.818 102.385 52.5931 102.667 52.4324C102.95 52.2717 103.263 52.1914 103.624 52.1914C103.985 52.1914 104.299 52.2717 104.581 52.4324C104.863 52.5931 105.051 52.8019 105.193 53.0751C105.334 53.3482 105.396 53.6213 105.396 53.9266C105.412 54.1194 105.412 54.2479 105.412 54.3282ZM104.926 53.1875C104.785 52.9465 104.612 52.7698 104.377 52.6573C104.142 52.5449 103.906 52.4806 103.64 52.4806C103.373 52.4806 103.122 52.5449 102.903 52.6573C102.683 52.7698 102.495 52.9465 102.354 53.1875C102.213 53.4285 102.134 53.7177 102.118 54.0712H105.098C105.114 53.7177 105.051 53.4285 104.926 53.1875Z" fill="#004079"/>
<path d="M109.19 52.6115C109.473 52.9007 109.614 53.3185 109.614 53.8808V56.1622H109.3V53.8968C109.3 53.4309 109.19 53.0775 108.955 52.8365C108.72 52.5955 108.422 52.4669 108.03 52.4669C107.622 52.4669 107.293 52.5955 107.042 52.8686C106.791 53.1417 106.681 53.5434 106.681 54.0575V56.1622H106.367V52.2741H106.681V53.0935C106.791 52.8043 106.963 52.5794 107.214 52.4187C107.465 52.2581 107.747 52.1777 108.077 52.1777C108.532 52.1777 108.908 52.3223 109.19 52.6115Z" fill="#004079"/>
<path d="M111.203 52.5466V55.1172C111.203 55.4064 111.25 55.5992 111.359 55.7117C111.454 55.8241 111.642 55.8723 111.908 55.8723H112.332V56.1615H111.861C111.532 56.1615 111.281 56.0812 111.124 55.9205C110.967 55.7599 110.889 55.4867 110.889 55.1172V52.5466H110.309V52.2735H110.889V51.2773H111.203V52.2735H112.332V52.5466H111.203Z" fill="#004079"/>
<path d="M113.976 52.4027C114.211 52.2581 114.509 52.1777 114.885 52.1777V52.5151H114.776C114.399 52.5151 114.086 52.6276 113.85 52.8365C113.599 53.0453 113.474 53.4148 113.474 53.8968V56.1461H113.16V52.2581H113.474V53.0614C113.568 52.7722 113.74 52.5633 113.976 52.4027Z" fill="#004079"/>
<path d="M119.025 54.3298H115.732C115.747 54.6833 115.81 54.9725 115.951 55.2134C116.092 55.4544 116.281 55.6312 116.5 55.7436C116.736 55.8561 116.986 55.9204 117.253 55.9204C117.63 55.9204 117.943 55.824 118.194 55.6312C118.445 55.4384 118.602 55.1813 118.665 54.86H118.994C118.916 55.2616 118.727 55.583 118.414 55.824C118.1 56.065 117.708 56.1935 117.237 56.1935C116.877 56.1935 116.563 56.1132 116.281 55.9525C115.998 55.7918 115.779 55.5508 115.622 55.2456C115.465 54.9403 115.387 54.5869 115.387 54.1852C115.387 53.7835 115.465 53.4301 115.622 53.1248C115.779 52.8195 115.998 52.5946 116.281 52.434C116.563 52.2733 116.877 52.193 117.237 52.193C117.598 52.193 117.912 52.2733 118.194 52.434C118.476 52.5946 118.665 52.8035 118.806 53.0766C118.947 53.3497 119.01 53.6229 119.01 53.9281C119.041 54.1209 119.041 54.2495 119.025 54.3298ZM118.555 53.1891C118.414 52.9481 118.241 52.7714 118.006 52.6589C117.771 52.5464 117.535 52.4822 117.269 52.4822C117.002 52.4822 116.751 52.5464 116.532 52.6589C116.312 52.7714 116.124 52.9481 115.983 53.1891C115.842 53.4301 115.763 53.7193 115.747 54.0727H118.727C118.743 53.7193 118.68 53.4301 118.555 53.1891ZM117.833 51.0522L116.453 51.9359V51.6628L117.833 50.7148V51.0522Z" fill="#004079"/>
<path d="M123.404 54.3282H120.111C120.126 54.6817 120.189 54.9709 120.33 55.2119C120.471 55.4529 120.66 55.6296 120.879 55.7421C121.114 55.8546 121.365 55.9188 121.632 55.9188C122.008 55.9188 122.322 55.8224 122.573 55.6296C122.824 55.4368 122.981 55.1798 123.044 54.8584H123.373C123.295 55.2601 123.106 55.5814 122.793 55.8224C122.479 56.0634 122.087 56.1919 121.616 56.1919C121.256 56.1919 120.942 56.1116 120.66 55.951C120.377 55.7903 120.158 55.5493 120.001 55.244C119.844 54.9388 119.766 54.5853 119.766 54.1836C119.766 53.782 119.844 53.4285 120.001 53.1233C120.158 52.818 120.377 52.5931 120.66 52.4324C120.942 52.2717 121.256 52.1914 121.616 52.1914C121.977 52.1914 122.291 52.2717 122.573 52.4324C122.855 52.5931 123.044 52.8019 123.185 53.0751C123.326 53.3482 123.389 53.6213 123.389 53.9266C123.42 54.1194 123.42 54.2479 123.404 54.3282ZM122.934 53.1875C122.793 52.9465 122.62 52.7698 122.385 52.6573C122.15 52.5449 121.914 52.4806 121.648 52.4806C121.381 52.4806 121.13 52.5449 120.911 52.6573C120.691 52.7698 120.503 52.9465 120.362 53.1875C120.22 53.4285 120.142 53.7177 120.126 54.0712H123.106C123.122 53.7177 123.059 53.4285 122.934 53.1875Z" fill="#004079"/>
<path d="M129.175 52.6115C129.457 52.9007 129.598 53.3185 129.598 53.8808V56.1622H129.284V53.8968C129.284 53.4309 129.175 53.0775 128.939 52.8365C128.704 52.5955 128.406 52.4669 128.014 52.4669C127.606 52.4669 127.277 52.5955 127.026 52.8686C126.775 53.1417 126.665 53.5434 126.665 54.0575V56.1622H126.352V52.2741H126.665V53.0935C126.775 52.8043 126.948 52.5794 127.199 52.4187C127.449 52.2581 127.732 52.1777 128.061 52.1777C128.516 52.1777 128.892 52.3223 129.175 52.6115Z" fill="#004079"/>
<path d="M131.433 55.9685C131.151 55.8079 130.931 55.5669 130.759 55.2616C130.602 54.9563 130.523 54.6029 130.523 54.2012C130.523 53.7996 130.602 53.4461 130.774 53.1408C130.931 52.8356 131.166 52.6106 131.449 52.45C131.731 52.2893 132.06 52.209 132.406 52.209C132.766 52.209 133.08 52.2893 133.362 52.45C133.645 52.6106 133.864 52.8356 134.037 53.1408C134.209 53.4461 134.272 53.7996 134.272 54.2012C134.272 54.6029 134.194 54.9563 134.021 55.2616C133.864 55.5669 133.629 55.7918 133.347 55.9685C133.064 56.1292 132.735 56.2095 132.39 56.2095C132.029 56.2095 131.715 56.1292 131.433 55.9685ZM133.158 55.7436C133.394 55.6151 133.598 55.4223 133.739 55.1652C133.88 54.9081 133.958 54.5868 133.958 54.2173C133.958 53.8478 133.88 53.5264 133.739 53.2694C133.598 53.0123 133.409 52.8195 133.158 52.691C132.923 52.5624 132.656 52.4982 132.39 52.4982C132.123 52.4982 131.857 52.5624 131.621 52.691C131.386 52.8195 131.198 53.0123 131.057 53.2694C130.916 53.5264 130.837 53.8478 130.837 54.2173C130.837 54.5868 130.916 54.9081 131.057 55.1652C131.198 55.4223 131.386 55.6151 131.621 55.7436C131.857 55.8721 132.108 55.9364 132.39 55.9364C132.656 55.9203 132.923 55.8561 133.158 55.7436Z" fill="#004079"/>
<path d="M138.442 52.2563V56.1444H138.128V55.2929C138.019 55.5821 137.846 55.823 137.595 55.9676C137.344 56.1283 137.062 56.2086 136.732 56.2086C136.278 56.2086 135.917 56.064 135.619 55.7749C135.337 55.4857 135.18 55.0679 135.18 54.5056V52.2402H135.493V54.4895C135.493 54.9555 135.603 55.3089 135.838 55.5499C136.074 55.7909 136.372 55.9194 136.764 55.9194C137.172 55.9194 137.501 55.7909 137.752 55.5178C138.003 55.2447 138.113 54.8591 138.113 54.3289V52.2402H138.442V52.2563Z" fill="#004079"/>
<path d="M140.889 55.8065L142.285 52.2559H142.615L141.046 56.1439H140.717L139.148 52.2559H139.493L140.889 55.8065Z" fill="#004079"/>
<path d="M146.725 54.3282H143.431C143.447 54.6817 143.509 54.9709 143.651 55.2119C143.792 55.4529 143.98 55.6296 144.199 55.7421C144.435 55.8546 144.686 55.9188 144.952 55.9188C145.329 55.9188 145.642 55.8224 145.893 55.6296C146.144 55.4368 146.301 55.1798 146.364 54.8584H146.693C146.615 55.2601 146.427 55.5814 146.113 55.8224C145.799 56.0634 145.407 56.1919 144.937 56.1919C144.576 56.1919 144.262 56.1116 143.98 55.951C143.698 55.7903 143.478 55.5493 143.321 55.244C143.164 54.9388 143.086 54.5853 143.086 54.1836C143.086 53.782 143.164 53.4285 143.321 53.1233C143.478 52.818 143.698 52.5931 143.98 52.4324C144.262 52.2717 144.576 52.1914 144.937 52.1914C145.297 52.1914 145.611 52.2717 145.893 52.4324C146.176 52.5931 146.364 52.8019 146.505 53.0751C146.646 53.3482 146.709 53.6213 146.709 53.9266C146.74 54.1194 146.74 54.2479 146.725 54.3282ZM146.238 53.1875C146.097 52.9465 145.925 52.7698 145.69 52.6573C145.454 52.5449 145.219 52.4806 144.952 52.4806C144.686 52.4806 144.435 52.5449 144.215 52.6573C143.996 52.7698 143.807 52.9465 143.666 53.1875C143.525 53.4285 143.447 53.7177 143.431 54.0712H146.411C146.442 53.7177 146.38 53.4285 146.238 53.1875Z" fill="#004079"/>
<path d="M148.017 50.8418V56.1437H147.703V50.8418H148.017Z" fill="#004079"/>
<path d="M149.47 50.8418V56.1437H149.156V50.8418H149.47Z" fill="#004079"/>
<path d="M154.053 54.3282H150.759C150.775 54.6817 150.838 54.9709 150.979 55.2119C151.12 55.4529 151.308 55.6296 151.528 55.7421C151.763 55.8546 152.014 55.9188 152.28 55.9188C152.657 55.9188 152.971 55.8224 153.222 55.6296C153.472 55.4368 153.629 55.1798 153.692 54.8584H154.021C153.943 55.2601 153.755 55.5814 153.441 55.8224C153.127 56.0634 152.735 56.1919 152.265 56.1919C151.904 56.1919 151.59 56.1116 151.308 55.951C151.026 55.7903 150.806 55.5493 150.649 55.244C150.493 54.9388 150.414 54.5853 150.414 54.1836C150.414 53.782 150.493 53.4285 150.649 53.1233C150.806 52.818 151.026 52.5931 151.308 52.4324C151.59 52.2717 151.904 52.1914 152.265 52.1914C152.626 52.1914 152.939 52.2717 153.222 52.4324C153.488 52.5931 153.692 52.8019 153.833 53.0751C153.974 53.3482 154.037 53.6213 154.037 53.9266C154.053 54.1194 154.053 54.2479 154.053 54.3282ZM153.567 53.1875C153.425 52.9465 153.253 52.7698 153.018 52.6573C152.782 52.5449 152.547 52.4806 152.28 52.4806C152.014 52.4806 151.763 52.5449 151.543 52.6573C151.324 52.7698 151.136 52.9465 150.994 53.1875C150.853 53.4285 150.775 53.7177 150.759 54.0712H153.739C153.755 53.7177 153.692 53.4285 153.567 53.1875Z" fill="#004079"/>
<path d="M159.648 52.5155C159.93 52.7083 160.118 52.9654 160.244 53.2867V52.2745H160.557V56.2911C160.557 56.6446 160.479 56.9659 160.322 57.2391C160.165 57.5122 159.961 57.721 159.695 57.8656C159.428 58.0102 159.146 58.0906 158.816 58.0906C158.346 58.0906 157.954 57.9781 157.64 57.7371C157.326 57.4961 157.122 57.1909 157.028 56.7892H157.342C157.436 57.0945 157.609 57.3515 157.86 57.5283C158.11 57.705 158.44 57.8014 158.816 57.8014C159.083 57.8014 159.318 57.7371 159.538 57.6247C159.757 57.4961 159.914 57.3355 160.04 57.0945C160.165 56.8695 160.228 56.5964 160.228 56.2911V55.1504C160.118 55.4557 159.914 55.7127 159.632 55.9216C159.35 56.1305 159.005 56.2269 158.612 56.2269C158.252 56.2269 157.938 56.1465 157.671 55.9859C157.389 55.8252 157.169 55.5842 157.013 55.2789C156.856 54.9737 156.777 54.6202 156.777 54.2186C156.777 53.8169 156.856 53.4634 157.013 53.1582C157.169 52.8529 157.389 52.628 157.671 52.4673C157.954 52.3067 158.267 52.2263 158.612 52.2263C159.02 52.2103 159.365 52.3067 159.648 52.5155ZM160.024 53.3028C159.883 53.0457 159.695 52.8369 159.459 52.6923C159.224 52.5477 158.957 52.4834 158.659 52.4834C158.346 52.4834 158.079 52.5477 157.844 52.6923C157.609 52.8369 157.436 53.0297 157.295 53.2867C157.169 53.5438 157.091 53.849 157.091 54.2025C157.091 54.556 157.154 54.8612 157.295 55.1183C157.42 55.3754 157.609 55.5681 157.844 55.7127C158.079 55.8573 158.346 55.9216 158.644 55.9216C158.942 55.9216 159.208 55.8573 159.444 55.7127C159.679 55.5681 159.867 55.3753 160.008 55.1022C160.149 54.8452 160.212 54.5399 160.212 54.2025C160.228 53.8651 160.165 53.5598 160.024 53.3028Z" fill="#004079"/>
<path d="M165.104 54.3298H161.81C161.826 54.6833 161.888 54.9725 162.029 55.2134C162.171 55.4544 162.359 55.6312 162.578 55.7436C162.814 55.8561 163.065 55.9204 163.331 55.9204C163.708 55.9204 164.021 55.824 164.272 55.6312C164.523 55.4384 164.68 55.1813 164.743 54.86H165.072C164.994 55.2616 164.806 55.583 164.492 55.824C164.178 56.065 163.786 56.1935 163.316 56.1935C162.955 56.1935 162.641 56.1132 162.359 55.9525C162.077 55.7918 161.857 55.5508 161.7 55.2456C161.543 54.9403 161.465 54.5869 161.465 54.1852C161.465 53.7835 161.543 53.4301 161.7 53.1248C161.857 52.8195 162.077 52.5946 162.359 52.434C162.641 52.2733 162.955 52.193 163.316 52.193C163.676 52.193 163.99 52.2733 164.272 52.434C164.539 52.5946 164.743 52.8035 164.884 53.0766C165.025 53.3497 165.088 53.6229 165.088 53.9281C165.119 54.1209 165.119 54.2495 165.104 54.3298ZM164.633 53.1891C164.492 52.9481 164.319 52.7714 164.084 52.6589C163.849 52.5464 163.614 52.4822 163.347 52.4822C163.08 52.4822 162.829 52.5464 162.61 52.6589C162.39 52.7714 162.202 52.9481 162.061 53.1891C161.92 53.4301 161.841 53.7193 161.826 54.0727H164.806C164.821 53.7193 164.758 53.4301 164.633 53.1891ZM163.912 51.0522L162.531 51.9359V51.6628L163.912 50.7148V51.0522Z" fill="#004079"/>
<path d="M168.897 52.6115C169.18 52.9007 169.321 53.3185 169.321 53.8808V56.1622H169.007V53.8968C169.007 53.4309 168.897 53.0775 168.662 52.8365C168.427 52.5955 168.129 52.4669 167.737 52.4669C167.329 52.4669 167 52.5955 166.749 52.8686C166.498 53.1417 166.388 53.5434 166.388 54.0575V56.1622H166.074V52.2741H166.388V53.0935C166.498 52.8043 166.67 52.5794 166.921 52.4187C167.172 52.2581 167.454 52.1777 167.784 52.1777C168.239 52.1777 168.615 52.3223 168.897 52.6115Z" fill="#004079"/>
<path d="M173.846 54.3298H170.552C170.568 54.6833 170.63 54.9725 170.772 55.2134C170.913 55.4544 171.101 55.6312 171.321 55.7436C171.556 55.8561 171.807 55.9204 172.073 55.9204C172.45 55.9204 172.764 55.824 173.014 55.6312C173.265 55.4384 173.422 55.1813 173.485 54.86H173.814C173.736 55.2616 173.548 55.583 173.234 55.824C172.92 56.065 172.528 56.1935 172.058 56.1935C171.697 56.1935 171.383 56.1132 171.101 55.9525C170.819 55.7918 170.599 55.5508 170.442 55.2456C170.285 54.9403 170.207 54.5869 170.207 54.1852C170.207 53.7835 170.285 53.4301 170.442 53.1248C170.599 52.8195 170.819 52.5946 171.101 52.434C171.383 52.2733 171.697 52.193 172.058 52.193C172.418 52.193 172.732 52.2733 173.014 52.434C173.297 52.5946 173.485 52.8035 173.626 53.0766C173.767 53.3497 173.83 53.6229 173.83 53.9281C173.861 54.1209 173.861 54.2495 173.846 54.3298ZM173.375 53.1891C173.234 52.9481 173.062 52.7714 172.826 52.6589C172.591 52.5464 172.356 52.4822 172.089 52.4822C171.822 52.4822 171.572 52.5464 171.352 52.6589C171.132 52.7714 170.944 52.9481 170.803 53.1891C170.662 53.4301 170.583 53.7193 170.568 54.0727H173.548C173.563 53.7193 173.501 53.4301 173.375 53.1891ZM172.669 51.0522L171.289 51.9359V51.6628L172.669 50.7148V51.0522Z" fill="#004079"/>
<path d="M175.632 52.4027C175.867 52.2581 176.165 52.1777 176.542 52.1777V52.5151H176.432C176.055 52.5151 175.742 52.6276 175.507 52.8365C175.256 53.0453 175.13 53.4148 175.13 53.8968V56.1461H174.816V52.2581H175.13V53.0614C175.224 52.7722 175.397 52.5633 175.632 52.4027Z" fill="#004079"/>
<path d="M177.313 53.1408C177.47 52.8356 177.69 52.6106 177.972 52.45C178.254 52.2893 178.568 52.209 178.913 52.209C179.321 52.209 179.65 52.3054 179.933 52.5143C180.215 52.7231 180.403 52.9641 180.529 53.2854V52.2733H180.842V56.1613H180.529V55.1331C180.419 55.4544 180.215 55.7115 179.933 55.9043C179.65 56.1131 179.305 56.2095 178.913 56.2095C178.552 56.2095 178.239 56.1292 177.972 55.9685C177.69 55.8079 177.47 55.5669 177.313 55.2616C177.157 54.9563 177.078 54.6029 177.078 54.2012C177.078 53.7996 177.157 53.4461 177.313 53.1408ZM180.309 53.3015C180.168 53.0444 179.98 52.8356 179.744 52.691C179.509 52.5464 179.243 52.4821 178.945 52.4821C178.631 52.4821 178.364 52.5464 178.129 52.691C177.894 52.8356 177.721 53.0284 177.58 53.2854C177.455 53.5425 177.376 53.8478 177.376 54.2012C177.376 54.5547 177.439 54.8599 177.58 55.117C177.706 55.3741 177.894 55.5669 178.129 55.7115C178.364 55.8561 178.631 55.9203 178.929 55.9203C179.227 55.9203 179.493 55.8561 179.729 55.7115C179.964 55.5669 180.152 55.3741 180.293 55.1009C180.435 54.8439 180.497 54.5386 180.497 54.2012C180.529 53.8638 180.45 53.5586 180.309 53.3015Z" fill="#004079"/>
<path d="M182.453 52.5466V55.1172C182.453 55.4064 182.5 55.5992 182.609 55.7117C182.704 55.8241 182.892 55.8723 183.158 55.8723H183.582V56.1615H183.111C182.782 56.1615 182.531 56.0812 182.374 55.9205C182.217 55.7599 182.139 55.4867 182.139 55.1172V52.5466H181.559V52.2735H182.139V51.2773H182.453V52.2735H183.582V52.5466H182.453Z" fill="#004079"/>
<path d="M184.379 51.3101C184.332 51.2619 184.301 51.1977 184.301 51.1013C184.301 51.0209 184.332 50.9567 184.379 50.9085C184.426 50.8603 184.489 50.8281 184.567 50.8281C184.646 50.8281 184.709 50.8603 184.756 50.9085C184.803 50.9567 184.834 51.0209 184.834 51.1013C184.834 51.1816 184.803 51.2619 184.756 51.3101C184.709 51.3583 184.646 51.3905 184.567 51.3905C184.489 51.3905 184.426 51.3744 184.379 51.3101ZM184.724 52.258V56.1461H184.411V52.258H184.724Z" fill="#004079"/>
<path d="M186.593 55.9685C186.311 55.8079 186.091 55.5669 185.919 55.2616C185.762 54.9563 185.684 54.6029 185.684 54.2012C185.684 53.7996 185.762 53.4461 185.935 53.1408C186.107 52.8356 186.327 52.6106 186.609 52.45C186.891 52.2893 187.221 52.209 187.566 52.209C187.926 52.209 188.24 52.2893 188.522 52.45C188.805 52.6106 189.024 52.8356 189.197 53.1408C189.354 53.4461 189.432 53.7996 189.432 54.2012C189.432 54.6029 189.354 54.9563 189.181 55.2616C189.024 55.5669 188.789 55.7918 188.507 55.9685C188.224 56.1292 187.895 56.2095 187.55 56.2095C187.205 56.2095 186.876 56.1292 186.593 55.9685ZM188.334 55.7436C188.569 55.6151 188.773 55.4223 188.915 55.1652C189.056 54.9081 189.134 54.5868 189.134 54.2173C189.134 53.8478 189.056 53.5264 188.915 53.2694C188.773 53.0123 188.585 52.8195 188.334 52.691C188.099 52.5624 187.832 52.4982 187.566 52.4982C187.299 52.4982 187.032 52.5624 186.797 52.691C186.562 52.8195 186.374 53.0123 186.232 53.2694C186.091 53.5264 186.013 53.8478 186.013 54.2173C186.013 54.5868 186.091 54.9081 186.232 55.1652C186.374 55.4223 186.562 55.6151 186.797 55.7436C187.032 55.8721 187.283 55.9364 187.566 55.9364C187.832 55.9203 188.083 55.8561 188.334 55.7436Z" fill="#004079"/>
<path d="M193.229 52.6115C193.512 52.9007 193.653 53.3185 193.653 53.8808V56.1622H193.339V53.8968C193.339 53.4309 193.229 53.0775 192.994 52.8365C192.759 52.5955 192.461 52.4669 192.069 52.4669C191.661 52.4669 191.332 52.5955 191.081 52.8686C190.83 53.1417 190.72 53.5434 190.72 54.0575V56.1622H190.406V52.2741H190.72V53.0935C190.83 52.8043 191.002 52.5794 191.253 52.4187C191.504 52.2581 191.786 52.1777 192.116 52.1777C192.571 52.1777 192.947 52.3223 193.229 52.6115Z" fill="#004079"/>
</g>
<defs>
<filter id="filter0_bd_0_1" x="-127" y="-135" width="1728" height="288" filterUnits="userSpaceOnUse" color-interpolation-filters="sRGB">
<feFlood flood-opacity="0" result="BackgroundImageFix"/>
<feGaussianBlur in="BackgroundImageFix" stdDeviation="7"/>
<feComposite in2="SourceAlpha" operator="in" result="effect1_backgroundBlur_0_1"/>
<feColorMatrix in="SourceAlpha" type="matrix" values="0 0 0 0 0 0 0 0 0 0 0 0 0 0 0 0 0 0 127 0" result="hardAlpha"/>
<feOffset dy="4"/>
<feGaussianBlur stdDeviation="32"/>
<feComposite in2="hardAlpha" operator="out"/>
<feColorMatrix type="matrix" values="0 0 0 0 0 0 0 0 0 0 0 0 0 0 0 0 0 0 0.16 0"/>
<feBlend mode="normal" in2="effect1_backgroundBlur_0_1" result="effect2_dropShadow_0_1"/>
<feBlend mode="normal" in="SourceGraphic" in2="effect2_dropShadow_0_1" result="shape"/>
</filter>
<linearGradient id="paint0_linear_0_1" x1="23.6788" y1="41.5867" x2="67.1435" y2="41.5867" gradientUnits="userSpaceOnUse">
<stop stop-color="#00B8D0"/>
<stop offset="0.19" stop-color="#009CBB"/>
<stop offset="0.5559" stop-color="#006A98"/>
<stop offset="0.8341" stop-color="#004C81"/>
<stop offset="0.99" stop-color="#004079"/>
<stop offset="1" stop-color="#004079"/>
</linearGradient>
<linearGradient id="paint1_linear_0_1" x1="27.6259" y1="45.1948" x2="67.1311" y2="45.1948" gradientUnits="userSpaceOnUse">
<stop stop-color="#00B8D0"/>
<stop offset="0.19" stop-color="#009CBB"/>
<stop offset="0.5559" stop-color="#006A98"/>
<stop offset="0.8341" stop-color="#004C81"/>
<stop offset="0.99" stop-color="#004079"/>
<stop offset="1" stop-color="#004079"/>
</linearGradient>
<linearGradient id="paint2_linear_0_1" x1="-0.00979085" y1="29.1917" x2="67.086" y2="29.1917" gradientUnits="userSpaceOnUse">
<stop stop-color="#004079"/>
<stop offset="0.0881" stop-color="#004079"/>
<stop offset="0.2212" stop-color="#00487F"/>
<stop offset="0.4265" stop-color="#005E8E"/>
<stop offset="0.6784" stop-color="#0081A8"/>
<stop offset="0.965" stop-color="#00B2CB"/>
<stop offset="0.9993" stop-color="#00B8D0"/>
</linearGradient>
<clipPath id="clip0_0_1">
<rect width="1600" height="2794" fill="white" transform="translate(-63 -75)"/>
</clipPath>
</defs>
</svg>
